<svg width="1036" height="545" viewBox="0 0 1036 545" fill="none" xmlns="http://www.w3.org/2000/svg">
<g clip-path="url(#clip0_510_66796)">
<path d="M135.36 66.24L152.82 56.16L134.98 68.76L155.98 56.64C155.98 56.64 175.74 46.78 176.06 47.36C176.2 47.6 220.32 21.82 220.32 21.82C220.32 21.82 191.56 40.12 191.82 40.58C191.82 40.62 209.9 30.14 209.9 30.14L133.84 76.36C134.02 76.66 165.32 57.74 165.52 58.08L173.26 55.92C173.44 56.24 269.82 0.100021 269.86 0.160021C269.86 0.160021 34.6801 131.3 37.6801 136.52L241.92 18.58L153.96 71.66C154.2 72.06 202.48 42.96 202.78 43.48C202.78 43.48 33.7801 134.76 37.5001 141.22L225.58 32.64C226.9 34.92 130.22 86 131.96 89C131.96 89 181.22 60.14 181.4 60.46C182.62 62.56 106.8 105.84 106.8 105.84C107.24 106.6 212.9 44.58 212.9 44.58C212.9 44.58 97.7401 113.32 97.7601 113.36C97.7601 113.36 249.54 24.14 250.22 25.34C250.9 26.54 86.7601 115.86 89.4201 120.48C89.5201 120.66 176.1 68.96 176.74 70.06C176.98 70.46 77.7001 129.54 77.7001 129.54C78.4201 130.78 95.6401 117.5 96.3801 118.76C96.3801 118.76 129.36 100.46 130.04 101.64C130.84 103 197.26 62.84 197.26 62.84C198.68 65.28 133.7 99.98 134.52 101.38L242.54 39.02C242.7 39.3 170.34 79.32 171.94 82.08C172.74 83.46 176.86 79 176.96 79.18C176.96 79.18 61.7001 145.36 62.8601 147.36L275.6 24.54C275.6 24.54 23.6601 162.84 27.7601 169.94C28.6801 171.54 222.58 57.14 222.72 57.38C222.72 57.38 113.28 119.48 114.74 122.02C114.74 122.02 123.72 115.28 124.4 116.44C124.64 116.86 198.38 74.28 199.14 75.6L319.78 5.96002L40.4001 169.56C40.7801 170.24 231.12 57.04 232.16 58.84L154.24 106.14C154.24 106.14 268.94 38.2 269.68 39.48C271.98 43.46 19.6801 186.12 19.6801 186.12C20.4001 187.38 133.84 116.68 135.38 119.32C136.1 120.56 98.3001 143.04 98.3001 143.04C98.3001 143.04 256.88 49.38 257.8 50.96C257.8 50.96 49.6601 164.6 53.4801 171.22C53.6201 171.46 323.4 15.38 323.4 15.38C323.76 16 35.6401 170.72 41.3201 180.56C41.3201 180.56 219.6 74.72 220.86 76.9C222.76 80.18 105.82 145.62 105.82 145.62C106.94 147.54 275.36 47.74 275.36 47.74C278.68 53.48 92.9801 148.72 95.8601 153.68C97.6401 156.78 268.98 53.72 268.98 53.72L124.38 139.52C124.38 139.52 244.56 69.3 244.92 69.92C245.08 70.18 147.44 125.6 148.7 127.78C148.7 127.78 172.22 109.1 174.44 112.92C174.44 112.92 191.02 104.84 191.36 105.46C191.36 105.46 276.68 54.8 277.28 55.86C278.14 57.36 42.9801 193.44 42.9801 193.44C44.2201 195.6 240.78 79.24 240.78 79.24L63.1601 184.14C64.0201 185.62 281.22 55.14 282.56 57.46C282.88 58 201.58 105.1 202.2 106.18C202.2 106.18 201.7 103.76 202.86 105.8C203.2 106.4 158.98 133.44 158.98 133.44C159.12 133.68 186.24 114.3 187.72 116.84C187.88 117.12 204.2 109.64 204.2 109.64C204.2 109.64 297.22 54.66 297.76 55.62L170.36 131.48C170.36 131.48 182.94 119.28 185.08 122.98C187.02 126.34 98.6401 175.2 98.6401 175.2L211.92 109.8C211.92 109.8 204.66 116.2 204.7 116.28C204.7 116.28 259.3 83.52 259.84 84.44C262.78 89.52 20.7201 214.78 25.0601 222.3C25.2001 222.52 244.32 91.08 246.32 94.56C246.32 94.56 70.7601 190.66 74.0401 196.34C76.2001 200.08 341.28 35.18 344.26 40.32C345.22 42 121.74 169.8 122.3 170.78C124.04 173.82 303.56 62 305.36 65.1C307.16 68.2 111.78 172.14 114.82 177.42C114.82 177.42 258.3 91.54 259.62 93.82C261.12 96.42 91.6801 186.86 94.3801 191.54C94.3801 191.54 272.44 86.26 273.52 88.12C275.88 92.2 30.1201 228.48 31.1801 230.34L367.68 36.04C367.68 36.04 48.9201 219.44 50.2001 221.64C50.2001 221.64 278.86 89.16 279.06 89.52L181.78 148C183.1 150.28 326.06 64.7 326.06 64.7L166.08 159.38C166.08 159.38 288.68 88.58 288.68 88.6C288.68 88.6 20.3601 239.98 22.8801 244.36C23.3401 245.18 322.64 70.24 323.1 71.04C327.04 77.86 52.2601 229.72 52.2601 229.72C52.2601 229.72 410.7 18.34 412.62 21.66L33.8401 242.64C33.8401 242.64 261.44 103.44 264.82 109.28C265.42 110.32 173.82 163.16 174.24 163.88C174.4 164.16 344.54 65.56 344.54 65.56L70.5801 226.04C70.5801 226.04 270.72 104.76 273.2 109.06C273.24 109.14 171.7 169.96 171.7 169.96C171.7 169.96 249.66 124.84 249.7 124.92C250.22 125.8 136.08 189.36 137.58 191.96C137.58 191.96 273.22 109.1 275.18 112.52C277.72 116.92 112.62 206.98 113.36 208.26C114.4 210.08 385.74 51 385.74 51C385.74 51 138.82 191.4 140.76 194.76C140.76 194.76 420.48 31.56 421.22 32.84C424.52 38.54 213.3 145.24 217.62 152.7C218.98 155.06 326.74 89.7 326.74 89.7C326.74 89.7 99.0201 221.56 99.8601 223C99.8601 223 414.94 31.82 418.96 38.76C418.96 38.76 129.44 200 133 206.18L258 134C258.44 134.78 153.6 193.56 154.92 195.82C159.64 203.98 304.06 109.72 304.06 109.72C307.62 115.88 76.7001 243.3 76.7001 243.3C76.7001 243.3 317.54 99.24 319.7 103L31.5801 271.66C31.5801 271.66 327.7 100 328 100.52C328 100.52 152.7 198 155.32 202.52C159.64 210.02 373.68 76.44 373.68 76.44C374.24 77.4 84.7201 245.58 84.7201 245.58C84.9601 245.98 298.98 116.4 301.36 120.5L128.5 222.6C128.5 222.6 281.7 121.64 287.12 131.02C287.12 131.02 173.32 195.86 174.68 198.24C174.68 198.24 323.52 108.64 325.1 111.4L150.24 214.66C152.38 218.36 311.62 112.32 315.58 119.2C319.98 126.82 2.98012 297.7 4.86012 300.94C9.40012 308.8 460.36 37.96 460.36 37.96C465.54 46.94 53.0001 275.46 53.0001 275.46C53.7401 276.76 411.86 68.28 411.86 68.28C414.46 72.8 113.94 242.6 113.94 242.6C115.34 245.04 300.24 135.04 300.24 135.04L161.64 217.38C161.64 217.38 280.32 137.16 285.4 145.94L83.1401 265.02C89.0601 275.26 334.42 119.94 334.42 119.94C337.14 124.66 7.74012 305.52 10.0601 309.52L335.28 121.72C335.38 121.9 76.6601 271.58 77.4201 272.9C82.7001 282.06 308 138.62 308.5 139.48L145.08 236.14C145.08 236.14 312.3 132.1 315.54 137.72L166.08 226.32C166.08 226.32 418.12 77.26 419.66 79.92C419.66 79.92 116.5 255.52 117.24 256.82C117.54 257.36 354.54 107.74 359.76 116.8C363.8 123.8 62.6201 287.68 63.9001 289.92L306.5 149.86C306.5 149.86 -6.03988 318.14 0.240117 329C0.240117 329 431.48 75.6 433.4 78.92C434.52 80.86 5.42012 309.9 13.4001 323.72C14.7001 325.98 511.2 36.32 511.2 36.32C511.2 36.32 49.7001 285.48 58.1801 300.18L458.32 69.16C463.18 77.56 159.14 244.2 159.14 244.2C162.22 249.54 415.66 96.1 415.66 96.1L72.1801 296.72C72.1801 296.72 341.22 127.8 347.1 137.98C351.16 145 50.4601 304.22 53.6401 309.72C57.9201 317.12 502.68 50.46 502.68 50.46L116.36 275.84C120.54 283.1 440.64 88.62 440.64 88.62C440.64 88.62 137.04 254.8 141.98 263.36L417.34 104.36L142.36 265.42C142.82 266.2 333.82 143.74 338.64 152.1L64.1401 312.9L455.08 87.18C455.08 87.18 92.3601 285.54 98.1601 295.58C104.74 306.98 437.08 99.9 437.08 99.9C437.54 100.68 21.1001 333.16 25.1001 340.06C25.1001 340.06 513.26 56.14 514.16 57.7L191.18 246.5C193.76 250.96 430.66 108.24 430.66 108.24C435.04 115.82 157.56 268.22 157.56 268.22C161.28 274.68 517.9 60.18 517.9 60.18L16.9401 351.7C16.9401 351.7 538.18 49.7 538.64 50.5C549.04 68.52 59.4601 329.46 59.4601 329.46L557.34 42L92.6401 312.62L370.62 152.14L188.96 259.34C188.96 259.34 532.56 54.4 535.38 59.3C535.38 59.3 67.7601 313.78 75.4801 327.14C75.4801 327.14 464.88 83.82 472.88 97.7C475.56 102.34 129.74 298.12 129.74 298.12C136.48 309.8 419.44 130.86 419.44 130.86C421.42 134.28 12.7001 350.1 20.4401 363.52C22.8801 367.76 503.02 76.18 506.8 82.72C508.16 85.08 30.8601 353.62 33.5401 358.26L566.2 50.74C566.2 50.74 158.86 267.1 168 282.94C168 282.94 512.72 74.7 516.72 81.6C525.82 97.34 76.9001 337.84 76.9001 337.84C81.1601 345.24 427.2 127.32 430.78 133.52L14.2801 376.32L514.84 87.32C519.58 95.54 60.6001 329.68 70.2201 346.32C74.7601 354.18 428.92 136.66 430.04 138.58C430.04 138.58 89.1801 335.56 90.1201 337.14L445 132.24L15.6001 382.5C18.0201 386.68 477.8 115.66 477.8 115.66C484.54 127.34 50.5201 351.62 56.1601 361.4L559.7 70.66L25.4201 381.44C25.4201 381.44 581.66 55.56 583.7 59.12C583.7 59.12 23.6201 362.72 33.1801 379.28L507.76 105.28C518.22 123.42 30.9801 373.4 35.0601 380.5C37.1201 384.06 546.72 83 547.62 84.58C554.4 96.32 177.76 296.24 179.58 299.38C179.58 299.38 556.2 65.22 563.44 77.76C575.72 99 14.3201 377.28 22.9001 392.14L507.56 112.32L189.42 298.3C193.82 305.92 591.1 66.38 591.1 66.38L69.3001 369.96C73.6601 377.5 458.14 145.46 458.14 145.46C458.32 145.78 19.0201 380.38 28.0801 396.06L445.08 155.32L61.1201 379.3L555.58 93.82L117.86 348.86C118.66 350.26 472.18 124.82 480.6 139.44C482.16 142.14 180.82 306.24 184.54 312.68C188.44 319.44 478.14 129.18 484.18 139.68C484.18 139.68 171.86 306.7 178.62 318.4L439.68 167.68C443.4 174.12 39.4001 383.54 47.0001 396.7C50.6201 402.98 433.68 151.02 443.4 167.84C443.4 167.84 135.9 340.32 139.08 345.84C148.3 361.8 600.42 72.22 603.56 77.66C603.56 77.66 144.98 344.46 145.1 344.66C145.1 344.66 616.86 68.9 618.32 71.44L147.62 345.54C147.62 345.54 486.96 126.94 496.78 143.96C507.08 161.8 41.3601 392.3 48.6801 404.98L542.14 120.06C547.08 128.62 14.5801 407.8 22.8801 422.16C22.8801 422.16 584.58 96.5 585.18 97.52C589.52 105.04 186.18 330.18 186.18 330.18C186.18 330.18 605.24 83.1 607.46 86.96C617.02 103.52 61.0201 404.76 61.0201 404.76L657.1 60.62C657.1 60.62 44.3801 391.18 55.4201 410.32C62.4001 422.42 654.4 61.54 655.68 63.76C667.54 84.28 29.3401 427.68 29.3401 427.68C37.6801 442.12 578.62 110.56 578.62 110.56L186.96 339C190.78 345.64 650.58 71.32 650.58 71.32C659.18 86.22 145.72 359.12 148.32 363.6C152.66 371.14 549.36 132.06 549.36 132.06C549.36 132.06 76.6801 383.36 87.0201 401.3C96.4801 417.7 511.36 143.64 516.86 153.14C516.86 153.14 44.1801 405.56 54.0401 422.66C54.5001 423.46 552.88 124.28 557.38 132.06C560.84 138.04 28.7401 417.38 38.3601 434.04L604.14 107.38C604.14 107.38 53.9601 419.02 57.5601 425.24C57.5601 425.24 548.74 139.16 549.82 141.04L84.0601 412.26C86.3601 416.26 545.56 145.82 545.56 145.82L147.34 378.04C155.4 391.98 595.68 119.18 595.68 119.18L45.1401 439.34L586.64 126.72C589.48 131.62 234.26 315.4 241.66 328.2C250.7 343.86 591.1 109.5 598.44 122.22C598.44 122.22 148.84 363.26 157.86 378.9C157.86 378.9 660.06 86.98 660.92 88.46C666.72 98.52 92.8801 418.72 92.8801 418.72C100.02 431.08 538.78 141.44 547.36 156.32C547.66 156.84 127.02 401.32 127.02 401.32C127.52 402.18 609.08 111 614.26 120C614.26 120 211.36 353.56 211.94 354.58C216.64 362.72 501.06 181.76 503.62 186.18C505.48 189.4 91.2201 421.82 93.2801 425.4C101.06 438.88 628.66 111 630.94 114.98C630.94 114.98 76.6601 422.58 83.0401 433.62C83.0401 433.62 643.48 103.66 646.24 108.46C646.24 108.46 90.7201 406.54 101.52 425.26C109.08 438.34 656.12 105.06 656.12 105.06C660.74 113.04 160.58 393.46 160.58 393.46C162.06 396.02 521.16 185.28 521.16 185.28L124.82 416.44L610.56 136C610.56 136 125.98 396.26 135.42 412.62C140.46 421.36 578.26 156.94 578.26 156.94L223.22 364.24C223.22 364.24 671.88 102 673.28 104.4C686.4 127.12 105.86 434.32 105.86 434.32C105.86 434.32 664.34 99.34 669.78 108.74C680.5 127.32 173.36 397.66 173.36 397.66C177.42 404.68 626.14 136.24 626.14 136.24C626.14 136.24 295.08 323.96 297.56 328.26C297.56 328.26 694.14 93.04 696.86 97.72C696.86 97.72 185.88 392.44 187 394.4C187 394.4 733.86 59.84 742.02 73.96L272 347.64L575.68 172.3C580.64 180.9 208.48 386.62 208.48 386.62C208.7 387 658.08 112.12 664.54 123.32C667.7 128.78 143.1 426.68 143.1 426.68C145.96 431.62 568.94 180.82 568.94 180.82C570.12 182.88 280.62 349.6 280.62 349.6C288.64 363.5 609.14 157 610.42 159.2L294.12 344.12C300.98 356 672.04 125.94 672.04 125.94C678.88 137.8 212.96 393.3 212.96 393.3C220.92 407.1 766.14 65.82 769.64 71.9C775.7 82.4 243.98 361.2 251.12 373.58C260.74 390.24 669.3 127.58 671.28 131C674.02 135.76 311.26 328.16 316.9 337.92L721.98 104.04C731.34 120.24 315 340.22 315.48 341.04C315.48 341.04 740.44 84.02 745.5 92.76L265.5 372.2C274.1 387.1 652.18 141.42 655.44 147.06C655.44 147.06 304.96 351.06 305.26 351.56L705.54 120.46C713.56 134.34 240.32 380.8 244.88 388.72L618.42 173.06C620.46 176.6 276.22 367.38 278.62 371.54C282.08 377.54 730.72 96.08 736.98 106.92C736.98 106.92 290.34 361.28 292.86 365.64C298 374.54 598.68 181.24 602.06 187.12C608.16 197.68 155.96 447 155.96 447C160.96 455.68 782.06 85.52 782.06 85.52C790.74 100.56 218.94 412.94 218.94 412.94L622.02 180.22L263.48 389.54L648.36 167.32L222.48 415.52C224.76 419.46 779.12 89.08 781.32 92.88L200.98 430.2L658.72 165.92C666.52 179.42 156.7 453.52 158.66 456.94C167.68 472.58 776.12 100.44 776.12 100.44C783.5 113.24 316.64 357.3 321.28 365.36C324.54 371.02 806.22 75.82 810.36 83C811 84.12 291.06 363.02 300.64 379.6L777.32 104.38C784.04 116.02 337.18 355.78 339.36 359.54C340.54 361.58 707.44 147.04 707.44 147.04C718.12 165.54 221.9 410.86 230.04 424.98C236.04 435.38 791.46 88.4 796.84 97.74C805.18 112.18 288.74 378.5 295.18 389.68L652.74 183.24C657.48 191.44 370.1 336.44 375.44 345.66C379.78 353.16 745.62 131.94 745.62 131.94C747.9 135.9 297.06 393.24 297.06 393.24C300.12 398.56 645.56 173.3 653.68 187.34C660.78 199.62 340.16 354.32 347.24 366.58C357.02 383.52 804.04 82.24 812.98 97.7C813.54 98.68 223.64 440.26 223.64 440.26C231.82 454.44 666.44 182.38 667.4 184.06L270.82 415.34L820.2 98.1C822.1 101.38 361.12 355.38 365.48 362.94C365.48 362.94 826.14 74.98 835.66 91.48L340.76 379.52C347.84 391.8 848.52 86.36 848.52 86.36L314.3 397.1C319.72 406.48 759.52 124 766.46 136.04C768.1 138.88 258.18 412.42 266.58 426.96C269.7 432.36 856.82 85.14 857.28 85.92C857.28 85.92 408.74 341.54 411.18 345.78C411.18 345.78 736.56 148.82 740.5 155.64L395.22 357.3L758.66 147.48C758.66 147.48 216.4 439.66 226.44 457.06C226.44 457.06 794.08 114.32 800.58 125.58L374.98 373.62C374.98 373.62 773.36 136.62 776.4 141.86C778.48 145.48 268.68 416.72 277.58 432.16C277.58 432.16 846.38 92.86 851.1 101.04C851.1 101.04 390.16 360.64 393.98 367.26C396.4 371.46 709.66 162.5 719.4 179.38C721.78 183.52 290.92 411.38 298.58 424.64C300.8 428.48 732.8 173.94 732.8 173.94C735.34 178.32 427.26 338.74 433.3 349.18L794.66 140.54C797 144.6 297.24 430.04 297.24 430.04L844.2 114.26C846.04 117.46 352.78 400.3 352.78 400.3L761.7 164.22C762.62 165.82 379.32 384.94 380.34 386.7C380.86 387.58 855.96 89.44 865.78 106.44L349.5 406.8L742 180.18C742 180.18 302.54 418.08 310.4 431.68C317.3 443.64 810 125.98 817.48 138.92C819.4 142.24 364.4 402.82 364.4 402.82C364.4 402.82 735.7 181.92 738.52 186.82C738.52 186.82 401.66 368.2 408.34 379.76C408.34 379.76 897.78 78.58 905.82 92.54C905.82 92.54 364.4 389.62 372.12 402.98C377.22 411.82 752.04 166.92 759.28 179.46L417.78 378.92L733.34 196.74C733.34 196.74 297.98 438.46 303.16 447.42C303.16 447.42 715.82 201.9 718.96 207.36C721.18 211.22 310.54 428.56 317.86 441.24L838.64 140.56L291.22 458.94L849.26 136.74C854.86 146.46 350.38 403 360.82 421.06C365.72 429.54 885.56 103.62 891.84 114.48C897.08 123.54 287.04 461.62 288.94 464.88L835.34 149.4C844.46 165.2 422.16 387.62 423.3 389.6C431.5 403.82 896.96 116.14 896.96 116.14L449.06 377.04C454.9 387.14 723.2 218.76 723.2 218.76C723.2 218.76 321.04 438.78 327.32 449.64C328.38 451.46 767.74 195.36 767.74 195.36C771.92 202.6 439.4 383.66 440.94 386.34L791.98 183.68C803.5 203.62 288.38 476.74 288.38 476.74L802.66 179.8C806.14 185.84 452.54 366 460.44 379.68C460.76 380.22 845.84 148.82 849.44 155.08C850.38 156.7 499.36 345.72 505.34 356.06C505.34 356.06 733.38 202.3 742.96 218.88C742.96 218.88 487.52 357.8 492.22 365.96C500.46 380.24 854.4 156.86 854.4 156.86C855.76 159.2 440.16 394.92 441.64 397.48L933.44 113.54L454.04 392.64L777.24 206.04C777.24 206.04 460.56 380.4 465.24 388.48L847.12 168C854.06 180.02 371.34 445 371.34 445C371.34 445 866.88 138.74 875.6 153.86L447.1 403.56C447.1 403.56 864.36 147.3 871 158.82L520.06 363.74L796.84 203.94C802.14 213.12 410.04 412.96 417.22 425.42C420.28 430.72 819.52 185.92 822.64 191.34L389.68 443.62C398.8 459.42 888.64 136.76 896.78 150.86L477.94 394.98C482.84 403.48 773.36 224.42 773.36 224.42C774.2 225.88 383.64 451.74 383.64 451.74C383.64 451.74 855.42 164.96 861.64 175.76C862.5 177.26 482.84 390.8 485.42 395.28L782.78 223.6C783.48 224.82 418.64 425.56 423.24 433.5L953.06 127.62C955.48 131.82 547.42 364.12 547.42 364.12C547.42 364.12 810.28 205.72 813.16 210.7C813.16 210.7 355.26 470.02 358.46 475.54C358.46 475.54 896.54 156.74 900.06 162.84C900.06 162.84 471.64 405.7 474.58 410.8C474.58 410.8 974.78 112.92 978.72 119.74C978.72 119.74 367.44 451.74 377.5 469.16C384.74 481.72 829.32 208.3 829.32 208.3L464.2 421.4C464.2 421.4 896.94 157.5 903.02 168.04L445.34 434.6L953.2 141.38C953.2 141.38 562.94 362.08 565.94 367.28C565.94 367.28 803.4 229.44 803.72 230C808 237.42 464.46 425.64 465.56 427.54C472.68 439.88 831.5 212.1 833.3 215.22C839.84 226.56 465.18 430.06 465.18 430.06C474.26 445.78 886.46 179.14 889.78 184.92C889.78 184.92 558.2 366.24 563.58 375.56C564.04 376.36 970.88 140.4 970.88 140.4C970.88 140.4 475.2 419.46 479.28 426.54L920.62 171.74C920.62 171.74 580.96 368.36 581.74 369.7C581.74 369.7 891.04 183.12 894.5 189.12C900.24 199.06 429.38 439 438.46 454.72C445.34 466.64 861.38 210.54 861.38 210.54C862.16 211.88 495.66 418.94 497.86 422.74C497.86 422.74 845.28 212.32 849.54 219.7L543.86 398.5C550.9 410.68 907.68 188.44 907.68 188.44C907.68 188.44 519.5 409.34 521.9 413.48C521.9 413.48 987.74 141.26 989.16 143.72C998.06 159.12 477.16 431.72 481.46 439.16C487.52 449.66 881.3 195.1 887.02 205L400.3 488.32C402.08 491.4 968.64 160.2 968.64 160.2C971.9 165.84 496.98 434.82 496.98 434.82C496.98 434.82 1022.48 124.54 1025.46 129.7C1028.74 135.38 545.1 404.36 547.26 408.1C550.4 413.56 831.52 243.98 831.52 243.98C831.88 244.62 492.1 442.26 492.1 442.26C496.06 449.14 904.76 204 904.76 204C904.76 204 424.84 468.44 431.32 479.66C431.32 479.66 1029.04 120.96 1034.94 131.16C1043.68 146.3 517.06 409.04 527.2 426.62C532.96 436.58 965.94 167.08 968.64 171.76L607.32 382.68C609.92 387.2 1029.3 130.12 1033.16 136.82C1037.02 143.52 455.74 452.38 464.44 467.46L983.3 167.9C983.3 167.9 584.56 380.86 593.02 395.54L924.68 204.06L595.82 396.24C595.82 396.24 923.3 189.52 930.94 202.76C932.74 205.9 501.92 433.68 510.2 447.98C512.38 451.74 990.4 170.74 990.4 170.74C990.5 170.92 475.12 470.54 475.12 470.54C477.38 474.44 849.72 254.26 849.72 254.26C849.72 254.26 626 381.88 627.66 384.78C627.92 385.22 848.86 255.72 849.44 256.74C853.86 264.42 620.16 391.42 620.16 391.42C620.26 391.58 845.3 251.54 849.58 258.96L644.88 379.44C644.88 379.44 900.08 227.64 902.02 230.98C909.44 243.82 528.2 449.12 528.2 449.12C528.2 449.12 909.26 217.9 914.1 226.32C914.1 226.32 598.54 395.66 605.1 407.02C609.48 414.62 953.62 202.28 955.16 204.92C963.82 219.9 559.04 435.92 559.04 435.92C567.22 450.08 860.1 249.04 865.76 258.84C869.8 265.82 603.6 412.52 603.6 412.52C604.88 414.76 879.4 238.52 885.8 249.6C885.8 249.6 532.74 452.38 534.2 454.9L938 221.76C942.88 230.22 568.96 437.14 568.96 437.14L899.76 246.16C906.18 257.3 621.28 406.8 622.34 408.64C625.94 414.88 963.24 211.82 963.24 211.82L463.54 502.62C463.54 502.62 836.8 274.8 842.14 284.04C842.14 284.04 588.4 428.2 590.42 431.68C590.42 431.68 834.18 287.18 835.82 290C835.82 290 503.24 471.18 508.94 481.04C511.36 485.22 967.68 216.18 967.68 216.18C969.62 219.56 642.6 402.76 644.08 405.32C648.68 413.3 882.4 264 884.02 266.8C885.46 269.3 573.1 448.62 573.1 448.62C580.4 461.26 952.52 229.56 952.52 229.56C955.7 235.08 546.48 459.06 549.62 464.48C554.18 472.38 891.26 267.24 891.26 267.24C896.8 276.84 527.34 466.6 532.98 476.4L1010.56 200.68C1012.56 204.16 559.58 463.36 559.58 463.36C559.58 463.36 877.44 277.42 878.48 279.24L520.28 488.36L872.58 284.96C877.88 294.14 547.82 474.78 547.82 474.78L925.22 256.9C925.22 256.9 567.74 451.52 573.84 462.08C578.62 470.36 911.74 267 911.74 267C914.46 271.7 596.68 451.22 596.68 451.22C596.68 451.22 944.4 243.28 947.5 248.68C948.66 250.7 646.64 424.7 646.64 424.7L942.98 253.6L619.24 442.82C621.26 446.32 845.88 297.68 852.08 308.4L577.02 469.52C579.18 473.26 1005.9 210.04 1011.04 218.94C1011.04 218.94 542.72 489.08 543.82 491C548.72 499.5 851.74 313.22 851.74 313.22C853.06 315.5 555.1 486.8 555.1 486.8C555.88 488.14 899.08 285.76 900.14 287.58C900.14 287.58 638.66 439.32 639.34 440.46C639.78 441.22 870.98 304.44 871.98 306.16L720.04 396.2C722.14 399.84 818.3 339.46 818.3 339.46L571.42 484.32C571.86 485.08 904.28 282.78 908.34 289.8L552.34 497.64C552.34 497.64 912.64 288.28 913.22 289.28C914.7 291.84 656.86 439.6 656.86 439.6L943.8 273.94C949 282.96 676.5 430.58 676.5 430.58C680.06 436.74 895.38 304.2 895.38 304.2C895.38 304.2 605.7 472.34 606.32 473.4C606.74 474.12 910.26 297.92 910.26 297.92C911.08 299.34 687.18 423.62 689.52 427.68L859.6 329.48C861.28 332.38 708.74 418.88 708.74 418.88C713.6 427.3 1004 237.44 1008.74 245.68C1014.76 256.12 697.22 427.84 697.22 427.84C697.22 427.84 865.94 330.4 865.96 330.42C866.52 331.4 733.46 402.4 736.42 407.52C737.74 409.82 840.16 347.64 840.16 347.64C846 357.76 544.18 508.84 549.38 517.84L946.66 288.48C951.42 296.7 607.6 486.54 607.6 486.54C607.82 486.92 959.36 272.56 964.08 280.72C964.08 280.72 723.66 409.3 729.08 418.7C730.62 421.38 1005.4 249.22 1009.7 256.68C1009.7 256.68 713.58 418.68 718.46 427.14C718.46 427.14 923.88 298.62 928.18 306.06C928.18 306.06 670.72 453.68 672.16 456.18C677.32 465.1 880.58 335.84 880.58 335.84L728.96 425.68C733.16 432.96 993.02 261.26 998.2 270.24C1000.26 273.8 773.56 402.24 773.56 402.24C773.56 402.24 827.46 365.64 829.84 369.74C829.84 369.74 636.48 483.2 636.7 483.56L859.64 354.84C859.64 354.84 604.68 499.48 606.78 503.14C607.88 505.04 901.72 324.96 905.12 330.88C909.18 337.92 633.44 482.22 636.82 488.08C636.82 488.08 856.18 358.84 857.3 360.78L639.38 488.9C639.82 489.68 976.58 292.5 977.32 293.78C977.32 293.78 782.16 400 785.96 406.58C788.46 410.9 833.1 369.66 837.3 376.94L708.56 453.58C708.56 453.58 836.14 377.68 837.1 379.36C839.74 383.94 655.32 486.62 655.32 486.62L1016.84 277.9C1016.84 277.9 784.86 409.98 786.66 413.1C786.66 413.1 842.94 373.84 845.86 378.92C849.46 385.16 675.84 473.88 678.22 478.02C678.22 478.02 865.9 366.98 867.06 369C868.56 371.6 734.74 443.74 736.46 446.7C738.96 451.04 850.82 380.68 850.82 380.68C850.82 380.68 644.44 494.46 647.76 500.22C647.76 500.22 890.3 356.8 891.76 359.34L699.24 472.8C700.52 475.02 1009.94 284.88 1013.64 291.28C1014.54 292.84 611.52 514.92 616.22 523.04L971.92 317.68C972.76 319.12 653.28 503.96 653.28 503.96C653.92 505.08 997.76 305.08 997.76 305.08L681.42 490.02C685 496.24 923.08 345.6 925.2 349.28C925.2 349.28 777.76 434.54 778.7 436.16C778.7 436.16 909.5 352.06 913.22 358.5C913.22 358.5 790.64 425.76 793.16 430.12L851 396.72L762.48 450.14C765.76 455.8 850.78 399.16 850.78 399.16C855.58 407.46 631.28 528.2 631.28 528.2C631.46 528.52 893.68 369.5 896.8 374.9C896.8 374.9 757.12 452.68 759.36 456.56L904.84 372.58C904.84 372.58 714.98 478.1 717.76 482.9C717.76 482.9 827.9 415.64 829.5 418.38C829.5 418.38 784.96 444.26 785.88 445.86C788.36 450.18 981.94 326.74 984.5 331.18C984.98 332.02 823.12 425.14 823.78 426.28C823.78 426.28 858.06 399.6 861.04 404.76C861.04 404.76 852.94 411.6 853 411.7L853.26 411.56C853.66 412.26 796.38 446.7 796.38 446.7C797.4 448.46 897.44 388.34 897.44 388.34C897.44 388.34 755.92 467.74 757.92 471.2C757.92 471.2 906.42 383.74 907.16 385.04C907.16 385.04 773.42 463.2 774.02 464.22C775.42 466.64 923.12 378.14 923.12 378.14C924.94 381.3 770.56 468.52 770.56 468.52C773 472.76 946.78 366.78 946.78 366.78C950.54 373.3 706.84 499.66 710.28 505.62C710.28 505.62 969.94 349.42 972.66 354.14C972.66 354.14 729.12 484.78 734.44 493.98C734.44 493.98 904.54 392.24 906.06 394.9L694.42 519.4C695.36 521.02 892.72 404.92 892.72 404.92C895 408.86 681.42 529.22 681.42 529.22L939.48 380.22L715.1 512.08C716.8 515.04 903.66 403.22 903.66 403.22L831.94 446.94C832.76 448.36 963.12 366.82 965.02 370.1L680.82 536.5L963.5 373.3C963.6 373.48 761.16 492.44 761.16 492.44C761.16 492.44 977.14 366.38 977.74 367.4L715.1 521.34C715.72 522.42 983.72 363.72 984.8 365.62C986.68 368.9 796.02 476.92 796.02 476.92L902.6 415.38C905.26 419.98 750.32 505.62 750.32 505.62C751.52 507.7 807.16 472.8 807.16 472.8L810.86 472.98L836.46 458.2L805.56 478.36C805.56 478.36 901.3 422.64 901.48 422.98C901.48 422.98 781.92 491.58 783.1 493.64C784.38 495.84 928 409.98 928 409.98C929.24 412.14 716.28 530.78 717.9 533.58C718.2 534.08 807.62 481.78 807.62 481.78C808.2 482.8 894.84 433.74 894.84 433.74C895.66 435.16 941.28 406.92 941.28 406.92L785.24 499.32C785.24 499.32 995.56 377.08 995.92 377.68C995.92 377.68 823.36 478.56 823.82 479.36C824.02 479.7 961.56 399.84 961.56 399.84L723.48 539.6L890.78 443.02C890.78 443.02 827.42 480 828.24 481.44C828.54 481.96 926.78 422.42 927.7 424.02C927.7 424.02 829.08 478.9 830.98 482.18C831.04 482.28 898.48 443.22 898.48 443.22C898.76 443.7 762.74 522.98 763.14 523.66C763.22 523.8 869.12 462.48 869.12 462.48C870.6 465.06 751.82 532.5 751.82 532.5C752.04 532.88 890.26 452.56 890.26 452.56L750 535.86C750.14 536.08 831.4 487.96 831.8 488.64C833.7 491.94 737.04 541.96 738.64 544.74C738.94 545.28 980 404.12 980.54 405.08L846.86 484.58C847 484.82 896.52 455.78 896.58 455.88C896.58 455.88 816.12 503.7 816.52 504.4L911.8 449.4L827.9 500.14C828.2 500.66 878.52 470.76 878.58 470.88C878.58 470.88 790.62 523.66 790.76 523.9C790.76 523.9 804.18 515.84 804.3 516.08C804.3 516.08 858.78 485.16 859.54 486.5C859.74 486.84 894.96 465.86 895.04 466C895.04 466 794.18 525.6 794.6 526.3L911.12 459.04C912.38 461.22 825.38 506.5 827.26 509.76C827.34 509.9 881.36 478.28 881.46 478.46C881.98 479.36 823.32 514.34 823.32 514.34C823.32 514.34 833.88 507.86 834.04 508.14C834.16 508.36 850.96 500.68 850.96 500.68L906.56 468.58L938.44 452.48L955.12 442.86" stroke="#0A0909" stroke-width="0.3" stroke-linecap="round" stroke-linejoin="round"/>
<path d="M200.62 268.86C200.92 269.38 263.56 230.74 264.32 232.08C265.36 233.9 205.84 267.14 206.88 268.94C207.6 270.18 262.52 236.82 262.52 236.82C262.52 236.82 216.9 266.64 217.24 267.26L262.24 241.28L220.54 266.9C220.54 266.9 258.22 244.48 258.5 244.98C258.5 244.98 219.68 267.52 219.74 267.64L258.54 245.24C258.54 245.24 223.46 267.74 223.6 267.98L258.04 248.1C258.4 248.72 228.94 265.56 228.94 265.56C228.94 265.56 257.12 248.06 257.66 248.98C257.66 248.98 224.2 267.32 224.82 268.4C225.34 269.3 255.66 249.84 256 250.4C256 250.4 240.5 262.66 240.86 263.28C240.9 263.36 252.86 256.2 252.92 256.32" stroke="white" stroke-linecap="round" stroke-linejoin="round"/>
<path d="M204.24 217.84C204.68 218.62 240.48 195.1 241.26 196.46L207.82 218.38C207.82 218.38 246.02 194.82 246.68 195.94C246.68 195.94 211.92 218.48 212.56 219.58C212.56 219.58 247.86 197.84 248.44 198.86C248.44 198.86 216.8 216.92 217.12 217.48C217.36 217.9 254.14 196.1 254.14 196.1C254.14 196.1 218.94 217.8 219.14 218.14C219.74 219.18 253.56 198.26 253.56 198.26C253.56 198.26 222.84 220.6 223.02 220.92C223.64 222 252.96 203.62 252.96 203.62C252.96 203.62 230.58 221.42 230.6 221.46C231.08 222.3 258.62 205.28 258.62 205.28L226.68 228.08C226.68 228.08 257.72 209.84 257.86 210.08L230.56 229.32C230.84 229.8 259.16 212.8 259.16 212.8C259.58 213.54 228.58 230.64 228.58 230.64C228.62 230.72 261.56 211.6 261.56 211.6C262.22 212.76 230.1 231.16 230.4 231.68C230.4 231.68 261.06 212.92 261.52 213.72C261.98 214.52 224.7 239.1 224.7 239.1C224.7 239.1 263.48 215.78 263.88 216.48C264.44 217.46 227.06 237.78 227.28 238.18C227.6 238.72 261.44 217.88 261.68 218.32" stroke="white" stroke-linecap="round" stroke-linejoin="round"/>
<path d="M170.18 192.72L174.08 190.46C174.18 190.64 169.12 193.8 169.12 193.8C169.12 193.8 176.38 189.58 176.38 189.6C176.48 189.78 171.2 195.82 171.2 195.82C171.26 195.94 181.68 189.76 181.68 189.76C181.76 189.9 174.22 197.64 174.24 197.66C174.48 198.06 188.26 189.06 188.48 189.44C188.8 190.02 173.68 202.4 173.92 202.8C174.16 203.2 197.66 189.02 197.68 189.08C198.28 190.12 169.28 209.7 169.58 210.2C170.18 211.22 205.12 188.3 205.72 189.34C205.96 189.78 173.48 209.98 174.04 210.94L206.4 192.26C206.96 193.24 167.96 216.46 167.96 216.46L210.74 191.76C211.16 192.48 173.16 214.78 173.16 214.78C173.88 216.04 217.28 188.08 217.82 189C217.82 189 170.56 214.8 171.34 216.16C171.38 216.24 217.2 188.78 217.58 189.46L171.48 218.64L219.56 190.88C219.56 190.88 173.14 221.86 173.3 222.14C173.3 222.14 229.02 188.44 229.7 189.58C229.94 189.98 169.94 221.84 171.2 224.02C171.46 224.48 228.02 191.22 228.02 191.22C228.54 192.12 171.18 227.94 171.18 227.94C171.18 227.94 234.3 190.74 234.64 191.3C235 191.92 169.68 227.1 170.72 228.9C171.5 230.24 235.64 191.42 235.64 191.42C235.88 191.84 174.64 227.38 174.64 227.38C174.64 227.38 234.16 192.82 234.24 192.96C234.24 192.96 171.62 231.56 172.12 232.42L239.08 193.76C239.08 193.76 167.1 233.56 168.14 235.36C168.28 235.6 240.44 192.04 241.12 193.22C241.12 193.22 172.26 230.04 173.64 232.44C174.44 233.84 239.22 191.82 240.4 193.9C240.92 194.82 168.1 240 168.32 240.38C168.38 240.48 202.68 219.06 203.34 220.16C203.4 220.28 173.34 239.88 173.7 240.5C173.7 240.5 206.64 220.34 207.14 221.2C207.92 222.56 174.04 242.64 174.22 242.96C174.5 243.46 204.1 224.28 204.72 225.36C204.78 225.46 173 243.08 173.28 243.58L203.14 226.34C203.72 227.34 170.18 245.92 170.18 245.92C170.66 246.74 203.34 226.78 203.34 226.78L171.32 248.78C171.32 248.78 203.16 228.86 203.82 230.02C204.22 230.7 173.54 250.04 173.84 250.54L203.68 233.32L170.56 256.6C170.56 256.6 206.06 235.74 206.22 236.02C206.22 236.02 171.78 255.46 172.08 255.98L206.06 236.36C206.6 237.28 169.22 258.4 169.66 259.14L205.52 238.44C205.52 238.44 173.3 256.3 174.02 257.56C174.46 258.32 206.36 238.88 206.36 238.88C206.36 238.88 170.72 260.36 170.92 260.68L203.82 241.68C203.82 241.68 173.98 259.6 173.98 259.62L206.44 240.88L172.94 260.96C172.94 260.96 207.32 240.94 207.4 241.06L171.84 265.62C171.98 265.84 216.08 238.66 216.7 239.72L171.24 270.44C171.9 271.58 226.56 238.5 226.56 238.5C226.56 238.5 170.02 271.3 171.22 273.4C172.16 275.02 265.76 216.62 266.7 218.28C268.04 220.6 168.44 274.32 169.46 276.1L260.72 223.42C262.26 226.08 173.02 275.22 173.02 275.22C174.28 277.42 265.04 222.1 265.04 222.1C265.14 222.28 171.4 279 171.94 279.94C172.08 280.18 262.62 227.6 262.62 227.6C264.6 231.04 173.9 282.78 174.24 283.36C174.86 284.44 265.34 227.56 266.72 229.96C267.28 230.92 169.4 284.92 171.3 288.2C171.38 288.34 202.54 270.02 202.6 270.12L171.28 293.16C171.28 293.16 202.6 273.5 203.28 274.68C204.04 276 169.3 295.34 169.3 295.34C169.46 295.6 208.3 272.82 208.3 272.82C208.3 272.82 168.04 297.68 168.16 297.88C168.48 298.42 206.28 275.86 206.28 275.86L172.28 298.16C172.94 299.3 204.24 278.12 204.92 279.32C205.74 280.74 167.68 300.18 168.18 301.08C168.18 301.08 203.36 279.38 203.96 280.42C204.56 281.46 172.18 301.66 172.18 301.66C172.42 302.06 205.9 280.98 206.42 281.88L173.94 303.7C173.94 303.7 203.72 285.4 204.2 286.22C204.2 286.22 178.4 300.68 178.9 301.52C179.02 301.72 202.82 287.72 202.82 287.72C203.18 288.32 185 302.42 185 302.42C185 302.42 205.56 290.5 205.58 290.54C205.68 290.7 193.62 299.92 193.62 299.92C193.88 300.36 204.16 293.6 204.26 293.78C204.34 293.92 197.08 301.06 197.1 301.08L205.98 295.96L201.98 302.14L208.08 298.62L204.7 300.6L208.74 298.28" stroke="white" stroke-linecap="round" stroke-linejoin="round"/>
<path d="M305.82 242.22C306.36 243.14 341.16 221.82 341.16 221.82C341.26 221.98 314.56 238.72 314.56 238.72L342.68 222.48C343.16 223.3 319.72 239.34 319.72 239.34C319.82 239.5 348.02 222.78 348.12 222.94C348.66 223.86 323.56 241.72 323.56 241.72L350.96 225.9C351.58 226.98 324.62 243.9 324.88 244.34C325.24 244.98 348.88 230.48 348.88 230.48C348.88 230.48 322.52 247.66 322.72 248C323.24 248.9 354.96 229.38 354.96 229.38C354.96 229.38 328.4 248.26 328.64 248.68C328.8 248.94 355.8 232.58 355.98 232.9C356.16 233.2 323.42 254.36 323.64 254.76C324.14 255.62 352.98 237.82 352.98 237.82C353.52 238.76 328.52 254.34 328.52 254.34C328.88 254.96 356.4 238.24 356.4 238.24C357.06 239.36 326.74 257.94 326.82 258.1C326.86 258.16 354.5 241.92 354.6 242.06C354.7 242.24 324.66 261.68 324.66 261.68C325.2 262.6 357.06 242.72 357.18 242.9C357.18 242.9 326.68 263.78 327.14 264.58C327.24 264.76 360.38 245.4 360.38 245.4C360.38 245.4 327.42 266.04 327.88 266.84C328.08 267.2 361.84 247.24 361.84 247.24C362.56 248.48 326.84 269.72 326.84 269.72L361.24 249.86C361.24 249.86 323.9 270.72 324.5 271.74L358.6 252.06C358.88 252.52 321.88 276.32 321.88 276.32C322.38 277.18 359.14 254.8 359.14 254.8L325.12 275.18C325.56 275.96 356.74 256.68 356.84 256.86C357.42 257.86 317.46 279.98 318.14 281.14C318.32 281.46 360.12 255.42 360.76 256.54" stroke="white" stroke-linecap="round" stroke-linejoin="round"/>
<path d="M284.78 225.76L292.06 221.56C292.3 221.96 280.34 228.8 280.34 228.8C280.44 228.96 298.48 217.98 298.64 218.24C298.98 218.84 275.72 234.7 275.72 234.7C276.02 235.24 308.76 215.62 308.76 215.62C309.08 216.16 275.24 238.46 275.3 238.56C276.08 239.9 315.96 213.44 316.68 214.68C317.58 216.24 271.7 244.14 272.32 245.24C272.88 246.22 325.3 214.46 325.38 214.6C326.58 216.66 266.12 252.38 266.7 253.38C267.88 255.44 330.24 213.94 331.44 216C331.9 216.8 269.64 252.56 270.7 254.38L330.24 220C331.2 221.64 264.5 259.98 264.5 259.98L333.24 220.3C333.94 221.52 269.6 258.36 269.6 258.36C270.78 260.4 338.56 216.56 339.42 218.04C339.42 218.04 266.56 257.66 267.76 259.74C267.82 259.86 338.36 217.52 338.98 218.62L267.86 262.26L338.9 221.24C338.9 221.24 269.74 265.18 269.96 265.58C269.96 265.58 305 244.42 305.4 245.12C305.56 245.38 267.06 266.04 267.88 267.46C268.04 267.72 302.12 247.68 302.12 247.68C302.44 248.22 268.36 271.06 268.36 271.06C268.36 271.06 301.5 251.54 301.68 251.82C301.88 252.16 267.48 271 268.04 271.96C268.4 272.6 301.54 252.62 301.54 252.62C301.66 252.82 272.1 270.36 272.1 270.36C272.1 270.36 299.04 254.72 299.08 254.78C299.08 254.78 270.04 274.6 270.28 275L299.2 258.3C299.2 258.3 265.94 277.04 266.42 277.88C266.48 277.98 300.22 257.72 300.5 258.2C300.5 258.2 271.38 273.92 271.98 274.92C272.32 275.5 299 258.18 299.5 259.04C299.74 259.46 268.08 281.8 268.18 281.98C268.22 282.06 297.86 263.58 298.4 264.52C298.46 264.62 274.3 281 274.58 281.5C274.58 281.5 302.16 264.64 302.56 265.34C303.18 266.42 276.16 283 276.3 283.26C276.52 283.66 300.26 268.28 300.76 269.14C300.8 269.22 275.16 283.46 275.38 283.86C275.38 283.86 299.2 270.1 299.2 270.12C299.66 270.92 272.52 286.08 272.52 286.08C272.9 286.74 299.5 270.5 299.5 270.5L275.18 288.06C275.18 288.06 300.56 272.2 301.08 273.1C301.38 273.6 279.22 288.44 279.44 288.8L302.24 275.64L278.56 293.48C278.56 293.48 307.2 276.66 307.32 276.88C307.32 276.88 279.98 292.38 280.22 292.78L307.32 277.12C307.74 277.84 278.66 294.66 279 295.24L308.14 278.42C308.14 278.42 283.46 292.32 284.02 293.28C284.36 293.88 309.84 278.36 309.84 278.36C309.84 278.36 281.72 295.58 281.86 295.86L307.02 281.34C307.02 281.34 285.42 294.5 285.42 294.52L309.06 280.86L284.9 295.54C284.9 295.54 309.58 281.16 309.62 281.26L286.98 298.36C287.08 298.52 318.16 279.38 318.58 280.12L290.28 300.94C291.14 302.42 361.44 259.86 361.44 259.86C361.44 259.86 291.88 299.52 293.38 302.12C294.04 303.28 362.04 260.92 362.7 262.1C363.66 263.76 292.66 302.52 293.4 303.8L356.48 267.38C357.5 269.16 298.2 302.2 298.2 302.2C299.04 303.68 360.64 266.16 360.64 266.16C360.7 266.26 301.9 303.36 302.26 303.96C302.34 304.1 356.96 272.38 356.96 272.38C358 274.2 311.24 303.12 311.4 303.42C311.72 303.96 358.84 274.4 359.56 275.62C359.84 276.1 312.8 303.62 313.72 305.24C313.82 305.42 352.4 282.76 352.46 282.88L325.02 303.68C325.02 303.68 346.86 289.98 347.32 290.8C347.78 291.62 326.34 303.96 326.34 303.96C326.42 304.1 350.2 290.18 350.2 290.18C350.2 290.18 329.46 302.86 329.52 302.96C329.6 303.1 344.88 294.08 344.88 294.08" stroke="white" stroke-linecap="round" stroke-linejoin="round"/>
<path d="M406.82 247.1C407.14 247.66 433.06 230.62 433.62 231.62L412.72 246.3C412.72 246.3 435.36 232.38 435.72 233.02C435.72 233.02 416.74 247.08 417.1 247.72C417.1 247.72 432.6 238.24 432.82 238.64C432.82 238.64 421.34 245.54 421.46 245.74C421.54 245.9 437.88 236.26 437.88 236.26C437.88 236.26 422.76 246.62 422.84 246.78C423 247.08 435.38 239.54 435.38 239.54C435.38 239.54 426.5 249.54 426.56 249.66C426.58 249.7 429.78 247.8 429.78 247.8L431.34 247.42L432.64 246.68" stroke="white" stroke-linecap="round" stroke-linejoin="round"/>
<path d="M402.5 226.12C402.6 226.28 413.56 219.74 413.56 219.74C413.6 219.8 403.58 227.04 403.58 227.04L419.16 218.04C419.56 218.74 399.98 232.7 399.98 232.7C400.08 232.86 429.18 215.6 429.3 215.78C429.9 216.82 399.48 233.36 399.48 233.36L429.5 216.02" stroke="white" stroke-linecap="round" stroke-linejoin="round"/>
<path d="M365.82 221.46L369.76 219.18C369.86 219.36 364.78 222.52 364.78 222.52C364.78 222.52 372.1 218.26 372.12 218.28C372.22 218.46 366.92 224.52 366.92 224.52C367 224.64 377.74 218.26 377.74 218.26C377.82 218.4 369.94 226.34 369.94 226.36C370.18 226.78 384.52 217.42 384.74 217.82C385.08 218.42 369.34 231.1 369.58 231.52C369.82 231.94 394.02 217.34 394.04 217.4C394.66 218.46 364.92 238.42 365.22 238.92C365.82 239.98 401.48 216.56 402.1 217.62C402.36 218.06 369.08 238.66 369.66 239.66L397.34 223.68C397.84 224.54 363.6 245.18 363.6 245.18L398.2 225.2C398.52 225.76 368.8 243.5 368.8 243.5C369.34 244.42 402.6 223.08 402.98 223.76C402.98 223.76 366.36 243.82 366.98 244.86C367.02 244.92 401.92 224.02 402.22 224.52L367.12 247.34L399.74 228.5C399.74 228.5 368.84 250.64 368.94 250.82C368.94 250.82 402.04 230.84 402.4 231.5C402.54 231.74 366.04 251.38 366.82 252.72C367.1 253.22 427.44 217.72 427.44 217.72C428 218.68 366.8 256.62 366.8 256.62C366.8 256.62 434 217 434.36 217.62C434.74 218.28 365.22 255.68 366.34 257.6C367.16 259.04 435.42 217.72 435.42 217.72C435.68 218.18 370.26 256.08 370.26 256.08C370.26 256.08 433.98 219.08 434.08 219.24C434.08 219.24 367.22 260.22 367.76 261.14L438.26 220.44C438.26 220.44 362.68 262.2 363.76 264.1C363.9 264.34 438.7 219.2 439.4 220.42C439.4 220.42 367.82 258.68 369.26 261.18C370.1 262.64 437.1 219.16 438.34 221.3C438.88 222.24 363.72 268.72 363.96 269.1C364.08 269.3 434.1 225.36 435.5 227.8C435.64 228.06 368.54 267.88 369.32 269.24C369.32 269.24 404.76 247.54 405.3 248.46C406.14 249.92 369.64 271.34 369.84 271.68C370.12 272.18 399.8 252.94 400.42 254.02C400.48 254.12 368.6 271.8 368.88 272.28L398.8 255C399.38 256 365.78 274.62 365.78 274.62C366.24 275.44 398.74 255.6 398.74 255.6L366.9 277.5C366.9 277.5 397.76 258.2 398.4 259.3C398.78 259.96 369.12 278.76 369.4 279.24L398 262.72L366.1 285.32C366.1 285.32 400.38 265.18 400.52 265.44C400.52 265.44 367.32 284.2 367.6 284.7L400.36 265.78C400.88 266.68 364.76 287.14 365.16 287.86L399.8 267.86C399.8 267.86 368.8 285.08 369.5 286.28C369.92 287 400.64 268.3 400.64 268.3C400.64 268.3 366.16 289.12 366.36 289.44L396.56 272C396.56 272 369.38 288.38 369.38 288.4L397.94 271.92L368.32 289.76C368.32 289.76 397.56 272.74 397.62 272.84L366.98 294.54C367.08 294.7 399.48 274.76 399.92 275.52L365.98 299.6C366.38 300.28 401.02 279.38 401.02 279.38C401.02 279.38 366.28 300.64 367.04 301.96C367.34 302.5 402.2 280.94 402.52 281.48C403 282.32 367.84 302.34 368.2 302.98L396.42 286.68C396.82 287.38 373.78 300.92 373.78 300.92C374.12 301.52 400.68 285.38 400.68 285.38C400.7 285.42 379.68 301.3 379.8 301.52C379.82 301.56 398.1 290.96 398.1 290.96C398.32 291.36 390.34 300.1 390.38 300.16C390.44 300.28 402.64 292.74 402.78 293C402.84 293.12 392.72 301.44 392.94 301.82C392.94 301.82 397.76 299.02 397.76 299.04L397.24 301.7C397.24 301.7 398.66 300.86 398.68 300.88" stroke="white" stroke-linecap="round" stroke-linejoin="round"/>
<path d="M484.5 243.88C484.68 244.2 498.48 235.06 498.8 235.62L488.12 244.4C488.12 244.4 501.54 236.2 501.74 236.54C501.74 236.54 492.22 245.52 492.42 245.86C492.42 245.86 499.98 241.3 500.06 241.44C500.06 241.44 496.82 243.78 496.86 243.84C496.88 243.88 505.3 238.98 505.3 238.98C505.3 238.98 498.42 244.68 498.46 244.76C498.48 244.8 503.38 241.92 503.38 241.92C503.38 241.92 496.84 246.06 496.88 246.14L499.32 244.72" stroke="white" stroke-linecap="round" stroke-linejoin="round"/>
<path d="M435.56 221.84L441.9 218.18L440.76 220.38L444.26 218.36C444.38 218.56 440.6 224.06 440.6 224.06C440.62 224.12 452.46 217.14 452.48 217.2C452.78 217.7 440.32 228.82 440.32 228.82L489.42 200.48C490.58 202.5 439.02 231.82 439.52 232.68C440.22 233.9 485.06 206.38 485.06 206.38C485.06 206.38 435.82 236.36 436.2 237.02C437.18 238.7 489.56 206.22 489.56 206.22C489.56 206.22 440.06 237.88 440.52 238.66C440.8 239.14 488.08 210.42 488.42 211C488.7 211.48 434.44 244.5 434.8 245.14C435.68 246.66 483.9 216.8 483.9 216.8C484.86 218.46 440.02 244.54 440.02 244.54C440.64 245.6 486.3 217.82 486.3 217.82C487.22 219.42 443.78 244.86 443.9 245.08C443.96 245.18 486.32 220.28 486.46 220.52C486.6 220.76 445.76 246.34 445.76 246.34C446.58 247.74 492.22 219.14 492.4 219.42C492.4 219.42 452.2 245.58 452.8 246.62C452.96 246.9 502.98 217.64 502.98 217.64C502.98 217.64 453.04 247.54 453.74 248.76C454.06 249.32 504.44 219.48 504.44 219.48C505.48 221.28 453.3 251.28 453.3 251.28L503.4 222.36C503.4 222.36 450.3 251.74 451.14 253.2L500.62 224.64C500.98 225.28 449.98 256.94 449.98 256.94C450.68 258.16 500.96 227.52 500.96 227.52L453.78 255.5C454.4 256.58 498.48 229.36 498.62 229.62C499.34 230.86 448.96 258.68 449.8 260.14C450.04 260.54 501.58 228.32 502.42 229.76C503.26 231.2 449.78 262.52 450.54 263.84C450.54 263.84 483.54 243.96 483.9 244.58C483.9 244.58 453.72 265.98 454.1 266.64C454.1 266.64 486.36 247.9 486.42 247.98C486.72 248.48 450.64 270.6 450.64 270.6L488.1 248.98C488.64 249.92 450.28 274.86 450.58 275.4C450.78 275.76 486.22 254.82 486.22 254.82C486.5 255.3 451.46 278.9 451.74 279.38L487.58 258.68C487.58 258.68 455.58 280.42 455.98 281.1L485.3 264.18C486.04 265.48 452.84 283.48 453.08 283.88C453.38 284.4 487.14 264.22 487.14 264.22L450.16 287.24C450.16 287.24 484.6 266.52 484.96 267.14L456.16 284.14C456.16 284.14 483.2 267.88 483.48 268.36C483.54 268.46 451.78 288.86 451.78 288.86C451.78 288.86 487.54 267.38 487.9 268C487.94 268.08 454.08 286.46 454.64 287.42C454.64 287.42 485.7 267.96 486.36 269.12L457.14 290.38C457.32 290.68 486.5 273.44 486.5 273.44C487.04 274.4 457.6 294.14 457.6 294.14C457.74 294.36 489.02 275.56 489.22 275.88C489.72 276.76 458.6 297.64 458.6 297.64C459.12 298.54 493.04 277.76 493.04 277.76C493.04 277.76 457.52 299.84 457.98 300.64C458.44 301.44 491.84 279.58 492.5 280.7C493.2 281.92 462.78 302.1 462.78 302.1C463.5 303.34 505 276.22 505.66 277.34C506.42 278.64 467.54 300.92 468.12 301.94C468.46 302.54 500.52 283.22 500.52 283.22C500.86 283.8 469.56 305.34 469.56 305.34C469.56 305.34 505.2 283.54 505.72 284.46C505.94 284.84 481.62 302.62 481.62 302.62C481.76 302.88 502.88 290.26 502.92 290.32C503.22 290.86 485.84 304.52 485.84 304.52C485.88 304.6 503.12 294.54 503.12 294.54C503.12 294.54 493.52 302.08 493.66 302.3C493.66 302.3 503.88 296.1 504.02 296.32C504.02 296.32 490.94 304 491.08 304.24C491.08 304.24 501.08 298.44 501.1 298.46L495.7 303L505.52 297.34C505.52 297.34 496.58 302.16 496.78 302.52C496.8 302.56 501.7 299.6 501.74 299.66C501.74 299.66 499.88 301.9 499.9 301.94C499.9 301.98 507.22 297.68 507.24 297.7" stroke="white" stroke-linecap="round" stroke-linejoin="round"/>
<path d="M451.96 200.98L455.9 198.7C456 198.88 450.9 202.06 450.9 202.06C450.9 202.06 458.24 197.78 458.26 197.82C458.36 198 452.94 204.12 452.94 204.12C453.02 204.24 463.88 197.8 463.88 197.8C463.96 197.96 455.96 205.94 455.98 205.98C456.22 206.42 470.66 196.98 470.9 197.38C471.24 197.98 455.42 210.7 455.66 211.12C455.9 211.54 480.18 196.88 480.2 196.94C480.82 198 451.06 217.98 451.36 218.48C451.96 219.54 487.66 196.1 488.26 197.18C488.52 197.62 455.24 218.2 455.82 219.2L484.16 202.84" stroke="white" stroke-linecap="round" stroke-linejoin="round"/>
<path d="M548.98 245.82C549.08 246 574.56 230.42 574.82 230.9C575.2 231.56 554.82 245.28 555.2 245.92C555.4 246.26 573.56 235.32 573.56 235.32C573.56 235.32 565.02 244.36 565.1 244.5L574.52 239.06L568.06 244.34C568.06 244.34 571.56 242.24 571.6 242.3C571.6 242.3 567.18 245.12 567.2 245.12L571.82 242.46C571.82 242.46 569.72 246.16 569.74 246.18L572.88 244.36" stroke="white" stroke-linecap="round" stroke-linejoin="round"/>
<path d="M556.58 211.04C556.8 211.44 574.32 199.88 574.72 200.56L560.56 211.36C560.56 211.36 576.8 201.4 577.06 201.84C577.06 201.84 563.7 212.88 563.96 213.34C563.96 213.34 574.36 207.02 574.5 207.26C574.5 207.26 568.2 211.3 568.26 211.4C568.3 211.48 579.6 204.84 579.6 204.84C579.6 204.84 569.26 212.5 569.32 212.62C569.4 212.76 577.26 208.04 577.26 208.04C577.26 208.04 570.06 215.26 570.1 215.34L572.48 213.96" stroke="white" stroke-linecap="round" stroke-linejoin="round"/>
<path d="M500.58 221.7L506.94 218.02L505.78 220.24L509.36 218.18C509.48 218.38 505.62 223.92 505.62 223.92C505.64 223.98 517.44 217.02 517.48 217.08C517.78 217.58 505.36 228.68 505.36 228.68L524.74 217.48C525.24 218.34 504.34 232.16 504.56 232.52C505.66 234.44 576.42 191.02 576.42 191.02C576.42 191.02 500.64 235.88 501.22 236.86C502.8 239.58 582.62 189.86 582.62 189.86C582.62 189.86 504.84 237.3 505.52 238.48C505.96 239.26 580.12 194.16 580.66 195.1C581.08 195.82 499.24 244.02 499.8 244.96C500.74 246.6 552.18 214.72 552.18 214.72C553.22 216.52 504.38 244.72 504.38 244.72C505.04 245.86 554.2 215.96 554.2 215.96C555.2 217.68 508.36 244.88 508.5 245.12C508.56 245.22 551.32 220.1 551.44 220.32C551.58 220.56 510.46 246.3 510.46 246.3C511.28 247.7 556.94 219.08 557.1 219.38C557.1 219.38 519.64 244.04 520.2 245.02C520.34 245.28 567.1 217.94 567.1 217.94C567.1 217.94 520.48 246.04 521.14 247.16C521.48 247.74 573.28 217.06 573.28 217.06C574.34 218.9 520.7 249.7 520.7 249.7L576.04 217.74C576.04 217.74 517.62 250 518.54 251.6L573.26 220C573.66 220.7 517.38 255.32 517.38 255.32C518.16 256.68 573.58 222.86 573.58 222.86L521.16 253.86C521.86 255.08 571.08 224.68 571.24 224.94C572.04 226.32 516.24 256.86 517.18 258.5C517.44 258.96 574.12 223.5 575.04 225.1C575.96 226.7 517.08 260.76 517.92 262.2C517.92 262.2 571.94 229.58 572.56 230.66C572.56 230.66 520.84 263.9 521.48 265C521.48 265 554.14 246.02 554.18 246.12C554.48 246.64 518.02 268.98 518.02 268.98L555.86 247.14C556.42 248.1 517.64 273.24 517.96 273.78C518.16 274.14 553.98 252.98 553.98 252.98C554.26 253.48 518.82 277.28 519.1 277.76L555.34 256.84C555.34 256.84 522.86 278.84 523.26 279.54L553.06 262.34C553.82 263.66 520.04 281.98 520.26 282.38C520.56 282.9 554.88 262.4 554.88 262.4L517.2 285.84C517.2 285.84 552.34 264.7 552.7 265.34L523.18 282.76C523.18 282.76 550.96 266.08 551.24 266.56C551.3 266.66 518.5 287.66 518.5 287.66C518.5 287.66 555.28 265.54 555.66 266.2C555.7 266.28 520.72 285.26 521.3 286.26C521.3 286.26 553.42 266.14 554.1 267.32L522.62 289.88C522.82 290.22 553.96 271.78 553.96 271.78C554.58 272.86 521.18 294.72 521.18 294.72C521.32 294.98 555.1 274.66 555.32 275.02C555.9 276.04 519.52 299.78 519.52 299.78C520.08 300.74 555.58 278.96 555.58 278.96C555.58 278.96 517.34 302.52 517.84 303.38C518.28 304.14 550.4 283.14 551.02 284.22C551.6 285.24 526.42 302.66 526.42 302.66C526.88 303.46 556.58 284.28 557 285C557.48 285.84 533.3 300.76 533.68 301.4C533.88 301.74 551.78 290.96 551.78 290.96C551.94 291.26 537.22 303.62 537.22 303.62C537.22 303.62 556.72 291.88 556.94 292.24C557.02 292.36 550.34 300.3 550.34 300.3C550.36 300.34 554.26 298.02 554.26 298.04C554.34 298.18 550.24 302.22 550.24 302.22L554.4 299.82" stroke="white" stroke-linecap="round" stroke-linejoin="round"/>
<path d="M529.52 195.92L534.92 192.8C535.1 193.1 525.96 198.44 525.96 198.44C526.04 198.56 541.26 189.34 541.38 189.54C541.66 190.02 523.64 203.02 523.64 203.02C523.88 203.44 550.38 187.58 550.38 187.58C550.62 188 524.78 205.88 524.82 205.94C525.42 207 557.42 185.82 557.98 186.8C558.68 188.02 522.98 210.82 523.48 211.66C523.94 212.44 566.82 186.48 566.88 186.6C567.86 188.3 518.38 218.4 518.86 219.22C519.84 220.92 572.62 185.9 573.6 187.62C573.98 188.28 522.4 217.68 523.28 219.18L571.9 191.12" stroke="white" stroke-linecap="round" stroke-linejoin="round"/>
<path d="M617.88 242.22C618.42 243.14 653.22 221.82 653.22 221.82C653.32 221.98 626.62 238.72 626.62 238.72L654.74 222.48C655.22 223.3 631.78 239.34 631.78 239.34C631.88 239.5 660.08 222.78 660.18 222.94C660.72 223.86 635.62 241.72 635.62 241.72L663.02 225.9C663.64 226.98 636.68 243.9 636.94 244.34C637.3 244.98 660.94 230.48 660.94 230.48C660.94 230.48 634.58 247.66 634.78 248C635.3 248.9 667.02 229.38 667.02 229.38C667.02 229.38 640.46 248.26 640.7 248.68C640.86 248.94 667.86 232.58 668.04 232.9C668.22 233.2 635.48 254.36 635.7 254.76C636.2 255.62 665.04 237.82 665.04 237.82C665.58 238.76 640.58 254.34 640.58 254.34C640.94 254.96 668.46 238.24 668.46 238.24C669.12 239.36 638.8 257.94 638.88 258.1C638.92 258.16 666.56 241.92 666.66 242.06C666.76 242.24 636.72 261.68 636.72 261.68C637.26 262.6 669.12 242.72 669.24 242.9C669.24 242.9 638.74 263.78 639.2 264.58C639.3 264.76 672.44 245.4 672.44 245.4C672.44 245.4 639.48 266.04 639.94 266.84C640.14 267.2 673.9 247.24 673.9 247.24C674.62 248.48 638.9 269.72 638.9 269.72L673.3 249.86C673.3 249.86 635.96 270.72 636.56 271.74L670.66 252.06C670.94 252.52 633.94 276.32 633.94 276.32C634.44 277.18 671.2 254.8 671.2 254.8L637.18 275.18C637.62 275.96 668.8 256.68 668.9 256.86C669.48 257.86 629.52 279.98 630.2 281.14C630.38 281.46 672.18 255.42 672.82 256.54" stroke="white" stroke-linecap="round" stroke-linejoin="round"/>
<path d="M596.84 225.76L604.12 221.56C604.36 221.96 592.4 228.8 592.4 228.8C592.5 228.96 610.54 217.98 610.7 218.24C611.04 218.84 587.78 234.7 587.78 234.7C588.08 235.24 620.82 215.62 620.82 215.62C621.14 216.16 587.3 238.46 587.36 238.56C588.14 239.9 628.02 213.44 628.74 214.68C629.64 216.24 583.76 244.14 584.38 245.24C584.94 246.22 637.36 214.46 637.44 214.6C638.64 216.66 578.18 252.38 578.76 253.38C579.94 255.44 642.3 213.94 643.5 216C643.96 216.8 581.72 252.56 582.76 254.38L642.3 220C643.26 221.64 576.56 259.98 576.56 259.98L645.3 220.3C646 221.52 581.66 258.36 581.66 258.36C582.84 260.4 650.62 216.56 651.48 218.04C651.48 218.04 578.62 257.66 579.82 259.74C579.88 259.86 650.42 217.52 651.04 218.62L579.92 262.26L650.96 221.24C650.96 221.24 581.8 265.18 582.02 265.58C582.02 265.58 617.06 244.42 617.46 245.12C617.62 245.38 579.12 266.04 579.94 267.46C580.1 267.72 614.18 247.68 614.18 247.68C614.5 248.22 580.42 271.06 580.42 271.06C580.42 271.06 613.56 251.54 613.74 251.82C613.94 252.16 579.54 271 580.1 271.96C580.46 272.6 613.6 252.62 613.6 252.62C613.72 252.82 584.16 270.36 584.16 270.36C584.16 270.36 611.1 254.72 611.14 254.78C611.14 254.78 582.1 274.6 582.34 275L611.26 258.3C611.26 258.3 578 277.04 578.48 277.88C578.54 277.98 612.28 257.72 612.56 258.2C612.56 258.2 583.44 273.92 584.04 274.92C584.38 275.5 611.06 258.18 611.56 259.04C611.8 259.46 580.14 281.8 580.24 281.98C580.28 282.06 609.92 263.58 610.46 264.52C610.52 264.62 586.36 281 586.64 281.5C586.64 281.5 614.22 264.64 614.62 265.34C615.24 266.42 588.22 283 588.36 283.26C588.58 283.66 612.32 268.28 612.82 269.14C612.86 269.22 587.22 283.46 587.44 283.86C587.44 283.86 611.26 270.1 611.26 270.12C611.72 270.92 584.58 286.08 584.58 286.08C584.96 286.74 611.56 270.5 611.56 270.5L587.24 288.06C587.24 288.06 612.62 272.2 613.14 273.1C613.44 273.6 591.28 288.44 591.5 288.8L614.3 275.64L590.62 293.48C590.62 293.48 619.26 276.66 619.38 276.88C619.38 276.88 592.04 292.38 592.28 292.78L619.38 277.12C619.8 277.84 590.72 294.66 591.06 295.24L620.2 278.42C620.2 278.42 595.52 292.32 596.08 293.28C596.42 293.88 621.9 278.36 621.9 278.36C621.9 278.36 593.78 295.58 593.92 295.86L619.08 281.34C619.08 281.34 597.48 294.5 597.48 294.52L621.12 280.86L596.96 295.54C596.96 295.54 621.64 281.16 621.68 281.26L599.04 298.36C599.14 298.52 630.22 279.38 630.64 280.12L602.34 300.94C603.2 302.42 673.5 259.86 673.5 259.86C673.5 259.86 603.94 299.52 605.44 302.12C606.1 303.28 674.1 260.92 674.76 262.1C675.72 263.76 604.72 302.52 605.46 303.8L668.54 267.38C669.56 269.16 610.26 302.2 610.26 302.2C611.1 303.68 672.7 266.16 672.7 266.16C672.76 266.26 613.96 303.36 614.32 303.96C614.4 304.1 669.02 272.38 669.02 272.38C670.06 274.2 623.3 303.12 623.46 303.42C623.78 303.96 670.9 274.4 671.62 275.62C671.9 276.1 624.86 303.62 625.78 305.24C625.88 305.42 664.46 282.76 664.52 282.88L637.08 303.68C637.08 303.68 658.92 289.98 659.38 290.8C659.84 291.62 638.4 303.96 638.4 303.96C638.48 304.1 662.26 290.18 662.26 290.18C662.26 290.18 641.52 302.86 641.58 302.96C641.66 303.1 656.94 294.08 656.94 294.08" stroke="white" stroke-linecap="round" stroke-linejoin="round"/>
<path d="M677.88 193.04L681.82 190.76C681.92 190.94 676.84 194.1 676.84 194.1C676.84 194.1 684.16 189.84 684.18 189.86C684.28 190.04 679 196.08 679 196.08C679.06 196.2 689.8 189.84 689.8 189.84C689.88 189.98 682 197.92 682.02 197.94C682.26 198.36 696.58 189 696.82 189.4C697.16 190 681.42 202.68 681.66 203.1C681.9 203.52 706.1 188.92 706.14 188.98C706.76 190.04 677.02 210 677.32 210.52C677.92 211.58 713.6 188.16 714.2 189.22C714.46 189.66 681.18 210.28 681.76 211.26L710.14 194.88C710.64 195.76 675.68 216.78 675.68 216.78L710.78 196.52C711.12 197.1 680.88 215.1 680.88 215.1C681.42 216.04 715.08 194.44 715.48 195.12C715.48 195.12 678.46 215.4 679.06 216.46C679.1 216.52 714.4 195.4 714.68 195.9L679.2 218.96L712.04 200C712.04 200 680.92 222.26 681.02 222.46C681.02 222.46 714.18 202.44 714.56 203.1C714.7 203.34 678.14 223.02 678.9 224.36C679.04 224.62 711.8 205.36 711.8 205.36C712.1 205.9 678.88 228.26 678.88 228.26C678.88 228.26 712.58 208.42 712.76 208.7C712.96 209.04 677.86 228.26 678.42 229.24C678.8 229.9 712.84 209.38 712.84 209.38C712.96 209.6 682.36 227.72 682.36 227.72C682.36 227.72 710.44 211.42 710.48 211.48C710.48 211.48 679.6 232.32 679.86 232.76L710.88 214.86C710.88 214.86 675.36 234.82 675.86 235.72C675.92 235.82 711.92 214.2 712.22 214.72C712.22 214.72 680.72 231.7 681.36 232.8C681.72 233.42 710.7 214.64 711.22 215.56C711.48 216.02 675.92 240.54 676.04 240.74C676.1 240.82 709.26 220.12 709.88 221.2C709.94 221.32 681.06 240.28 681.42 240.88C681.42 240.88 713.18 221.44 713.66 222.26C714.42 223.56 681.76 243.02 681.92 243.34C682.2 243.82 710.62 225.4 711.22 226.42C711.28 226.52 680.7 243.46 680.98 243.94C680.98 243.94 709.64 227.38 709.64 227.4C710.2 228.36 677.88 246.3 677.88 246.3C678.34 247.08 709.82 227.86 709.82 227.86L679 249.18C679 249.18 709.64 230.02 710.28 231.12C710.66 231.78 681.24 250.46 681.52 250.94L710.12 234.42L678.24 257C678.24 257 712.48 236.88 712.64 237.14C712.64 237.14 679.46 255.88 679.76 256.38L712.48 237.48C713 238.38 676.92 258.82 677.34 259.54L711.92 239.58C711.92 239.58 681 256.76 681.7 257.96C682.12 258.68 712.76 240.02 712.76 240.02C712.76 240.02 678.4 260.76 678.6 261.08L708.68 243.72C708.68 243.72 681.64 260.02 681.66 260.04L710.08 243.64L680.62 261.38C680.62 261.38 709.68 244.44 709.76 244.56L679.52 266.04C679.62 266.2 711.64 246.48 712.08 247.24L678.92 270.86C679.3 271.52 713.16 251.08 713.16 251.08C713.16 251.08 678.14 272.5 678.9 273.82C679.22 274.36 714.32 252.64 714.64 253.18C715.16 254.08 676.74 275.82 677.14 276.5L708.54 258.38C709.04 259.24 680.7 275.62 680.7 275.62C681.12 276.34 712.76 257.1 712.76 257.1C712.8 257.16 679.42 279.98 679.62 280.32C679.66 280.4 710.04 262.76 710.04 262.76C710.7 263.92 681.82 283.54 681.92 283.72C682.12 284.08 713.96 264.16 714.42 264.96C714.64 265.32 678.24 287.32 678.98 288.58C679.06 288.72 709.06 271.08 709.12 271.18L679 293.54C679 293.54 709.14 274.6 709.8 275.76C710.54 277.04 677 295.74 677 295.74C677.14 296 714.82 273.9 714.82 273.9C714.82 273.9 675.72 298.12 675.82 298.3C676.12 298.82 712.8 276.94 712.8 276.94L679.96 298.58C680.6 299.68 710.78 279.24 711.46 280.4C712.26 281.78 675.36 300.62 675.86 301.5C675.86 301.5 709.92 280.5 710.5 281.5C711.08 282.5 680.42 301.76 680.42 301.76C680.64 302.14 712.44 282.14 712.94 282.98L682.16 303.82C682.16 303.82 710.28 286.54 710.74 287.32C710.74 287.32 686.66 300.86 687.12 301.66C687.24 301.86 709.36 288.82 709.36 288.82C709.68 289.38 693.18 302.58 693.18 302.58C693.18 302.58 712.1 291.62 712.1 291.66C712.18 291.8 701.78 300.08 701.78 300.08C702 300.46 710.72 294.72 710.82 294.86C710.88 294.98 705.24 301.22 705.24 301.24L712.54 297.02L708.5 302.3L714.54 298.8" stroke="white" stroke-linecap="round" stroke-linejoin="round"/>
<path d="M719.7 222.58L726.12 218.88L725.06 221.04L728.98 218.78C729.1 218.98 725.22 224.54 725.22 224.54C725.26 224.6 737.82 217.18 737.84 217.24C738.14 217.76 725.22 229.14 725.22 229.14L745.36 217.5C745.86 218.38 724.3 232.56 724.52 232.92C724.86 233.52 747.2 219.82 747.2 219.82C747.2 219.82 721.04 236.88 721.26 237.22C721.84 238.22 756.1 217.1 756.1 217.1C756.1 217.1 725.3 238.34 725.58 238.84C725.76 239.16 758.68 219.2 758.92 219.6C759.12 219.96 719.6 244.86 719.88 245.32C720.46 246.34 754.16 225.52 754.16 225.52C754.82 226.66 724.2 245.22 724.2 245.22C724.62 245.94 756.4 226.64 756.4 226.64C757.14 227.94 722.2 248.92 722.3 249.1C722.34 249.16 753.5 230.88 753.58 231.04C753.7 231.24 719.96 252.78 719.96 252.78C720.56 253.8 755.22 232.14 755.34 232.36C755.34 232.36 722.04 254.76 722.56 255.62C722.66 255.8 757.36 235.54 757.36 235.54C757.36 235.54 723 256.94 723.5 257.78C723.7 258.14 758.28 237.7 758.28 237.7C759 238.94 723.06 260.32 723.06 260.32L757.22 240.6C757.22 240.6 720.3 261.22 720.9 262.24L754.44 242.88C754.7 243.32 719.74 265.98 719.74 265.98C720.2 266.78 754.78 245.76 754.78 245.76L723.54 264.54C723.94 265.24 752.36 247.7 752.44 247.86C752.94 248.7 718.98 268.18 719.56 269.2C719.72 269.46 755.7 247.1 756.24 248.02C756.82 249.04 719.76 271.98 720.28 272.9C720.28 272.9 753.38 252.96 753.74 253.58C753.74 253.58 723.46 275.04 723.84 275.7C723.84 275.7 756.22 256.9 756.26 256.98C756.56 257.48 720.38 279.68 720.38 279.68L757.94 258C758.5 258.96 719.98 283.96 720.3 284.5C720.5 284.86 756.06 263.86 756.06 263.86C756.34 264.36 721.1 288.04 721.38 288.54L757.42 267.74C757.42 267.74 724.98 289.72 725.38 290.42L755.14 273.24C755.9 274.56 722.1 292.88 722.34 293.28C722.64 293.8 756.96 273.28 756.96 273.28L719.18 296.78C719.18 296.78 754.42 275.58 754.8 276.22L725.14 293.72C725.14 293.72 753.04 276.96 753.32 277.44C753.38 277.54 720.3 298.7 720.3 298.7C720.3 298.7 757.36 276.42 757.74 277.08C757.78 277.16 722.52 296.3 723.1 297.3C723.1 297.3 755.52 277 756.2 278.18L724.86 300.66C725.06 300.98 756.08 282.64 756.08 282.64C756.56 283.48 730.64 301.34 730.64 301.34C730.74 301.54 757.36 285.54 757.52 285.82C757.88 286.44 736.44 302.08 736.44 302.08C736.72 302.58 757.88 289.7 757.88 289.7C757.88 289.7 738.36 303 738.64 303.46C738.8 303.76 753.24 294.46 753.48 294.88C753.68 295.22 747.2 302.74 747.2 302.74C747.3 302.9 759.66 295.36 759.74 295.5C759.88 295.74 753.64 301.3 753.76 301.48L754.7 300.94" stroke="white" stroke-linecap="round" stroke-linejoin="round"/>
<path d="M722.26 193.06L726.22 190.78C726.32 190.96 721.16 194.16 721.16 194.16C721.16 194.16 728.56 189.84 728.58 189.88C728.68 190.06 722.96 196.36 722.96 196.36C723.04 196.48 734.2 189.86 734.2 189.86C734.3 190.02 725.7 198.34 725.7 198.36C725.96 198.82 740.96 189 741.2 189.42C741.56 190.04 724.88 203.2 725.14 203.64C725.4 204.08 750.48 188.92 750.52 188.98C751.14 190.08 720.4 210.56 720.7 211.08C721.32 212.16 757.94 188.12 758.58 189.22C758.84 189.68 724.54 210.82 725.12 211.84L753.56 195.42C754.02 196.22 722.22 215.52 722.22 215.52L754.42 196.94C754.7 197.42 729.72 212.52 729.72 212.52C730.18 213.3 758.88 194.92 759.22 195.5C759.22 195.5 727.94 212.68 728.46 213.58C728.48 213.62 758.22 195.86 758.46 196.26L733.08 213.48L756 200.24C756 200.24 742.76 212.32 742.82 212.4C742.82 212.4 758.54 202.98 758.7 203.24C758.76 203.36 741.5 212.98 741.86 213.62C741.92 213.72 755.96 205.48 755.96 205.48C756.04 205.62 748.62 213.62 748.62 213.62C748.62 213.62 756.94 208.76 756.96 208.8C757 208.88 749.26 213.66 749.38 213.88C749.42 213.94 757.04 209.46 757.04 209.46L754.6 211.62L754.68 211.58C754.68 211.58 753.12 213.04 753.14 213.06L755.08 211.94" stroke="white" stroke-linecap="round" stroke-linejoin="round"/>
<path d="M800.52 242.22C801.06 243.14 835.86 221.82 835.86 221.82C835.96 221.98 809.26 238.72 809.26 238.72L837.38 222.48C837.86 223.3 814.42 239.34 814.42 239.34C814.52 239.5 842.72 222.78 842.82 222.94C843.36 223.86 818.26 241.72 818.26 241.72L845.66 225.9C846.28 226.98 819.32 243.9 819.58 244.34C819.94 244.98 843.58 230.48 843.58 230.48C843.58 230.48 817.22 247.66 817.42 248C817.94 248.9 849.66 229.38 849.66 229.38C849.66 229.38 823.1 248.26 823.34 248.68C823.5 248.94 850.5 232.58 850.68 232.9C850.86 233.2 818.12 254.36 818.34 254.76C818.84 255.62 847.68 237.82 847.68 237.82C848.22 238.76 823.22 254.34 823.22 254.34C823.58 254.96 851.1 238.24 851.1 238.24C851.76 239.36 821.44 257.94 821.52 258.1C821.56 258.16 849.2 241.92 849.3 242.06C849.4 242.24 819.36 261.68 819.36 261.68C819.9 262.6 851.76 242.72 851.88 242.9C851.88 242.9 821.38 263.78 821.84 264.58C821.94 264.76 855.08 245.4 855.08 245.4C855.08 245.4 822.12 266.04 822.58 266.84C822.78 267.2 856.54 247.24 856.54 247.24C857.26 248.48 821.54 269.72 821.54 269.72L855.94 249.86C855.94 249.86 818.6 270.72 819.2 271.74L853.3 252.06C853.58 252.52 816.58 276.32 816.58 276.32C817.08 277.18 853.84 254.8 853.84 254.8L819.82 275.18C820.26 275.96 851.44 256.68 851.54 256.86C852.12 257.86 812.16 279.98 812.84 281.14C813.02 281.46 854.82 255.42 855.46 256.54" stroke="white" stroke-linecap="round" stroke-linejoin="round"/>
<path d="M779.5 225.76L786.78 221.56C787.02 221.96 775.06 228.8 775.06 228.8C775.16 228.96 793.2 217.98 793.36 218.24C793.7 218.84 770.44 234.7 770.44 234.7C770.74 235.24 803.48 215.62 803.48 215.62C803.8 216.16 769.96 238.46 770.02 238.56C770.8 239.9 810.68 213.44 811.4 214.68C812.3 216.24 766.42 244.14 767.04 245.24C767.6 246.22 820.02 214.46 820.1 214.6C821.3 216.66 760.84 252.38 761.42 253.38C762.6 255.44 824.96 213.94 826.16 216C826.62 216.8 764.38 252.56 765.42 254.38L824.96 220C825.92 221.64 759.22 259.98 759.22 259.98L827.96 220.3C828.66 221.52 764.32 258.36 764.32 258.36C765.5 260.4 833.28 216.56 834.14 218.04C834.14 218.04 761.28 257.66 762.48 259.74C762.54 259.86 833.08 217.52 833.7 218.62L762.58 262.26L833.62 221.24C833.62 221.24 764.46 265.18 764.68 265.58C764.68 265.58 799.72 244.42 800.12 245.12C800.28 245.38 761.78 266.04 762.6 267.46C762.76 267.72 796.84 247.68 796.84 247.68C797.16 248.22 763.08 271.06 763.08 271.06C763.08 271.06 796.22 251.54 796.4 251.82C796.6 252.16 762.2 271 762.76 271.96C763.12 272.6 796.26 252.62 796.26 252.62C796.38 252.82 766.82 270.36 766.82 270.36C766.82 270.36 793.76 254.72 793.8 254.78C793.8 254.78 764.76 274.6 765 275L793.92 258.3C793.92 258.3 760.66 277.04 761.14 277.88C761.2 277.98 794.94 257.72 795.22 258.2C795.22 258.2 766.1 273.92 766.7 274.92C767.04 275.5 793.72 258.18 794.22 259.04C794.46 259.46 762.8 281.8 762.9 281.98C762.94 282.06 792.58 263.58 793.12 264.52C793.18 264.62 769.02 281 769.3 281.5C769.3 281.5 796.88 264.64 797.28 265.34C797.9 266.42 770.88 283 771.02 283.26C771.24 283.66 794.98 268.28 795.48 269.14C795.52 269.22 769.88 283.46 770.1 283.86C770.1 283.86 793.92 270.1 793.92 270.12C794.38 270.92 767.24 286.08 767.24 286.08C767.62 286.74 794.22 270.5 794.22 270.5L769.9 288.06C769.9 288.06 795.28 272.2 795.8 273.1C796.1 273.6 773.94 288.44 774.16 288.8L796.96 275.64L773.28 293.48C773.28 293.48 801.92 276.66 802.04 276.88C802.04 276.88 774.7 292.38 774.94 292.78L802.04 277.12C802.46 277.84 773.38 294.66 773.72 295.24L802.86 278.42C802.86 278.42 778.18 292.32 778.74 293.28C779.08 293.88 804.56 278.36 804.56 278.36C804.56 278.36 776.44 295.58 776.58 295.86L801.74 281.34C801.74 281.34 780.14 294.5 780.14 294.52L803.78 280.86L779.62 295.54C779.62 295.54 804.3 281.16 804.34 281.26L781.7 298.36C781.8 298.52 812.88 279.38 813.3 280.12L785 300.94C785.86 302.42 856.16 259.86 856.16 259.86C856.16 259.86 786.6 299.52 788.1 302.12C788.76 303.28 856.76 260.92 857.42 262.1C858.38 263.76 787.38 302.52 788.12 303.8L851.2 267.38C852.22 269.16 792.92 302.2 792.92 302.2C793.76 303.68 855.36 266.16 855.36 266.16C855.42 266.26 796.62 303.36 796.98 303.96C797.06 304.1 851.68 272.38 851.68 272.38C852.72 274.2 805.96 303.12 806.12 303.42C806.44 303.96 853.56 274.4 854.28 275.62C854.56 276.1 807.52 303.62 808.44 305.24C808.54 305.42 847.12 282.76 847.18 282.88L819.74 303.68C819.74 303.68 841.58 289.98 842.04 290.8C842.5 291.62 821.06 303.96 821.06 303.96C821.14 304.1 844.92 290.18 844.92 290.18C844.92 290.18 824.18 302.86 824.24 302.96C824.32 303.1 839.6 294.08 839.6 294.08" stroke="white" stroke-linecap="round" stroke-linejoin="round"/>
</g>
<defs>
<clipPath id="clip0_510_66796">
<rect width="1035.18" height="544.84" fill="white"/>
</clipPath>
</defs>
</svg>
