<svg width="1406" height="90" viewBox="0 0 1406 90" fill="none" xmlns="http://www.w3.org/2000/svg">
<rect x="644" y="52.7559" width="118" height="29" fill="#EFEA88"/>
<path d="M646.562 69.375C645.979 69.125 645.562 68.7083 645.312 68.125V67C649.312 60.9167 652.75 54.4792 655.625 47.6875C658.542 40.8542 660.708 33.8958 662.125 26.8125C661.875 25.4375 661.125 24.25 659.875 23.25C658.458 22.1667 656.729 21.75 654.688 22C653.688 22.3333 652.708 22.6875 651.75 23.0625C650.792 23.4375 649.896 24 649.062 24.75C647.812 26.125 647.188 27.7292 647.188 29.5625L648.062 31.3125L649.188 31.9375C649.521 32.3542 649.646 32.8958 649.562 33.5625C649.312 34.2292 648.854 34.6875 648.188 34.9375H647.062C645.729 34.1875 644.729 33.1042 644.062 31.6875C643.562 30.5208 643.396 29.1875 643.562 27.6875C643.812 26.6042 644.208 25.6042 644.75 24.6875C645.292 23.7292 645.938 22.8333 646.688 22C648.188 20.6667 649.833 19.6875 651.625 19.0625C653.417 18.4375 655.375 18.2083 657.5 18.375C658.75 18.5417 659.896 18.9583 660.938 19.625C661.979 20.2917 662.958 21.125 663.875 22.125C664.875 23.2917 665.458 24.6667 665.625 26.25C665.792 27.7917 665.833 29.3958 665.75 31.0625C663.75 36.8125 661.625 42.5208 659.375 48.1875C657.125 53.8542 654.396 59.2917 651.188 64.5H652.688L659.5 64.25C660.667 64.25 661.833 64.3125 663 64.4375C664.167 64.5625 665.208 65 666.125 65.75C666.542 66.3333 666.667 67.0417 666.5 67.875C666.25 68.4583 665.833 68.875 665.25 69.125H664.25L663.25 68.375V68.125L655.5 67.875C653.875 67.875 652.333 68 650.875 68.25C649.417 68.5 647.979 68.875 646.562 69.375ZM685.688 68.5C684.604 68.25 683.604 67.8125 682.688 67.1875C681.771 66.5625 680.896 65.7917 680.062 64.875C678.729 63.0417 677.792 61.0625 677.25 58.9375C676.708 56.8125 676.312 54.6042 676.062 52.3125V45.4375C676.479 40.9375 677.146 36.4375 678.062 31.9375C678.979 27.4375 681.062 23.375 684.312 19.75C685.896 18.3333 687.792 17.5417 690 17.375C690.583 17.625 691 18.0417 691.25 18.625V19.625L691 20.375C692.167 20.7083 693.167 21.375 694 22.375C695.5 25.0833 696.521 27.8958 697.062 30.8125C697.604 33.7292 697.917 36.7292 698 39.8125V46.5625C697.833 49.9792 697.479 53.4167 696.938 56.875C696.396 60.2917 694.917 63.3333 692.5 66C691.583 66.9167 690.542 67.5833 689.375 68C688.25 68.4167 687.021 68.5833 685.688 68.5ZM689 64.125C690.5 63.0417 691.583 61.6667 692.25 60C693 57.9167 693.521 55.75 693.812 53.5C694.104 51.2083 694.292 48.8958 694.375 46.5625V39.8125C694.292 37.0625 694.021 34.3958 693.562 31.8125C693.104 29.2292 692.25 26.7708 691 24.4375L688.625 23.375L688.125 21.875H687.688C686.354 22.625 685.354 23.6458 684.688 24.9375C684.021 26.1875 683.396 27.3958 682.812 28.5625C681.979 31.3125 681.312 34.0833 680.812 36.875C680.312 39.6667 679.938 42.5208 679.688 45.4375V52.3125C680.021 54.3958 680.458 56.4583 681 58.5C681.542 60.5 682.604 62.2917 684.188 63.875C685.021 64.5417 686.021 64.875 687.188 64.875L689 64.125ZM710.562 69.375C709.979 69.125 709.562 68.7083 709.312 68.125V67C713.312 60.9167 716.75 54.4792 719.625 47.6875C722.542 40.8542 724.708 33.8958 726.125 26.8125C725.875 25.4375 725.125 24.25 723.875 23.25C722.458 22.1667 720.729 21.75 718.688 22C717.688 22.3333 716.708 22.6875 715.75 23.0625C714.792 23.4375 713.896 24 713.062 24.75C711.812 26.125 711.188 27.7292 711.188 29.5625L712.062 31.3125L713.188 31.9375C713.521 32.3542 713.646 32.8958 713.562 33.5625C713.312 34.2292 712.854 34.6875 712.188 34.9375H711.062C709.729 34.1875 708.729 33.1042 708.062 31.6875C707.562 30.5208 707.396 29.1875 707.562 27.6875C707.812 26.6042 708.208 25.6042 708.75 24.6875C709.292 23.7292 709.938 22.8333 710.688 22C712.188 20.6667 713.833 19.6875 715.625 19.0625C717.417 18.4375 719.375 18.2083 721.5 18.375C722.75 18.5417 723.896 18.9583 724.938 19.625C725.979 20.2917 726.958 21.125 727.875 22.125C728.875 23.2917 729.458 24.6667 729.625 26.25C729.792 27.7917 729.833 29.3958 729.75 31.0625C727.75 36.8125 725.625 42.5208 723.375 48.1875C721.125 53.8542 718.396 59.2917 715.188 64.5H716.688L723.5 64.25C724.667 64.25 725.833 64.3125 727 64.4375C728.167 64.5625 729.208 65 730.125 65.75C730.542 66.3333 730.667 67.0417 730.5 67.875C730.25 68.4583 729.833 68.875 729.25 69.125H728.25L727.25 68.375V68.125L719.5 67.875C717.875 67.875 716.333 68 714.875 68.25C713.417 68.5 711.979 68.875 710.562 69.375ZM743.375 69.25L742 68.5C741.667 68.0833 741.542 67.5417 741.625 66.875L742.125 66C745.125 64.1667 748.188 62.3958 751.312 60.6875C754.479 58.9792 756.938 56.4792 758.688 53.1875L758.938 50.3125C758.104 49.3125 757.104 48.5208 755.938 47.9375C753.438 47.0208 750.792 46.375 748 46C745.25 45.625 742.792 44.5208 740.625 42.6875C739.625 41.5208 739.167 40.1458 739.25 38.5625C739.667 34.8958 740.417 31.2917 741.5 27.75C742.583 24.1667 744.167 20.7917 746.25 17.625C746.833 17.125 747.542 16.9167 748.375 17C748.958 17.25 749.375 17.6667 749.625 18.25V19.375L749.125 20.375H749.5C751.708 20.0417 753.896 19.7708 756.062 19.5625C758.229 19.3542 760.479 19.25 762.812 19.25C763.396 19.5 763.812 19.9167 764.062 20.5V21.5C763.812 22.0833 763.396 22.5 762.812 22.75C760.062 22.8333 757.333 23.0417 754.625 23.375C751.958 23.6667 749.292 23.9792 746.625 24.3125C745.708 26.6458 744.896 29.0625 744.188 31.5625C743.479 34.0625 743.042 36.6458 742.875 39.3125L743.625 40.5625C746.542 41.8958 749.625 42.7917 752.875 43.25C756.167 43.7083 759.062 45.1875 761.562 47.6875C762.479 49.1042 762.812 50.7708 762.562 52.6875C762.229 54.2708 761.625 55.7292 760.75 57.0625C759.875 58.3542 758.812 59.5833 757.562 60.75C755.396 62.5 753.083 64.0417 750.625 65.375C748.208 66.7083 745.792 68 743.375 69.25Z" fill="#0A0909"/>
</svg>
