<svg width="234" height="38" viewBox="0 0 234 38" fill="none" xmlns="http://www.w3.org/2000/svg">
<path d="M6.09375 33.0469C5.41667 32.9427 4.77865 32.7604 4.17969 32.5C3.58073 32.2396 3.02083 31.849 2.5 31.3281C1.66667 30.3906 1.05469 29.362 0.664062 28.2422C0.273438 27.0964 0.0520833 25.8984 0 24.6484V19.2578C0.260417 16.4974 0.677083 13.737 1.25 10.9766C1.82292 8.1901 3.22917 5.80729 5.46875 3.82812C6.35417 3.09896 7.26562 2.46094 8.20312 1.91406C9.16667 1.36719 10.2734 1.17188 11.5234 1.32812C12.2005 1.48438 12.8516 1.70573 13.4766 1.99219C14.1016 2.27865 14.6745 2.70833 15.1953 3.28125C15.8203 4.01042 16.0547 4.86979 15.8984 5.85938C15.7422 6.27604 15.4557 6.5625 15.0391 6.71875H14.4141C14.0495 6.5625 13.7891 6.30208 13.6328 5.9375C13.737 5.3125 13.5547 4.79167 13.0859 4.375C12.2005 3.75 11.1589 3.48958 9.96094 3.59375C9.17969 3.95833 8.42448 4.41406 7.69531 4.96094C6.99219 5.50781 6.32812 6.11979 5.70312 6.79688C4.40104 8.59375 3.55469 10.5729 3.16406 12.7344C2.77344 14.8958 2.47396 17.0703 2.26562 19.2578V24.6484C2.31771 25.638 2.51302 26.6016 2.85156 27.5391C3.1901 28.4505 3.69792 29.2708 4.375 30C5.15625 30.5208 6.04167 30.7812 7.03125 30.7812C8.67188 30.5208 10.1823 30 11.5625 29.2188C12.9427 28.4115 14.388 27.7734 15.8984 27.3047C16.263 27.4609 16.5234 27.7214 16.6797 28.0859V28.75C16.2109 29.4271 15.5859 29.9219 14.8047 30.2344C13.4505 30.9115 12.0703 31.5495 10.6641 32.1484C9.25781 32.7474 7.73438 33.0469 6.09375 33.0469ZM27.9297 33.75C27.0703 33.6458 26.2891 33.4115 25.5859 33.0469C24.8828 32.6823 24.2188 32.2135 23.5938 31.6406C22.4479 30.599 21.7188 29.388 21.4062 28.0078C21.0938 26.6016 20.9896 25.1172 21.0938 23.5547C21.1458 21.9401 21.5365 20.4427 22.2656 19.0625C22.9948 17.6823 23.9583 16.4193 25.1562 15.2734C25.7292 14.7005 26.3932 14.3099 27.1484 14.1016C27.9297 13.8932 28.763 13.8411 29.6484 13.9453C30.2734 14.1536 30.9245 14.3359 31.6016 14.4922C32.2786 14.6484 32.8516 15.0651 33.3203 15.7422C34.362 16.9922 35.1432 18.3464 35.6641 19.8047C36.1849 21.263 36.3672 22.8516 36.2109 24.5703C36.2109 26.1849 35.8594 27.6693 35.1562 29.0234C34.4531 30.3516 33.5286 31.5885 32.3828 32.7344C31.7578 33.151 31.0677 33.4375 30.3125 33.5938C29.5573 33.75 28.763 33.8021 27.9297 33.75ZM30.9766 30.8594C32.1745 29.8177 32.9818 28.6068 33.3984 27.2266C33.8151 25.8203 33.9974 24.3099 33.9453 22.6953C33.8932 21.5495 33.6068 20.5078 33.0859 19.5703C32.5651 18.6328 31.9401 17.7214 31.2109 16.8359C30.1172 16.5755 29.0234 16.3672 27.9297 16.2109C27.0703 16.6276 26.3411 17.2135 25.7422 17.9688C25.1432 18.724 24.6094 19.4661 24.1406 20.1953C23.724 21.1328 23.4766 22.1354 23.3984 23.2031C23.3203 24.2708 23.3073 25.3516 23.3594 26.4453C23.4635 27.1224 23.6719 27.7734 23.9844 28.3984C24.2969 28.9974 24.7135 29.5573 25.2344 30.0781C25.7552 30.599 26.3411 30.9766 26.9922 31.2109C27.6693 31.4453 28.3984 31.5365 29.1797 31.4844C29.8047 31.3802 30.4036 31.1719 30.9766 30.8594ZM55.7422 34.1406C55.2214 34.0365 54.7526 33.8021 54.3359 33.4375L53.9453 32.5781V27.3828C54.0495 25.5599 54.2188 23.763 54.4531 21.9922C54.6875 20.2214 54.9089 18.4505 55.1172 16.6797H54.9609C54.0755 17.1484 53.2422 17.7214 52.4609 18.3984C51.6797 19.0755 50.8724 19.7266 50.0391 20.3516C49.4141 22.1745 49.0104 24.1016 48.8281 26.1328C48.6458 28.138 48.5026 30.1562 48.3984 32.1875L48.4766 32.9688C48.2943 33.3333 48.0208 33.5938 47.6562 33.75H47.0312L46.4844 33.4375C46.0677 32.5521 45.9375 31.5625 46.0938 30.4688C46.3542 28.2552 46.6016 26.0547 46.8359 23.8672C47.0703 21.6797 47.3438 19.4922 47.6562 17.3047H47.5C46.7188 18.138 45.9766 18.9714 45.2734 19.8047C44.5703 20.638 43.9062 21.4974 43.2812 22.3828H43.125C42.8125 24.2057 42.513 26.0417 42.2266 27.8906C41.9401 29.7135 41.6667 31.5625 41.4062 33.4375C41.1458 33.6458 40.8073 33.724 40.3906 33.6719C40.026 33.5156 39.7656 33.2552 39.6094 32.8906L39.5312 31.0938C40 28.0469 40.4557 25 40.8984 21.9531C41.3411 18.9062 41.849 16.263 42.4219 14.0234C42.6823 13.8151 43.0208 13.737 43.4375 13.7891C43.8021 13.9453 44.0625 14.2057 44.2188 14.5703V15.7422C44.0104 16.0547 43.8802 16.7578 43.8281 17.8516H43.9844C44.6094 17.1745 45.2214 16.4844 45.8203 15.7812C46.4193 15.0781 47.1094 14.5182 47.8906 14.1016L49.1016 14.0234C49.5182 14.1797 49.8047 14.4661 49.9609 14.8828L50.0391 17.1484L49.9609 17.4609H50.1172C51.0547 16.6276 52.0182 15.8464 53.0078 15.1172C53.9974 14.388 55.1693 14.0755 56.5234 14.1797C56.9401 14.388 57.2266 14.7005 57.3828 15.1172V17.9297C57.0703 19.4401 56.8229 20.9896 56.6406 22.5781C56.4583 24.1667 56.3151 25.7682 56.2109 27.3828V31.9531L56.7578 32.2656C56.9661 32.526 57.0443 32.8646 56.9922 33.2812C56.8359 33.6458 56.5755 33.9062 56.2109 34.0625L55.7422 34.1406ZM69.1797 32.8906C68.763 32.8385 68.4115 32.6302 68.125 32.2656C67.8646 31.4323 67.6693 30.5729 67.5391 29.6875C67.4089 28.8021 67.3698 27.8776 67.4219 26.9141C67.5781 24.987 67.7865 23.0859 68.0469 21.2109C68.3333 19.3359 68.8411 17.5651 69.5703 15.8984C69.8307 15.6901 70.1693 15.612 70.5859 15.6641C70.9505 15.8203 71.2109 16.0807 71.3672 16.4453V17.1484C70.7422 19.0234 70.3125 20.9766 70.0781 23.0078C69.8438 25.0391 69.7266 27.0833 69.7266 29.1406C69.9349 30.1302 70.1432 31.0938 70.3516 32.0312C70.1953 32.3958 69.9349 32.6562 69.5703 32.8125L69.1797 32.8906ZM70.8984 11.2891L70.0391 10.8984C69.7266 10.4818 69.5703 10.013 69.5703 9.49219L69.9609 8.63281C70.3255 8.13802 70.8203 7.94271 71.4453 8.04688C71.9661 8.38542 72.3828 8.84115 72.6953 9.41406V10.2734C72.487 10.6901 72.1745 11.0026 71.7578 11.2109L70.8984 11.2891ZM94.0234 33.125L93.1641 32.6562C92.8516 31.9792 92.6953 31.224 92.6953 30.3906L92.7734 30.3125V26.7578C92.8776 25.2995 93.0208 23.8672 93.2031 22.4609C93.3854 21.0547 93.4766 19.6224 93.4766 18.1641C93.4245 17.4349 93.2161 16.7839 92.8516 16.2109L90.8203 16.1328C89.6745 16.3932 88.5938 16.849 87.5781 17.5C86.5885 18.151 85.651 18.9193 84.7656 19.8047L84.2188 20.3516H84.0625C83.6979 22.3828 83.4635 24.4661 83.3594 26.6016C83.2552 28.7109 83.0208 30.7812 82.6562 32.8125C82.3958 33.0208 82.0573 33.099 81.6406 33.0469C81.276 32.8906 81.0156 32.6302 80.8594 32.2656L80.7812 31.0156C80.8854 27.9688 81.1328 24.974 81.5234 22.0312C81.9141 19.0885 82.5781 16.2109 83.5156 13.3984C83.776 13.1901 84.1146 13.112 84.5312 13.1641C84.8958 13.3203 85.1562 13.5807 85.3125 13.9453V14.7266L84.8438 16.6016H85C86.0938 15.612 87.3047 14.8698 88.6328 14.375C89.987 13.8802 91.4453 13.7109 93.0078 13.8672C93.6328 13.9714 94.1797 14.2839 94.6484 14.8047C95.1693 15.5859 95.4948 16.4453 95.625 17.3828C95.7552 18.3203 95.7943 19.3099 95.7422 20.3516L95.0391 26.9141V31.0938C95.2995 31.4062 95.4036 31.7708 95.3516 32.1875C95.1953 32.6042 94.9089 32.8906 94.4922 33.0469L94.0234 33.125ZM104.766 37.5781C104.036 37.3698 103.294 37.2005 102.539 37.0703C101.784 36.9401 101.068 36.7188 100.391 36.4062C100.182 36.1458 100.104 35.8073 100.156 35.3906C100.312 35.026 100.573 34.7656 100.938 34.6094H102.031C102.865 34.8177 103.698 35.013 104.531 35.1953C105.365 35.3776 106.25 35.4167 107.188 35.3125C108.099 35.2083 108.945 35.0391 109.727 34.8047C110.508 34.5703 111.237 34.1667 111.914 33.5938C112.435 32.5521 112.773 31.4323 112.93 30.2344H112.695C111.758 30.599 110.781 30.9115 109.766 31.1719C108.75 31.4323 107.682 31.5625 106.562 31.5625C105.781 31.5104 105.026 31.3802 104.297 31.1719C103.568 30.9635 102.891 30.599 102.266 30.0781C101.693 29.4271 101.315 28.7109 101.133 27.9297C100.951 27.1484 100.885 25.7943 100.938 23.8672C101.042 22.3568 101.354 20.9115 101.875 19.5312C102.396 18.151 103.203 16.9141 104.297 15.8203C105.339 14.9349 106.471 14.2839 107.695 13.8672C108.945 13.4505 110.299 13.3203 111.758 13.4766C112.487 13.5807 113.151 13.8672 113.75 14.3359C114.349 14.8047 115.013 15.1432 115.742 15.3516C115.951 15.6641 116.029 16.0286 115.977 16.4453C115.664 17.5391 115.456 18.6849 115.352 19.8828V29.6875C115.195 30.7292 115 31.7448 114.766 32.7344C114.531 33.724 114.049 34.6094 113.32 35.3906C112.174 36.3802 110.846 37.0052 109.336 37.2656C107.852 37.526 106.328 37.6302 104.766 37.5781ZM112.227 28.0078L113.086 27.6953V19.8828L113.398 17.0703L112.148 15.9766C111.263 15.7161 110.326 15.638 109.336 15.7422C108.659 15.8984 108.021 16.1328 107.422 16.4453C106.849 16.7578 106.302 17.1224 105.781 17.5391C104.844 18.6328 104.167 19.8307 103.75 21.1328C103.333 22.4349 103.151 24.3359 103.203 26.8359C103.255 27.4609 103.49 28.0078 103.906 28.4766C104.479 28.7891 105.078 29.0104 105.703 29.1406C106.328 29.2708 107.005 29.3099 107.734 29.2578C108.542 29.1016 109.31 28.9062 110.039 28.6719C110.768 28.4375 111.497 28.2161 112.227 28.0078ZM145.547 32.7344L144.688 32.2656C144.479 32.0052 144.401 31.6667 144.453 31.25C144.609 30.8854 144.87 30.625 145.234 30.4688C146.953 30.625 148.477 30.2474 149.805 29.3359C151.159 28.4245 152.435 27.3568 153.633 26.1328C154.102 25.612 154.466 25.0391 154.727 24.4141C154.987 23.7891 155.065 23.0859 154.961 22.3047C154.805 20.7943 154.44 19.7266 153.867 19.1016C151.836 18.0078 149.661 17.4219 147.344 17.3438C145.052 17.2656 142.943 16.5755 141.016 15.2734C140.443 14.7005 140.078 14.0495 139.922 13.3203C139.766 12.5911 139.714 11.8359 139.766 11.0547C139.818 9.70052 140.104 8.4375 140.625 7.26562C141.146 6.06771 141.875 4.97396 142.812 3.98438C144.01 2.89062 145.299 1.95312 146.68 1.17188C148.086 0.390625 149.648 0.078125 151.367 0.234375C152.096 0.286458 152.76 0.481771 153.359 0.820312C153.958 1.15885 154.518 1.61458 155.039 2.1875C155.716 2.86458 155.977 3.72396 155.82 4.76562C155.664 5.13021 155.404 5.39062 155.039 5.54688H154.336C153.971 5.39062 153.711 5.13021 153.555 4.76562C153.659 4.24479 153.503 3.80208 153.086 3.4375C152.148 2.60417 151.029 2.29167 149.727 2.5C148.607 2.76042 147.578 3.21615 146.641 3.86719C145.703 4.51823 144.792 5.26042 143.906 6.09375C143.229 7.00521 142.734 7.98177 142.422 9.02344C142.109 10.0651 141.979 11.1849 142.031 12.3828C142.135 13.0078 142.448 13.5547 142.969 14.0234C145.208 14.7005 147.5 15.1562 149.844 15.3906C152.214 15.625 154.31 16.5495 156.133 18.1641C156.602 18.8411 156.914 19.7526 157.07 20.8984C157.227 22.0443 157.279 23.0599 157.227 23.9453C157.07 24.8828 156.732 25.7422 156.211 26.5234C155.69 27.2786 155.065 27.9948 154.336 28.6719C153.086 29.8698 151.745 30.8724 150.312 31.6797C148.906 32.487 147.318 32.8385 145.547 32.7344ZM167.93 33.75C167.07 33.6458 166.289 33.4115 165.586 33.0469C164.883 32.6823 164.219 32.2135 163.594 31.6406C162.448 30.599 161.719 29.388 161.406 28.0078C161.094 26.6016 160.99 25.1172 161.094 23.5547C161.146 21.9401 161.536 20.4427 162.266 19.0625C162.995 17.6823 163.958 16.4193 165.156 15.2734C165.729 14.7005 166.393 14.3099 167.148 14.1016C167.93 13.8932 168.763 13.8411 169.648 13.9453C170.273 14.1536 170.924 14.3359 171.602 14.4922C172.279 14.6484 172.852 15.0651 173.32 15.7422C174.362 16.9922 175.143 18.3464 175.664 19.8047C176.185 21.263 176.367 22.8516 176.211 24.5703C176.211 26.1849 175.859 27.6693 175.156 29.0234C174.453 30.3516 173.529 31.5885 172.383 32.7344C171.758 33.151 171.068 33.4375 170.312 33.5938C169.557 33.75 168.763 33.8021 167.93 33.75ZM170.977 30.8594C172.174 29.8177 172.982 28.6068 173.398 27.2266C173.815 25.8203 173.997 24.3099 173.945 22.6953C173.893 21.5495 173.607 20.5078 173.086 19.5703C172.565 18.6328 171.94 17.7214 171.211 16.8359C170.117 16.5755 169.023 16.3672 167.93 16.2109C167.07 16.6276 166.341 17.2135 165.742 17.9688C165.143 18.724 164.609 19.4661 164.141 20.1953C163.724 21.1328 163.477 22.1354 163.398 23.2031C163.32 24.2708 163.307 25.3516 163.359 26.4453C163.464 27.1224 163.672 27.7734 163.984 28.3984C164.297 28.9974 164.714 29.5573 165.234 30.0781C165.755 30.599 166.341 30.9766 166.992 31.2109C167.669 31.4453 168.398 31.5365 169.18 31.4844C169.805 31.3802 170.404 31.1719 170.977 30.8594ZM187.93 33.75C187.07 33.6458 186.289 33.4115 185.586 33.0469C184.883 32.6823 184.219 32.2135 183.594 31.6406C182.448 30.599 181.719 29.388 181.406 28.0078C181.094 26.6016 180.99 25.1172 181.094 23.5547C181.146 21.9401 181.536 20.4427 182.266 19.0625C182.995 17.6823 183.958 16.4193 185.156 15.2734C185.729 14.7005 186.393 14.3099 187.148 14.1016C187.93 13.8932 188.763 13.8411 189.648 13.9453C190.273 14.1536 190.924 14.3359 191.602 14.4922C192.279 14.6484 192.852 15.0651 193.32 15.7422C194.362 16.9922 195.143 18.3464 195.664 19.8047C196.185 21.263 196.367 22.8516 196.211 24.5703C196.211 26.1849 195.859 27.6693 195.156 29.0234C194.453 30.3516 193.529 31.5885 192.383 32.7344C191.758 33.151 191.068 33.4375 190.312 33.5938C189.557 33.75 188.763 33.8021 187.93 33.75ZM190.977 30.8594C192.174 29.8177 192.982 28.6068 193.398 27.2266C193.815 25.8203 193.997 24.3099 193.945 22.6953C193.893 21.5495 193.607 20.5078 193.086 19.5703C192.565 18.6328 191.94 17.7214 191.211 16.8359C190.117 16.5755 189.023 16.3672 187.93 16.2109C187.07 16.6276 186.341 17.2135 185.742 17.9688C185.143 18.724 184.609 19.4661 184.141 20.1953C183.724 21.1328 183.477 22.1354 183.398 23.2031C183.32 24.2708 183.307 25.3516 183.359 26.4453C183.464 27.1224 183.672 27.7734 183.984 28.3984C184.297 28.9974 184.714 29.5573 185.234 30.0781C185.755 30.599 186.341 30.9766 186.992 31.2109C187.669 31.4453 188.398 31.5365 189.18 31.4844C189.805 31.3802 190.404 31.1719 190.977 30.8594ZM214.023 33.125L213.164 32.6562C212.852 31.9792 212.695 31.224 212.695 30.3906L212.773 30.3125V26.7578C212.878 25.2995 213.021 23.8672 213.203 22.4609C213.385 21.0547 213.477 19.6224 213.477 18.1641C213.424 17.4349 213.216 16.7839 212.852 16.2109L210.82 16.1328C209.674 16.3932 208.594 16.849 207.578 17.5C206.589 18.151 205.651 18.9193 204.766 19.8047L204.219 20.3516H204.062C203.698 22.3828 203.464 24.4661 203.359 26.6016C203.255 28.7109 203.021 30.7812 202.656 32.8125C202.396 33.0208 202.057 33.099 201.641 33.0469C201.276 32.8906 201.016 32.6302 200.859 32.2656L200.781 31.0156C200.885 27.9688 201.133 24.974 201.523 22.0312C201.914 19.0885 202.578 16.2109 203.516 13.3984C203.776 13.1901 204.115 13.112 204.531 13.1641C204.896 13.3203 205.156 13.5807 205.312 13.9453V14.7266L204.844 16.6016H205C206.094 15.612 207.305 14.8698 208.633 14.375C209.987 13.8802 211.445 13.7109 213.008 13.8672C213.633 13.9714 214.18 14.2839 214.648 14.8047C215.169 15.5859 215.495 16.4453 215.625 17.3828C215.755 18.3203 215.794 19.3099 215.742 20.3516L215.039 26.9141V31.0938C215.299 31.4062 215.404 31.7708 215.352 32.1875C215.195 32.6042 214.909 32.8906 214.492 33.0469L214.023 33.125ZM229.414 33.75L228.047 32.7344V32.5781C227.37 32.0573 226.693 31.5885 226.016 31.1719C225.807 30.8594 225.729 30.4688 225.781 30L226.641 29.1797H227.266C227.891 29.6224 228.516 30.1042 229.141 30.625C229.792 31.1458 230.352 31.6927 230.82 32.2656V32.9688C230.664 33.3333 230.404 33.5938 230.039 33.75H229.414ZM228.359 24.8047C227.995 24.6484 227.734 24.388 227.578 24.0234V22.8516C227.891 19.3099 228.372 15.7943 229.023 12.3047C229.701 8.78906 230.56 5.33854 231.602 1.95312C231.914 1.74479 232.305 1.66667 232.773 1.71875C233.138 1.875 233.398 2.13542 233.555 2.5V3.20312C232.565 6.69271 231.745 10.2344 231.094 13.8281C230.443 17.3958 229.883 20.9766 229.414 24.5703C229.154 24.7786 228.802 24.8568 228.359 24.8047Z" fill="#0A0909"/>
</svg>
