<svg width="1406" height="112" viewBox="0 0 1406 112" fill="none" xmlns="http://www.w3.org/2000/svg">
<rect x="362" y="52.7559" width="694" height="29" fill="#F8F280"/>
<path d="M390.938 71.125L390.062 70.625C389.229 69.2083 388.938 67.5833 389.188 65.75C389.521 63.5833 390.062 61.5 390.812 59.5C391.562 57.4583 392.354 55.4792 393.188 53.5625C391.438 53.1458 389.604 53.0208 387.688 53.1875C384.604 53.4375 381.583 53.7917 378.625 54.25C375.667 54.7083 372.688 55.2708 369.688 55.9375C369.104 55.6875 368.688 55.2708 368.438 54.6875V53.6875L369.688 52.3125C373.271 51.4792 376.917 50.8125 380.625 50.3125C384.333 49.8125 388.104 49.5625 391.938 49.5625C393.604 49.6458 395.062 50.1875 396.312 51.1875C397.062 51.9375 397.312 52.8958 397.062 54.0625C396.062 56.2292 395.104 58.4375 394.188 60.6875C393.271 62.8958 392.812 65.2917 392.812 67.875L393.188 69.875C392.938 70.4583 392.521 70.875 391.938 71.125H390.938ZM355.625 52.3125C355.042 52.0625 354.625 51.6458 354.375 51.0625V49.8125C358.292 43.8125 362.688 38.1875 367.562 32.9375C372.479 27.6458 377.438 22.4167 382.438 17.25C383.188 16.5833 384.062 16.3333 385.062 16.5C385.646 16.75 386.062 17.1667 386.312 17.75V18.875C386.062 19.4583 385.646 19.875 385.062 20.125L384.438 20.375L384.312 20.875C389.896 23.7083 395.125 27.125 400 31.125C404.917 35.0833 409.75 39.0625 414.5 43.0625V44.0625C414.25 44.6458 413.833 45.0625 413.25 45.3125H412.125C407.208 41.3958 402.292 37.4792 397.375 33.5625C392.5 29.6042 387.188 26.3333 381.438 23.75C377.021 28.2083 372.708 32.7292 368.5 37.3125C364.333 41.8958 360.583 46.7708 357.25 51.9375C356.833 52.2708 356.292 52.3958 355.625 52.3125ZM393.062 44.6875C389.979 43.5208 386.833 42.5625 383.625 41.8125C380.417 41.0625 377.229 40.4375 374.062 39.9375C373.729 39.5208 373.604 38.9792 373.688 38.3125C373.938 37.7292 374.354 37.3125 374.938 37.0625H378.062C380.979 37.4792 383.875 38.0417 386.75 38.75C389.625 39.4583 392.354 40.4792 394.938 41.8125C395.271 42.2292 395.396 42.7708 395.312 43.4375C395.062 44.0208 394.646 44.4375 394.062 44.6875H393.062ZM442.938 70.625C440.938 70.375 439.021 69.875 437.188 69.125C435.396 68.375 433.708 67.375 432.125 66.125C430.792 64.625 430.125 62.875 430.125 60.875C430.125 59.5833 430.583 58.4792 431.5 57.5625C432.917 56.3958 434.521 55.6042 436.312 55.1875C438.146 54.7708 440.062 54.6458 442.062 54.8125C443.896 55.1458 445.667 55.7083 447.375 56.5C449.083 57.2917 450.729 58.1458 452.312 59.0625L452.562 55.1875V43.8125H451.688C448.521 44.0625 445.354 44.3958 442.188 44.8125C439.021 45.2292 435.792 45.4792 432.5 45.5625C431.917 45.3125 431.5 44.8958 431.25 44.3125V43.3125C431.5 42.7292 431.917 42.3125 432.5 42.0625C435.875 41.8125 439.208 41.4792 442.5 41.0625C445.792 40.6458 449.104 40.3542 452.438 40.1875V32.3125H441.688L435 32.8125L433.625 32.0625C433.292 31.6458 433.167 31.1042 433.25 30.4375C433.5 29.8542 433.917 29.4375 434.5 29.1875L441.688 28.6875H452.438C452.604 27.5625 452.708 26.4375 452.75 25.3125C452.792 24.1875 453.104 23.2083 453.688 22.375C454.104 22.0417 454.646 21.9167 455.312 22C455.896 22.25 456.312 22.6667 456.562 23.25V24.625C456.396 25.9583 456.229 27.3542 456.062 28.8125H461.938L463.188 29.5625C463.521 29.9792 463.646 30.5208 463.562 31.1875C463.312 31.7708 462.896 32.1875 462.312 32.4375H456.062V39.9375H463.812C464.646 39.9375 465.312 40.2708 465.812 40.9375C466.146 41.3542 466.271 41.8958 466.188 42.5625C465.938 43.1458 465.521 43.5625 464.938 43.8125H463.938L463.438 43.5625H456.188V55.1875L455.562 61.875C456.646 62.7083 457.771 63.4583 458.938 64.125C460.104 64.7917 461.229 65.5 462.312 66.25C462.646 66.6667 462.771 67.2083 462.688 67.875C462.438 68.4583 462.021 68.875 461.438 69.125H460.438C459.438 68.7083 458.479 68.1875 457.562 67.5625C456.646 66.9375 455.688 66.375 454.688 65.875C454.188 66.875 453.438 67.7917 452.438 68.625C451.104 69.5417 449.625 70.125 448 70.375C446.375 70.625 444.688 70.7083 442.938 70.625ZM450.188 65.75C451.021 65.0833 451.479 64.25 451.562 63.25C449.562 61.8333 447.5 60.625 445.375 59.625C443.25 58.5833 440.854 58.1875 438.188 58.4375C436.771 58.7708 435.417 59.3333 434.125 60.125L433.75 61.5C433.917 62.3333 434.292 63.0833 434.875 63.75C436.667 64.8333 438.521 65.6875 440.438 66.3125C442.354 66.9375 444.438 67.1667 446.688 67C447.938 66.8333 449.104 66.4167 450.188 65.75ZM523.062 70.75C520.062 69.25 516.958 67.9583 513.75 66.875C510.542 65.7917 507.604 64.2083 504.938 62.125C504.021 61.2917 503.604 60.2708 503.688 59.0625C505.604 53.8958 508.542 49.3125 512.5 45.3125C516.458 41.3125 519.896 37.0208 522.812 32.4375C521.479 31.9375 520.021 31.7708 518.438 31.9375C513.104 32.5208 507.979 33.9375 503.062 36.1875C498.146 38.4375 493.25 40.6042 488.375 42.6875C487.792 42.4375 487.375 42.0208 487.125 41.4375V40.3125C487.458 39.6458 487.958 39.1458 488.625 38.8125C493.917 36.1458 499.292 33.7083 504.75 31.5C510.208 29.25 515.938 28.1875 521.938 28.3125C523.438 28.3958 524.729 29.0208 525.812 30.1875C526.521 31.1042 526.729 32.1875 526.438 33.4375C523.771 38.1042 520.479 42.375 516.562 46.25C512.646 50.125 509.604 54.5208 507.438 59.4375C510.021 61.3125 512.833 62.75 515.875 63.75C518.917 64.75 521.812 66.0833 524.562 67.75C524.896 68.1667 525.021 68.7083 524.938 69.375C524.688 69.9583 524.271 70.375 523.688 70.625L523.062 70.75ZM530.875 33.9375C530.042 33.5208 529.458 32.8958 529.125 32.0625C528.875 30.7292 528.604 29.4167 528.312 28.125C528.021 26.7917 527.708 25.5 527.375 24.25C527.625 23.6667 528.042 23.25 528.625 23H529.75C530.583 23.4167 531.125 24.0833 531.375 25C531.625 26.25 531.896 27.5417 532.188 28.875C532.479 30.1667 532.792 31.4375 533.125 32.6875C532.875 33.2708 532.458 33.6875 531.875 33.9375H530.875ZM537 31.9375L535.75 30.9375C535.333 29.3542 534.917 27.7708 534.5 26.1875C534.083 24.5625 533.625 22.9583 533.125 21.375C533.375 20.7917 533.792 20.375 534.375 20.125H535.625C536.375 20.4583 536.875 21.0417 537.125 21.875C537.542 23.2917 537.958 24.75 538.375 26.25C538.792 27.7083 539.083 29.1875 539.25 30.6875C539 31.2708 538.583 31.6875 538 31.9375H537ZM588.062 72C587.479 71.75 587.062 71.3333 586.812 70.75V69.5C588.229 67.0833 589.542 64.625 590.75 62.125C592 59.625 592.833 56.9375 593.25 54.0625V47.6875C593.083 45.1042 592.583 42.5833 591.75 40.125C590.958 37.6667 589.604 35.4792 587.688 33.5625C586.521 32.5625 585.208 31.9167 583.75 31.625C582.292 31.3333 580.729 31.2708 579.062 31.4375C577.312 31.6042 575.646 32.0625 574.062 32.8125C573.479 38.0625 572.479 43.2708 571.062 48.4375C569.646 53.6042 567.229 58.3333 563.812 62.625C562.396 63.7083 560.708 64.1667 558.75 64C557 63.8333 555.5 63.0417 554.25 61.625C553.333 60.625 552.688 59.5 552.312 58.25C551.938 56.9583 551.75 55.6042 551.75 54.1875C552.083 50.8542 553.083 47.7292 554.75 44.8125C556.417 41.8958 558.562 39.2708 561.188 36.9375C564.271 34.1042 567.646 31.7917 571.312 30C574.979 28.2083 578.979 27.4792 583.312 27.8125C584.979 27.9792 586.521 28.4792 587.938 29.3125C589.354 30.1458 590.667 31.2292 591.875 32.5625C593.542 34.7292 594.75 37.1042 595.5 39.6875C596.25 42.2708 596.708 44.9375 596.875 47.6875V54.0625C596.542 57.2708 595.708 60.3333 594.375 63.25C593.042 66.1667 591.479 68.9583 589.688 71.625C589.271 71.9583 588.729 72.0833 588.062 72ZM561.562 59.75C564.146 56.0417 566.083 52.0625 567.375 47.8125C568.667 43.5625 569.562 39.2708 570.062 34.9375H569.812C567.562 36.3542 565.354 38.0625 563.188 40.0625C561.021 42.0625 559.25 44.2292 557.875 46.5625C557.208 47.9792 556.625 49.4167 556.125 50.875C555.625 52.3333 555.375 53.8958 555.375 55.5625C555.542 57.1042 556.208 58.4583 557.375 59.625C558.208 60.2083 559.188 60.4583 560.312 60.375L561.562 59.75ZM621.25 71.75C621 71.6667 620.75 71.5 620.5 71.25C620.25 71 620.083 70.75 620 70.5L619.875 70V65.625L620 65.5V63.875L620.125 63.75V44.8125L620 44.6875V40.9375L619.5 38.3125L619 38.1875C618.333 39.6875 617.646 41.1875 616.938 42.6875C616.229 44.1875 615.542 45.7083 614.875 47.25C614.208 48.7917 613.625 50.3542 613.125 51.9375C612.625 53.5208 612.125 55.1042 611.625 56.6875C611.375 56.8542 611.125 56.9583 610.875 57C610.625 57.0417 610.333 57.0625 610 57.0625C609.75 56.9792 609.5 56.8125 609.25 56.5625C609 56.3125 608.833 56.0625 608.75 55.8125L608.625 54.5625C609.458 51.0625 610.625 47.6458 612.125 44.3125C613.625 40.9792 615.25 37.7083 617 34.5C618.75 31.2917 620.583 28.1458 622.5 25.0625C624.458 21.9375 626.562 18.9167 628.812 16C629.062 15.8333 629.312 15.7292 629.562 15.6875C629.812 15.6458 630.104 15.625 630.438 15.625C630.688 15.7083 630.938 15.875 631.188 16.125C631.438 16.375 631.604 16.625 631.688 16.875V18C630.688 19.3333 629.75 20.6458 628.875 21.9375C628 23.2292 627.146 24.5625 626.312 25.9375C625.479 27.3125 624.604 28.6875 623.688 30.0625C622.812 31.3958 622.083 32.8125 621.5 34.3125L622.75 35.5625L623.562 39.5625V40.8125L623.688 40.9375V44.6875L623.812 44.8125V63.75L623.688 63.875V65.5L623.562 65.625V70.5C623.479 70.75 623.292 71 623 71.25C622.75 71.5 622.5 71.6667 622.25 71.75H621.25ZM629.812 66.5C629.479 66.3333 629.188 66.125 628.938 65.875C628.688 65.625 628.479 65.3333 628.312 65L627.812 62.125V58.3125L627.938 58.1875V56.1875C628.104 54.8542 628.271 53.5 628.438 52.125C628.604 50.75 628.812 49.3958 629.062 48.0625C629.312 46.7292 629.521 45.375 629.688 44C629.854 42.625 630.271 41.3542 630.938 40.1875C631.188 39.9375 631.458 39.8125 631.75 39.8125C632.042 39.8125 632.354 39.8125 632.688 39.8125L634.062 40.5625C634.562 40.3958 635.062 40.2292 635.562 40.0625C636.062 39.8958 636.562 39.75 637.062 39.625C637.562 39.5 638.062 39.3125 638.562 39.0625L638.688 38.9375V35.4375L638.812 35.3125V33.5625L638.062 33.1875C637.562 33.4375 637.021 33.625 636.438 33.75C635.854 33.875 635.271 33.9583 634.688 34C634.104 34.0417 633.542 34.1875 633 34.4375C632.458 34.6875 631.854 34.7708 631.188 34.6875C630.938 34.6042 630.688 34.4375 630.438 34.1875C630.188 33.9375 630.021 33.6875 629.938 33.4375V32.4375C630.104 32.1042 630.292 31.8333 630.5 31.625C630.708 31.4167 630.979 31.2292 631.312 31.0625C633.229 30.7292 635.125 30.3333 637 29.875C638.875 29.4167 640.75 28.9792 642.625 28.5625C644.5 28.1042 646.396 27.7292 648.312 27.4375C650.229 27.1458 652.146 26.875 654.062 26.625H660.625C661.042 26.625 661.417 26.7292 661.75 26.9375C662.083 27.1458 662.375 27.4167 662.625 27.75C662.792 28 662.896 28.25 662.938 28.5C662.979 28.75 663 29.0625 663 29.4375C662.917 29.6875 662.75 29.9375 662.5 30.1875C662.25 30.4375 662 30.6042 661.75 30.6875H660.75L660 30.3125H654.062L653.562 30.5625L653.438 30.6875V34.6875L653.312 34.8125V36.3125L653.188 36.6875L653.562 37.0625H655.875C656.542 37.2292 657.188 37.375 657.812 37.5C658.438 37.625 659.042 37.8125 659.625 38.0625C660.208 38.3125 660.75 38.625 661.25 39C661.75 39.375 662.25 39.8125 662.75 40.3125C663.167 40.8958 663.542 41.5208 663.875 42.1875C664.208 42.8542 664.5 43.5417 664.75 44.25C665 44.9583 665.188 45.6667 665.312 46.375C665.438 47.0833 665.583 47.8125 665.75 48.5625V50.4375L666.125 52.3125V53.9375C666.292 54.6875 666.417 55.4375 666.5 56.1875C666.583 56.9375 666.708 57.6667 666.875 58.375C667.042 59.0833 667.271 59.7917 667.562 60.5C667.854 61.1667 668.083 61.875 668.25 62.625V64.25C668.167 64.5 668 64.75 667.75 65C667.5 65.25 667.25 65.4167 667 65.5C666.583 65.5833 666.208 65.7083 665.875 65.875C665.542 66.0417 665.125 66.0833 664.625 66C663.958 65.6667 663.25 65.3958 662.5 65.1875C661.75 64.9792 661.021 64.7708 660.312 64.5625C659.604 64.3542 658.854 64.2083 658.062 64.125C657.271 64.0417 656.5 63.875 655.75 63.625H653.688L653.562 63.5H644.438L640.062 64.125H638.312C637.812 64.2917 637.292 64.3958 636.75 64.4375C636.208 64.4792 635.646 64.5417 635.062 64.625C634.479 64.7083 633.979 64.9167 633.562 65.25H631.938L631.438 66.125C631.188 66.2917 630.938 66.3958 630.688 66.4375C630.438 66.4792 630.146 66.5 629.812 66.5ZM631.938 61.75C632.521 61.5 633.125 61.3125 633.75 61.1875C634.375 61.0208 635 60.9167 635.625 60.875C636.25 60.8333 636.875 60.75 637.5 60.625C638.125 60.5 638.771 60.3958 639.438 60.3125V59.9375C639.188 59.6042 639.021 59.25 638.938 58.875C638.854 58.5 638.771 58.1042 638.688 57.6875V56.3125L638.562 56.1875V54.5625L638.438 54.4375V52.5625L638.312 52.4375V47.9375L638.438 47.8125V43.4375L637.562 43.1875C637.062 43.3542 636.583 43.5208 636.125 43.6875C635.667 43.8542 635.188 44.0208 634.688 44.1875C634.188 44.3542 633.729 44.6042 633.312 44.9375C633.146 45.8542 632.979 46.7708 632.812 47.6875C632.646 48.6042 632.479 49.5417 632.312 50.5C632.146 51.4583 632.021 52.4167 631.938 53.375C631.854 54.3333 631.729 55.2708 631.562 56.1875V58.1875L631.438 58.3125V61.625L631.812 61.875L631.938 61.75ZM663.875 61.5L664 61.375C663.75 60.75 663.583 60.125 663.5 59.5C663.417 58.875 663.312 58.25 663.188 57.625C663.062 57 662.958 56.375 662.875 55.75C662.792 55.125 662.667 54.5208 662.5 53.9375V52.3125L662.125 50.4375V48.5625C661.958 47.9792 661.812 47.4167 661.688 46.875C661.562 46.3333 661.396 45.7917 661.188 45.25C660.979 44.7083 660.75 44.1667 660.5 43.625C660.25 43.0833 659.917 42.6042 659.5 42.1875C659.083 41.9375 658.688 41.7083 658.312 41.5C657.938 41.2917 657.521 41.1458 657.062 41.0625C656.604 40.9792 656.167 40.8542 655.75 40.6875H653.062C652.812 41.0208 652.667 41.4167 652.625 41.875C652.583 42.3333 652.542 42.7917 652.5 43.25C652.458 43.7083 652.396 44.1458 652.312 44.5625V46.5625L652.188 46.6875V48.6875C652.104 49.6042 651.979 50.5208 651.812 51.4375C651.646 52.3542 651.5 53.2708 651.375 54.1875C651.25 55.1042 651.083 56 650.875 56.875C650.667 57.75 650.479 58.6458 650.312 59.5625L650.562 59.8125H653.562L653.688 59.9375H655.75C656.417 60.1042 657.083 60.25 657.75 60.375C658.417 60.5 659.083 60.6042 659.75 60.6875C660.417 60.7708 661.083 60.9375 661.75 61.1875C662.417 61.3958 663.083 61.5417 663.75 61.625L663.875 61.5ZM646.188 59.6875C646.604 58.8542 646.917 57.9792 647.125 57.0625C647.333 56.1458 647.521 55.2292 647.688 54.3125C647.854 53.3958 648 52.4583 648.125 51.5C648.25 50.5417 648.396 49.6042 648.562 48.6875V46.6875L648.688 46.5625V44.5625L649.062 41.1875L648.312 40.8125L642.312 42.1875L642.062 43.0625V47.8125L641.938 47.9375V52.4375L642.062 52.5625V54.4375L642.188 54.5625V56.1875L642.562 59.3125L642.438 60.0625H643.188L644.438 59.8125H646.062L646.188 59.6875ZM649.312 37.0625L649.688 36.3125V34.8125L649.812 34.6875V31.0625H648.688L642.562 32.4375L642.438 32.5625V35.3125L642.312 35.4375V37.9375L643.312 38.1875L649.312 37.0625ZM706.062 71.625L705.938 71.5H704.438C703.854 71.3333 703.271 71.2083 702.688 71.125C702.104 71.0417 701.521 70.9375 700.938 70.8125C700.354 70.6875 699.812 70.4792 699.312 70.1875C698.812 69.8958 698.354 69.5417 697.938 69.125C697.604 68.7917 697.333 68.4167 697.125 68C696.917 67.5833 696.792 67.125 696.75 66.625C696.708 66.125 696.604 65.6667 696.438 65.25V61.875C696.604 60.5833 696.812 59.3542 697.062 58.1875C697.312 57.0208 697.562 55.8333 697.812 54.625C698.062 53.4167 698.333 52.2292 698.625 51.0625C698.917 49.8958 699.438 48.8125 700.188 47.8125C700.438 47.5625 700.708 47.4375 701 47.4375C701.292 47.4375 701.604 47.4375 701.938 47.4375C702.188 47.5208 702.438 47.6875 702.688 47.9375C702.938 48.1875 703.104 48.4375 703.188 48.6875V49.6875C702.688 50.6042 702.312 51.5625 702.062 52.5625C701.812 53.5625 701.562 54.5625 701.312 55.5625C701.062 56.5625 700.833 57.5833 700.625 58.625C700.417 59.6667 700.229 60.75 700.062 61.875V65.25L700.812 66.75C701.146 67 701.521 67.1875 701.938 67.3125C702.354 67.4375 702.771 67.5208 703.188 67.5625C703.604 67.6042 704.021 67.7083 704.438 67.875H705.938L706.062 68H709.562L720.375 66.375H722.125L722.25 66.25H728.875C729.292 66.3333 729.729 66.4167 730.188 66.5C730.646 66.5833 731.062 66.7083 731.438 66.875C731.812 67.0417 732.167 67.2917 732.5 67.625C732.75 67.875 732.875 68.1458 732.875 68.4375C732.875 68.7292 732.875 69.0417 732.875 69.375C732.792 69.625 732.625 69.875 732.375 70.125C732.125 70.375 731.875 70.5417 731.625 70.625H730.625L728.875 69.875H722.25L722.125 70H720.375L709.562 71.625H706.062ZM685.625 71.375C685.375 71.2917 685.125 71.125 684.875 70.875C684.625 70.625 684.458 70.375 684.375 70.125L684.25 69.625V66.5L684.375 66.375V61.625L684.5 61.5V59.3125L684.625 59.1875V42.8125L684.5 42.6875V40.3125L684 40.1875C683.167 41.4375 682.396 42.6667 681.688 43.875C680.979 45.0833 680.229 46.3125 679.438 47.5625C678.646 48.8125 678 50.1042 677.5 51.4375C677 52.7708 676.458 54.1042 675.875 55.4375C675.625 55.6042 675.375 55.7083 675.125 55.75C674.875 55.7917 674.583 55.8125 674.25 55.8125C674 55.7292 673.75 55.5625 673.5 55.3125C673.25 55.0625 673.083 54.8125 673 54.5625V53.3125C674 50.1458 675.375 47.125 677.125 44.25C678.875 41.375 680.729 38.5625 682.688 35.8125C684.646 33.0625 686.625 30.3542 688.625 27.6875C690.667 24.9792 692.688 22.2917 694.688 19.625L696.062 18.625H697.312C697.562 18.7083 697.812 18.875 698.062 19.125C698.312 19.375 698.479 19.625 698.562 19.875V20.875C697.312 21.9583 696.229 23.1667 695.312 24.5C694.396 25.8333 693.458 27.1667 692.5 28.5C691.542 29.7917 690.583 31.0833 689.625 32.375C688.667 33.6667 687.75 34.9792 686.875 36.3125C687.25 36.6458 687.5 37.0417 687.625 37.5C687.75 37.9583 687.854 38.4167 687.938 38.875C688.021 39.3333 688.104 39.7708 688.188 40.1875V42.6875L688.312 42.8125V59.1875L688.188 59.3125V61.5L688.062 61.625V66.375L687.938 66.5V70.125C687.854 70.375 687.688 70.625 687.438 70.875C687.188 71.125 686.917 71.2917 686.625 71.375H685.625ZM708.062 63.5L706.812 62.375L706.438 60.3125V57.3125L706.562 57.1875V55.3125C706.812 53.1458 707.125 51 707.5 48.875C707.875 46.75 708.292 44.625 708.75 42.5C709.208 40.375 709.688 38.2708 710.188 36.1875C710.688 34.1042 711.104 31.9792 711.438 29.8125L711.312 29.6875H709.938C708.938 29.8542 707.979 30.0625 707.062 30.3125C706.146 30.5625 705.188 30.7292 704.188 30.8125C703.188 30.8958 702.208 31.0625 701.25 31.3125C700.292 31.5625 699.312 31.7708 698.312 31.9375C698.062 31.8542 697.812 31.6875 697.562 31.4375C697.312 31.1875 697.146 30.9375 697.062 30.6875V29.5625C697.229 29.2292 697.438 28.9375 697.688 28.6875C697.938 28.3958 698.229 28.1667 698.562 28C699.729 27.8333 700.896 27.6667 702.062 27.5C703.229 27.3333 704.375 27.125 705.5 26.875C706.625 26.625 707.75 26.4167 708.875 26.25C710 26.0833 711.146 25.875 712.312 25.625C712.479 24.9583 712.625 24.2917 712.75 23.625C712.875 22.9583 713 22.2917 713.125 21.625C713.25 20.9583 713.417 20.2917 713.625 19.625C713.833 18.9583 714.229 18.375 714.812 17.875C715.062 17.7083 715.312 17.6042 715.562 17.5625C715.812 17.5208 716.104 17.5 716.438 17.5C716.688 17.5833 716.938 17.75 717.188 18C717.438 18.25 717.604 18.5 717.688 18.75V19.875C717.271 20.375 717.021 20.8958 716.938 21.4375C716.854 21.9792 716.729 22.5417 716.562 23.125C716.396 23.7083 716.271 24.2917 716.188 24.875L716.438 25.125H718.938L719.125 25H722.875L723 24.875H729.625C729.875 24.9583 730.125 25.125 730.375 25.375C730.625 25.625 730.792 25.875 730.875 26.125V27.125C730.792 27.375 730.625 27.625 730.375 27.875C730.125 28.125 729.875 28.2917 729.625 28.375L729 28.5H723L722.875 28.625H719.125L718.938 28.75H716.812L715.562 29.1875C715.396 29.6875 715.25 30.1875 715.125 30.6875C715 31.1875 714.875 31.6875 714.75 32.1875C714.625 32.6875 714.5 33.1875 714.375 33.6875C714.25 34.1875 714.188 34.7292 714.188 35.3125L715.188 35.4375L716.812 35.0625H718.438L718.562 34.9375H722C722.583 35.1042 723.188 35.25 723.812 35.375C724.438 35.5 725.021 35.7292 725.562 36.0625C726.104 36.3958 726.625 36.7708 727.125 37.1875C727.625 37.6042 728.125 38.0625 728.625 38.5625C728.875 38.9792 729.083 39.3958 729.25 39.8125C729.417 40.2292 729.562 40.6667 729.688 41.125C729.812 41.5833 729.917 42.0208 730 42.4375V46.5625L729.5 49.3125V50.9375L729.375 51.0625V52.5625L729.25 52.6875V53.9375L729.125 54.0625V57.4375L729.375 58.5625V59.8125C729.292 60.0625 729.125 60.3125 728.875 60.5625C728.625 60.8125 728.375 61 728.125 61.125H727.125L726 60.0625V59.8125H725.375L724.375 60.1875H720.125L720 60.3125H717.062L716.938 60.4375H715.688L714.312 60.6875H712.062L711.938 60.8125H710.562C710.396 61.1875 710.312 61.6042 710.312 62.0625C710.312 62.5208 710.104 62.875 709.688 63.125C709.438 63.2917 709.188 63.3958 708.938 63.4375C708.688 63.4792 708.396 63.5 708.062 63.5ZM725.5 56.5625V54.0625L725.625 53.9375V52.6875L725.75 52.5625V51.0625L725.875 50.9375V49.3125L726.375 46.5625V42.6875C726.292 42.3542 726.188 42.0208 726.062 41.6875C725.938 41.3542 725.792 41.0417 725.625 40.75C725.458 40.4583 725.208 40.1875 724.875 39.9375C724.542 39.6875 724.208 39.4792 723.875 39.3125C723.542 39.1458 723.188 39 722.812 38.875C722.438 38.75 722.083 38.6458 721.75 38.5625H718.562L718.438 38.6875H716.812L713.188 39.6875L712.438 43.0625L713.688 43.1875L718.938 42.1875H720.25L720.375 42.0625H723.625C723.875 42.1458 724.125 42.3125 724.375 42.5625C724.625 42.8125 724.792 43.0625 724.875 43.3125V44.3125C724.792 44.5625 724.625 44.8125 724.375 45.0625C724.125 45.3125 723.875 45.4792 723.625 45.5625L723 45.6875H720.375L720.25 45.8125H718.938C718.354 45.9792 717.75 46.1042 717.125 46.1875C716.5 46.2708 715.875 46.375 715.25 46.5C714.625 46.625 714 46.7292 713.375 46.8125C712.75 46.8958 712.104 46.9792 711.438 47.0625L711.062 49.1875L711.812 49.5625C712.396 49.4792 712.979 49.375 713.562 49.25C714.146 49.125 714.729 49.0208 715.312 48.9375C715.896 48.8542 716.479 48.7917 717.062 48.75C717.646 48.7083 718.229 48.6458 718.812 48.5625H722.75C723 48.6458 723.25 48.8125 723.5 49.0625C723.75 49.3125 723.917 49.5625 724 49.8125V50.8125C723.917 51.0625 723.75 51.3125 723.5 51.5625C723.25 51.8125 723 51.9792 722.75 52.0625L722.125 52.1875H718.812L710.562 53.4375L710.188 55.3125V56.8125L710.562 57.1875H711.938L712.062 57.0625H714.312L715.688 56.8125H716.938L717.062 56.6875H720L720.125 56.5625H725.5ZM780.062 72C779.479 71.75 779.062 71.3333 778.812 70.75V69.5C780.229 67.0833 781.542 64.625 782.75 62.125C784 59.625 784.833 56.9375 785.25 54.0625V47.6875C785.083 45.1042 784.583 42.5833 783.75 40.125C782.958 37.6667 781.604 35.4792 779.688 33.5625C778.521 32.5625 777.208 31.9167 775.75 31.625C774.292 31.3333 772.729 31.2708 771.062 31.4375C769.312 31.6042 767.646 32.0625 766.062 32.8125C765.479 38.0625 764.479 43.2708 763.062 48.4375C761.646 53.6042 759.229 58.3333 755.812 62.625C754.396 63.7083 752.708 64.1667 750.75 64C749 63.8333 747.5 63.0417 746.25 61.625C745.333 60.625 744.688 59.5 744.312 58.25C743.938 56.9583 743.75 55.6042 743.75 54.1875C744.083 50.8542 745.083 47.7292 746.75 44.8125C748.417 41.8958 750.562 39.2708 753.188 36.9375C756.271 34.1042 759.646 31.7917 763.312 30C766.979 28.2083 770.979 27.4792 775.312 27.8125C776.979 27.9792 778.521 28.4792 779.938 29.3125C781.354 30.1458 782.667 31.2292 783.875 32.5625C785.542 34.7292 786.75 37.1042 787.5 39.6875C788.25 42.2708 788.708 44.9375 788.875 47.6875V54.0625C788.542 57.2708 787.708 60.3333 786.375 63.25C785.042 66.1667 783.479 68.9583 781.688 71.625C781.271 71.9583 780.729 72.0833 780.062 72ZM753.562 59.75C756.146 56.0417 758.083 52.0625 759.375 47.8125C760.667 43.5625 761.562 39.2708 762.062 34.9375H761.812C759.562 36.3542 757.354 38.0625 755.188 40.0625C753.021 42.0625 751.25 44.2292 749.875 46.5625C749.208 47.9792 748.625 49.4167 748.125 50.875C747.625 52.3333 747.375 53.8958 747.375 55.5625C747.542 57.1042 748.208 58.4583 749.375 59.625C750.208 60.2083 751.188 60.4583 752.312 60.375L753.562 59.75ZM843.875 70.9375C843.625 70.8542 843.375 70.6875 843.125 70.4375C842.875 70.1875 842.708 69.9375 842.625 69.6875V68.4375C843.208 66.9375 843.708 65.4167 844.125 63.875C844.542 62.2917 844.979 60.7917 845.438 59.375C845.938 57.9583 846.354 56.4792 846.688 54.9375C847.021 53.3958 847.354 51.8333 847.688 50.25V45.5C847.604 44.75 847.479 44.0625 847.312 43.4375C847.146 42.8125 846.917 42.1875 846.625 41.5625C846.333 40.9375 845.917 40.3542 845.375 39.8125C844.875 39.2708 844.375 38.75 843.875 38.25C843.042 37.6667 842.167 37.1458 841.25 36.6875C840.333 36.2292 839.417 35.8333 838.5 35.5C837.583 35.1667 836.625 34.875 835.625 34.625C834.625 34.375 833.625 34.1667 832.625 34H830.125L829.75 34.125C828.667 36.875 827.667 39.6667 826.75 42.5C825.833 45.3333 824.854 48.125 823.812 50.875C822.771 53.625 821.771 56.4167 820.812 59.25C819.854 62.0417 818.958 64.8125 818.125 67.5625C817.875 67.7292 817.625 67.8333 817.375 67.875C817.125 67.9167 816.833 67.9375 816.5 67.9375C816.25 67.8542 816 67.6875 815.75 67.4375C815.5 67.1875 815.333 66.9375 815.25 66.6875V65.4375C815.833 62.7292 816.583 60.0833 817.5 57.5C818.417 54.9167 819.354 52.3333 820.312 49.75C821.271 47.1667 822.167 44.5833 823 42C823.833 39.4167 824.75 36.8333 825.75 34.25L825.5 34L821 34.25L812.438 35.625L811.062 34.875C810.896 34.625 810.792 34.375 810.75 34.125C810.708 33.875 810.688 33.5833 810.688 33.25C810.771 33 810.938 32.75 811.188 32.5C811.438 32.25 811.688 32.0833 811.938 32C812.771 32 813.542 31.9167 814.25 31.75C815 31.5833 815.75 31.4375 816.5 31.3125C817.25 31.1458 818 31.0208 818.75 30.9375C819.5 30.8542 820.25 30.7292 821 30.5625L827.125 30.3125C827.625 29.4792 828.062 28.5833 828.438 27.625C828.812 26.6667 829.188 25.7292 829.562 24.8125C829.938 23.8958 830.271 22.9792 830.562 22.0625C830.854 21.1458 831.333 20.2708 832 19.4375C832.25 19.2708 832.5 19.1667 832.75 19.125C833 19.0833 833.292 19.0625 833.625 19.0625C833.875 19.1458 834.125 19.3125 834.375 19.5625C834.625 19.8125 834.792 20.0625 834.875 20.3125V21.4375L831.5 30.0625C833.083 30.3125 834.646 30.625 836.188 31C837.729 31.3333 839.25 31.7917 840.75 32.375C842.25 32.9583 843.688 33.7292 845.062 34.6875C846.479 35.6458 847.729 36.75 848.812 38C849.146 38.5833 849.479 39.1667 849.812 39.75C850.146 40.3333 850.417 40.9375 850.625 41.5625C850.833 42.1875 850.979 42.8333 851.062 43.5C851.146 44.1667 851.229 44.8333 851.312 45.5V50.25C850.979 52 850.646 53.75 850.312 55.5C849.979 57.25 849.542 58.9583 849 60.625C848.458 62.2917 847.958 63.9792 847.5 65.6875C847.042 67.3542 846.396 68.9792 845.562 70.5625C845.271 70.7292 845 70.8333 844.75 70.875C844.5 70.9167 844.208 70.9375 843.875 70.9375ZM892.312 73.625C892.062 73.5417 891.812 73.375 891.562 73.125C891.312 72.875 891.146 72.625 891.062 72.375V71.125C891.812 69.7083 892.646 68.3125 893.562 66.9375C894.479 65.5625 895.354 64.1667 896.188 62.75C897.021 61.3333 897.917 59.9375 898.875 58.5625C899.833 57.1458 900.688 55.7292 901.438 54.3125C900.021 53.6458 898.562 53 897.062 52.375C895.562 51.75 894.062 51.1667 892.562 50.625C891.062 50.0833 889.583 49.4792 888.125 48.8125C886.667 48.1458 885.271 47.3125 883.938 46.3125C883.771 46.0625 883.667 45.8125 883.625 45.5625C883.583 45.3125 883.562 45.0208 883.562 44.6875C883.646 44.4375 883.812 44.1875 884.062 43.9375C884.312 43.6875 884.562 43.5208 884.812 43.4375H886.062C887.396 44.3542 888.812 45.125 890.312 45.75C891.812 46.375 893.312 46.9583 894.812 47.5C896.312 48.0417 897.792 48.625 899.25 49.25C900.708 49.875 902.146 50.6042 903.562 51.4375C904.312 50.3542 905.021 49.2708 905.688 48.1875C906.354 47.1042 907.021 46 907.688 44.875C908.354 43.75 909 42.625 909.625 41.5C910.25 40.375 910.729 39.1875 911.062 37.9375V35.6875C910.979 35.2708 910.792 34.9167 910.5 34.625C910.208 34.3333 909.896 34.0208 909.562 33.6875C908.812 33.1042 908.042 32.625 907.25 32.25C906.458 31.875 905.625 31.5417 904.75 31.25C903.875 30.9583 903 30.7292 902.125 30.5625C901.25 30.3958 900.354 30.2292 899.438 30.0625H897.938L897.812 29.9375H896.562L896.438 29.8125H894.188L894.062 29.6875H892.188L890.812 28.9375L890.438 28.25V26.875H890.188C889.021 28.1667 887.917 29.4792 886.875 30.8125C885.833 32.1458 884.833 33.4792 883.875 34.8125C882.917 36.1458 881.896 37.4792 880.812 38.8125C879.771 40.1458 878.667 41.3958 877.5 42.5625H876.5C876.25 42.4792 876 42.3125 875.75 42.0625C875.5 41.8125 875.333 41.5625 875.25 41.3125V40.3125C876.833 38.2292 878.375 36.1458 879.875 34.0625C881.417 31.9792 883.021 29.9167 884.688 27.875C886.354 25.7917 888.042 23.7708 889.75 21.8125C891.458 19.8542 893.312 18.0417 895.312 16.375H896.312C896.562 16.4583 896.812 16.625 897.062 16.875C897.312 17.125 897.479 17.375 897.562 17.625V18.625C897.146 19.2917 896.625 19.9167 896 20.5C895.375 21.0833 894.771 21.6667 894.188 22.25C893.604 22.8333 893.062 23.4375 892.562 24.0625C892.062 24.6875 891.604 25.3333 891.188 26H891.562L891.688 25.875H893.062L894.188 26.125H896.438L896.562 26.25H897.812L897.938 26.375H899.438C900.688 26.5417 901.938 26.75 903.188 27C904.438 27.25 905.667 27.6042 906.875 28.0625C908.083 28.4792 909.229 29.0417 910.312 29.75C911.438 30.4583 912.458 31.3125 913.375 32.3125C913.708 32.7292 914 33.1667 914.25 33.625C914.5 34.0833 914.667 34.5625 914.75 35.0625V37.9375C913.917 41.1875 912.542 44.2917 910.625 47.25C908.75 50.2083 906.854 53.1042 904.938 55.9375C903.021 58.7708 901.167 61.6458 899.375 64.5625C897.583 67.4375 895.771 70.3333 893.938 73.25C893.688 73.4167 893.438 73.5208 893.188 73.5625C892.938 73.6042 892.646 73.625 892.312 73.625ZM956.25 70.8125C956 70.7292 955.75 70.5625 955.5 70.3125C955.25 70.0625 955.083 69.8125 955 69.5625V68.4375C955.917 67.0208 956.688 65.5208 957.312 63.9375C957.938 62.3125 958.521 60.7083 959.062 59.125C959.604 57.5417 960.042 55.9375 960.375 54.3125C960.708 52.6875 961 51.0417 961.25 49.375V45L961 44.75H957L955.25 44.875L940.062 45.875C936.646 45.875 934.792 45.8125 934.5 45.6875C934.208 45.5625 933.938 45.375 933.688 45.125C933.521 44.875 933.417 44.625 933.375 44.375C933.333 44.125 933.312 43.8333 933.312 43.5C933.396 43.25 933.562 43 933.812 42.75C934.062 42.5 934.312 42.3333 934.562 42.25H935.812L935.938 42.375H939.938L940.062 42.25L955.25 41.25H956.875L960.5 41.125L960.875 40.375C960.625 39.4583 960.354 38.5417 960.062 37.625C959.771 36.7083 959.5 35.8125 959.25 34.9375C959 34.0625 958.625 33.2083 958.125 32.375C957.625 31.5417 957.292 30.6458 957.125 29.6875C957.208 29.4375 957.375 29.1875 957.625 28.9375C957.875 28.6875 958.125 28.5208 958.375 28.4375H959.375C959.792 28.6042 960.167 28.8542 960.5 29.1875C960.833 29.5208 961.104 29.8958 961.312 30.3125C961.521 30.6875 961.708 31.0417 961.875 31.375C962.125 32.125 962.396 32.8958 962.688 33.6875C962.979 34.4792 963.229 35.25 963.438 36C963.646 36.75 963.854 37.5417 964.062 38.375C964.271 39.2083 964.5 40 964.75 40.75L964.875 40.875H966.5L966.625 40.75L976.812 40.625L982.438 40.5C982.771 40.5833 983.104 40.6458 983.438 40.6875C983.771 40.7292 984.062 40.9167 984.312 41.25C984.479 41.5 984.583 41.75 984.625 42C984.667 42.25 984.688 42.5417 984.688 42.875C984.604 43.125 984.438 43.375 984.188 43.625C983.938 43.875 983.688 44.0417 983.438 44.125H976.938L966.625 44.375L966.5 44.5H965.125L964.875 44.75V49.375C964.625 51.2083 964.312 53.0208 963.938 54.8125C963.562 56.6042 963.104 58.4167 962.562 60.25C962.021 62.0417 961.375 63.8125 960.625 65.5625C959.875 67.3125 958.958 68.9375 957.875 70.4375C957.625 70.6042 957.375 70.7083 957.125 70.75C956.875 70.7917 956.583 70.8125 956.25 70.8125ZM943.375 29.5625C943.125 29.4792 942.875 29.3125 942.625 29.0625C942.375 28.8125 942.208 28.5625 942.125 28.3125V27.3125C942.292 26.9792 942.479 26.7083 942.688 26.5C942.896 26.2917 943.167 26.1042 943.5 25.9375C945.5 25.1875 947.521 24.5 949.562 23.875C951.604 23.25 953.667 22.6875 955.75 22.1875C957.833 21.6875 959.896 21.1875 961.938 20.6875C963.979 20.1875 966.042 19.6875 968.125 19.1875H969.375C969.625 19.2708 969.875 19.4375 970.125 19.6875C970.375 19.9375 970.542 20.1875 970.625 20.4375V21.4375C970.458 21.7708 970.271 22.0417 970.062 22.25C969.854 22.4583 969.583 22.6458 969.25 22.8125C967.083 23.2292 964.917 23.7083 962.75 24.25C960.583 24.7917 958.417 25.3333 956.25 25.875C954.083 26.4167 951.938 27.0417 949.812 27.75C947.688 28.4583 945.542 29.0625 943.375 29.5625ZM1020.44 72.375L1020.31 72.25H1019.06C1018.56 72.1667 1018.12 72.0208 1017.75 71.8125C1017.38 71.6042 1017 71.3542 1016.62 71.0625C1016.25 70.7708 1015.9 70.4583 1015.56 70.125C1015.4 69.7917 1015.23 69.4583 1015.06 69.125C1014.9 68.7917 1014.77 68.4583 1014.69 68.125C1014.6 67.7917 1014.52 67.4583 1014.44 67.125V63.875C1014.52 63.125 1014.65 62.3542 1014.81 61.5625C1014.98 60.7292 1015.12 59.9167 1015.25 59.125C1015.38 58.3333 1015.58 57.5833 1015.88 56.875C1016.17 56.1667 1016.4 55.4375 1016.56 54.6875L1015.69 54.5625L1007.81 56.6875L1006.38 55.9375C1006.21 55.6875 1006.1 55.4375 1006.06 55.1875C1006.02 54.9375 1006 54.6458 1006 54.3125C1006.08 54.0625 1006.25 53.8125 1006.5 53.5625C1006.75 53.3125 1007.02 53.1458 1007.31 53.0625C1008.23 52.8958 1009.1 52.6875 1009.94 52.4375C1010.77 52.1875 1011.6 51.9375 1012.44 51.6875C1013.27 51.4375 1014.15 51.2292 1015.06 51.0625C1015.98 50.8958 1016.85 50.6875 1017.69 50.4375L1017.81 49.9375L1017.44 48.4375V45.9375L1017.31 45.8125V44.4375L1017.06 43.9375L1016.44 43.8125L1015.56 44.0625H1013.06L1011.56 43.1875C1011.4 42.9375 1011.29 42.6875 1011.25 42.4375C1011.21 42.1875 1011.19 41.8958 1011.19 41.5625C1011.27 41.3125 1011.44 41.0625 1011.69 40.8125C1011.94 40.5625 1012.19 40.3958 1012.44 40.3125H1013.69L1013.81 40.4375H1015.44L1017.06 40.0625L1017.31 38.5625V35.1875L1018.06 33.8125C1018.31 33.6458 1018.56 33.5417 1018.81 33.5C1019.06 33.4583 1019.35 33.4375 1019.69 33.4375C1019.94 33.5208 1020.19 33.6875 1020.44 33.9375C1020.69 34.1875 1020.85 34.4375 1020.94 34.6875V38.5625L1020.81 39.1875C1021.15 39.4375 1021.56 39.5208 1022.06 39.4375L1028.81 38.5625H1030.19L1030.56 38.4375L1030.69 38.0625V34.4375L1031.44 33.0625C1031.69 32.8958 1031.94 32.7917 1032.19 32.75C1032.44 32.7083 1032.73 32.6875 1033.06 32.6875C1033.31 32.7708 1033.56 32.9375 1033.81 33.1875C1034.06 33.4375 1034.23 33.6875 1034.31 33.9375V38.0625L1034.56 38.3125H1038.31C1038.73 38.4792 1039.21 38.5625 1039.75 38.5625C1040.33 38.5625 1040.79 38.7708 1041.12 39.1875C1041.29 39.4375 1041.4 39.6875 1041.44 39.9375C1041.48 40.1875 1041.5 40.4792 1041.5 40.8125C1041.42 41.0625 1041.25 41.3125 1041 41.5625C1040.75 41.8125 1040.5 41.9792 1040.25 42.0625L1039.12 42.1875L1038.31 41.9375H1033.94C1033.6 42.4375 1033.42 43 1033.38 43.625C1033.33 44.25 1033.25 44.8542 1033.12 45.4375C1033 46.0208 1032.92 46.625 1032.88 47.25C1032.83 47.875 1032.77 48.4792 1032.69 49.0625L1033.06 49.4375H1044.75L1044.88 49.5625H1046.62L1046.75 49.6875H1048C1048.5 49.7708 1048.98 49.8542 1049.44 49.9375C1049.9 50.0208 1050.35 50.125 1050.81 50.25C1051.27 50.375 1051.67 50.6458 1052 51.0625C1052.25 51.3125 1052.38 51.5833 1052.38 51.875C1052.38 52.1667 1052.38 52.4792 1052.38 52.8125C1052.29 53.0625 1052.12 53.3125 1051.88 53.5625C1051.62 53.8125 1051.38 53.9792 1051.12 54.0625H1050.12C1049.79 53.8125 1049.46 53.6458 1049.12 53.5625C1048.79 53.4792 1048.42 53.3958 1048 53.3125H1046.75L1046.62 53.1875H1044.88L1044.75 53.0625H1029.56L1029.44 53.1875H1026.69L1026.56 53.3125H1023.81L1023.69 53.4375H1022.44L1021.19 53.9375C1020.77 54.6875 1020.4 55.4583 1020.06 56.25C1019.73 57.0417 1019.44 57.8542 1019.19 58.6875C1018.94 59.5208 1018.73 60.3958 1018.56 61.3125C1018.4 62.1875 1018.23 63.0417 1018.06 63.875V66.75L1018.94 68.25C1019.1 68.4167 1019.33 68.5208 1019.62 68.5625C1019.92 68.6042 1020.19 68.6667 1020.44 68.75H1021.69C1022.27 68.6667 1022.83 68.5417 1023.38 68.375C1023.92 68.2083 1024.44 68 1024.94 67.75C1025.44 67.5 1025.94 67.25 1026.44 67C1026.94 66.75 1027.44 66.4583 1027.94 66.125L1028.06 65.75C1027.56 65.25 1027.12 64.7708 1026.75 64.3125C1026.38 63.8542 1026.02 63.3542 1025.69 62.8125C1025.35 62.2708 1025.15 61.6875 1025.06 61.0625C1024.98 60.3958 1024.94 59.7292 1024.94 59.0625C1025.02 58.6458 1025.12 58.25 1025.25 57.875C1025.38 57.5 1025.56 57.1667 1025.81 56.875C1026.06 56.5833 1026.35 56.2708 1026.69 55.9375C1027.1 55.6042 1027.54 55.3333 1028 55.125C1028.46 54.9167 1028.92 54.7292 1029.38 54.5625C1029.83 54.3958 1030.31 54.2708 1030.81 54.1875H1034.31C1034.98 54.3542 1035.62 54.5 1036.25 54.625C1036.88 54.75 1037.44 55.0208 1037.94 55.4375C1038.44 55.8542 1038.96 56.3125 1039.5 56.8125L1040 57.9375V60.0625C1039.83 60.6458 1039.56 61.2083 1039.19 61.75C1038.85 62.25 1038.44 62.7292 1037.94 63.1875C1037.44 63.6458 1036.98 64.125 1036.56 64.625L1035.44 65.75C1036.02 66 1036.65 66.25 1037.31 66.5C1037.98 66.75 1038.62 66.9583 1039.25 67.125C1039.92 67.2917 1040.58 67.4375 1041.25 67.5625C1041.92 67.6875 1042.54 67.9583 1043.12 68.375C1043.29 68.625 1043.4 68.875 1043.44 69.125C1043.48 69.375 1043.5 69.6667 1043.5 70C1043.42 70.25 1043.25 70.5 1043 70.75C1042.75 71 1042.5 71.1667 1042.25 71.25H1040.88C1040.04 71 1039.21 70.7917 1038.38 70.625C1037.58 70.4583 1036.79 70.25 1036 70C1035.21 69.75 1034.42 69.4583 1033.62 69.125C1032.83 68.7917 1032.06 68.5 1031.31 68.25C1030.56 68.75 1029.81 69.2292 1029.06 69.6875C1028.31 70.1458 1027.54 70.5625 1026.75 70.9375C1025.96 71.3125 1025.15 71.6042 1024.31 71.8125C1023.48 72.0208 1022.6 72.2083 1021.69 72.375H1020.44ZM996.875 71.25C996.625 71.1667 996.375 71 996.125 70.75C995.875 70.5 995.708 70.25 995.625 70V67.625C996.292 63.7917 997.125 60 998.125 56.25C999.125 52.4583 1000.27 48.7292 1001.56 45.0625C1002.85 41.3958 1004.17 37.7292 1005.5 34.0625C1006.88 30.3542 1008.1 26.625 1009.19 22.875L1008.06 22.75L1006.88 22.875L1005.5 22.125C1005.33 21.875 1005.23 21.625 1005.19 21.375C1005.15 21.125 1005.12 20.8333 1005.12 20.5C1005.21 20.25 1005.38 20 1005.62 19.75C1005.88 19.5 1006.12 19.3333 1006.38 19.25H1007.94C1009.27 18.9167 1010.65 18.5833 1012.06 18.25C1013.48 17.9167 1014.9 17.6042 1016.31 17.3125C1017.73 17.0208 1019.15 16.75 1020.56 16.5C1021.98 16.25 1023.4 16.0417 1024.81 15.875H1026.19L1026.31 15.75H1027.56L1027.69 15.625H1032.81C1033.48 15.7917 1034.17 15.9583 1034.88 16.125C1035.58 16.2917 1036.27 16.5 1036.94 16.75C1037.6 17 1038.23 17.3542 1038.81 17.8125C1039.44 18.2708 1040 18.7917 1040.5 19.375C1040.75 19.7917 1040.98 20.2083 1041.19 20.625C1041.4 21.0417 1041.54 21.4583 1041.62 21.875V25.375L1041.12 28V30.5625C1041.04 30.8125 1040.88 31.0625 1040.62 31.3125C1040.38 31.5625 1040.12 31.7292 1039.88 31.8125H1038.81C1038.4 31.7292 1038.1 31.5208 1037.94 31.1875C1037.77 30.8542 1037.52 30.6042 1037.19 30.4375C1037.02 30.6042 1036.81 30.7292 1036.56 30.8125C1036.31 30.8958 1036.06 30.9792 1035.81 31.0625H1031.06C1029.56 31.3125 1028.06 31.5 1026.56 31.625C1025.06 31.75 1023.56 31.8958 1022.06 32.0625C1020.56 32.2292 1019.08 32.4375 1017.62 32.6875C1016.17 32.9375 1014.69 33.1458 1013.19 33.3125H1011.69L1009.56 33.6875C1008.65 36.5208 1007.65 39.3125 1006.56 42.0625C1005.52 44.8125 1004.54 47.6042 1003.62 50.4375C1002.71 53.2708 1001.88 56.125 1001.12 59C1000.38 61.8333 999.75 64.7083 999.25 67.625V69.375L998.5 70.875C998.25 71.0417 998 71.1458 997.75 71.1875C997.5 71.2292 997.208 71.25 996.875 71.25ZM1031.94 63.5C1032.44 63.0833 1032.96 62.6875 1033.5 62.3125C1034.04 61.9375 1034.58 61.5 1035.12 61C1035.67 60.4583 1036.06 59.8958 1036.31 59.3125V58.9375L1035.44 58.1875L1034.19 57.8125H1031.19L1028.94 58.8125C1028.6 59.2292 1028.48 59.6875 1028.56 60.1875C1028.73 60.5208 1028.9 60.875 1029.06 61.25C1029.23 61.5833 1029.44 61.9167 1029.69 62.25C1029.94 62.5833 1030.23 62.875 1030.56 63.125L1031.81 63.625L1031.94 63.5ZM1028.81 49.4375C1029.06 48.8542 1029.21 48.25 1029.25 47.625C1029.29 47 1029.35 46.375 1029.44 45.75C1029.52 45.125 1029.65 44.5208 1029.81 43.9375V42.4375L1028.81 42.1875L1020.94 43.3125L1020.81 44.3125L1020.94 44.4375V45.8125L1021.06 45.9375V48.4375L1021.44 49.8125L1022.31 49.9375L1022.44 49.8125H1023.69L1023.81 49.6875H1026.56L1026.69 49.5625H1028.69L1028.81 49.4375ZM1037.44 27.75L1037.94 25.375V22.375C1037.77 22.0417 1037.56 21.7292 1037.31 21.4375C1037.06 21.1458 1036.79 20.8958 1036.5 20.6875C1036.21 20.4792 1035.9 20.2917 1035.56 20.125L1032.56 19.25H1027.69L1027.56 19.375H1026.31L1026.19 19.5H1024.81C1023.9 19.6667 1022.98 19.8125 1022.06 19.9375C1021.15 20.0625 1020.23 20.2083 1019.31 20.375C1018.4 20.5417 1017.48 20.7083 1016.56 20.875C1015.65 21.0417 1014.77 21.2917 1013.94 21.625C1013.6 22.2083 1013.31 22.8333 1013.06 23.5C1012.81 24.1667 1012.56 24.8333 1012.31 25.5C1012.06 26.1667 1011.83 26.8333 1011.62 27.5C1011.42 28.1667 1011.23 28.8542 1011.06 29.5625L1011.56 29.8125L1011.69 29.6875H1013.19C1014.6 29.5208 1016.06 29.3125 1017.56 29.0625C1019.06 28.7708 1020.56 28.5417 1022.06 28.375C1023.56 28.2083 1025.06 28.0625 1026.56 27.9375C1028.06 27.8125 1029.56 27.625 1031.06 27.375H1036.44L1037.31 27.875L1037.44 27.75Z" fill="black"/>
</svg>
