<svg width="1406" height="112" viewBox="0 0 1406 112" fill="none" xmlns="http://www.w3.org/2000/svg">
<rect x="491" y="52.7559" width="410" height="29" fill="#EFEA88"/>
<path d="M520.5 72.3125C520.25 72.2292 520 72.0625 519.75 71.8125C519.5 71.5625 519.333 71.3125 519.25 71.0625V69.8125L519.5 68.9375V67.0625L519.625 66.9375V64.8125L519.75 64.6875L522.125 25.0625V23.6875L522.25 23.5625V19.4375L523 18.0625C523.25 17.8958 523.5 17.7917 523.75 17.75C524 17.7083 524.292 17.6875 524.625 17.6875C524.875 17.7708 525.125 17.9375 525.375 18.1875C525.667 18.4375 525.854 18.6875 525.938 18.9375V23.5625L525.812 23.6875V25.0625L523.375 64.6875L523.25 64.8125V66.9375L523.125 67.0625V68.9375C523.042 69.2708 522.979 69.625 522.938 70C522.896 70.375 522.833 70.7292 522.75 71.0625C522.667 71.3958 522.458 71.6875 522.125 71.9375C521.875 72.1042 521.625 72.2083 521.375 72.25C521.125 72.2917 520.833 72.3125 520.5 72.3125ZM499.5 50.25C499.25 50.1667 499 50 498.75 49.75C498.5 49.5 498.333 49.25 498.25 49L498.125 48.5V46L496.75 28.125L496.625 28V23.4375L496.125 20.5625C496.292 20.2292 496.479 19.9583 496.688 19.75C496.896 19.5417 497.167 19.3542 497.5 19.1875H498.5C498.75 19.2708 499 19.4375 499.25 19.6875C499.5 19.9375 499.667 20.1875 499.75 20.4375L500.25 23.4375V28L500.375 28.125L501.75 46V49C501.667 49.25 501.5 49.5 501.25 49.75C501 50 500.75 50.1667 500.5 50.25H499.5ZM584.5 72.3125C584.25 72.2292 584 72.0625 583.75 71.8125C583.5 71.5625 583.333 71.3125 583.25 71.0625V69.8125L583.5 68.9375V67.0625L583.625 66.9375V64.8125L583.75 64.6875L586.125 25.0625V23.6875L586.25 23.5625V19.4375L587 18.0625C587.25 17.8958 587.5 17.7917 587.75 17.75C588 17.7083 588.292 17.6875 588.625 17.6875C588.875 17.7708 589.125 17.9375 589.375 18.1875C589.667 18.4375 589.854 18.6875 589.938 18.9375V23.5625L589.812 23.6875V25.0625L587.375 64.6875L587.25 64.8125V66.9375L587.125 67.0625V68.9375C587.042 69.2708 586.979 69.625 586.938 70C586.896 70.375 586.833 70.7292 586.75 71.0625C586.667 71.3958 586.458 71.6875 586.125 71.9375C585.875 72.1042 585.625 72.2083 585.375 72.25C585.125 72.2917 584.833 72.3125 584.5 72.3125ZM563.5 50.25C563.25 50.1667 563 50 562.75 49.75C562.5 49.5 562.333 49.25 562.25 49L562.125 48.5V46L560.75 28.125L560.625 28V23.4375L560.125 20.5625C560.292 20.2292 560.479 19.9583 560.688 19.75C560.896 19.5417 561.167 19.3542 561.5 19.1875H562.5C562.75 19.2708 563 19.4375 563.25 19.6875C563.5 19.9375 563.667 20.1875 563.75 20.4375L564.25 23.4375V28L564.375 28.125L565.75 46V49C565.667 49.25 565.5 49.5 565.25 49.75C565 50 564.75 50.1667 564.5 50.25H563.5ZM619.125 46.5625L617.75 45.8125C617.417 45.3958 617.292 44.8542 617.375 44.1875L618.375 42.9375C622.083 42.0208 625.812 41.4167 629.562 41.125C633.312 40.8333 637.104 40.5625 640.938 40.3125H653.312C654.854 40.3125 656.25 40.6875 657.5 41.4375C657.833 41.8542 657.958 42.3958 657.875 43.0625C657.625 43.6458 657.208 44.0625 656.625 44.3125H655.375L653.312 43.9375H640.938C637.271 44.1875 633.604 44.4375 629.938 44.6875C626.271 44.9375 622.667 45.5625 619.125 46.5625ZM685.375 68.8125C685.125 68.7292 684.875 68.5625 684.625 68.3125C684.375 68.0625 684.208 67.8125 684.125 67.5625V66.5625C686.583 63.5625 689.125 60.6458 691.75 57.8125C694.375 54.9375 697 52.0625 699.625 49.1875C702.25 46.3125 704.792 43.375 707.25 40.375C709.708 37.375 711.646 34.0417 713.062 30.375V28.4375C712.896 28.1042 712.75 27.75 712.625 27.375C712.5 27 712.271 26.6875 711.938 26.4375C711.604 26.1875 711.229 25.9583 710.812 25.75C710.396 25.5417 709.979 25.3542 709.562 25.1875C709.146 25.0208 708.729 24.8958 708.312 24.8125H702.438C701.021 25.0625 699.625 25.3542 698.25 25.6875C696.875 26.0208 695.521 26.4167 694.188 26.875C692.854 27.3333 691.521 27.8333 690.188 28.375C688.854 28.875 687.458 29.3333 686 29.75H684.75C684.5 29.6667 684.25 29.5 684 29.25C683.75 29 683.583 28.7292 683.5 28.4375V27.4375L684.75 26.0625C686.25 25.7292 687.708 25.2917 689.125 24.75C690.583 24.2083 692.042 23.7083 693.5 23.25C694.958 22.7917 696.438 22.3958 697.938 22.0625C699.438 21.7292 700.938 21.4375 702.438 21.1875H708.312C708.979 21.3542 709.625 21.5 710.25 21.625C710.875 21.75 711.479 21.9583 712.062 22.25C712.646 22.5417 713.208 22.875 713.75 23.25C714.292 23.625 714.812 24.1042 715.312 24.6875C715.646 25.0208 715.896 25.3958 716.062 25.8125C716.229 26.2292 716.354 26.6667 716.438 27.125C716.521 27.5833 716.604 28.0208 716.688 28.4375V30.75C716.271 32.5 715.604 34.1667 714.688 35.75C713.771 37.3333 712.792 38.8542 711.75 40.3125C710.708 41.7708 709.583 43.2083 708.375 44.625C707.167 46.0417 706.021 47.4583 704.938 48.875C706.521 50.125 708.083 51.375 709.625 52.625C711.167 53.875 712.646 55.2083 714.062 56.625C715.479 58.0417 716.917 59.4583 718.375 60.875C719.875 62.25 721.25 63.7292 722.5 65.3125V66.3125C722.417 66.5625 722.25 66.8125 722 67.0625C721.75 67.3125 721.5 67.4792 721.25 67.5625H720.25C718.792 66.2292 717.354 64.875 715.938 63.5C714.521 62.125 713.104 60.75 711.688 59.375C710.271 57.9583 708.812 56.6458 707.312 55.4375C705.812 54.2292 704.271 53.0417 702.688 51.875H702.188C700.771 53.2083 699.438 54.6042 698.188 56.0625C696.938 57.5208 695.646 58.9583 694.312 60.375C692.979 61.75 691.688 63.1875 690.438 64.6875C689.188 66.1875 687.833 67.5625 686.375 68.8125H685.375ZM749.875 68.8125C749.625 68.7292 749.375 68.5625 749.125 68.3125C748.875 68.0625 748.708 67.8125 748.625 67.5625V66.5625C751.833 63.1458 755.083 59.75 758.375 56.375C761.667 52.9583 764.771 49.375 767.688 45.625C770.604 41.875 773.229 37.9792 775.562 33.9375C777.896 29.8542 780.146 25.7292 782.312 21.5625C782.562 21.3125 782.833 21.1875 783.125 21.1875C783.417 21.1875 783.75 21.1875 784.125 21.1875C784.375 21.2708 784.625 21.4375 784.875 21.6875C785.125 21.9375 785.292 22.1875 785.375 22.4375V23.4375C783.333 27.7292 781.104 31.8958 778.688 35.9375C776.271 39.9792 773.625 43.875 770.75 47.625C767.875 51.375 764.812 54.9583 761.562 58.375C758.312 61.75 754.958 65.1042 751.5 68.4375C751.25 68.6042 751 68.7083 750.75 68.75C750.5 68.7917 750.208 68.8125 749.875 68.8125ZM811.125 46.5625L809.75 45.8125C809.417 45.3958 809.292 44.8542 809.375 44.1875L810.375 42.9375C814.083 42.0208 817.812 41.4167 821.562 41.125C825.312 40.8333 829.104 40.5625 832.938 40.3125H845.312C846.854 40.3125 848.25 40.6875 849.5 41.4375C849.833 41.8542 849.958 42.3958 849.875 43.0625C849.625 43.6458 849.208 44.0625 848.625 44.3125H847.375L845.312 43.9375H832.938C829.271 44.1875 825.604 44.4375 821.938 44.6875C818.271 44.9375 814.667 45.5625 811.125 46.5625ZM881.812 71.5C881.562 71.4167 881.312 71.25 881.062 71C880.812 70.75 880.646 70.5 880.562 70.25L880.812 57.3125L880.938 57.1875L881.688 38.4375L882.312 29.4375L882.438 20.125L883.188 18.75C883.438 18.5 883.708 18.375 884 18.375C884.292 18.375 884.604 18.375 884.938 18.375C885.188 18.4583 885.438 18.625 885.688 18.875C885.938 19.125 886.104 19.375 886.188 19.625V20.625L886.062 20.75V29.3125L885.438 38.3125L885.312 38.9375C887.229 39.7708 889.208 40.3958 891.25 40.8125C893.292 41.2292 895.333 41.6042 897.375 41.9375C899.417 42.2708 901.417 42.75 903.375 43.375C905.333 44 907.229 44.8958 909.062 46.0625C909.229 46.3125 909.333 46.5625 909.375 46.8125C909.417 47.0625 909.438 47.3542 909.438 47.6875C909.354 47.9375 909.188 48.1875 908.938 48.4375C908.688 48.6875 908.438 48.8542 908.188 48.9375H906.938C905.271 48.0208 903.542 47.2708 901.75 46.6875C899.958 46.1042 898.146 45.6667 896.312 45.375C894.479 45.0833 892.646 44.75 890.812 44.375C888.979 44 887.146 43.6042 885.312 43.1875L884.938 44.1875L884.562 57.1875L884.438 57.3125L884.188 69.625L883.438 71.125C883.188 71.2917 882.938 71.3958 882.688 71.4375C882.438 71.4792 882.146 71.5 881.812 71.5Z" fill="#0A0909"/>
</svg>
