<svg width="399" height="105" viewBox="0 0 399 105" fill="none" xmlns="http://www.w3.org/2000/svg">
<rect y="75.3003" width="392.585" height="29" transform="rotate(-2 0 75.3003)" fill="#F8F280"/>
<mask id="path-2-outside-1_163_26083" maskUnits="userSpaceOnUse" x="26.3517" y="7" width="369" height="83" fill="black">
<rect fill="white" x="26.3517" y="7" width="369" height="83"/>
<path d="M69.3829 88.8125C68.2579 88.8125 67.3204 88.3125 66.5704 87.3125L65.6329 85.4375C61.3829 81.6875 57.2579 77.75 53.2579 73.625C49.2579 69.5 45.0704 65.6562 40.6954 62.0938L38.3517 60.9688C37.8517 60.2188 37.6642 59.3438 37.7892 58.3438C38.1642 57.4688 38.7892 56.8438 39.6642 56.4688H41.6329C43.5079 57.0938 45.5079 57.4375 47.6329 57.5C49.7579 57.5625 51.8829 57.6562 54.0079 57.7812C56.3829 57.7812 58.5704 57.4062 60.5704 56.6562C62.5704 55.9062 64.4454 54.7188 66.1954 53.0938C67.4454 50.4688 67.8829 47.5312 67.5079 44.2812C67.2579 41.7812 66.8829 39.375 66.3829 37.0625C65.8829 34.75 65.3829 32.4062 64.8829 30.0312H64.1329C58.3829 30.4062 52.6954 30.9375 47.0704 31.625C41.5079 32.3125 35.9142 32.9688 30.2892 33.5938L28.2267 32.4688C27.7267 31.7188 27.5392 30.8437 27.6642 29.8438C28.0392 28.9687 28.6642 28.3438 29.5392 27.9688H31.0392L32.5392 28.1562C37.6017 27.4062 42.6642 26.7187 47.7267 26.0938C52.7892 25.4688 57.9454 25.0312 63.1954 24.7812V24.0312C62.5704 21.7812 61.8517 19.5625 61.0392 17.375C60.2267 15.125 59.2579 12.9375 58.1329 10.8125L59.2579 8.75C59.8829 8.25 60.6954 8.0625 61.6954 8.1875C62.9454 8.8125 63.8829 9.75 64.5079 11C65.3829 13.125 66.1954 15.3125 66.9454 17.5625C67.6954 19.75 68.3829 21.9688 69.0079 24.2188L69.1954 24.4062H85.6954C88.1329 24.2812 90.4767 23.9062 92.7267 23.2812L94.6017 24.5938C95.1017 25.2187 95.2892 26.0313 95.1642 27.0312C94.7892 27.9063 94.1642 28.5312 93.2892 28.9062L85.6954 29.8438H70.5079V30.5938C71.1329 33.7188 71.7579 36.8438 72.3829 39.9688C73.0079 43.0938 73.1954 46.4062 72.9454 49.9062C72.8204 51.6562 72.3517 53.2812 71.5392 54.7812C70.7267 56.2812 69.5704 57.6562 68.0704 58.9062C65.6954 60.6562 63.0392 61.8438 60.1017 62.4688C57.1642 63.0938 54.1329 63.3438 51.0079 63.2188V63.5938C54.5079 67.4062 58.1329 71 61.8829 74.375C65.6329 77.75 69.1329 81.375 72.3829 85.25V86.75C72.0079 87.625 71.3829 88.25 70.5079 88.625L69.3829 88.8125ZM165.008 86.75C164.008 86.25 163.258 85.5 162.758 84.5C159.258 79.375 155.883 74.1875 152.633 68.9375C149.383 63.625 145.758 58.5312 141.758 53.6562C140.508 53.0312 139.258 52.3438 138.008 51.5938C137.508 50.8438 137.32 49.9688 137.445 48.9688C142.195 43.9688 146.758 38.8125 151.133 33.5C155.508 28.1875 158.695 22.25 160.695 15.6875C160.32 15.0625 160.195 14.3125 160.32 13.4375C160.695 12.5625 161.32 11.9375 162.195 11.5625H163.695C164.82 12.0625 165.633 12.875 166.133 14V18.125C164.008 24.0625 160.977 29.5312 157.039 34.5312C153.102 39.5312 149.07 44.4062 144.945 49.1562C149.695 54.6562 153.977 60.5 157.789 66.6875C161.602 72.8125 165.133 78.875 168.383 84.875C168.008 85.75 167.383 86.375 166.508 86.75H165.008ZM240.758 85.0625C238.633 84.9375 236.664 84.4688 234.852 83.6562C233.102 82.8438 231.477 81.625 229.977 80C228.352 77.875 227.32 75.5312 226.883 72.9688C226.445 70.3438 226.227 67.6562 226.227 64.9062C226.477 58.4062 228.008 52.1562 230.82 46.1562C233.633 40.1562 237.07 34.5312 241.133 29.2812C238.883 29.4063 236.664 29.3437 234.477 29.0938C232.352 28.8438 230.477 27.9688 228.852 26.4688C227.852 25.4688 227.414 24.25 227.539 22.8125L228.664 20.75C229.414 20.25 230.289 20.0625 231.289 20.1875C232.164 20.5625 232.789 21.1875 233.164 22.0625V23C235.977 23.8125 238.945 24.0625 242.07 23.75C244.07 23.625 246.008 23.4063 247.883 23.0938C249.758 22.7812 251.633 22.5 253.508 22.25C254.383 22.625 255.008 23.2812 255.383 24.2188V25.9062C255.008 26.7813 254.383 27.4062 253.508 27.7812C250.758 28.5312 248.32 29.9688 246.195 32.0938C242.07 37.3438 238.602 42.9375 235.789 48.875C233.039 54.8125 231.664 61.1562 231.664 67.9062C231.789 69.6562 232.07 71.4062 232.508 73.1562C232.945 74.8438 233.883 76.3125 235.32 77.5625C237.32 79.0625 239.695 79.75 242.445 79.625C245.445 79.125 248.102 77.8438 250.414 75.7812C252.727 73.7188 255.008 71.4688 257.258 69.0312C260.883 63.6562 264.039 58 266.727 52.0625C269.414 46.125 271.695 40.2188 273.57 34.3438C274.32 33.8438 275.195 33.6562 276.195 33.7812C277.07 34.1562 277.695 34.7812 278.07 35.6562V39.2188C277.445 40.5938 277.07 42.0938 276.945 43.7188C276.82 45.3438 276.758 47.0312 276.758 48.7812C276.883 50.7812 277.195 52.7188 277.695 54.5938C278.195 56.4688 279.07 58.1562 280.32 59.6562C282.07 61.1562 284.039 62.2812 286.227 63.0312C286.727 63.6562 286.914 64.4688 286.789 65.4688C286.414 66.3438 285.789 66.9688 284.914 67.3438H283.133C280.383 66.7188 277.945 65.2188 275.82 62.8438C274.695 61.5938 273.852 60.1875 273.289 58.625C272.727 57.0625 272.32 55.4688 272.07 53.8438H271.695C269.82 58.5938 267.57 63.1875 264.945 67.625C262.32 72 258.883 75.9375 254.633 79.4375C252.758 81.3125 250.633 82.6875 248.258 83.5625C245.883 84.4375 243.383 84.9375 240.758 85.0625ZM357.57 86.9375C355.82 86.6875 354.195 86.1875 352.695 85.4375C351.195 84.6875 349.82 83.5625 348.57 82.0625C346.32 78.8125 345.195 75.1875 345.195 71.1875C345.195 67.125 344.758 63.2812 343.883 59.6562H342.383C340.133 60.2812 338.039 61.2812 336.102 62.6562C334.164 64.0312 332.32 65.5938 330.57 67.3438C328.07 70.0938 325.914 73.0625 324.102 76.25C322.352 79.375 320.914 82.625 319.789 86C319.164 86.5 318.352 86.6875 317.352 86.5625C316.352 86.0625 315.664 85.3125 315.289 84.3125L315.102 82.25C317.727 70.6875 321.383 59.4062 326.07 48.4062C330.82 37.4062 336.133 26.75 342.008 16.4375C342.633 15.9375 343.445 15.75 344.445 15.875C345.32 16.25 345.945 16.875 346.32 17.75V19.4375C341.945 26.5 338.258 33.8438 335.258 41.4688C332.258 49.0938 329.195 56.6562 326.07 64.1562H326.258C327.883 62.2812 329.664 60.625 331.602 59.1875C333.539 57.75 335.57 56.4688 337.695 55.3438C339.82 54.5938 342.133 54.2188 344.633 54.2188C346.008 54.4688 347.195 55.2188 348.195 56.4688C349.945 60.0938 350.695 64.125 350.445 68.5625C350.195 72.9375 351.445 76.75 354.195 80C355.82 81.125 357.695 81.625 359.82 81.5C365.695 80.625 371.258 78.625 376.508 75.5C381.82 72.3125 386.914 69.1562 391.789 66.0312C392.664 66.4062 393.289 67.0312 393.664 67.9062V69.4062C390.664 72.7188 387.289 75.4688 383.539 77.6562C379.789 79.8438 376.008 81.9375 372.195 83.9375C369.945 84.8125 367.602 85.5312 365.164 86.0938C362.727 86.6562 360.195 86.9375 357.57 86.9375Z"/>
</mask>
<path d="M69.3829 88.8125C68.2579 88.8125 67.3204 88.3125 66.5704 87.3125L65.6329 85.4375C61.3829 81.6875 57.2579 77.75 53.2579 73.625C49.2579 69.5 45.0704 65.6562 40.6954 62.0938L38.3517 60.9688C37.8517 60.2188 37.6642 59.3438 37.7892 58.3438C38.1642 57.4688 38.7892 56.8438 39.6642 56.4688H41.6329C43.5079 57.0938 45.5079 57.4375 47.6329 57.5C49.7579 57.5625 51.8829 57.6562 54.0079 57.7812C56.3829 57.7812 58.5704 57.4062 60.5704 56.6562C62.5704 55.9062 64.4454 54.7188 66.1954 53.0938C67.4454 50.4688 67.8829 47.5312 67.5079 44.2812C67.2579 41.7812 66.8829 39.375 66.3829 37.0625C65.8829 34.75 65.3829 32.4062 64.8829 30.0312H64.1329C58.3829 30.4062 52.6954 30.9375 47.0704 31.625C41.5079 32.3125 35.9142 32.9688 30.2892 33.5938L28.2267 32.4688C27.7267 31.7188 27.5392 30.8437 27.6642 29.8438C28.0392 28.9687 28.6642 28.3438 29.5392 27.9688H31.0392L32.5392 28.1562C37.6017 27.4062 42.6642 26.7187 47.7267 26.0938C52.7892 25.4688 57.9454 25.0312 63.1954 24.7812V24.0312C62.5704 21.7812 61.8517 19.5625 61.0392 17.375C60.2267 15.125 59.2579 12.9375 58.1329 10.8125L59.2579 8.75C59.8829 8.25 60.6954 8.0625 61.6954 8.1875C62.9454 8.8125 63.8829 9.75 64.5079 11C65.3829 13.125 66.1954 15.3125 66.9454 17.5625C67.6954 19.75 68.3829 21.9688 69.0079 24.2188L69.1954 24.4062H85.6954C88.1329 24.2812 90.4767 23.9062 92.7267 23.2812L94.6017 24.5938C95.1017 25.2187 95.2892 26.0313 95.1642 27.0312C94.7892 27.9063 94.1642 28.5312 93.2892 28.9062L85.6954 29.8438H70.5079V30.5938C71.1329 33.7188 71.7579 36.8438 72.3829 39.9688C73.0079 43.0938 73.1954 46.4062 72.9454 49.9062C72.8204 51.6562 72.3517 53.2812 71.5392 54.7812C70.7267 56.2812 69.5704 57.6562 68.0704 58.9062C65.6954 60.6562 63.0392 61.8438 60.1017 62.4688C57.1642 63.0938 54.1329 63.3438 51.0079 63.2188V63.5938C54.5079 67.4062 58.1329 71 61.8829 74.375C65.6329 77.75 69.1329 81.375 72.3829 85.25V86.75C72.0079 87.625 71.3829 88.25 70.5079 88.625L69.3829 88.8125ZM165.008 86.75C164.008 86.25 163.258 85.5 162.758 84.5C159.258 79.375 155.883 74.1875 152.633 68.9375C149.383 63.625 145.758 58.5312 141.758 53.6562C140.508 53.0312 139.258 52.3438 138.008 51.5938C137.508 50.8438 137.32 49.9688 137.445 48.9688C142.195 43.9688 146.758 38.8125 151.133 33.5C155.508 28.1875 158.695 22.25 160.695 15.6875C160.32 15.0625 160.195 14.3125 160.32 13.4375C160.695 12.5625 161.32 11.9375 162.195 11.5625H163.695C164.82 12.0625 165.633 12.875 166.133 14V18.125C164.008 24.0625 160.977 29.5312 157.039 34.5312C153.102 39.5312 149.07 44.4062 144.945 49.1562C149.695 54.6562 153.977 60.5 157.789 66.6875C161.602 72.8125 165.133 78.875 168.383 84.875C168.008 85.75 167.383 86.375 166.508 86.75H165.008ZM240.758 85.0625C238.633 84.9375 236.664 84.4688 234.852 83.6562C233.102 82.8438 231.477 81.625 229.977 80C228.352 77.875 227.32 75.5312 226.883 72.9688C226.445 70.3438 226.227 67.6562 226.227 64.9062C226.477 58.4062 228.008 52.1562 230.82 46.1562C233.633 40.1562 237.07 34.5312 241.133 29.2812C238.883 29.4063 236.664 29.3437 234.477 29.0938C232.352 28.8438 230.477 27.9688 228.852 26.4688C227.852 25.4688 227.414 24.25 227.539 22.8125L228.664 20.75C229.414 20.25 230.289 20.0625 231.289 20.1875C232.164 20.5625 232.789 21.1875 233.164 22.0625V23C235.977 23.8125 238.945 24.0625 242.07 23.75C244.07 23.625 246.008 23.4063 247.883 23.0938C249.758 22.7812 251.633 22.5 253.508 22.25C254.383 22.625 255.008 23.2812 255.383 24.2188V25.9062C255.008 26.7813 254.383 27.4062 253.508 27.7812C250.758 28.5312 248.32 29.9688 246.195 32.0938C242.07 37.3438 238.602 42.9375 235.789 48.875C233.039 54.8125 231.664 61.1562 231.664 67.9062C231.789 69.6562 232.07 71.4062 232.508 73.1562C232.945 74.8438 233.883 76.3125 235.32 77.5625C237.32 79.0625 239.695 79.75 242.445 79.625C245.445 79.125 248.102 77.8438 250.414 75.7812C252.727 73.7188 255.008 71.4688 257.258 69.0312C260.883 63.6562 264.039 58 266.727 52.0625C269.414 46.125 271.695 40.2188 273.57 34.3438C274.32 33.8438 275.195 33.6562 276.195 33.7812C277.07 34.1562 277.695 34.7812 278.07 35.6562V39.2188C277.445 40.5938 277.07 42.0938 276.945 43.7188C276.82 45.3438 276.758 47.0312 276.758 48.7812C276.883 50.7812 277.195 52.7188 277.695 54.5938C278.195 56.4688 279.07 58.1562 280.32 59.6562C282.07 61.1562 284.039 62.2812 286.227 63.0312C286.727 63.6562 286.914 64.4688 286.789 65.4688C286.414 66.3438 285.789 66.9688 284.914 67.3438H283.133C280.383 66.7188 277.945 65.2188 275.82 62.8438C274.695 61.5938 273.852 60.1875 273.289 58.625C272.727 57.0625 272.32 55.4688 272.07 53.8438H271.695C269.82 58.5938 267.57 63.1875 264.945 67.625C262.32 72 258.883 75.9375 254.633 79.4375C252.758 81.3125 250.633 82.6875 248.258 83.5625C245.883 84.4375 243.383 84.9375 240.758 85.0625ZM357.57 86.9375C355.82 86.6875 354.195 86.1875 352.695 85.4375C351.195 84.6875 349.82 83.5625 348.57 82.0625C346.32 78.8125 345.195 75.1875 345.195 71.1875C345.195 67.125 344.758 63.2812 343.883 59.6562H342.383C340.133 60.2812 338.039 61.2812 336.102 62.6562C334.164 64.0312 332.32 65.5938 330.57 67.3438C328.07 70.0938 325.914 73.0625 324.102 76.25C322.352 79.375 320.914 82.625 319.789 86C319.164 86.5 318.352 86.6875 317.352 86.5625C316.352 86.0625 315.664 85.3125 315.289 84.3125L315.102 82.25C317.727 70.6875 321.383 59.4062 326.07 48.4062C330.82 37.4062 336.133 26.75 342.008 16.4375C342.633 15.9375 343.445 15.75 344.445 15.875C345.32 16.25 345.945 16.875 346.32 17.75V19.4375C341.945 26.5 338.258 33.8438 335.258 41.4688C332.258 49.0938 329.195 56.6562 326.07 64.1562H326.258C327.883 62.2812 329.664 60.625 331.602 59.1875C333.539 57.75 335.57 56.4688 337.695 55.3438C339.82 54.5938 342.133 54.2188 344.633 54.2188C346.008 54.4688 347.195 55.2188 348.195 56.4688C349.945 60.0938 350.695 64.125 350.445 68.5625C350.195 72.9375 351.445 76.75 354.195 80C355.82 81.125 357.695 81.625 359.82 81.5C365.695 80.625 371.258 78.625 376.508 75.5C381.82 72.3125 386.914 69.1562 391.789 66.0312C392.664 66.4062 393.289 67.0312 393.664 67.9062V69.4062C390.664 72.7188 387.289 75.4688 383.539 77.6562C379.789 79.8438 376.008 81.9375 372.195 83.9375C369.945 84.8125 367.602 85.5312 365.164 86.0938C362.727 86.6562 360.195 86.9375 357.57 86.9375Z" fill="#88BDF2"/>
<path d="M69.3829 88.8125V89.8125H69.4657L69.5473 89.7989L69.3829 88.8125ZM66.5704 87.3125L65.676 87.7597L65.7163 87.8404L65.7704 87.9125L66.5704 87.3125ZM65.6329 85.4375L66.5274 84.9903L66.4404 84.8163L66.2946 84.6877L65.6329 85.4375ZM40.6954 62.0938L41.3269 61.3183L41.235 61.2435L41.1282 61.1922L40.6954 62.0938ZM38.3517 60.9688L37.5196 61.5235L37.6717 61.7516L37.919 61.8703L38.3517 60.9688ZM37.7892 58.3438L36.87 57.9498L36.8144 58.0796L36.7969 58.2197L37.7892 58.3438ZM39.6642 56.4688V55.4688H39.4589L39.2703 55.5496L39.6642 56.4688ZM41.6329 56.4688L41.9492 55.5201L41.7952 55.4688H41.6329V56.4688ZM54.0079 57.7812L53.9492 58.7795L53.9785 58.7812H54.0079V57.7812ZM66.1954 53.0938L66.8759 53.8265L67.0161 53.6964L67.0983 53.5237L66.1954 53.0938ZM67.5079 44.2812L66.5129 44.3808L66.5137 44.3883L66.5145 44.3959L67.5079 44.2812ZM64.8829 30.0312L65.8615 29.8252L65.6943 29.0312H64.8829V30.0312ZM64.1329 30.0312V29.0312H64.1004L64.0679 29.0334L64.1329 30.0312ZM47.0704 31.625L46.9491 30.6324L46.9478 30.6326L47.0704 31.625ZM30.2892 33.5938L29.8103 34.4716L30.0867 34.6224L30.3996 34.5876L30.2892 33.5938ZM28.2267 32.4688L27.3946 33.0234L27.5314 33.2286L27.7478 33.3466L28.2267 32.4688ZM27.6642 29.8438L26.745 29.4498L26.6894 29.5796L26.6719 29.7197L27.6642 29.8438ZM29.5392 27.9688V26.9688H29.3339L29.1453 27.0496L29.5392 27.9688ZM31.0392 27.9688L31.1632 26.9765L31.1014 26.9688H31.0392V27.9688ZM32.5392 28.1562L32.4151 29.1485L32.5507 29.1655L32.6857 29.1455L32.5392 28.1562ZM63.1954 24.7812L63.243 25.7801L64.1954 25.7348V24.7812H63.1954ZM63.1954 24.0312H64.1954V23.8949L64.159 23.7636L63.1954 24.0312ZM61.0392 17.375L60.0986 17.7147L60.1018 17.7232L61.0392 17.375ZM58.1329 10.8125L57.255 10.3336L56.9977 10.8054L57.2491 11.2804L58.1329 10.8125ZM59.2579 8.75L58.6332 7.96913L58.4763 8.0947L58.38 8.27115L59.2579 8.75ZM61.6954 8.1875L62.1426 7.29308L61.9894 7.21647L61.8195 7.19522L61.6954 8.1875ZM64.5079 11L65.4326 10.6192L65.4187 10.5855L65.4024 10.5528L64.5079 11ZM66.9454 17.5625L65.9967 17.8787L65.9995 17.8868L66.9454 17.5625ZM69.0079 24.2188L68.0444 24.4864L68.1148 24.7398L68.3008 24.9259L69.0079 24.2188ZM69.1954 24.4062L68.4883 25.1134L68.7812 25.4062H69.1954V24.4062ZM85.6954 24.4062V25.4062H85.7211L85.7467 25.4049L85.6954 24.4062ZM92.7267 23.2812L93.3001 22.462L92.9136 22.1915L92.459 22.3177L92.7267 23.2812ZM94.6017 24.5938L95.3826 23.9691L95.2928 23.8569L95.1751 23.7745L94.6017 24.5938ZM95.1642 27.0312L96.0833 27.4252L96.1389 27.2954L96.1565 27.1553L95.1642 27.0312ZM93.2892 28.9062L93.4117 29.8987L93.5526 29.8813L93.6831 29.8254L93.2892 28.9062ZM85.6954 29.8438V30.8438H85.7569L85.818 30.8362L85.6954 29.8438ZM70.5079 29.8438V28.8438H69.5079V29.8438H70.5079ZM70.5079 30.5938H69.5079V30.6928L69.5274 30.7899L70.5079 30.5938ZM68.0704 58.9062L68.6636 59.7113L68.6877 59.6936L68.7106 59.6745L68.0704 58.9062ZM51.0079 63.2188L51.0479 62.2196L50.0079 62.1779V63.2188H51.0079ZM51.0079 63.5938H50.0079V63.9832L50.2713 64.27L51.0079 63.5938ZM72.3829 85.25H73.3829V84.8862L73.1491 84.6074L72.3829 85.25ZM72.3829 86.75L73.3021 87.1439L73.3829 86.9553V86.75H72.3829ZM70.5079 88.625L70.6723 89.6114L70.7911 89.5916L70.9019 89.5441L70.5079 88.625ZM69.3829 88.8125V87.8125C68.6109 87.8125 67.9557 87.4929 67.3704 86.7125L66.5704 87.3125L65.7704 87.9125C66.6851 89.1321 67.905 89.8125 69.3829 89.8125V88.8125ZM66.5704 87.3125L67.4649 86.8653L66.5274 84.9903L65.6329 85.4375L64.7385 85.8847L65.676 87.7597L66.5704 87.3125ZM65.6329 85.4375L66.2946 84.6877C62.0643 80.9551 57.958 77.0355 53.9758 72.9289L53.2579 73.625L52.54 74.3211C56.5578 78.4645 60.7016 82.4199 64.9713 86.1873L65.6329 85.4375ZM53.2579 73.625L53.9758 72.9289C49.9491 68.7763 45.7328 64.906 41.3269 61.3183L40.6954 62.0938L40.064 62.8692C44.4081 66.4065 48.5668 70.2237 52.54 74.3211L53.2579 73.625ZM40.6954 62.0938L41.1282 61.1922L38.7844 60.0672L38.3517 60.9688L37.919 61.8703L40.2627 62.9953L40.6954 62.0938ZM38.3517 60.9688L39.1837 60.414C38.8328 59.8876 38.6825 59.2597 38.7815 58.4678L37.7892 58.3438L36.7969 58.2197C36.6459 59.4278 36.8706 60.5499 37.5196 61.5235L38.3517 60.9688ZM37.7892 58.3438L38.7083 58.7377C38.9822 58.0987 39.4191 57.6617 40.0581 57.3879L39.6642 56.4688L39.2703 55.5496C38.1593 56.0258 37.3462 56.8388 36.87 57.9498L37.7892 58.3438ZM39.6642 56.4688V57.4688H41.6329V56.4688V55.4688H39.6642V56.4688ZM41.6329 56.4688L41.3167 57.4174C43.2911 58.0756 45.3883 58.4344 47.6035 58.4996L47.6329 57.5L47.6623 56.5004C45.6276 56.4406 43.7248 56.1119 41.9492 55.5201L41.6329 56.4688ZM47.6329 57.5L47.6035 58.4996C49.7187 58.5618 51.834 58.6551 53.9492 58.7795L54.0079 57.7812L54.0667 56.783C51.9319 56.6574 49.7971 56.5632 47.6623 56.5004L47.6329 57.5ZM54.0079 57.7812V58.7812C56.4895 58.7812 58.7974 58.3891 60.9216 57.5926L60.5704 56.6562L60.2193 55.7199C58.3435 56.4234 56.2764 56.7812 54.0079 56.7812V57.7812ZM60.5704 56.6562L60.9216 57.5926C63.0571 56.7917 65.0417 55.5297 66.8759 53.8265L66.1954 53.0938L65.515 52.361C63.8492 53.9078 62.0837 55.0208 60.2193 55.7199L60.5704 56.6562ZM66.1954 53.0938L67.0983 53.5237C68.4388 50.7087 68.8951 47.579 68.5013 44.1666L67.5079 44.2812L66.5145 44.3959C66.8708 47.4835 66.4521 50.2288 65.2926 52.6638L66.1954 53.0938ZM67.5079 44.2812L68.503 44.1817C68.2494 41.6465 67.8688 39.2028 67.3603 36.8512L66.3829 37.0625L65.4055 37.2738C65.8971 39.5472 66.2664 41.916 66.5129 44.3808L67.5079 44.2812ZM66.3829 37.0625L67.3603 36.8512C66.8607 34.5405 66.3611 32.1985 65.8615 29.8252L64.8829 30.0312L63.9044 30.2373C64.4047 32.614 64.9051 34.9595 65.4055 37.2738L66.3829 37.0625ZM64.8829 30.0312V29.0312H64.1329V30.0312V31.0312H64.8829V30.0312ZM64.1329 30.0312L64.0679 29.0334C58.2994 29.4096 52.5931 29.9426 46.9491 30.6324L47.0704 31.625L47.1918 32.6176C52.7977 31.9324 58.4665 31.4029 64.198 31.0291L64.1329 30.0312ZM47.0704 31.625L46.9478 30.6326C41.3894 31.3195 35.7997 31.9753 30.1788 32.5999L30.2892 33.5938L30.3996 34.5876C36.0287 33.9622 41.6265 33.3055 47.1931 32.6174L47.0704 31.625ZM30.2892 33.5938L30.768 32.7159L28.7055 31.5909L28.2267 32.4688L27.7478 33.3466L29.8103 34.4716L30.2892 33.5938ZM28.2267 32.4688L29.0587 31.9141C28.7078 31.3876 28.5575 30.7597 28.6565 29.9678L27.6642 29.8438L26.6719 29.7197C26.5209 30.9278 26.7456 32.0499 27.3946 33.0234L28.2267 32.4688ZM27.6642 29.8438L28.5833 30.2377C28.8572 29.5987 29.2941 29.1617 29.9331 28.8879L29.5392 27.9688L29.1453 27.0496C28.0343 27.5258 27.2212 28.3388 26.745 29.4498L27.6642 29.8438ZM29.5392 27.9688V28.9688H31.0392V27.9688V26.9688H29.5392V27.9688ZM31.0392 27.9688L30.9151 28.961L32.4151 29.1485L32.5392 28.1562L32.6632 27.164L31.1632 26.9765L31.0392 27.9688ZM32.5392 28.1562L32.6857 29.1455C37.7403 28.3966 42.7948 27.7102 47.8492 27.0862L47.7267 26.0938L47.6042 25.1013C42.5336 25.7273 37.4631 26.4159 32.3926 27.167L32.5392 28.1562ZM47.7267 26.0938L47.8492 27.0862C52.8861 26.4644 58.0173 26.029 63.243 25.7801L63.1954 24.7812L63.1479 23.7824C57.8736 24.0335 52.6923 24.4731 47.6042 25.1013L47.7267 26.0938ZM63.1954 24.7812H64.1954V24.0312H63.1954H62.1954V24.7812H63.1954ZM63.1954 24.0312L64.159 23.7636C63.5264 21.4864 62.7989 19.2408 61.9766 17.0268L61.0392 17.375L60.1018 17.7232C60.9044 19.8842 61.6145 22.0761 62.2319 24.2989L63.1954 24.0312ZM61.0392 17.375L61.9797 17.0354C61.1513 14.7411 60.1635 12.5108 59.0167 10.3446L58.1329 10.8125L57.2491 11.2804C58.3524 13.3642 59.3021 15.5089 60.0986 17.7146L61.0392 17.375ZM58.1329 10.8125L59.0108 11.2914L60.1358 9.22885L59.2579 8.75L58.38 8.27115L57.255 10.3336L58.1329 10.8125ZM59.2579 8.75L59.8826 9.53087C60.2453 9.24075 60.7658 9.07908 61.5714 9.17978L61.6954 8.1875L61.8195 7.19522C60.625 7.04592 59.5206 7.25925 58.6332 7.96913L59.2579 8.75ZM61.6954 8.1875L61.2482 9.08192C62.3047 9.61016 63.0853 10.3907 63.6135 11.4472L64.5079 11L65.4024 10.5528C64.6806 9.10926 63.5862 8.01484 62.1426 7.29308L61.6954 8.1875ZM64.5079 11L63.5833 11.3808C64.4492 13.4839 65.2538 15.6498 65.9967 17.8787L66.9454 17.5625L67.8941 17.2463C67.1371 14.9752 66.3166 12.7661 65.4326 10.6192L64.5079 11ZM66.9454 17.5625L65.9995 17.8868C66.743 20.0554 67.4247 22.2553 68.0444 24.4864L69.0079 24.2188L69.9715 23.9511C69.3412 21.6822 68.6479 19.4446 67.8914 17.2382L66.9454 17.5625ZM69.0079 24.2188L68.3008 24.9259L68.4883 25.1134L69.1954 24.4062L69.9025 23.6991L69.715 23.5116L69.0079 24.2188ZM69.1954 24.4062V25.4062H85.6954V24.4062V23.4062H69.1954V24.4062ZM85.6954 24.4062L85.7467 25.4049C88.2541 25.2764 90.6706 24.8903 92.9943 24.2448L92.7267 23.2812L92.459 22.3177C90.2828 22.9222 88.0118 23.2861 85.6442 23.4076L85.6954 24.4062ZM92.7267 23.2812L92.1532 24.1005L94.0282 25.413L94.6017 24.5938L95.1751 23.7745L93.3001 22.462L92.7267 23.2812ZM94.6017 24.5938L93.8208 25.2184C94.1109 25.5811 94.2726 26.1016 94.1719 26.9072L95.1642 27.0312L96.1565 27.1553C96.3058 25.9609 96.0924 24.8564 95.3826 23.9691L94.6017 24.5938ZM95.1642 27.0312L94.245 26.6373C93.9712 27.2763 93.5342 27.7133 92.8953 27.9871L93.2892 28.9062L93.6831 29.8254C94.7941 29.3492 95.6072 28.5362 96.0833 27.4252L95.1642 27.0312ZM93.2892 28.9062L93.1667 27.9138L85.5729 28.8513L85.6954 29.8438L85.818 30.8362L93.4117 29.8987L93.2892 28.9062ZM85.6954 29.8438V28.8438H70.5079V29.8438V30.8438H85.6954V29.8438ZM70.5079 29.8438H69.5079V30.5938H70.5079H71.5079V29.8438H70.5079ZM70.5079 30.5938L69.5274 30.7899C69.5286 30.796 69.5298 30.8021 69.531 30.8082C69.5322 30.8143 69.5335 30.8204 69.5347 30.8265C69.5359 30.8326 69.5371 30.8387 69.5383 30.8448C69.5396 30.8509 69.5408 30.857 69.542 30.8631C69.5432 30.8692 69.5444 30.8753 69.5457 30.8814C69.5469 30.8875 69.5481 30.8936 69.5493 30.8997C69.5505 30.9058 69.5518 30.9119 69.553 30.918C69.5542 30.9241 69.5554 30.9302 69.5567 30.9364C69.5579 30.9425 69.5591 30.9486 69.5603 30.9547C69.5615 30.9608 69.5628 30.9669 69.564 30.973C69.5652 30.9791 69.5664 30.9852 69.5676 30.9913C69.5689 30.9974 69.5701 31.0035 69.5713 31.0096C69.5725 31.0157 69.5737 31.0218 69.575 31.0279C69.5762 31.034 69.5774 31.0401 69.5786 31.0462C69.5798 31.0523 69.5811 31.0584 69.5823 31.0645C69.5835 31.0706 69.5847 31.0767 69.5859 31.0828C69.5872 31.0889 69.5884 31.095 69.5896 31.1011C69.5908 31.1073 69.5921 31.1134 69.5933 31.1195C69.5945 31.1256 69.5957 31.1317 69.5969 31.1378C69.5982 31.1439 69.5994 31.15 69.6006 31.1561C69.6018 31.1622 69.603 31.1683 69.6043 31.1744C69.6055 31.1805 69.6067 31.1866 69.6079 31.1927C69.6091 31.1988 69.6104 31.2049 69.6116 31.211C69.6128 31.2171 69.614 31.2232 69.6152 31.2293C69.6165 31.2354 69.6177 31.2415 69.6189 31.2476C69.6201 31.2537 69.6213 31.2598 69.6226 31.2659C69.6238 31.272 69.625 31.2781 69.6262 31.2843C69.6275 31.2904 69.6287 31.2965 69.6299 31.3026C69.6311 31.3087 69.6323 31.3148 69.6336 31.3209C69.6348 31.327 69.636 31.3331 69.6372 31.3392C69.6384 31.3453 69.6397 31.3514 69.6409 31.3575C69.6421 31.3636 69.6433 31.3697 69.6445 31.3758C69.6458 31.3819 69.647 31.388 69.6482 31.3941C69.6494 31.4002 69.6506 31.4063 69.6519 31.4124C69.6531 31.4185 69.6543 31.4246 69.6555 31.4307C69.6567 31.4368 69.658 31.4429 69.6592 31.449C69.6604 31.4552 69.6616 31.4613 69.6629 31.4674C69.6641 31.4735 69.6653 31.4796 69.6665 31.4857C69.6677 31.4918 69.669 31.4979 69.6702 31.504C69.6714 31.5101 69.6726 31.5162 69.6738 31.5223C69.6751 31.5284 69.6763 31.5345 69.6775 31.5406C69.6787 31.5467 69.6799 31.5528 69.6812 31.5589C69.6824 31.565 69.6836 31.5711 69.6848 31.5772C69.686 31.5833 69.6873 31.5894 69.6885 31.5955C69.6897 31.6016 69.6909 31.6077 69.6922 31.6138C69.6934 31.6199 69.6946 31.626 69.6958 31.6322C69.697 31.6383 69.6983 31.6444 69.6995 31.6505C69.7007 31.6566 69.7019 31.6627 69.7031 31.6688C69.7044 31.6749 69.7056 31.681 69.7068 31.6871C69.708 31.6932 69.7092 31.6993 69.7105 31.7054C69.7117 31.7115 69.7129 31.7176 69.7141 31.7237C69.7153 31.7298 69.7166 31.7359 69.7178 31.742C69.719 31.7481 69.7202 31.7542 69.7214 31.7603C69.7227 31.7664 69.7239 31.7725 69.7251 31.7786C69.7263 31.7847 69.7276 31.7908 69.7288 31.7969C69.73 31.8031 69.7312 31.8092 69.7324 31.8153C69.7337 31.8214 69.7349 31.8275 69.7361 31.8336C69.7373 31.8397 69.7385 31.8458 69.7398 31.8519C69.741 31.858 69.7422 31.8641 69.7434 31.8702C69.7446 31.8763 69.7459 31.8824 69.7471 31.8885C69.7483 31.8946 69.7495 31.9007 69.7507 31.9068C69.752 31.9129 69.7532 31.919 69.7544 31.9251C69.7556 31.9312 69.7568 31.9373 69.7581 31.9434C69.7593 31.9495 69.7605 31.9556 69.7617 31.9617C69.763 31.9678 69.7642 31.9739 69.7654 31.9801C69.7666 31.9862 69.7678 31.9923 69.7691 31.9984C69.7703 32.0045 69.7715 32.0106 69.7727 32.0167C69.7739 32.0228 69.7752 32.0289 69.7764 32.035C69.7776 32.0411 69.7788 32.0472 69.78 32.0533C69.7813 32.0594 69.7825 32.0655 69.7837 32.0716C69.7849 32.0777 69.7861 32.0838 69.7874 32.0899C69.7886 32.096 69.7898 32.1021 69.791 32.1082C69.7922 32.1143 69.7935 32.1204 69.7947 32.1265C69.7959 32.1326 69.7971 32.1387 69.7984 32.1448C69.7996 32.151 69.8008 32.1571 69.802 32.1632C69.8032 32.1693 69.8045 32.1754 69.8057 32.1815C69.8069 32.1876 69.8081 32.1937 69.8093 32.1998C69.8106 32.2059 69.8118 32.212 69.813 32.2181C69.8142 32.2242 69.8154 32.2303 69.8167 32.2364C69.8179 32.2425 69.8191 32.2486 69.8203 32.2547C69.8215 32.2608 69.8228 32.2669 69.824 32.273C69.8252 32.2791 69.8264 32.2852 69.8276 32.2913C69.8289 32.2974 69.8301 32.3035 69.8313 32.3096C69.8325 32.3157 69.8338 32.3218 69.835 32.328C69.8362 32.3341 69.8374 32.3402 69.8386 32.3463C69.8399 32.3524 69.8411 32.3585 69.8423 32.3646C69.8435 32.3707 69.8447 32.3768 69.846 32.3829C69.8472 32.389 69.8484 32.3951 69.8496 32.4012C69.8508 32.4073 69.8521 32.4134 69.8533 32.4195C69.8545 32.4256 69.8557 32.4317 69.8569 32.4378C69.8582 32.4439 69.8594 32.45 69.8606 32.4561C69.8618 32.4622 69.863 32.4683 69.8643 32.4744C69.8655 32.4805 69.8667 32.4866 69.8679 32.4927C69.8692 32.4989 69.8704 32.505 69.8716 32.5111C69.8728 32.5172 69.874 32.5233 69.8753 32.5294C69.8765 32.5355 69.8777 32.5416 69.8789 32.5477C69.8801 32.5538 69.8814 32.5599 69.8826 32.566C69.8838 32.5721 69.885 32.5782 69.8862 32.5843C69.8875 32.5904 69.8887 32.5965 69.8899 32.6026C69.8911 32.6087 69.8923 32.6148 69.8936 32.6209C69.8948 32.627 69.896 32.6331 69.8972 32.6392C69.8984 32.6453 69.8997 32.6514 69.9009 32.6575C69.9021 32.6636 69.9033 32.6698 69.9046 32.6759C69.9058 32.682 69.907 32.6881 69.9082 32.6942C69.9094 32.7003 69.9107 32.7064 69.9119 32.7125C69.9131 32.7186 69.9143 32.7247 69.9155 32.7308C69.9168 32.7369 69.918 32.743 69.9192 32.7491C69.9204 32.7552 69.9216 32.7613 69.9229 32.7674C69.9241 32.7735 69.9253 32.7796 69.9265 32.7857C69.9277 32.7918 69.929 32.7979 69.9302 32.804C69.9314 32.8101 69.9326 32.8162 69.9338 32.8223C69.9351 32.8284 69.9363 32.8345 69.9375 32.8406C69.9387 32.8468 69.94 32.8529 69.9412 32.859C69.9424 32.8651 69.9436 32.8712 69.9448 32.8773C69.9461 32.8834 69.9473 32.8895 69.9485 32.8956C69.9497 32.9017 69.9509 32.9078 69.9522 32.9139C69.9534 32.92 69.9546 32.9261 69.9558 32.9322C69.957 32.9383 69.9583 32.9444 69.9595 32.9505C69.9607 32.9566 69.9619 32.9627 69.9631 32.9688C69.9644 32.9749 69.9656 32.981 69.9668 32.9871C69.968 32.9932 69.9692 32.9993 69.9705 33.0054C69.9717 33.0115 69.9729 33.0177 69.9741 33.0238C69.9754 33.0299 69.9766 33.036 69.9778 33.0421C69.979 33.0482 69.9802 33.0543 69.9815 33.0604C69.9827 33.0665 69.9839 33.0726 69.9851 33.0787C69.9863 33.0848 69.9876 33.0909 69.9888 33.097C69.99 33.1031 69.9912 33.1092 69.9924 33.1153C69.9937 33.1214 69.9949 33.1275 69.9961 33.1336C69.9973 33.1397 69.9985 33.1458 69.9998 33.1519C70.001 33.158 70.0022 33.1641 70.0034 33.1702C70.0047 33.1763 70.0059 33.1824 70.0071 33.1885C70.0083 33.1947 70.0095 33.2008 70.0108 33.2069C70.012 33.213 70.0132 33.2191 70.0144 33.2252C70.0156 33.2313 70.0169 33.2374 70.0181 33.2435C70.0193 33.2496 70.0205 33.2557 70.0217 33.2618C70.023 33.2679 70.0242 33.274 70.0254 33.2801C70.0266 33.2862 70.0278 33.2923 70.0291 33.2984C70.0303 33.3045 70.0315 33.3106 70.0327 33.3167C70.0339 33.3228 70.0352 33.3289 70.0364 33.335C70.0376 33.3411 70.0388 33.3472 70.0401 33.3533C70.0413 33.3594 70.0425 33.3656 70.0437 33.3717C70.0449 33.3778 70.0462 33.3839 70.0474 33.39C70.0486 33.3961 70.0498 33.4022 70.051 33.4083C70.0523 33.4144 70.0535 33.4205 70.0547 33.4266C70.0559 33.4327 70.0571 33.4388 70.0584 33.4449C70.0596 33.451 70.0608 33.4571 70.062 33.4632C70.0632 33.4693 70.0645 33.4754 70.0657 33.4815C70.0669 33.4876 70.0681 33.4937 70.0693 33.4998C70.0706 33.5059 70.0718 33.512 70.073 33.5181C70.0742 33.5242 70.0755 33.5303 70.0767 33.5364C70.0779 33.5426 70.0791 33.5487 70.0803 33.5548C70.0816 33.5609 70.0828 33.567 70.084 33.5731C70.0852 33.5792 70.0864 33.5853 70.0877 33.5914C70.0889 33.5975 70.0901 33.6036 70.0913 33.6097C70.0925 33.6158 70.0938 33.6219 70.095 33.628C70.0962 33.6341 70.0974 33.6402 70.0986 33.6463C70.0999 33.6524 70.1011 33.6585 70.1023 33.6646C70.1035 33.6707 70.1047 33.6768 70.106 33.6829C70.1072 33.689 70.1084 33.6951 70.1096 33.7012C70.1109 33.7073 70.1121 33.7135 70.1133 33.7196C70.1145 33.7257 70.1157 33.7318 70.117 33.7379C70.1182 33.744 70.1194 33.7501 70.1206 33.7562C70.1218 33.7623 70.1231 33.7684 70.1243 33.7745C70.1255 33.7806 70.1267 33.7867 70.1279 33.7928C70.1292 33.7989 70.1304 33.805 70.1316 33.8111C70.1328 33.8172 70.134 33.8233 70.1353 33.8294C70.1365 33.8355 70.1377 33.8416 70.1389 33.8477C70.1401 33.8538 70.1414 33.8599 70.1426 33.866C70.1438 33.8721 70.145 33.8782 70.1463 33.8843C70.1475 33.8905 70.1487 33.8966 70.1499 33.9027C70.1511 33.9088 70.1524 33.9149 70.1536 33.921C70.1548 33.9271 70.156 33.9332 70.1572 33.9393C70.1585 33.9454 70.1597 33.9515 70.1609 33.9576C70.1621 33.9637 70.1633 33.9698 70.1646 33.9759C70.1658 33.982 70.167 33.9881 70.1682 33.9942C70.1694 34.0003 70.1707 34.0064 70.1719 34.0125C70.1731 34.0186 70.1743 34.0247 70.1755 34.0308C70.1768 34.0369 70.178 34.043 70.1792 34.0491C70.1804 34.0552 70.1817 34.0614 70.1829 34.0675C70.1841 34.0736 70.1853 34.0797 70.1865 34.0858C70.1878 34.0919 70.189 34.098 70.1902 34.1041C70.1914 34.1102 70.1926 34.1163 70.1939 34.1224C70.1951 34.1285 70.1963 34.1346 70.1975 34.1407C70.1987 34.1468 70.2 34.1529 70.2012 34.159C70.2024 34.1651 70.2036 34.1712 70.2048 34.1773C70.2061 34.1834 70.2073 34.1895 70.2085 34.1956C70.2097 34.2017 70.2109 34.2078 70.2122 34.2139C70.2134 34.22 70.2146 34.2261 70.2158 34.2323C70.2171 34.2384 70.2183 34.2445 70.2195 34.2506C70.2207 34.2567 70.2219 34.2628 70.2232 34.2689C70.2244 34.275 70.2256 34.2811 70.2268 34.2872C70.228 34.2933 70.2293 34.2994 70.2305 34.3055C70.2317 34.3116 70.2329 34.3177 70.2341 34.3238C70.2354 34.3299 70.2366 34.336 70.2378 34.3421C70.239 34.3482 70.2402 34.3543 70.2415 34.3604C70.2427 34.3665 70.2439 34.3726 70.2451 34.3787C70.2463 34.3848 70.2476 34.3909 70.2488 34.397C70.25 34.4031 70.2512 34.4093 70.2525 34.4154C70.2537 34.4215 70.2549 34.4276 70.2561 34.4337C70.2573 34.4398 70.2586 34.4459 70.2598 34.452C70.261 34.4581 70.2622 34.4642 70.2634 34.4703C70.2647 34.4764 70.2659 34.4825 70.2671 34.4886C70.2683 34.4947 70.2695 34.5008 70.2708 34.5069C70.272 34.513 70.2732 34.5191 70.2744 34.5252C70.2756 34.5313 70.2769 34.5374 70.2781 34.5435C70.2793 34.5496 70.2805 34.5557 70.2817 34.5618C70.283 34.5679 70.2842 34.574 70.2854 34.5802C70.2866 34.5863 70.2879 34.5924 70.2891 34.5985C70.2903 34.6046 70.2915 34.6107 70.2927 34.6168C70.294 34.6229 70.2952 34.629 70.2964 34.6351C70.2976 34.6412 70.2988 34.6473 70.3001 34.6534C70.3013 34.6595 70.3025 34.6656 70.3037 34.6717C70.3049 34.6778 70.3062 34.6839 70.3074 34.69C70.3086 34.6961 70.3098 34.7022 70.311 34.7083C70.3123 34.7144 70.3135 34.7205 70.3147 34.7266C70.3159 34.7327 70.3172 34.7388 70.3184 34.7449C70.3196 34.751 70.3208 34.7572 70.322 34.7633C70.3233 34.7694 70.3245 34.7755 70.3257 34.7816C70.3269 34.7877 70.3281 34.7938 70.3294 34.7999C70.3306 34.806 70.3318 34.8121 70.333 34.8182C70.3342 34.8243 70.3355 34.8304 70.3367 34.8365C70.3379 34.8426 70.3391 34.8487 70.3403 34.8548C70.3416 34.8609 70.3428 34.867 70.344 34.8731C70.3452 34.8792 70.3464 34.8853 70.3477 34.8914C70.3489 34.8975 70.3501 34.9036 70.3513 34.9097C70.3526 34.9158 70.3538 34.9219 70.355 34.9281C70.3562 34.9342 70.3574 34.9403 70.3587 34.9464C70.3599 34.9525 70.3611 34.9586 70.3623 34.9647C70.3635 34.9708 70.3648 34.9769 70.366 34.983C70.3672 34.9891 70.3684 34.9952 70.3696 35.0013C70.3709 35.0074 70.3721 35.0135 70.3733 35.0196C70.3745 35.0257 70.3757 35.0318 70.377 35.0379C70.3782 35.044 70.3794 35.0501 70.3806 35.0562C70.3818 35.0623 70.3831 35.0684 70.3843 35.0745C70.3855 35.0806 70.3867 35.0867 70.388 35.0928C70.3892 35.0989 70.3904 35.1051 70.3916 35.1112C70.3928 35.1173 70.3941 35.1234 70.3953 35.1295C70.3965 35.1356 70.3977 35.1417 70.3989 35.1478C70.4002 35.1539 70.4014 35.16 70.4026 35.1661C70.4038 35.1722 70.405 35.1783 70.4063 35.1844C70.4075 35.1905 70.4087 35.1966 70.4099 35.2027C70.4111 35.2088 70.4124 35.2149 70.4136 35.221C70.4148 35.2271 70.416 35.2332 70.4172 35.2393C70.4185 35.2454 70.4197 35.2515 70.4209 35.2576C70.4221 35.2637 70.4234 35.2698 70.4246 35.276C70.4258 35.2821 70.427 35.2882 70.4282 35.2943C70.4295 35.3004 70.4307 35.3065 70.4319 35.3126C70.4331 35.3187 70.4343 35.3248 70.4356 35.3309C70.4368 35.337 70.438 35.3431 70.4392 35.3492C70.4404 35.3553 70.4417 35.3614 70.4429 35.3675C70.4441 35.3736 70.4453 35.3797 70.4465 35.3858C70.4478 35.3919 70.449 35.398 70.4502 35.4041C70.4514 35.4102 70.4526 35.4163 70.4539 35.4224C70.4551 35.4285 70.4563 35.4346 70.4575 35.4407C70.4588 35.4468 70.46 35.453 70.4612 35.4591C70.4624 35.4652 70.4636 35.4713 70.4649 35.4774C70.4661 35.4835 70.4673 35.4896 70.4685 35.4957C70.4697 35.5018 70.471 35.5079 70.4722 35.514C70.4734 35.5201 70.4746 35.5262 70.4758 35.5323C70.4771 35.5384 70.4783 35.5445 70.4795 35.5506C70.4807 35.5567 70.4819 35.5628 70.4832 35.5689C70.4844 35.575 70.4856 35.5811 70.4868 35.5872C70.488 35.5933 70.4893 35.5994 70.4905 35.6055C70.4917 35.6116 70.4929 35.6177 70.4942 35.6239C70.4954 35.63 70.4966 35.6361 70.4978 35.6422C70.499 35.6483 70.5003 35.6544 70.5015 35.6605C70.5027 35.6666 70.5039 35.6727 70.5051 35.6788C70.5064 35.6849 70.5076 35.691 70.5088 35.6971C70.51 35.7032 70.5112 35.7093 70.5125 35.7154C70.5137 35.7215 70.5149 35.7276 70.5161 35.7337C70.5173 35.7398 70.5186 35.7459 70.5198 35.752C70.521 35.7581 70.5222 35.7642 70.5234 35.7703C70.5247 35.7764 70.5259 35.7825 70.5271 35.7886C70.5283 35.7948 70.5296 35.8009 70.5308 35.807C70.532 35.8131 70.5332 35.8192 70.5344 35.8253C70.5357 35.8314 70.5369 35.8375 70.5381 35.8436C70.5393 35.8497 70.5405 35.8558 70.5418 35.8619C70.543 35.868 70.5442 35.8741 70.5454 35.8802C70.5466 35.8863 70.5479 35.8924 70.5491 35.8985C70.5503 35.9046 70.5515 35.9107 70.5527 35.9168C70.554 35.9229 70.5552 35.929 70.5564 35.9351C70.5576 35.9412 70.5588 35.9473 70.5601 35.9534C70.5613 35.9595 70.5625 35.9656 70.5637 35.9718C70.565 35.9779 70.5662 35.984 70.5674 35.9901C70.5686 35.9962 70.5698 36.0023 70.5711 36.0084C70.5723 36.0145 70.5735 36.0206 70.5747 36.0267C70.5759 36.0328 70.5772 36.0389 70.5784 36.045C70.5796 36.0511 70.5808 36.0572 70.582 36.0633C70.5833 36.0694 70.5845 36.0755 70.5857 36.0816C70.5869 36.0877 70.5881 36.0938 70.5894 36.0999C70.5906 36.106 70.5918 36.1121 70.593 36.1182C70.5942 36.1243 70.5955 36.1304 70.5967 36.1365C70.5979 36.1427 70.5991 36.1488 70.6004 36.1549C70.6016 36.161 70.6028 36.1671 70.604 36.1732C70.6052 36.1793 70.6065 36.1854 70.6077 36.1915C70.6089 36.1976 70.6101 36.2037 70.6113 36.2098C70.6126 36.2159 70.6138 36.222 70.615 36.2281C70.6162 36.2342 70.6174 36.2403 70.6187 36.2464C70.6199 36.2525 70.6211 36.2586 70.6223 36.2647C70.6235 36.2708 70.6248 36.2769 70.626 36.283C70.6272 36.2891 70.6284 36.2952 70.6297 36.3013C70.6309 36.3074 70.6321 36.3135 70.6333 36.3197C70.6345 36.3258 70.6358 36.3319 70.637 36.338C70.6382 36.3441 70.6394 36.3502 70.6406 36.3563C70.6419 36.3624 70.6431 36.3685 70.6443 36.3746C70.6455 36.3807 70.6467 36.3868 70.648 36.3929C70.6492 36.399 70.6504 36.4051 70.6516 36.4112C70.6528 36.4173 70.6541 36.4234 70.6553 36.4295C70.6565 36.4356 70.6577 36.4417 70.6589 36.4478C70.6602 36.4539 70.6614 36.46 70.6626 36.4661C70.6638 36.4722 70.6651 36.4783 70.6663 36.4844C70.6675 36.4906 70.6687 36.4967 70.6699 36.5028C70.6712 36.5089 70.6724 36.515 70.6736 36.5211C70.6748 36.5272 70.676 36.5333 70.6773 36.5394C70.6785 36.5455 70.6797 36.5516 70.6809 36.5577C70.6821 36.5638 70.6834 36.5699 70.6846 36.576C70.6858 36.5821 70.687 36.5882 70.6882 36.5943C70.6895 36.6004 70.6907 36.6065 70.6919 36.6126C70.6931 36.6187 70.6943 36.6248 70.6956 36.6309C70.6968 36.637 70.698 36.6431 70.6992 36.6492C70.7005 36.6553 70.7017 36.6614 70.7029 36.6676C70.7041 36.6737 70.7053 36.6798 70.7066 36.6859C70.7078 36.692 70.709 36.6981 70.7102 36.7042C70.7114 36.7103 70.7127 36.7164 70.7139 36.7225C70.7151 36.7286 70.7163 36.7347 70.7175 36.7408C70.7188 36.7469 70.72 36.753 70.7212 36.7591C70.7224 36.7652 70.7236 36.7713 70.7249 36.7774C70.7261 36.7835 70.7273 36.7896 70.7285 36.7957C70.7297 36.8018 70.731 36.8079 70.7322 36.814C70.7334 36.8201 70.7346 36.8262 70.7359 36.8323C70.7371 36.8385 70.7383 36.8446 70.7395 36.8507C70.7407 36.8568 70.742 36.8629 70.7432 36.869C70.7444 36.8751 70.7456 36.8812 70.7468 36.8873C70.7481 36.8934 70.7493 36.8995 70.7505 36.9056C70.7517 36.9117 70.7529 36.9178 70.7542 36.9239C70.7554 36.93 70.7566 36.9361 70.7578 36.9422C70.759 36.9483 70.7603 36.9544 70.7615 36.9605C70.7627 36.9666 70.7639 36.9727 70.7651 36.9788C70.7664 36.9849 70.7676 36.991 70.7688 36.9971C70.77 37.0032 70.7713 37.0093 70.7725 37.0155C70.7737 37.0216 70.7749 37.0277 70.7761 37.0338C70.7774 37.0399 70.7786 37.046 70.7798 37.0521C70.781 37.0582 70.7822 37.0643 70.7835 37.0704C70.7847 37.0765 70.7859 37.0826 70.7871 37.0887C70.7883 37.0948 70.7896 37.1009 70.7908 37.107C70.792 37.1131 70.7932 37.1192 70.7944 37.1253C70.7957 37.1314 70.7969 37.1375 70.7981 37.1436C70.7993 37.1497 70.8005 37.1558 70.8018 37.1619C70.803 37.168 70.8042 37.1741 70.8054 37.1802C70.8067 37.1864 70.8079 37.1925 70.8091 37.1986C70.8103 37.2047 70.8115 37.2108 70.8128 37.2169C70.814 37.223 70.8152 37.2291 70.8164 37.2352C70.8176 37.2413 70.8189 37.2474 70.8201 37.2535C70.8213 37.2596 70.8225 37.2657 70.8237 37.2718C70.825 37.2779 70.8262 37.284 70.8274 37.2901C70.8286 37.2962 70.8298 37.3023 70.8311 37.3084C70.8323 37.3145 70.8335 37.3206 70.8347 37.3267C70.8359 37.3328 70.8372 37.3389 70.8384 37.345C70.8396 37.3511 70.8408 37.3573 70.8421 37.3634C70.8433 37.3695 70.8445 37.3756 70.8457 37.3817C70.8469 37.3878 70.8482 37.3939 70.8494 37.4C70.8506 37.4061 70.8518 37.4122 70.853 37.4183C70.8543 37.4244 70.8555 37.4305 70.8567 37.4366C70.8579 37.4427 70.8591 37.4488 70.8604 37.4549C70.8616 37.461 70.8628 37.4671 70.864 37.4732C70.8652 37.4793 70.8665 37.4854 70.8677 37.4915C70.8689 37.4976 70.8701 37.5037 70.8713 37.5098C70.8726 37.5159 70.8738 37.522 70.875 37.5281C70.8762 37.5343 70.8775 37.5404 70.8787 37.5465C70.8799 37.5526 70.8811 37.5587 70.8823 37.5648C70.8836 37.5709 70.8848 37.577 70.886 37.5831C70.8872 37.5892 70.8884 37.5953 70.8897 37.6014C70.8909 37.6075 70.8921 37.6136 70.8933 37.6197C70.8945 37.6258 70.8958 37.6319 70.897 37.638C70.8982 37.6441 70.8994 37.6502 70.9006 37.6563C70.9019 37.6624 70.9031 37.6685 70.9043 37.6746C70.9055 37.6807 70.9067 37.6868 70.908 37.6929C70.9092 37.699 70.9104 37.7052 70.9116 37.7113C70.9129 37.7174 70.9141 37.7235 70.9153 37.7296C70.9165 37.7357 70.9177 37.7418 70.919 37.7479C70.9202 37.754 70.9214 37.7601 70.9226 37.7662C70.9238 37.7723 70.9251 37.7784 70.9263 37.7845C70.9275 37.7906 70.9287 37.7967 70.9299 37.8028C70.9312 37.8089 70.9324 37.815 70.9336 37.8211C70.9348 37.8272 70.936 37.8333 70.9373 37.8394C70.9385 37.8455 70.9397 37.8516 70.9409 37.8577C70.9422 37.8638 70.9434 37.8699 70.9446 37.876C70.9458 37.8822 70.947 37.8883 70.9483 37.8944C70.9495 37.9005 70.9507 37.9066 70.9519 37.9127C70.9531 37.9188 70.9544 37.9249 70.9556 37.931C70.9568 37.9371 70.958 37.9432 70.9592 37.9493C70.9605 37.9554 70.9617 37.9615 70.9629 37.9676C70.9641 37.9737 70.9653 37.9798 70.9666 37.9859C70.9678 37.992 70.969 37.9981 70.9702 38.0042C70.9714 38.0103 70.9727 38.0164 70.9739 38.0225C70.9751 38.0286 70.9763 38.0347 70.9776 38.0408C70.9788 38.0469 70.98 38.0531 70.9812 38.0592C70.9824 38.0653 70.9837 38.0714 70.9849 38.0775C70.9861 38.0836 70.9873 38.0897 70.9885 38.0958C70.9898 38.1019 70.991 38.108 70.9922 38.1141C70.9934 38.1202 70.9946 38.1263 70.9959 38.1324C70.9971 38.1385 70.9983 38.1446 70.9995 38.1507C71.0007 38.1568 71.002 38.1629 71.0032 38.169C71.0044 38.1751 71.0056 38.1812 71.0068 38.1873C71.0081 38.1934 71.0093 38.1995 71.0105 38.2056C71.0117 38.2117 71.013 38.2178 71.0142 38.2239C71.0154 38.2301 71.0166 38.2362 71.0178 38.2423C71.0191 38.2484 71.0203 38.2545 71.0215 38.2606C71.0227 38.2667 71.0239 38.2728 71.0252 38.2789C71.0264 38.285 71.0276 38.2911 71.0288 38.2972C71.03 38.3033 71.0313 38.3094 71.0325 38.3155C71.0337 38.3216 71.0349 38.3277 71.0361 38.3338C71.0374 38.3399 71.0386 38.346 71.0398 38.3521C71.041 38.3582 71.0422 38.3643 71.0435 38.3704C71.0447 38.3765 71.0459 38.3826 71.0471 38.3887C71.0484 38.3948 71.0496 38.401 71.0508 38.4071C71.052 38.4132 71.0532 38.4193 71.0545 38.4254C71.0557 38.4315 71.0569 38.4376 71.0581 38.4437C71.0593 38.4498 71.0606 38.4559 71.0618 38.462C71.063 38.4681 71.0642 38.4742 71.0654 38.4803C71.0667 38.4864 71.0679 38.4925 71.0691 38.4986C71.0703 38.5047 71.0715 38.5108 71.0728 38.5169C71.074 38.523 71.0752 38.5291 71.0764 38.5352C71.0776 38.5413 71.0789 38.5474 71.0801 38.5535C71.0813 38.5596 71.0825 38.5657 71.0838 38.5718C71.085 38.578 71.0862 38.5841 71.0874 38.5902C71.0886 38.5963 71.0899 38.6024 71.0911 38.6085C71.0923 38.6146 71.0935 38.6207 71.0947 38.6268C71.096 38.6329 71.0972 38.639 71.0984 38.6451C71.0996 38.6512 71.1008 38.6573 71.1021 38.6634C71.1033 38.6695 71.1045 38.6756 71.1057 38.6817C71.1069 38.6878 71.1082 38.6939 71.1094 38.7C71.1106 38.7061 71.1118 38.7122 71.113 38.7183C71.1143 38.7244 71.1155 38.7305 71.1167 38.7366C71.1179 38.7427 71.1192 38.7489 71.1204 38.755C71.1216 38.7611 71.1228 38.7672 71.124 38.7733C71.1253 38.7794 71.1265 38.7855 71.1277 38.7916C71.1289 38.7977 71.1301 38.8038 71.1314 38.8099C71.1326 38.816 71.1338 38.8221 71.135 38.8282C71.1362 38.8343 71.1375 38.8404 71.1387 38.8465C71.1399 38.8526 71.1411 38.8587 71.1423 38.8648C71.1436 38.8709 71.1448 38.877 71.146 38.8831C71.1472 38.8892 71.1484 38.8953 71.1497 38.9014C71.1509 38.9075 71.1521 38.9136 71.1533 38.9198C71.1546 38.9259 71.1558 38.932 71.157 38.9381C71.1582 38.9442 71.1594 38.9503 71.1607 38.9564C71.1619 38.9625 71.1631 38.9686 71.1643 38.9747C71.1655 38.9808 71.1668 38.9869 71.168 38.993C71.1692 38.9991 71.1704 39.0052 71.1716 39.0113C71.1729 39.0174 71.1741 39.0235 71.1753 39.0296C71.1765 39.0357 71.1777 39.0418 71.179 39.0479C71.1802 39.054 71.1814 39.0601 71.1826 39.0662C71.1838 39.0723 71.1851 39.0784 71.1863 39.0845C71.1875 39.0906 71.1887 39.0968 71.19 39.1029C71.1912 39.109 71.1924 39.1151 71.1936 39.1212C71.1948 39.1273 71.1961 39.1334 71.1973 39.1395C71.1985 39.1456 71.1997 39.1517 71.2009 39.1578C71.2022 39.1639 71.2034 39.17 71.2046 39.1761C71.2058 39.1822 71.207 39.1883 71.2083 39.1944C71.2095 39.2005 71.2107 39.2066 71.2119 39.2127C71.2131 39.2188 71.2144 39.2249 71.2156 39.231C71.2168 39.2371 71.218 39.2432 71.2192 39.2493C71.2205 39.2554 71.2217 39.2615 71.2229 39.2677C71.2241 39.2738 71.2254 39.2799 71.2266 39.286C71.2278 39.2921 71.229 39.2982 71.2302 39.3043C71.2315 39.3104 71.2327 39.3165 71.2339 39.3226C71.2351 39.3287 71.2363 39.3348 71.2376 39.3409C71.2388 39.347 71.24 39.3531 71.2412 39.3592C71.2424 39.3653 71.2437 39.3714 71.2449 39.3775C71.2461 39.3836 71.2473 39.3897 71.2485 39.3958C71.2498 39.4019 71.251 39.408 71.2522 39.4141C71.2534 39.4202 71.2547 39.4263 71.2559 39.4324C71.2571 39.4385 71.2583 39.4447 71.2595 39.4508C71.2608 39.4569 71.262 39.463 71.2632 39.4691C71.2644 39.4752 71.2656 39.4813 71.2669 39.4874C71.2681 39.4935 71.2693 39.4996 71.2705 39.5057C71.2717 39.5118 71.273 39.5179 71.2742 39.524C71.2754 39.5301 71.2766 39.5362 71.2778 39.5423C71.2791 39.5484 71.2803 39.5545 71.2815 39.5606C71.2827 39.5667 71.2839 39.5728 71.2852 39.5789C71.2864 39.585 71.2876 39.5911 71.2888 39.5972C71.2901 39.6033 71.2913 39.6094 71.2925 39.6156C71.2937 39.6217 71.2949 39.6278 71.2962 39.6339C71.2974 39.64 71.2986 39.6461 71.2998 39.6522C71.301 39.6583 71.3023 39.6644 71.3035 39.6705C71.3047 39.6766 71.3059 39.6827 71.3071 39.6888C71.3084 39.6949 71.3096 39.701 71.3108 39.7071C71.312 39.7132 71.3132 39.7193 71.3145 39.7254C71.3157 39.7315 71.3169 39.7376 71.3181 39.7437C71.3193 39.7498 71.3206 39.7559 71.3218 39.762C71.323 39.7681 71.3242 39.7742 71.3255 39.7803C71.3267 39.7864 71.3279 39.7926 71.3291 39.7987C71.3303 39.8048 71.3316 39.8109 71.3328 39.817C71.334 39.8231 71.3352 39.8292 71.3364 39.8353C71.3377 39.8414 71.3389 39.8475 71.3401 39.8536C71.3413 39.8597 71.3425 39.8658 71.3438 39.8719C71.345 39.878 71.3462 39.8841 71.3474 39.8902C71.3486 39.8963 71.3499 39.9024 71.3511 39.9085C71.3523 39.9146 71.3535 39.9207 71.3547 39.9268C71.356 39.9329 71.3572 39.939 71.3584 39.9451C71.3596 39.9512 71.3609 39.9573 71.3621 39.9635C71.3633 39.9696 71.3645 39.9757 71.3657 39.9818C71.367 39.9879 71.3682 39.994 71.3694 40.0001C71.3706 40.0062 71.3718 40.0123 71.3731 40.0184C71.3743 40.0245 71.3755 40.0306 71.3767 40.0367C71.3779 40.0428 71.3792 40.0489 71.3804 40.055C71.3816 40.0611 71.3828 40.0672 71.384 40.0733C71.3853 40.0794 71.3865 40.0855 71.3877 40.0916C71.3889 40.0977 71.3901 40.1038 71.3914 40.1099C71.3926 40.116 71.3938 40.1221 71.395 40.1282C71.3963 40.1343 71.3975 40.1405 71.3987 40.1466C71.3999 40.1527 71.4011 40.1588 71.4024 40.1649L72.3829 39.9688L73.3635 39.7726C73.3623 39.7665 73.3611 39.7604 73.3599 39.7543C73.3586 39.7482 73.3574 39.7421 73.3562 39.736C73.355 39.7299 73.3537 39.7238 73.3525 39.7177C73.3513 39.7116 73.3501 39.7055 73.3489 39.6994C73.3476 39.6933 73.3464 39.6872 73.3452 39.6811C73.344 39.675 73.3428 39.6689 73.3415 39.6628C73.3403 39.6567 73.3391 39.6506 73.3379 39.6445C73.3367 39.6384 73.3354 39.6323 73.3342 39.6261C73.333 39.62 73.3318 39.6139 73.3306 39.6078C73.3293 39.6017 73.3281 39.5956 73.3269 39.5895C73.3257 39.5834 73.3245 39.5773 73.3232 39.5712C73.322 39.5651 73.3208 39.559 73.3196 39.5529C73.3183 39.5468 73.3171 39.5407 73.3159 39.5346C73.3147 39.5285 73.3135 39.5224 73.3122 39.5163C73.311 39.5102 73.3098 39.5041 73.3086 39.498C73.3074 39.4919 73.3061 39.4858 73.3049 39.4797C73.3037 39.4736 73.3025 39.4675 73.3013 39.4614C73.3 39.4552 73.2988 39.4491 73.2976 39.443C73.2964 39.4369 73.2952 39.4308 73.2939 39.4247C73.2927 39.4186 73.2915 39.4125 73.2903 39.4064C73.2891 39.4003 73.2878 39.3942 73.2866 39.3881C73.2854 39.382 73.2842 39.3759 73.2829 39.3698C73.2817 39.3637 73.2805 39.3576 73.2793 39.3515C73.2781 39.3454 73.2768 39.3393 73.2756 39.3332C73.2744 39.3271 73.2732 39.321 73.272 39.3149C73.2707 39.3088 73.2695 39.3027 73.2683 39.2966C73.2671 39.2905 73.2659 39.2844 73.2646 39.2782C73.2634 39.2721 73.2622 39.266 73.261 39.2599C73.2598 39.2538 73.2585 39.2477 73.2573 39.2416C73.2561 39.2355 73.2549 39.2294 73.2537 39.2233C73.2524 39.2172 73.2512 39.2111 73.25 39.205C73.2488 39.1989 73.2475 39.1928 73.2463 39.1867C73.2451 39.1806 73.2439 39.1745 73.2427 39.1684C73.2414 39.1623 73.2402 39.1562 73.239 39.1501C73.2378 39.144 73.2366 39.1379 73.2353 39.1318C73.2341 39.1257 73.2329 39.1196 73.2317 39.1135C73.2305 39.1073 73.2292 39.1012 73.228 39.0951C73.2268 39.089 73.2256 39.0829 73.2244 39.0768C73.2231 39.0707 73.2219 39.0646 73.2207 39.0585C73.2195 39.0524 73.2183 39.0463 73.217 39.0402C73.2158 39.0341 73.2146 39.028 73.2134 39.0219C73.2121 39.0158 73.2109 39.0097 73.2097 39.0036C73.2085 38.9975 73.2073 38.9914 73.206 38.9853C73.2048 38.9792 73.2036 38.9731 73.2024 38.967C73.2012 38.9609 73.1999 38.9548 73.1987 38.9487C73.1975 38.9426 73.1963 38.9365 73.1951 38.9303C73.1938 38.9242 73.1926 38.9181 73.1914 38.912C73.1902 38.9059 73.189 38.8998 73.1877 38.8937C73.1865 38.8876 73.1853 38.8815 73.1841 38.8754C73.1828 38.8693 73.1816 38.8632 73.1804 38.8571C73.1792 38.851 73.178 38.8449 73.1767 38.8388C73.1755 38.8327 73.1743 38.8266 73.1731 38.8205C73.1719 38.8144 73.1706 38.8083 73.1694 38.8022C73.1682 38.7961 73.167 38.79 73.1658 38.7839C73.1645 38.7778 73.1633 38.7717 73.1621 38.7656C73.1609 38.7594 73.1597 38.7533 73.1584 38.7472C73.1572 38.7411 73.156 38.735 73.1548 38.7289C73.1536 38.7228 73.1523 38.7167 73.1511 38.7106C73.1499 38.7045 73.1487 38.6984 73.1474 38.6923C73.1462 38.6862 73.145 38.6801 73.1438 38.674C73.1426 38.6679 73.1413 38.6618 73.1401 38.6557C73.1389 38.6496 73.1377 38.6435 73.1365 38.6374C73.1352 38.6313 73.134 38.6252 73.1328 38.6191C73.1316 38.613 73.1304 38.6069 73.1291 38.6008C73.1279 38.5947 73.1267 38.5886 73.1255 38.5824C73.1243 38.5763 73.123 38.5702 73.1218 38.5641C73.1206 38.558 73.1194 38.5519 73.1182 38.5458C73.1169 38.5397 73.1157 38.5336 73.1145 38.5275C73.1133 38.5214 73.112 38.5153 73.1108 38.5092C73.1096 38.5031 73.1084 38.497 73.1072 38.4909C73.1059 38.4848 73.1047 38.4787 73.1035 38.4726C73.1023 38.4665 73.1011 38.4604 73.0998 38.4543C73.0986 38.4482 73.0974 38.4421 73.0962 38.436C73.095 38.4299 73.0937 38.4238 73.0925 38.4177C73.0913 38.4115 73.0901 38.4054 73.0889 38.3993C73.0876 38.3932 73.0864 38.3871 73.0852 38.381C73.084 38.3749 73.0828 38.3688 73.0815 38.3627C73.0803 38.3566 73.0791 38.3505 73.0779 38.3444C73.0766 38.3383 73.0754 38.3322 73.0742 38.3261C73.073 38.32 73.0718 38.3139 73.0705 38.3078C73.0693 38.3017 73.0681 38.2956 73.0669 38.2895C73.0657 38.2834 73.0644 38.2773 73.0632 38.2712C73.062 38.2651 73.0608 38.259 73.0596 38.2529C73.0583 38.2468 73.0571 38.2407 73.0559 38.2345C73.0547 38.2284 73.0535 38.2223 73.0522 38.2162C73.051 38.2101 73.0498 38.204 73.0486 38.1979C73.0474 38.1918 73.0461 38.1857 73.0449 38.1796C73.0437 38.1735 73.0425 38.1674 73.0412 38.1613C73.04 38.1552 73.0388 38.1491 73.0376 38.143C73.0364 38.1369 73.0351 38.1308 73.0339 38.1247C73.0327 38.1186 73.0315 38.1125 73.0303 38.1064C73.029 38.1003 73.0278 38.0942 73.0266 38.0881C73.0254 38.082 73.0242 38.0759 73.0229 38.0698C73.0217 38.0636 73.0205 38.0575 73.0193 38.0514C73.0181 38.0453 73.0168 38.0392 73.0156 38.0331C73.0144 38.027 73.0132 38.0209 73.012 38.0148C73.0107 38.0087 73.0095 38.0026 73.0083 37.9965C73.0071 37.9904 73.0058 37.9843 73.0046 37.9782C73.0034 37.9721 73.0022 37.966 73.001 37.9599C72.9997 37.9538 72.9985 37.9477 72.9973 37.9416C72.9961 37.9355 72.9949 37.9294 72.9936 37.9233C72.9924 37.9172 72.9912 37.9111 72.99 37.905C72.9888 37.8989 72.9875 37.8927 72.9863 37.8866C72.9851 37.8805 72.9839 37.8744 72.9827 37.8683C72.9814 37.8622 72.9802 37.8561 72.979 37.85C72.9778 37.8439 72.9766 37.8378 72.9753 37.8317C72.9741 37.8256 72.9729 37.8195 72.9717 37.8134C72.9704 37.8073 72.9692 37.8012 72.968 37.7951C72.9668 37.789 72.9656 37.7829 72.9643 37.7768C72.9631 37.7707 72.9619 37.7646 72.9607 37.7585C72.9595 37.7524 72.9582 37.7463 72.957 37.7402C72.9558 37.7341 72.9546 37.728 72.9534 37.7219C72.9521 37.7157 72.9509 37.7096 72.9497 37.7035C72.9485 37.6974 72.9473 37.6913 72.946 37.6852C72.9448 37.6791 72.9436 37.673 72.9424 37.6669C72.9412 37.6608 72.9399 37.6547 72.9387 37.6486C72.9375 37.6425 72.9363 37.6364 72.935 37.6303C72.9338 37.6242 72.9326 37.6181 72.9314 37.612C72.9302 37.6059 72.9289 37.5998 72.9277 37.5937C72.9265 37.5876 72.9253 37.5815 72.9241 37.5754C72.9228 37.5693 72.9216 37.5632 72.9204 37.5571C72.9192 37.551 72.918 37.5448 72.9167 37.5387C72.9155 37.5326 72.9143 37.5265 72.9131 37.5204C72.9119 37.5143 72.9106 37.5082 72.9094 37.5021C72.9082 37.496 72.907 37.4899 72.9058 37.4838C72.9045 37.4777 72.9033 37.4716 72.9021 37.4655C72.9009 37.4594 72.8996 37.4533 72.8984 37.4472C72.8972 37.4411 72.896 37.435 72.8948 37.4289C72.8935 37.4228 72.8923 37.4167 72.8911 37.4106C72.8899 37.4045 72.8887 37.3984 72.8874 37.3923C72.8862 37.3862 72.885 37.3801 72.8838 37.374C72.8826 37.3678 72.8813 37.3617 72.8801 37.3556C72.8789 37.3495 72.8777 37.3434 72.8765 37.3373C72.8752 37.3312 72.874 37.3251 72.8728 37.319C72.8716 37.3129 72.8703 37.3068 72.8691 37.3007C72.8679 37.2946 72.8667 37.2885 72.8655 37.2824C72.8642 37.2763 72.863 37.2702 72.8618 37.2641C72.8606 37.258 72.8594 37.2519 72.8581 37.2458C72.8569 37.2397 72.8557 37.2336 72.8545 37.2275C72.8533 37.2214 72.852 37.2153 72.8508 37.2092C72.8496 37.2031 72.8484 37.1969 72.8472 37.1908C72.8459 37.1847 72.8447 37.1786 72.8435 37.1725C72.8423 37.1664 72.8411 37.1603 72.8398 37.1542C72.8386 37.1481 72.8374 37.142 72.8362 37.1359C72.8349 37.1298 72.8337 37.1237 72.8325 37.1176C72.8313 37.1115 72.8301 37.1054 72.8288 37.0993C72.8276 37.0932 72.8264 37.0871 72.8252 37.081C72.824 37.0749 72.8227 37.0688 72.8215 37.0627C72.8203 37.0566 72.8191 37.0505 72.8179 37.0444C72.8166 37.0383 72.8154 37.0322 72.8142 37.0261C72.813 37.0199 72.8118 37.0138 72.8105 37.0077C72.8093 37.0016 72.8081 36.9955 72.8069 36.9894C72.8057 36.9833 72.8044 36.9772 72.8032 36.9711C72.802 36.965 72.8008 36.9589 72.7995 36.9528C72.7983 36.9467 72.7971 36.9406 72.7959 36.9345C72.7947 36.9284 72.7934 36.9223 72.7922 36.9162C72.791 36.9101 72.7898 36.904 72.7886 36.8979C72.7873 36.8918 72.7861 36.8857 72.7849 36.8796C72.7837 36.8735 72.7825 36.8674 72.7812 36.8613C72.78 36.8552 72.7788 36.849 72.7776 36.8429C72.7764 36.8368 72.7751 36.8307 72.7739 36.8246C72.7727 36.8185 72.7715 36.8124 72.7703 36.8063C72.769 36.8002 72.7678 36.7941 72.7666 36.788C72.7654 36.7819 72.7641 36.7758 72.7629 36.7697C72.7617 36.7636 72.7605 36.7575 72.7593 36.7514C72.758 36.7453 72.7568 36.7392 72.7556 36.7331C72.7544 36.727 72.7532 36.7209 72.7519 36.7148C72.7507 36.7087 72.7495 36.7026 72.7483 36.6965C72.7471 36.6904 72.7458 36.6843 72.7446 36.6782C72.7434 36.672 72.7422 36.6659 72.741 36.6598C72.7397 36.6537 72.7385 36.6476 72.7373 36.6415C72.7361 36.6354 72.7349 36.6293 72.7336 36.6232C72.7324 36.6171 72.7312 36.611 72.73 36.6049C72.7287 36.5988 72.7275 36.5927 72.7263 36.5866C72.7251 36.5805 72.7239 36.5744 72.7226 36.5683C72.7214 36.5622 72.7202 36.5561 72.719 36.55C72.7178 36.5439 72.7165 36.5378 72.7153 36.5317C72.7141 36.5256 72.7129 36.5195 72.7117 36.5134C72.7104 36.5073 72.7092 36.5011 72.708 36.495C72.7068 36.4889 72.7056 36.4828 72.7043 36.4767C72.7031 36.4706 72.7019 36.4645 72.7007 36.4584C72.6995 36.4523 72.6982 36.4462 72.697 36.4401C72.6958 36.434 72.6946 36.4279 72.6933 36.4218C72.6921 36.4157 72.6909 36.4096 72.6897 36.4035C72.6885 36.3974 72.6872 36.3913 72.686 36.3852C72.6848 36.3791 72.6836 36.373 72.6824 36.3669C72.6811 36.3608 72.6799 36.3547 72.6787 36.3486C72.6775 36.3425 72.6763 36.3364 72.675 36.3302C72.6738 36.3241 72.6726 36.318 72.6714 36.3119C72.6702 36.3058 72.6689 36.2997 72.6677 36.2936C72.6665 36.2875 72.6653 36.2814 72.6641 36.2753C72.6628 36.2692 72.6616 36.2631 72.6604 36.257C72.6592 36.2509 72.6579 36.2448 72.6567 36.2387C72.6555 36.2326 72.6543 36.2265 72.6531 36.2204C72.6518 36.2143 72.6506 36.2082 72.6494 36.2021C72.6482 36.196 72.647 36.1899 72.6457 36.1838C72.6445 36.1777 72.6433 36.1716 72.6421 36.1655C72.6409 36.1594 72.6396 36.1532 72.6384 36.1471C72.6372 36.141 72.636 36.1349 72.6348 36.1288C72.6335 36.1227 72.6323 36.1166 72.6311 36.1105C72.6299 36.1044 72.6287 36.0983 72.6274 36.0922C72.6262 36.0861 72.625 36.08 72.6238 36.0739C72.6225 36.0678 72.6213 36.0617 72.6201 36.0556C72.6189 36.0495 72.6177 36.0434 72.6164 36.0373C72.6152 36.0312 72.614 36.0251 72.6128 36.019C72.6116 36.0129 72.6103 36.0068 72.6091 36.0007C72.6079 35.9946 72.6067 35.9885 72.6055 35.9823C72.6042 35.9762 72.603 35.9701 72.6018 35.964C72.6006 35.9579 72.5994 35.9518 72.5981 35.9457C72.5969 35.9396 72.5957 35.9335 72.5945 35.9274C72.5933 35.9213 72.592 35.9152 72.5908 35.9091C72.5896 35.903 72.5884 35.8969 72.5871 35.8908C72.5859 35.8847 72.5847 35.8786 72.5835 35.8725C72.5823 35.8664 72.581 35.8603 72.5798 35.8542C72.5786 35.8481 72.5774 35.842 72.5762 35.8359C72.5749 35.8298 72.5737 35.8237 72.5725 35.8176C72.5713 35.8115 72.5701 35.8053 72.5688 35.7992C72.5676 35.7931 72.5664 35.787 72.5652 35.7809C72.564 35.7748 72.5627 35.7687 72.5615 35.7626C72.5603 35.7565 72.5591 35.7504 72.5578 35.7443C72.5566 35.7382 72.5554 35.7321 72.5542 35.726C72.553 35.7199 72.5517 35.7138 72.5505 35.7077C72.5493 35.7016 72.5481 35.6955 72.5469 35.6894C72.5456 35.6833 72.5444 35.6772 72.5432 35.6711C72.542 35.665 72.5408 35.6589 72.5395 35.6528C72.5383 35.6467 72.5371 35.6406 72.5359 35.6344C72.5347 35.6283 72.5334 35.6222 72.5322 35.6161C72.531 35.61 72.5298 35.6039 72.5286 35.5978C72.5273 35.5917 72.5261 35.5856 72.5249 35.5795C72.5237 35.5734 72.5224 35.5673 72.5212 35.5612C72.52 35.5551 72.5188 35.549 72.5176 35.5429C72.5163 35.5368 72.5151 35.5307 72.5139 35.5246C72.5127 35.5185 72.5115 35.5124 72.5102 35.5063C72.509 35.5002 72.5078 35.4941 72.5066 35.488C72.5054 35.4819 72.5041 35.4758 72.5029 35.4697C72.5017 35.4636 72.5005 35.4574 72.4993 35.4513C72.498 35.4452 72.4968 35.4391 72.4956 35.433C72.4944 35.4269 72.4932 35.4208 72.4919 35.4147C72.4907 35.4086 72.4895 35.4025 72.4883 35.3964C72.487 35.3903 72.4858 35.3842 72.4846 35.3781C72.4834 35.372 72.4822 35.3659 72.4809 35.3598C72.4797 35.3537 72.4785 35.3476 72.4773 35.3415C72.4761 35.3354 72.4748 35.3293 72.4736 35.3232C72.4724 35.3171 72.4712 35.311 72.47 35.3049C72.4687 35.2988 72.4675 35.2927 72.4663 35.2865C72.4651 35.2804 72.4639 35.2743 72.4626 35.2682C72.4614 35.2621 72.4602 35.256 72.459 35.2499C72.4578 35.2438 72.4565 35.2377 72.4553 35.2316C72.4541 35.2255 72.4529 35.2194 72.4516 35.2133C72.4504 35.2072 72.4492 35.2011 72.448 35.195C72.4468 35.1889 72.4455 35.1828 72.4443 35.1767C72.4431 35.1706 72.4419 35.1645 72.4407 35.1584C72.4394 35.1523 72.4382 35.1462 72.437 35.1401C72.4358 35.134 72.4346 35.1279 72.4333 35.1218C72.4321 35.1157 72.4309 35.1095 72.4297 35.1034C72.4285 35.0973 72.4272 35.0912 72.426 35.0851C72.4248 35.079 72.4236 35.0729 72.4224 35.0668C72.4211 35.0607 72.4199 35.0546 72.4187 35.0485C72.4175 35.0424 72.4162 35.0363 72.415 35.0302C72.4138 35.0241 72.4126 35.018 72.4114 35.0119C72.4101 35.0058 72.4089 34.9997 72.4077 34.9936C72.4065 34.9875 72.4053 34.9814 72.404 34.9753C72.4028 34.9692 72.4016 34.9631 72.4004 34.957C72.3992 34.9509 72.3979 34.9448 72.3967 34.9386C72.3955 34.9325 72.3943 34.9264 72.3931 34.9203C72.3918 34.9142 72.3906 34.9081 72.3894 34.902C72.3882 34.8959 72.387 34.8898 72.3857 34.8837C72.3845 34.8776 72.3833 34.8715 72.3821 34.8654C72.3808 34.8593 72.3796 34.8532 72.3784 34.8471C72.3772 34.841 72.376 34.8349 72.3747 34.8288C72.3735 34.8227 72.3723 34.8166 72.3711 34.8105C72.3699 34.8044 72.3686 34.7983 72.3674 34.7922C72.3662 34.7861 72.365 34.78 72.3638 34.7739C72.3625 34.7677 72.3613 34.7616 72.3601 34.7555C72.3589 34.7494 72.3577 34.7433 72.3564 34.7372C72.3552 34.7311 72.354 34.725 72.3528 34.7189C72.3516 34.7128 72.3503 34.7067 72.3491 34.7006C72.3479 34.6945 72.3467 34.6884 72.3454 34.6823C72.3442 34.6762 72.343 34.6701 72.3418 34.664C72.3406 34.6579 72.3393 34.6518 72.3381 34.6457C72.3369 34.6396 72.3357 34.6335 72.3345 34.6274C72.3332 34.6213 72.332 34.6152 72.3308 34.6091C72.3296 34.603 72.3284 34.5969 72.3271 34.5907C72.3259 34.5846 72.3247 34.5785 72.3235 34.5724C72.3223 34.5663 72.321 34.5602 72.3198 34.5541C72.3186 34.548 72.3174 34.5419 72.3162 34.5358C72.3149 34.5297 72.3137 34.5236 72.3125 34.5175C72.3113 34.5114 72.31 34.5053 72.3088 34.4992C72.3076 34.4931 72.3064 34.487 72.3052 34.4809C72.3039 34.4748 72.3027 34.4687 72.3015 34.4626C72.3003 34.4565 72.2991 34.4504 72.2978 34.4443C72.2966 34.4382 72.2954 34.4321 72.2942 34.426C72.293 34.4198 72.2917 34.4137 72.2905 34.4076C72.2893 34.4015 72.2881 34.3954 72.2869 34.3893C72.2856 34.3832 72.2844 34.3771 72.2832 34.371C72.282 34.3649 72.2808 34.3588 72.2795 34.3527C72.2783 34.3466 72.2771 34.3405 72.2759 34.3344C72.2746 34.3283 72.2734 34.3222 72.2722 34.3161C72.271 34.31 72.2698 34.3039 72.2685 34.2978C72.2673 34.2917 72.2661 34.2856 72.2649 34.2795C72.2637 34.2734 72.2624 34.2673 72.2612 34.2612C72.26 34.2551 72.2588 34.249 72.2576 34.2428C72.2563 34.2367 72.2551 34.2306 72.2539 34.2245C72.2527 34.2184 72.2515 34.2123 72.2502 34.2062C72.249 34.2001 72.2478 34.194 72.2466 34.1879C72.2453 34.1818 72.2441 34.1757 72.2429 34.1696C72.2417 34.1635 72.2405 34.1574 72.2392 34.1513C72.238 34.1452 72.2368 34.1391 72.2356 34.133C72.2344 34.1269 72.2331 34.1208 72.2319 34.1147C72.2307 34.1086 72.2295 34.1025 72.2283 34.0964C72.227 34.0903 72.2258 34.0842 72.2246 34.0781C72.2234 34.0719 72.2222 34.0658 72.2209 34.0597C72.2197 34.0536 72.2185 34.0475 72.2173 34.0414C72.2161 34.0353 72.2148 34.0292 72.2136 34.0231C72.2124 34.017 72.2112 34.0109 72.2099 34.0048C72.2087 33.9987 72.2075 33.9926 72.2063 33.9865C72.2051 33.9804 72.2038 33.9743 72.2026 33.9682C72.2014 33.9621 72.2002 33.956 72.199 33.9499C72.1977 33.9438 72.1965 33.9377 72.1953 33.9316C72.1941 33.9255 72.1929 33.9194 72.1916 33.9133C72.1904 33.9072 72.1892 33.9011 72.188 33.8949C72.1868 33.8888 72.1855 33.8827 72.1843 33.8766C72.1831 33.8705 72.1819 33.8644 72.1807 33.8583C72.1794 33.8522 72.1782 33.8461 72.177 33.84C72.1758 33.8339 72.1745 33.8278 72.1733 33.8217C72.1721 33.8156 72.1709 33.8095 72.1697 33.8034C72.1684 33.7973 72.1672 33.7912 72.166 33.7851C72.1648 33.779 72.1636 33.7729 72.1623 33.7668C72.1611 33.7607 72.1599 33.7546 72.1587 33.7485C72.1575 33.7424 72.1562 33.7363 72.155 33.7302C72.1538 33.724 72.1526 33.7179 72.1514 33.7118C72.1501 33.7057 72.1489 33.6996 72.1477 33.6935C72.1465 33.6874 72.1453 33.6813 72.144 33.6752C72.1428 33.6691 72.1416 33.663 72.1404 33.6569C72.1391 33.6508 72.1379 33.6447 72.1367 33.6386C72.1355 33.6325 72.1343 33.6264 72.133 33.6203C72.1318 33.6142 72.1306 33.6081 72.1294 33.602C72.1282 33.5959 72.1269 33.5898 72.1257 33.5837C72.1245 33.5776 72.1233 33.5715 72.1221 33.5654C72.1208 33.5593 72.1196 33.5532 72.1184 33.547C72.1172 33.5409 72.116 33.5348 72.1147 33.5287C72.1135 33.5226 72.1123 33.5165 72.1111 33.5104C72.1099 33.5043 72.1086 33.4982 72.1074 33.4921C72.1062 33.486 72.105 33.4799 72.1037 33.4738C72.1025 33.4677 72.1013 33.4616 72.1001 33.4555C72.0989 33.4494 72.0976 33.4433 72.0964 33.4372C72.0952 33.4311 72.094 33.425 72.0928 33.4189C72.0915 33.4128 72.0903 33.4067 72.0891 33.4006C72.0879 33.3945 72.0867 33.3884 72.0854 33.3823C72.0842 33.3761 72.083 33.37 72.0818 33.3639C72.0806 33.3578 72.0793 33.3517 72.0781 33.3456C72.0769 33.3395 72.0757 33.3334 72.0745 33.3273C72.0732 33.3212 72.072 33.3151 72.0708 33.309C72.0696 33.3029 72.0683 33.2968 72.0671 33.2907C72.0659 33.2846 72.0647 33.2785 72.0635 33.2724C72.0622 33.2663 72.061 33.2602 72.0598 33.2541C72.0586 33.248 72.0574 33.2419 72.0561 33.2358C72.0549 33.2297 72.0537 33.2236 72.0525 33.2175C72.0513 33.2114 72.05 33.2052 72.0488 33.1991C72.0476 33.193 72.0464 33.1869 72.0452 33.1808C72.0439 33.1747 72.0427 33.1686 72.0415 33.1625C72.0403 33.1564 72.0391 33.1503 72.0378 33.1442C72.0366 33.1381 72.0354 33.132 72.0342 33.1259C72.0329 33.1198 72.0317 33.1137 72.0305 33.1076C72.0293 33.1015 72.0281 33.0954 72.0268 33.0893C72.0256 33.0832 72.0244 33.0771 72.0232 33.071C72.022 33.0649 72.0207 33.0588 72.0195 33.0527C72.0183 33.0466 72.0171 33.0405 72.0159 33.0344C72.0146 33.0282 72.0134 33.0221 72.0122 33.016C72.011 33.0099 72.0098 33.0038 72.0085 32.9977C72.0073 32.9916 72.0061 32.9855 72.0049 32.9794C72.0037 32.9733 72.0024 32.9672 72.0012 32.9611C72 32.955 71.9988 32.9489 71.9975 32.9428C71.9963 32.9367 71.9951 32.9306 71.9939 32.9245C71.9927 32.9184 71.9914 32.9123 71.9902 32.9062C71.989 32.9001 71.9878 32.894 71.9866 32.8879C71.9853 32.8818 71.9841 32.8757 71.9829 32.8696C71.9817 32.8635 71.9805 32.8573 71.9792 32.8512C71.978 32.8451 71.9768 32.839 71.9756 32.8329C71.9744 32.8268 71.9731 32.8207 71.9719 32.8146C71.9707 32.8085 71.9695 32.8024 71.9683 32.7963C71.967 32.7902 71.9658 32.7841 71.9646 32.778C71.9634 32.7719 71.9621 32.7658 71.9609 32.7597C71.9597 32.7536 71.9585 32.7475 71.9573 32.7414C71.956 32.7353 71.9548 32.7292 71.9536 32.7231C71.9524 32.717 71.9512 32.7109 71.9499 32.7048C71.9487 32.6987 71.9475 32.6926 71.9463 32.6865C71.9451 32.6803 71.9438 32.6742 71.9426 32.6681C71.9414 32.662 71.9402 32.6559 71.939 32.6498C71.9377 32.6437 71.9365 32.6376 71.9353 32.6315C71.9341 32.6254 71.9328 32.6193 71.9316 32.6132C71.9304 32.6071 71.9292 32.601 71.928 32.5949C71.9267 32.5888 71.9255 32.5827 71.9243 32.5766C71.9231 32.5705 71.9219 32.5644 71.9206 32.5583C71.9194 32.5522 71.9182 32.5461 71.917 32.54C71.9158 32.5339 71.9145 32.5278 71.9133 32.5217C71.9121 32.5156 71.9109 32.5094 71.9097 32.5033C71.9084 32.4972 71.9072 32.4911 71.906 32.485C71.9048 32.4789 71.9036 32.4728 71.9023 32.4667C71.9011 32.4606 71.8999 32.4545 71.8987 32.4484C71.8974 32.4423 71.8962 32.4362 71.895 32.4301C71.8938 32.424 71.8926 32.4179 71.8913 32.4118C71.8901 32.4057 71.8889 32.3996 71.8877 32.3935C71.8865 32.3874 71.8852 32.3813 71.884 32.3752C71.8828 32.3691 71.8816 32.363 71.8804 32.3569C71.8791 32.3508 71.8779 32.3447 71.8767 32.3386C71.8755 32.3324 71.8743 32.3263 71.873 32.3202C71.8718 32.3141 71.8706 32.308 71.8694 32.3019C71.8682 32.2958 71.8669 32.2897 71.8657 32.2836C71.8645 32.2775 71.8633 32.2714 71.862 32.2653C71.8608 32.2592 71.8596 32.2531 71.8584 32.247C71.8572 32.2409 71.8559 32.2348 71.8547 32.2287C71.8535 32.2226 71.8523 32.2165 71.8511 32.2104C71.8498 32.2043 71.8486 32.1982 71.8474 32.1921C71.8462 32.186 71.845 32.1799 71.8437 32.1738C71.8425 32.1677 71.8413 32.1615 71.8401 32.1554C71.8389 32.1493 71.8376 32.1432 71.8364 32.1371C71.8352 32.131 71.834 32.1249 71.8328 32.1188C71.8315 32.1127 71.8303 32.1066 71.8291 32.1005C71.8279 32.0944 71.8266 32.0883 71.8254 32.0822C71.8242 32.0761 71.823 32.07 71.8218 32.0639C71.8205 32.0578 71.8193 32.0517 71.8181 32.0456C71.8169 32.0395 71.8157 32.0334 71.8144 32.0273C71.8132 32.0212 71.812 32.0151 71.8108 32.009C71.8096 32.0029 71.8083 31.9968 71.8071 31.9907C71.8059 31.9845 71.8047 31.9784 71.8035 31.9723C71.8022 31.9662 71.801 31.9601 71.7998 31.954C71.7986 31.9479 71.7974 31.9418 71.7961 31.9357C71.7949 31.9296 71.7937 31.9235 71.7925 31.9174C71.7912 31.9113 71.79 31.9052 71.7888 31.8991C71.7876 31.893 71.7864 31.8869 71.7851 31.8808C71.7839 31.8747 71.7827 31.8686 71.7815 31.8625C71.7803 31.8564 71.779 31.8503 71.7778 31.8442C71.7766 31.8381 71.7754 31.832 71.7742 31.8259C71.7729 31.8198 71.7717 31.8136 71.7705 31.8075C71.7693 31.8014 71.7681 31.7953 71.7668 31.7892C71.7656 31.7831 71.7644 31.777 71.7632 31.7709C71.762 31.7648 71.7607 31.7587 71.7595 31.7526C71.7583 31.7465 71.7571 31.7404 71.7558 31.7343C71.7546 31.7282 71.7534 31.7221 71.7522 31.716C71.751 31.7099 71.7497 31.7038 71.7485 31.6977C71.7473 31.6916 71.7461 31.6855 71.7449 31.6794C71.7436 31.6733 71.7424 31.6672 71.7412 31.6611C71.74 31.655 71.7388 31.6489 71.7375 31.6427C71.7363 31.6366 71.7351 31.6305 71.7339 31.6244C71.7327 31.6183 71.7314 31.6122 71.7302 31.6061C71.729 31.6 71.7278 31.5939 71.7266 31.5878C71.7253 31.5817 71.7241 31.5756 71.7229 31.5695C71.7217 31.5634 71.7204 31.5573 71.7192 31.5512C71.718 31.5451 71.7168 31.539 71.7156 31.5329C71.7143 31.5268 71.7131 31.5207 71.7119 31.5146C71.7107 31.5085 71.7095 31.5024 71.7082 31.4963C71.707 31.4902 71.7058 31.4841 71.7046 31.478C71.7034 31.4719 71.7021 31.4657 71.7009 31.4596C71.6997 31.4535 71.6985 31.4474 71.6973 31.4413C71.696 31.4352 71.6948 31.4291 71.6936 31.423C71.6924 31.4169 71.6912 31.4108 71.6899 31.4047C71.6887 31.3986 71.6875 31.3925 71.6863 31.3864C71.685 31.3803 71.6838 31.3742 71.6826 31.3681C71.6814 31.362 71.6802 31.3559 71.6789 31.3498C71.6777 31.3437 71.6765 31.3376 71.6753 31.3315C71.6741 31.3254 71.6728 31.3193 71.6716 31.3132C71.6704 31.3071 71.6692 31.301 71.668 31.2948C71.6667 31.2887 71.6655 31.2826 71.6643 31.2765C71.6631 31.2704 71.6619 31.2643 71.6606 31.2582C71.6594 31.2521 71.6582 31.246 71.657 31.2399C71.6558 31.2338 71.6545 31.2277 71.6533 31.2216C71.6521 31.2155 71.6509 31.2094 71.6496 31.2033C71.6484 31.1972 71.6472 31.1911 71.646 31.185C71.6448 31.1789 71.6435 31.1728 71.6423 31.1667C71.6411 31.1606 71.6399 31.1545 71.6387 31.1484C71.6374 31.1423 71.6362 31.1362 71.635 31.1301C71.6338 31.124 71.6326 31.1178 71.6313 31.1117C71.6301 31.1056 71.6289 31.0995 71.6277 31.0934C71.6265 31.0873 71.6252 31.0812 71.624 31.0751C71.6228 31.069 71.6216 31.0629 71.6203 31.0568C71.6191 31.0507 71.6179 31.0446 71.6167 31.0385C71.6155 31.0324 71.6142 31.0263 71.613 31.0202C71.6118 31.0141 71.6106 31.008 71.6094 31.0019C71.6081 30.9958 71.6069 30.9897 71.6057 30.9836C71.6045 30.9775 71.6033 30.9714 71.602 30.9653C71.6008 30.9592 71.5996 30.9531 71.5984 30.9469C71.5972 30.9408 71.5959 30.9347 71.5947 30.9286C71.5935 30.9225 71.5923 30.9164 71.5911 30.9103C71.5898 30.9042 71.5886 30.8981 71.5874 30.892C71.5862 30.8859 71.5849 30.8798 71.5837 30.8737C71.5825 30.8676 71.5813 30.8615 71.5801 30.8554C71.5788 30.8493 71.5776 30.8432 71.5764 30.8371C71.5752 30.831 71.574 30.8249 71.5727 30.8188C71.5715 30.8127 71.5703 30.8066 71.5691 30.8005C71.5679 30.7944 71.5666 30.7883 71.5654 30.7822C71.5642 30.7761 71.563 30.7699 71.5618 30.7638C71.5605 30.7577 71.5593 30.7516 71.5581 30.7455C71.5569 30.7394 71.5557 30.7333 71.5544 30.7272C71.5532 30.7211 71.552 30.715 71.5508 30.7089C71.5495 30.7028 71.5483 30.6967 71.5471 30.6906C71.5459 30.6845 71.5447 30.6784 71.5434 30.6723C71.5422 30.6662 71.541 30.6601 71.5398 30.654C71.5386 30.6479 71.5373 30.6418 71.5361 30.6357C71.5349 30.6296 71.5337 30.6235 71.5325 30.6174C71.5312 30.6113 71.53 30.6052 71.5288 30.599C71.5276 30.5929 71.5264 30.5868 71.5251 30.5807C71.5239 30.5746 71.5227 30.5685 71.5215 30.5624C71.5203 30.5563 71.519 30.5502 71.5178 30.5441C71.5166 30.538 71.5154 30.5319 71.5141 30.5258C71.5129 30.5197 71.5117 30.5136 71.5105 30.5075C71.5093 30.5014 71.508 30.4953 71.5068 30.4892C71.5056 30.4831 71.5044 30.477 71.5032 30.4709C71.5019 30.4648 71.5007 30.4587 71.4995 30.4526C71.4983 30.4465 71.4971 30.4404 71.4958 30.4343C71.4946 30.4282 71.4934 30.422 71.4922 30.4159C71.491 30.4098 71.4897 30.4037 71.4885 30.3976L70.5079 30.5938ZM72.3829 39.9688L71.4024 40.1649C72.0081 43.1935 72.1922 46.4155 71.948 49.835L72.9454 49.9062L73.9429 49.9775C74.1986 46.397 74.0078 42.994 73.3635 39.7726L72.3829 39.9688ZM72.9454 49.9062L71.948 49.835C71.8328 51.4473 71.4027 52.9336 70.6599 54.305L71.5392 54.7812L72.4185 55.2575C73.3007 53.6289 73.8081 51.8652 73.9429 49.9775L72.9454 49.9062ZM71.5392 54.7812L70.6599 54.305C69.9159 55.6784 68.8467 56.9576 67.4303 58.138L68.0704 58.9062L68.7106 59.6745C70.2942 58.3549 71.5374 56.8841 72.4185 55.2575L71.5392 54.7812ZM68.0704 58.9062L67.4772 58.1012C65.2189 59.7652 62.6944 60.8947 59.8936 61.4906L60.1017 62.4688L60.3098 63.4469C63.3839 62.7928 66.1719 61.5473 68.6636 59.7113L68.0704 58.9062ZM60.1017 62.4688L59.8936 61.4906C57.0409 62.0976 54.0931 62.3414 51.0479 62.2196L51.0079 63.2188L50.968 64.2179C54.1728 64.3461 57.2875 64.0899 60.3098 63.4469L60.1017 62.4688ZM51.0079 63.2188H50.0079V63.5938H51.0079H52.0079V63.2188H51.0079ZM51.0079 63.5938L50.2713 64.27C53.7922 68.1053 57.4398 71.7215 61.214 75.1183L61.8829 74.375L62.5519 73.6317C58.8261 70.2785 55.2237 66.7072 51.7446 62.9175L51.0079 63.5938ZM61.8829 74.375L61.214 75.1183C64.9292 78.462 68.3967 82.0533 71.6167 85.8926L72.3829 85.25L73.1491 84.6074C69.8692 80.6967 66.3367 77.038 62.5519 73.6317L61.8829 74.375ZM72.3829 85.25H71.3829V86.75H72.3829H73.3829V85.25H72.3829ZM72.3829 86.75L71.4638 86.3561C71.1899 86.9951 70.753 87.432 70.114 87.7059L70.5079 88.625L70.9019 89.5441C72.0129 89.068 72.8259 88.2549 73.3021 87.1439L72.3829 86.75ZM70.5079 88.625L70.3435 87.6386L69.2185 87.8261L69.3829 88.8125L69.5473 89.7989L70.6723 89.6114L70.5079 88.625ZM165.008 86.75L164.561 87.6444L164.772 87.75H165.008V86.75ZM162.758 84.5L163.652 84.0528L163.622 83.9921L163.584 83.936L162.758 84.5ZM152.633 68.9375L151.78 69.4594L151.783 69.4639L152.633 68.9375ZM141.758 53.6562L142.531 53.0219L142.396 52.8571L142.205 52.7618L141.758 53.6562ZM138.008 51.5938L137.176 52.1485L137.301 52.3355L137.493 52.4512L138.008 51.5938ZM137.445 48.9688L136.72 48.28L136.494 48.5184L136.453 48.8447L137.445 48.9688ZM160.695 15.6875L161.652 15.979L161.782 15.554L161.553 15.173L160.695 15.6875ZM160.32 13.4375L159.401 13.0436L159.349 13.1651L159.33 13.2961L160.32 13.4375ZM162.195 11.5625V10.5625H161.99L161.802 10.6434L162.195 11.5625ZM163.695 11.5625L164.102 10.6487L163.908 10.5625H163.695V11.5625ZM166.133 14H167.133V13.7878L167.047 13.5939L166.133 14ZM166.133 18.125L167.074 18.462L167.133 18.2986V18.125H166.133ZM144.945 49.1562L144.19 48.5006L143.623 49.1544L144.189 49.8099L144.945 49.1562ZM157.789 66.6875L156.938 67.2121L156.94 67.2159L157.789 66.6875ZM168.383 84.875L169.302 85.2689L169.493 84.8242L169.262 84.3987L168.383 84.875ZM166.508 86.75V87.75H166.713L166.902 87.6691L166.508 86.75ZM165.008 86.75L165.455 85.8556C164.649 85.4523 164.056 84.8593 163.652 84.0528L162.758 84.5L161.864 84.9472C162.46 86.1407 163.367 87.0477 164.561 87.6444L165.008 86.75ZM162.758 84.5L163.584 83.936C160.092 78.8233 156.725 73.6484 153.483 68.4111L152.633 68.9375L151.783 69.4639C155.041 74.7266 158.424 79.9267 161.932 85.064L162.758 84.5ZM152.633 68.9375L153.486 68.4156C150.212 63.0634 146.56 57.9321 142.531 53.0219L141.758 53.6562L140.985 54.2906C144.956 59.1304 148.554 64.1866 151.78 69.4594L152.633 68.9375ZM141.758 53.6562L142.205 52.7618C140.979 52.1487 139.751 51.4736 138.522 50.7363L138.008 51.5938L137.493 52.4512C138.764 53.2139 140.037 53.9138 141.311 54.5507L141.758 53.6562ZM138.008 51.5938L138.84 51.039C138.489 50.5126 138.339 49.8847 138.438 49.0928L137.445 48.9688L136.453 48.8447C136.302 50.0528 136.527 51.1749 137.176 52.1485L138.008 51.5938ZM137.445 48.9688L138.17 49.6575C142.937 44.6404 147.515 39.4665 151.905 34.1357L151.133 33.5L150.361 32.8643C146.001 38.1585 141.454 43.2971 136.72 48.28L137.445 48.9688ZM151.133 33.5L151.905 34.1357C156.363 28.7221 159.614 22.6677 161.652 15.979L160.695 15.6875L159.739 15.396C157.777 21.8323 154.653 27.6529 150.361 32.8643L151.133 33.5ZM160.695 15.6875L161.553 15.173C161.32 14.7843 161.211 14.2766 161.31 13.5789L160.32 13.4375L159.33 13.2961C159.18 14.3484 159.321 15.3407 159.838 16.202L160.695 15.6875ZM160.32 13.4375L161.24 13.8314C161.513 13.1924 161.95 12.7555 162.589 12.4816L162.195 11.5625L161.802 10.6434C160.691 11.1195 159.877 11.9326 159.401 13.0436L160.32 13.4375ZM162.195 11.5625V12.5625H163.695V11.5625V10.5625H162.195V11.5625ZM163.695 11.5625L163.289 12.4763C164.188 12.8758 164.82 13.5074 165.219 14.4061L166.133 14L167.047 13.5939C166.446 12.2426 165.453 11.2492 164.102 10.6487L163.695 11.5625ZM166.133 14H165.133V18.125H166.133H167.133V14H166.133ZM166.133 18.125L165.191 17.788C163.103 23.6229 160.125 28.9966 156.254 33.9126L157.039 34.5312L157.825 35.1499C161.829 30.0659 164.913 24.5021 167.074 18.462L166.133 18.125ZM157.039 34.5312L156.254 33.9126C152.326 38.9001 148.305 43.7628 144.19 48.5006L144.945 49.1562L145.7 49.8119C149.836 45.0497 153.878 40.1624 157.825 35.1499L157.039 34.5312ZM144.945 49.1562L144.189 49.8099C148.904 55.2694 153.153 61.07 156.938 67.2121L157.789 66.6875L158.641 66.1629C154.8 59.93 150.487 54.0431 145.702 48.5026L144.945 49.1562ZM157.789 66.6875L156.94 67.2159C160.743 73.3248 164.264 79.3699 167.504 85.3513L168.383 84.875L169.262 84.3987C166.002 78.3801 162.461 72.3002 158.638 66.1591L157.789 66.6875ZM168.383 84.875L167.464 84.4811C167.19 85.1201 166.753 85.557 166.114 85.8309L166.508 86.75L166.902 87.6691C168.013 87.193 168.826 86.3799 169.302 85.2689L168.383 84.875ZM166.508 86.75V85.75H165.008V86.75V87.75H166.508V86.75ZM240.758 85.0625L240.699 86.0608L240.752 86.0639L240.805 86.0614L240.758 85.0625ZM234.852 83.6562L234.431 84.5633L234.443 84.5688L234.852 83.6562ZM229.977 80L229.182 80.6075L229.21 80.6442L229.242 80.6783L229.977 80ZM226.883 72.9688L225.897 73.1331L225.897 73.137L226.883 72.9688ZM226.227 64.9062L225.227 64.8678L225.227 64.887V64.9062H226.227ZM241.133 29.2812L241.924 29.8932L243.264 28.1613L241.077 28.2828L241.133 29.2812ZM234.477 29.0938L234.36 30.0869L234.363 30.0873L234.477 29.0938ZM228.852 26.4688L228.145 27.1759L228.159 27.19L228.173 27.2036L228.852 26.4688ZM227.539 22.8125L226.661 22.3336L226.561 22.5174L226.543 22.7259L227.539 22.8125ZM228.664 20.75L228.109 19.9179L227.904 20.0547L227.786 20.2711L228.664 20.75ZM231.289 20.1875L231.683 19.2684L231.553 19.2127L231.413 19.1952L231.289 20.1875ZM233.164 22.0625H234.164V21.8572L234.083 21.6686L233.164 22.0625ZM233.164 23H232.164V23.752L232.887 23.9607L233.164 23ZM242.07 23.75L242.008 22.7519L241.989 22.7531L241.971 22.755L242.07 23.75ZM253.508 22.25L253.902 21.3309L253.649 21.2224L253.376 21.2588L253.508 22.25ZM255.383 24.2188H256.383V24.0262L256.311 23.8474L255.383 24.2188ZM255.383 25.9062L256.302 26.3002L256.383 26.1115V25.9062H255.383ZM253.508 27.7812L253.771 28.746L253.838 28.7277L253.902 28.7004L253.508 27.7812ZM246.195 32.0938L245.488 31.3866L245.446 31.4289L245.409 31.4759L246.195 32.0938ZM235.789 48.875L234.885 48.4469L234.882 48.4547L235.789 48.875ZM231.664 67.9062H230.664V67.9419L230.667 67.9775L231.664 67.9062ZM232.508 73.1562L231.538 73.3988L231.54 73.4072L232.508 73.1562ZM235.32 77.5625L234.664 78.3171L234.692 78.3408L234.72 78.3625L235.32 77.5625ZM242.445 79.625L242.491 80.624L242.551 80.6212L242.61 80.6114L242.445 79.625ZM257.258 69.0312L257.993 69.7095L258.044 69.6535L258.087 69.5904L257.258 69.0312ZM273.57 34.3438L273.016 33.5117L272.724 33.706L272.618 34.0397L273.57 34.3438ZM276.195 33.7812L276.589 32.8621L276.46 32.8065L276.319 32.789L276.195 33.7812ZM278.07 35.6562H279.07V35.451L278.99 35.2623L278.07 35.6562ZM278.07 39.2188L278.981 39.6326L279.07 39.4354V39.2188H278.07ZM276.758 48.7812H275.758V48.8125L275.76 48.8436L276.758 48.7812ZM280.32 59.6562L279.552 60.2964L279.606 60.3609L279.67 60.4155L280.32 59.6562ZM286.227 63.0312L287.008 62.4066L286.826 62.1796L286.551 62.0853L286.227 63.0312ZM286.789 65.4688L287.708 65.8627L287.764 65.7329L287.781 65.5928L286.789 65.4688ZM284.914 67.3438V68.3438H285.119L285.308 68.2629L284.914 67.3438ZM283.133 67.3438L282.911 68.3189L283.021 68.3438H283.133V67.3438ZM275.82 62.8438L276.566 62.177L276.564 62.1748L275.82 62.8438ZM272.07 53.8438L273.059 53.6917L272.928 52.8438H272.07V53.8438ZM271.695 53.8438V52.8438H271.015L270.765 53.4766L271.695 53.8438ZM264.945 67.625L265.803 68.1395L265.806 68.1341L264.945 67.625ZM254.633 79.4375L253.997 78.6656L253.96 78.6963L253.926 78.7304L254.633 79.4375ZM240.758 85.0625L240.817 84.0642C238.804 83.9458 236.955 83.5032 235.261 82.7437L234.852 83.6562L234.443 84.5688C236.373 85.4343 238.462 85.9292 240.699 86.0608L240.758 85.0625ZM234.852 83.6562L235.273 82.7492C233.657 81.9992 232.136 80.8646 230.711 79.3217L229.977 80L229.242 80.6783C230.818 82.3854 232.546 83.6883 234.431 84.5633L234.852 83.6562ZM229.977 80L230.771 79.3925C229.242 77.3924 228.278 75.1985 227.869 72.8005L226.883 72.9688L225.897 73.137C226.363 75.864 227.462 78.3576 229.182 80.6075L229.977 80ZM226.883 72.9688L227.869 72.8044C227.441 70.2355 227.227 67.603 227.227 64.9062H226.227H225.227C225.227 67.7095 225.45 70.452 225.897 73.1331L226.883 72.9688ZM226.227 64.9062L227.226 64.9447C227.471 58.5809 228.969 52.4619 231.726 46.5807L230.82 46.1562L229.915 45.7318C227.047 51.8506 225.483 58.2316 225.227 64.8678L226.227 64.9062ZM230.82 46.1562L231.726 46.5807C234.507 40.6473 237.906 35.0852 241.924 29.8932L241.133 29.2812L240.342 28.6693C236.235 33.9773 232.759 39.6652 229.915 45.7318L230.82 46.1562ZM241.133 29.2812L241.077 28.2828C238.883 28.4047 236.72 28.3437 234.59 28.1002L234.477 29.0938L234.363 30.0873C236.608 30.3438 238.883 30.4078 241.188 30.2797L241.133 29.2812ZM234.477 29.0938L234.594 28.1006C232.686 27.8761 231.005 27.0959 229.53 25.7339L228.852 26.4688L228.173 27.2036C229.948 28.8416 232.018 29.8114 234.36 30.0869L234.477 29.0938ZM228.852 26.4688L229.559 25.7616C228.773 24.9754 228.435 24.0492 228.535 22.8991L227.539 22.8125L226.543 22.7259C226.393 24.4508 226.931 25.9621 228.145 27.1759L228.852 26.4688ZM227.539 22.8125L228.417 23.2914L229.542 21.2289L228.664 20.75L227.786 20.2711L226.661 22.3336L227.539 22.8125ZM228.664 20.75L229.219 21.5821C229.745 21.2311 230.373 21.0808 231.165 21.1798L231.289 20.1875L231.413 19.1952C230.205 19.0442 229.083 19.2689 228.109 19.9179L228.664 20.75ZM231.289 20.1875L230.895 21.1066C231.534 21.3805 231.971 21.8174 232.245 22.4564L233.164 22.0625L234.083 21.6686C233.607 20.5576 232.794 19.7445 231.683 19.2684L231.289 20.1875ZM233.164 22.0625H232.164V23H233.164H234.164V22.0625H233.164ZM233.164 23L232.887 23.9607C235.83 24.8111 238.928 25.0693 242.17 24.745L242.07 23.75L241.971 22.755C238.963 23.0557 236.123 22.8139 233.442 22.0393L233.164 23ZM242.07 23.75L242.133 24.7481C244.165 24.621 246.137 24.3986 248.047 24.0801L247.883 23.0938L247.719 22.1074C245.879 22.4139 243.976 22.629 242.008 22.7519L242.07 23.75ZM247.883 23.0938L248.047 24.0801C249.912 23.7694 251.776 23.4898 253.64 23.2412L253.508 22.25L253.376 21.2588C251.49 21.5102 249.604 21.7931 247.719 22.1074L247.883 23.0938ZM253.508 22.25L253.114 23.1691C253.729 23.4328 254.171 23.8823 254.454 24.5901L255.383 24.2188L256.311 23.8474C255.845 22.6802 255.037 21.8172 253.902 21.3309L253.508 22.25ZM255.383 24.2188H254.383V25.9062H255.383H256.383V24.2188H255.383ZM255.383 25.9062L254.464 25.5123C254.19 26.1513 253.753 26.5883 253.114 26.8621L253.508 27.7812L253.902 28.7004C255.013 28.2242 255.826 27.4112 256.302 26.3002L255.383 25.9062ZM253.508 27.7812L253.245 26.8165C250.318 27.6148 247.729 29.1455 245.488 31.3866L246.195 32.0938L246.903 32.8009C248.911 30.792 251.198 29.4477 253.771 28.746L253.508 27.7812ZM246.195 32.0938L245.409 31.4759C241.239 36.7836 237.73 42.4409 234.885 48.4469L235.789 48.875L236.693 49.3031C239.473 43.4341 242.902 37.9039 246.982 32.7116L246.195 32.0938ZM235.789 48.875L234.882 48.4547C232.069 54.5281 230.664 61.0158 230.664 67.9062H231.664H232.664C232.664 61.2967 234.01 55.0969 236.697 49.2953L235.789 48.875ZM231.664 67.9062L230.667 67.9775C230.796 69.7869 231.087 71.5942 231.538 73.3988L232.508 73.1562L233.478 72.9137C233.054 71.2183 232.782 69.5256 232.662 67.835L231.664 67.9062ZM232.508 73.1562L231.54 73.4072C232.033 75.3084 233.089 76.9474 234.664 78.3171L235.32 77.5625L235.977 76.8079C234.677 75.6776 233.858 74.3791 233.476 72.9053L232.508 73.1562ZM235.32 77.5625L234.72 78.3625C236.925 80.016 239.534 80.7584 242.491 80.624L242.445 79.625L242.4 78.626C239.857 78.7416 237.716 78.109 235.92 76.7625L235.32 77.5625ZM242.445 79.625L242.61 80.6114C245.8 80.0797 248.629 78.7133 251.08 76.5275L250.414 75.7812L249.749 75.035C247.574 76.9742 245.091 78.1703 242.281 78.6386L242.445 79.625ZM250.414 75.7812L251.08 76.5275C253.418 74.4421 255.722 72.1692 257.993 69.7095L257.258 69.0312L256.523 68.353C254.294 70.7683 252.035 72.9954 249.749 75.035L250.414 75.7812ZM257.258 69.0312L258.087 69.5904C261.744 64.1686 264.927 58.4632 267.638 52.4749L266.727 52.0625L265.816 51.6501C263.151 57.5368 260.022 63.1439 256.429 68.4721L257.258 69.0312ZM266.727 52.0625L267.638 52.4749C270.34 46.5041 272.636 40.5617 274.523 34.6478L273.57 34.3438L272.618 34.0397C270.755 39.8758 268.488 45.7459 265.816 51.6501L266.727 52.0625ZM273.57 34.3438L274.125 35.1758C274.652 34.8248 275.279 34.6745 276.071 34.7735L276.195 33.7812L276.319 32.789C275.111 32.638 273.989 32.8627 273.016 33.5117L273.57 34.3438ZM276.195 33.7812L275.802 34.7004C276.44 34.9742 276.877 35.4112 277.151 36.0502L278.07 35.6562L278.99 35.2623C278.513 34.1513 277.7 33.3383 276.589 32.8621L276.195 33.7812ZM278.07 35.6562H277.07V39.2188H278.07H279.07V35.6562H278.07ZM278.07 39.2188L277.16 38.8049C276.483 40.2945 276.082 41.9097 275.948 43.6421L276.945 43.7188L277.943 43.7954C278.059 42.2778 278.408 40.893 278.981 39.6326L278.07 39.2188ZM276.945 43.7188L275.948 43.6421C275.821 45.2944 275.758 47.0075 275.758 48.7812H276.758H277.758C277.758 47.055 277.82 45.3931 277.943 43.7954L276.945 43.7188ZM276.758 48.7812L275.76 48.8436C275.889 50.9075 276.212 52.9105 276.729 54.8514L277.695 54.5938L278.662 54.3361C278.179 52.527 277.877 50.655 277.756 48.7189L276.758 48.7812ZM277.695 54.5938L276.729 54.8514C277.267 56.8677 278.21 58.6855 279.552 60.2964L280.32 59.6562L281.089 59.0161C279.931 57.627 279.124 56.0698 278.662 54.3361L277.695 54.5938ZM280.32 59.6562L279.67 60.4155C281.516 61.9981 283.596 63.1863 285.902 63.9772L286.227 63.0312L286.551 62.0853C284.483 61.3762 282.625 60.3144 280.971 58.897L280.32 59.6562ZM286.227 63.0312L285.446 63.6559C285.736 64.0186 285.898 64.5391 285.797 65.3447L286.789 65.4688L287.781 65.5928C287.931 64.3984 287.717 63.2939 287.008 62.4066L286.227 63.0312ZM286.789 65.4688L285.87 65.0748C285.596 65.7138 285.159 66.1508 284.52 66.4246L284.914 67.3438L285.308 68.2629C286.419 67.7867 287.232 66.9737 287.708 65.8627L286.789 65.4688ZM284.914 67.3438V66.3438H283.133V67.3438V68.3438H284.914V67.3438ZM283.133 67.3438L283.355 66.3686C280.833 65.7954 278.571 64.4183 276.566 62.177L275.82 62.8438L275.075 63.5105C277.32 66.0192 279.933 67.6421 282.911 68.3189L283.133 67.3438ZM275.82 62.8438L276.564 62.1748C275.524 61.0198 274.748 59.7254 274.23 58.2863L273.289 58.625L272.348 58.9637C272.955 60.6496 273.867 62.1677 275.077 63.5127L275.82 62.8438ZM273.289 58.625L274.23 58.2863C273.689 56.7837 273.299 55.2524 273.059 53.6917L272.07 53.8438L271.082 53.9958C271.342 55.6851 271.764 57.3413 272.348 58.9637L273.289 58.625ZM272.07 53.8438V52.8438H271.695V53.8438V54.8438H272.07V53.8438ZM271.695 53.8438L270.765 53.4766C268.91 58.177 266.683 62.7233 264.085 67.1159L264.945 67.625L265.806 68.1341C268.458 63.6517 270.731 59.0105 272.626 54.2109L271.695 53.8438ZM264.945 67.625L264.088 67.1105C261.526 71.3802 258.166 75.2324 253.997 78.6656L254.633 79.4375L255.269 80.2094C259.6 76.6426 263.115 72.6198 265.803 68.1395L264.945 67.625ZM254.633 79.4375L253.926 78.7304C252.148 80.5081 250.145 81.8016 247.912 82.6242L248.258 83.5625L248.604 84.5008C251.121 83.5734 253.368 82.1169 255.34 80.1446L254.633 79.4375ZM248.258 83.5625L247.912 82.6242C245.637 83.4626 243.237 83.9433 240.71 84.0636L240.758 85.0625L240.805 86.0614C243.528 85.9317 246.129 85.4124 248.604 84.5008L248.258 83.5625ZM357.57 86.9375L357.429 87.9275L357.499 87.9375H357.57V86.9375ZM348.57 82.0625L347.748 82.6317L347.774 82.6684L347.802 82.7027L348.57 82.0625ZM343.883 59.6562L344.855 59.4216L344.67 58.6562H343.883V59.6562ZM342.383 59.6562V58.6562H342.247L342.115 58.6927L342.383 59.6562ZM330.57 67.3438L329.863 66.6366L329.846 66.6535L329.831 66.6711L330.57 67.3438ZM324.102 76.25L323.232 75.7557L323.229 75.7614L324.102 76.25ZM319.789 86L320.414 86.7809L320.644 86.5964L320.738 86.3162L319.789 86ZM317.352 86.5625L316.904 87.4569L317.058 87.5335L317.228 87.5548L317.352 86.5625ZM315.289 84.3125L314.293 84.403L314.306 84.5373L314.353 84.6636L315.289 84.3125ZM315.102 82.25L314.126 82.0286L314.091 82.1829L314.106 82.3405L315.102 82.25ZM326.07 48.4062L325.152 48.0098L325.15 48.0142L326.07 48.4062ZM342.008 16.4375L341.383 15.6566L341.234 15.7762L341.139 15.9425L342.008 16.4375ZM344.445 15.875L344.839 14.9559L344.71 14.9002L344.569 14.8827L344.445 15.875ZM346.32 17.75H347.32V17.5447L347.24 17.3561L346.32 17.75ZM346.32 19.4375L347.171 19.9641L347.32 19.7221V19.4375H346.32ZM326.07 64.1562L325.147 63.7716L324.57 65.1562H326.07V64.1562ZM326.258 64.1562V65.1562H326.715L327.014 64.8112L326.258 64.1562ZM337.695 55.3438L337.363 54.4008L337.293 54.4254L337.228 54.46L337.695 55.3438ZM344.633 54.2188L344.812 53.2349L344.723 53.2188H344.633V54.2188ZM348.195 56.4688L349.096 56.034L349.047 55.9323L348.976 55.8441L348.195 56.4688ZM350.445 68.5625L351.444 68.6196L351.444 68.6188L350.445 68.5625ZM354.195 80L353.432 80.6459L353.517 80.7469L353.626 80.8222L354.195 80ZM359.82 81.5L359.879 82.4983L359.924 82.4957L359.968 82.4891L359.82 81.5ZM376.508 75.5L377.019 76.3593L377.022 76.3575L376.508 75.5ZM391.789 66.0312L392.183 65.1121L391.696 64.9033L391.25 65.1894L391.789 66.0312ZM393.664 67.9062H394.664V67.701L394.583 67.5123L393.664 67.9062ZM393.664 69.4062L394.405 70.0775L394.664 69.7918V69.4062H393.664ZM372.195 83.9375L372.558 84.8695L372.61 84.8491L372.66 84.823L372.195 83.9375ZM357.57 86.9375L357.712 85.9475C356.062 85.7119 354.541 85.2425 353.143 84.5431L352.695 85.4375L352.248 86.3319C353.849 87.1325 355.578 87.6631 357.429 87.9275L357.57 86.9375ZM352.695 85.4375L353.143 84.5431C351.785 83.8641 350.515 82.8336 349.339 81.4223L348.57 82.0625L347.802 82.7027C349.126 84.2914 350.606 85.5109 352.248 86.3319L352.695 85.4375ZM348.57 82.0625L349.393 81.4933C347.26 78.4127 346.195 74.9867 346.195 71.1875H345.195H344.195C344.195 75.3883 345.381 79.2123 347.748 82.6317L348.57 82.0625ZM345.195 71.1875H346.195C346.195 67.0529 345.75 63.1299 344.855 59.4216L343.883 59.6562L342.911 59.8909C343.766 63.4326 344.195 67.1971 344.195 71.1875H345.195ZM343.883 59.6562V58.6562H342.383V59.6562V60.6562H343.883V59.6562ZM342.383 59.6562L342.115 58.6927C339.752 59.3492 337.553 60.4 335.523 61.8407L336.102 62.6562L336.68 63.4718C338.525 62.1625 340.514 61.2133 342.651 60.6198L342.383 59.6562ZM336.102 62.6562L335.523 61.8407C333.538 63.2495 331.651 64.8486 329.863 66.6366L330.57 67.3438L331.278 68.0509C332.99 66.3389 334.791 64.813 336.68 63.4718L336.102 62.6562ZM330.57 67.3438L329.831 66.6711C327.282 69.4748 325.082 72.5033 323.232 75.7557L324.102 76.25L324.971 76.7443C326.747 73.6217 328.859 70.7127 331.31 68.0164L330.57 67.3438ZM324.102 76.25L323.229 75.7614C321.449 78.941 319.986 82.2486 318.841 85.6838L319.789 86L320.738 86.3162C321.843 83.0014 323.255 79.809 324.974 76.7386L324.102 76.25ZM319.789 86L319.164 85.2191C318.802 85.5093 318.281 85.6709 317.476 85.5702L317.352 86.5625L317.228 87.5548C318.422 87.7041 319.527 87.4907 320.414 86.7809L319.789 86ZM317.352 86.5625L317.799 85.6681C317.013 85.2751 316.507 84.7131 316.226 83.9614L315.289 84.3125L314.353 84.6636C314.821 85.9119 315.69 86.8499 316.904 87.4569L317.352 86.5625ZM315.289 84.3125L316.285 84.222L316.098 82.1595L315.102 82.25L314.106 82.3405L314.293 84.403L315.289 84.3125ZM315.102 82.25L316.077 82.4714C318.689 70.9678 322.326 59.7436 326.99 48.7983L326.07 48.4062L325.15 48.0142C320.44 59.0689 316.765 70.4072 314.126 82.0286L315.102 82.25ZM326.07 48.4062L326.988 48.8027C331.724 37.8361 337.02 27.2128 342.877 16.9325L342.008 16.4375L341.139 15.9425C335.246 26.2872 329.917 36.9764 325.152 48.0098L326.07 48.4062ZM342.008 16.4375L342.633 17.2184C342.995 16.9282 343.516 16.7666 344.321 16.8673L344.445 15.875L344.569 14.8827C343.375 14.7334 342.271 14.9468 341.383 15.6566L342.008 16.4375ZM344.445 15.875L344.052 16.7941C344.69 17.068 345.127 17.5049 345.401 18.1439L346.32 17.75L347.24 17.3561C346.763 16.2451 345.95 15.432 344.839 14.9559L344.445 15.875ZM346.32 17.75H345.32V19.4375H346.32H347.32V17.75H346.32ZM346.32 19.4375L345.47 18.9109C341.064 26.0237 337.35 33.4211 334.327 41.1026L335.258 41.4688L336.189 41.8349C339.166 34.2664 342.827 26.9763 347.171 19.9641L346.32 19.4375ZM335.258 41.4688L334.327 41.1026C331.33 48.7215 328.27 56.2778 325.147 63.7716L326.07 64.1562L326.993 64.5409C330.121 57.0347 333.186 49.466 336.189 41.8349L335.258 41.4688ZM326.07 64.1562V65.1562H326.258V64.1562V63.1562H326.07V64.1562ZM326.258 64.1562L327.014 64.8112C328.592 62.9897 330.32 61.3835 332.198 59.9906L331.602 59.1875L331.006 58.3844C329.008 59.8665 327.174 61.5728 325.502 63.5013L326.258 64.1562ZM331.602 59.1875L332.198 59.9906C334.095 58.5831 336.083 57.3288 338.163 56.2275L337.695 55.3438L337.228 54.46C335.058 55.6087 332.984 56.9169 331.006 58.3844L331.602 59.1875ZM337.695 55.3438L338.028 56.2867C340.035 55.5784 342.234 55.2188 344.633 55.2188V54.2188V53.2188C342.032 53.2188 339.606 53.6091 337.363 54.4008L337.695 55.3438ZM344.633 54.2188L344.454 55.2026C345.557 55.4032 346.542 56.0027 347.415 57.0934L348.195 56.4688L348.976 55.8441C347.849 54.4348 346.459 53.5343 344.812 53.2349L344.633 54.2188ZM348.195 56.4688L347.295 56.9035C348.964 60.3603 349.689 64.22 349.447 68.5062L350.445 68.5625L351.444 68.6188C351.702 64.03 350.927 59.8272 349.096 56.034L348.195 56.4688ZM350.445 68.5625L349.447 68.5054C349.183 73.1279 350.511 77.1941 353.432 80.6459L354.195 80L354.959 79.3541C352.38 76.3059 351.208 72.7471 351.444 68.6196L350.445 68.5625ZM354.195 80L353.626 80.8222C355.45 82.0845 357.549 82.6353 359.879 82.4983L359.82 81.5L359.762 80.5017C357.841 80.6147 356.191 80.1655 354.765 79.1778L354.195 80ZM359.82 81.5L359.968 82.4891C365.975 81.5944 371.661 79.5489 377.019 76.3593L376.508 75.5L375.996 74.6407C370.855 77.7011 365.416 79.6556 359.673 80.5109L359.82 81.5ZM376.508 75.5L377.022 76.3575C382.343 73.1653 387.445 70.0038 392.329 66.8731L391.789 66.0312L391.25 65.1894C386.383 68.3087 381.298 71.4597 375.993 74.6425L376.508 75.5ZM391.789 66.0312L391.395 66.9504C392.034 67.2242 392.471 67.6612 392.745 68.3002L393.664 67.9062L394.583 67.5123C394.107 66.4013 393.294 65.5883 392.183 65.1121L391.789 66.0312ZM393.664 67.9062H392.664V69.4062H393.664H394.664V67.9062H393.664ZM393.664 69.4062L392.923 68.735C389.99 71.9738 386.694 74.6581 383.035 76.7925L383.539 77.6562L384.043 78.52C387.884 76.2794 391.339 73.4637 394.405 70.0775L393.664 69.4062ZM383.539 77.6562L383.035 76.7925C379.298 78.9725 375.53 81.059 371.731 83.052L372.195 83.9375L372.66 84.823C376.486 82.816 380.28 80.715 384.043 78.52L383.539 77.6562ZM372.195 83.9375L371.833 83.0055C369.629 83.8625 367.332 84.5673 364.939 85.1194L365.164 86.0938L365.389 87.0681C367.872 86.4952 370.262 85.7625 372.558 84.8695L372.195 83.9375ZM365.164 86.0938L364.939 85.1194C362.579 85.664 360.123 85.9375 357.57 85.9375V86.9375V87.9375C360.267 87.9375 362.874 87.6485 365.389 87.0681L365.164 86.0938Z" fill="#88BDF2" mask="url(#path-2-outside-1_163_26083)"/>
</svg>
