<svg width="335" height="92" viewBox="0 0 335 92" fill="none" xmlns="http://www.w3.org/2000/svg">
<g filter="url(#filter0_f_517_72333)">
<path d="M18.1445 87.5325L13.7036 25.8791L18.1445 87.5325L7.13499 88.3256L15.2686 78.333L5.70755 68.5084L13.8015 57.9654L3.6457 39.8835L11.5017 26.0377L13.7036 25.8791L18.1445 87.5325ZM311.361 4.43872L315.802 66.0922L311.361 4.43872L322.371 3.6457L314.237 13.6382L323.798 23.4629L315.704 34.0059L325.86 52.0877L318.004 65.9336L315.802 66.0922L311.361 4.43872ZM15.9241 56.7058L18.1445 87.5325L315.802 66.0922L313.581 35.2655L311.361 4.43872L13.7036 25.8791L15.9241 56.7058Z" fill="#969292" fill-opacity="0.25"/>
</g>
<g filter="url(#filter1_n_517_72333)">
<path d="M17.19 70.1143V2.29383V70.1143H5.07921L14.7678 59.8201L5.07921 48.3148L14.7678 37.4151L5.07921 16.8268L14.7678 2.29383H17.19V70.1143ZM322.19 2.29383V70.1143V2.29383H334.301L324.612 12.588L334.301 24.0933L324.612 34.993L334.301 55.5813L324.612 70.1143H322.19V2.29383ZM17.19 36.204V70.1143H322.19V36.204V2.29383H17.19V36.204Z" fill="#FAF16B" fill-opacity="0.9"/>
</g>
<path d="M127.613 52.3086C126.623 52.2565 125.699 52.0482 124.839 51.6836C123.98 51.319 123.186 50.7461 122.456 49.9648C121.623 48.819 121.076 47.5299 120.816 46.0977C120.555 44.6393 120.425 43.1549 120.425 41.6445C120.634 38.8841 120.959 35.6289 121.402 31.8789C121.844 28.1289 122.274 24.8867 122.691 22.1523C122.951 21.944 123.29 21.8659 123.706 21.918C124.071 22.0742 124.331 22.3346 124.488 22.6992V25.082C124.123 27.6341 123.746 30.694 123.355 34.2617C122.964 37.8294 122.743 40.9154 122.691 43.5195C122.795 44.5091 122.964 45.4727 123.199 46.4102C123.433 47.3216 123.889 48.1419 124.566 48.8711C125.191 49.3919 125.868 49.7305 126.597 49.8867C127.326 50.043 128.107 50.0951 128.941 50.043C130.712 49.9388 132.404 49.5352 134.019 48.832C135.634 48.1289 137.248 47.4518 138.863 46.8008C139.227 46.957 139.488 47.2305 139.644 47.6211V48.2461C139.071 48.9753 138.368 49.4961 137.535 49.8086C135.972 50.5898 134.384 51.2018 132.769 51.6445C131.154 52.0872 129.436 52.3086 127.613 52.3086ZM167.222 52.4648C165.972 52.3086 164.774 51.9961 163.628 51.5273C162.509 51.0586 161.454 50.4336 160.464 49.6523C159.631 48.7148 159.214 47.6211 159.214 46.3711C159.214 45.5638 159.501 44.8737 160.074 44.3008C160.959 43.5716 161.962 43.0768 163.081 42.8164C164.227 42.556 165.425 42.4779 166.675 42.582C167.821 42.7904 168.928 43.1419 169.996 43.6367C171.063 44.1315 172.092 44.6654 173.081 45.2383L173.238 42.8164V35.707H172.691C170.712 35.8633 168.732 36.0716 166.753 36.332C164.774 36.5924 162.756 36.7487 160.699 36.8008C160.334 36.6445 160.074 36.3841 159.917 36.0195V35.3945C160.074 35.0299 160.334 34.7695 160.699 34.6133C162.808 34.457 164.891 34.2487 166.949 33.9883C169.006 33.7279 171.076 33.5456 173.16 33.4414V28.5195H166.441L162.261 28.832L161.402 28.3633C161.193 28.1029 161.115 27.7643 161.167 27.3477C161.324 26.9831 161.584 26.7227 161.949 26.5664L166.441 26.2539H173.16C173.264 25.5508 173.329 24.8477 173.355 24.1445C173.381 23.4414 173.576 22.8294 173.941 22.3086C174.201 22.1003 174.54 22.0221 174.956 22.0742C175.321 22.2305 175.581 22.4909 175.738 22.8555V23.7148C175.634 24.5482 175.529 25.4206 175.425 26.332H179.097L179.878 26.8008C180.087 27.0612 180.165 27.3997 180.113 27.8164C179.956 28.181 179.696 28.4414 179.331 28.5977H175.425V33.2852H180.269C180.79 33.2852 181.206 33.4935 181.519 33.9102C181.727 34.1706 181.805 34.5091 181.753 34.9258C181.597 35.2904 181.337 35.5508 180.972 35.707H180.347L180.035 35.5508H175.503V42.8164L175.113 46.9961C175.79 47.5169 176.493 47.9857 177.222 48.4023C177.951 48.819 178.654 49.2617 179.331 49.7305C179.54 49.9909 179.618 50.3294 179.566 50.7461C179.41 51.1107 179.149 51.3711 178.785 51.5273H178.16C177.535 51.2669 176.936 50.9414 176.363 50.5508C175.79 50.1602 175.191 49.8086 174.566 49.4961C174.253 50.1211 173.785 50.694 173.16 51.2148C172.326 51.7878 171.402 52.1523 170.386 52.3086C169.371 52.4648 168.316 52.5169 167.222 52.4648ZM171.753 49.418C172.274 49.0013 172.561 48.4805 172.613 47.8555C171.363 46.9701 170.074 46.2148 168.746 45.5898C167.417 44.9388 165.92 44.6914 164.253 44.8477C163.368 45.056 162.522 45.4076 161.714 45.9023L161.48 46.7617C161.584 47.2826 161.818 47.7513 162.183 48.168C163.303 48.8451 164.462 49.3789 165.66 49.7695C166.857 50.1602 168.16 50.3034 169.566 50.1992C170.347 50.0951 171.076 49.8346 171.753 49.418ZM212.691 53.8711C212.326 53.7148 212.066 53.4544 211.91 53.0898L211.831 52.543C212.665 49.6263 213.785 46.7617 215.191 43.9492C216.597 41.1107 217.326 38.1289 217.378 35.0039C217.274 34.0143 216.884 33.1549 216.206 32.4258C215.581 31.957 214.852 31.6836 214.019 31.6055C213.186 31.5273 212.352 31.5143 211.519 31.5664C209.384 31.8268 207.352 32.4258 205.425 33.3633C203.498 34.3008 201.558 35.1862 199.605 36.0195C199.24 35.8633 198.98 35.6029 198.824 35.2383V34.6133L199.449 33.832C201.714 32.4258 204.071 31.293 206.519 30.4336C208.967 29.5742 211.519 29.1966 214.175 29.3008C214.956 29.3529 215.699 29.5482 216.402 29.8867C217.105 30.2253 217.743 30.707 218.316 31.332C218.941 32.1654 219.331 33.0898 219.488 34.1055C219.644 35.1211 219.696 36.2018 219.644 37.3477C219.175 40.1602 218.29 42.9076 216.988 45.5898C215.686 48.2461 214.592 50.9284 213.706 53.6367C213.446 53.8451 213.107 53.9232 212.691 53.8711ZM213.941 25.082C212.535 24.3268 211.063 23.793 209.527 23.4805C207.99 23.168 206.545 22.6471 205.191 21.918C204.982 21.6576 204.904 21.319 204.956 20.9023C205.113 20.5378 205.373 20.2773 205.738 20.1211H206.519C207.925 20.7461 209.384 21.2148 210.894 21.5273C212.404 21.8398 213.811 22.4128 215.113 23.2461C215.321 23.5065 215.399 23.8451 215.347 24.2617C215.191 24.6263 214.93 24.8997 214.566 25.082H213.941Z" fill="#0A0909"/>
<defs>
<filter id="filter0_f_517_72333" x="-7.15256e-06" y="-0.000190258" width="329.506" height="91.9716" filterUnits="userSpaceOnUse" color-interpolation-filters="sRGB">
<feFlood flood-opacity="0" result="BackgroundImageFix"/>
<feBlend mode="normal" in="SourceGraphic" in2="BackgroundImageFix" result="shape"/>
<feGaussianBlur stdDeviation="1.82285" result="effect1_foregroundBlur_517_72333"/>
</filter>
<filter id="filter1_n_517_72333" x="5.07921" y="2.29395" width="329.222" height="67.8203" filterUnits="userSpaceOnUse" color-interpolation-filters="sRGB">
<feFlood flood-opacity="0" result="BackgroundImageFix"/>
<feBlend mode="normal" in="SourceGraphic" in2="BackgroundImageFix" result="shape"/>
<feTurbulence type="fractalNoise" baseFrequency="0.093830667436122894 0.093830667436122894" stitchTiles="stitch" numOctaves="3" result="noise" seed="6740" />
<feComponentTransfer in="noise" result="coloredNoise1">
<feFuncR type="linear" slope="2" intercept="-0.5" />
<feFuncG type="linear" slope="2" intercept="-0.5" />
<feFuncB type="linear" slope="2" intercept="-0.5" />
<feFuncA type="discrete" tableValues="0 0 0 0 0 0 0 0 1 1 1 1 1 1 1 1 1 1 1 1 1 1 1 1 1 1 1 1 1 1 1 1 1 1 1 1 1 1 1 1 1 0 0 0 0 0 0 0 0 0 0 0 0 0 0 0 0 0 0 0 0 0 0 0 0 0 0 0 0 0 0 0 0 0 0 0 0 0 0 0 0 0 0 0 0 0 0 0 0 0 0 0 0 0 0 0 0 0 0 0 "/>
</feComponentTransfer>
<feComposite operator="in" in2="shape" in="coloredNoise1" result="noise1Clipped" />
<feComponentTransfer in="noise1Clipped" result="color1">
<feFuncA type="table" tableValues="0 0.05" />
</feComponentTransfer>
<feMerge result="effect1_noise_517_72333">
<feMergeNode in="shape" />
<feMergeNode in="color1" />
</feMerge>
</filter>
</defs>
</svg>
