<svg width="320" height="104" viewBox="0 0 320 104" fill="none" xmlns="http://www.w3.org/2000/svg">
<rect x="6.10352e-05" y="74.1472" width="318.599" height="29" transform="rotate(-2 6.10352e-05 74.1472)" fill="#F8F280"/>
<mask id="path-2-outside-1_163_34294" maskUnits="userSpaceOnUse" x="24.7246" y="8" width="265" height="83" fill="black">
<rect fill="white" x="24.7246" y="8" width="265" height="83"/>
<path d="M77.6934 88.8125C76.8184 88.4375 76.1934 87.8125 75.8184 86.9375V85.25L76.0059 78.6875C75.7559 76.5625 75.4746 74.5 75.1621 72.5C74.8496 70.5 74.4434 68.4688 73.9434 66.4062H73.5684C72.6934 68.3438 71.4434 70.1562 69.8184 71.8438C68.1934 73.5312 66.4434 74.8125 64.5684 75.6875L60.4434 76.25C57.3184 76.125 54.6934 74.8125 52.5684 72.3125C51.0684 70.0625 50.4434 67.4688 50.6934 64.5312C50.8184 61.6562 51.5059 59.0312 52.7559 56.6562C54.0059 54.2812 55.7559 52.0938 58.0059 50.0938C59.2559 48.8438 60.5996 47.9062 62.0371 47.2812C63.4746 46.6562 65.1309 46.4062 67.0059 46.5312C68.8809 46.7812 70.5684 47.6562 72.0684 49.1562L72.6309 34.7188H70.7559C63.1309 35.4688 56.0996 36.125 49.6621 36.6875C43.2246 37.25 36.2871 38.4062 28.8496 40.1562L26.7871 39.0312C26.2871 38.4062 26.0996 37.5938 26.2246 36.5938C26.5996 35.7188 27.2871 35.0312 28.2871 34.5312C36.2246 33.0312 43.6309 31.9375 50.5059 31.25C57.3809 30.5625 64.8184 29.9062 72.8184 29.2812L73.3809 13.4375L73.1934 11.75C73.5684 10.875 74.1934 10.25 75.0684 9.875H76.9434C77.8184 10.25 78.4434 10.875 78.8184 11.75V18.875L78.2559 28.7188H78.8184L94.8496 27.5938C95.7246 27.9688 96.3496 28.5937 96.7246 29.4688V30.9688C96.3496 31.8438 95.7246 32.4688 94.8496 32.8438L78.0684 34.1562C77.9434 37.9062 77.7871 41.6562 77.5996 45.4062C77.4121 49.1562 77.0684 52.8438 76.5684 56.4688C78.1934 61.0938 79.4434 65.7812 80.3184 70.5312C81.1934 75.2188 81.5684 80.0625 81.4434 85.0625C81.3184 86.3125 80.8809 87.375 80.1309 88.25C79.5059 88.75 78.6934 88.9375 77.6934 88.8125ZM63.6309 69.875C66.2559 67.9375 68.1309 65.5938 69.2559 62.8438L70.7559 56.4688C69.6309 54.7188 68.1934 53.2188 66.4434 51.9688H64.9434C63.4434 52.5938 62.0684 53.5625 60.8184 54.875C59.5684 56.1875 58.5684 57.5312 57.8184 58.9062C56.5684 61.1562 56.0059 63.7188 56.1309 66.5938L57.4434 69.5C58.6934 70.375 60.0684 70.8125 61.5684 70.8125L63.6309 69.875ZM165.443 89.1875C163.943 89.0625 162.631 88.4375 161.506 87.3125C160.881 85.0625 159.631 83.0938 157.756 81.4062C155.881 79.7188 154.131 78 152.506 76.25C150.506 74.125 148.35 72.4688 146.037 71.2812C143.725 70.0938 141.318 69.0312 138.818 68.0938C138.193 67.3438 137.943 66.4062 138.068 65.2812C138.443 64.4062 139.068 63.7812 139.943 63.4062H142.193C144.443 64.5312 146.912 65.25 149.6 65.5625C152.287 65.875 155.006 65.9688 157.756 65.8438C159.506 65.7188 161.225 65.4375 162.912 65C164.6 64.5625 166.193 63.8438 167.693 62.8438C168.693 60.8438 169.006 58.5312 168.631 55.9062L166.193 45.9688H165.068C159.693 46.9688 154.256 47.875 148.756 48.6875C143.256 49.5 137.725 50.2188 132.162 50.8438L130.1 49.7188C129.6 49.0938 129.412 48.2812 129.537 47.2812C129.912 46.4062 130.537 45.7812 131.412 45.4062C136.975 44.9062 142.506 44.25 148.006 43.4375C153.506 42.625 158.943 41.7188 164.318 40.7188V40.3438L160.568 29.4688H159.818C155.568 30.0937 151.381 30.75 147.256 31.4375C143.131 32.125 138.912 32.7188 134.6 33.2188L132.537 32.0938C132.037 31.4688 131.85 30.6562 131.975 29.6562C132.35 28.7812 132.975 28.1562 133.85 27.7812C138.037 27.4062 142.131 26.875 146.131 26.1875C150.131 25.5 154.193 24.9063 158.318 24.4062V24.0312C157.568 22.0312 156.787 20.0625 155.975 18.125C155.162 16.125 154.568 14.0625 154.193 11.9375L155.131 9.875C155.881 9.25 156.818 9 157.943 9.125C158.818 9.5 159.443 10.125 159.818 11C160.193 13.25 160.818 15.375 161.693 17.375C162.568 19.375 163.381 21.4062 164.131 23.4688L165.068 23.6562C167.943 23.2812 170.881 22.9375 173.881 22.625C176.881 22.3125 179.943 22.1562 183.068 22.1562C184.006 22.5312 184.662 23.1562 185.037 24.0312V25.5312C184.662 26.4063 184.006 27.0312 183.068 27.4062C180.193 27.5313 177.381 27.7188 174.631 27.9688C171.881 28.2187 169.131 28.5312 166.381 28.9062V29.8438L169.756 39.5938H170.693C172.568 39.0938 174.506 38.625 176.506 38.1875C178.506 37.75 180.506 37.4062 182.506 37.1562C183.443 37.5312 184.1 38.1562 184.475 39.0312V40.5312C184.1 41.5312 183.381 42.2188 182.318 42.5938L171.631 44.8438V45.7812C172.381 48.2812 173.037 50.8125 173.6 53.375C174.162 55.9375 174.318 58.6562 174.068 61.5312C173.693 64.1562 172.381 66.3438 170.131 68.0938C168.006 69.2812 165.693 70.125 163.193 70.625C160.693 71.125 158.131 71.375 155.506 71.375V71.75C157.881 73.875 160.131 76.0938 162.256 78.4062C164.381 80.7188 166.381 83.0625 168.256 85.4375V87.125C167.881 88 167.256 88.625 166.381 89L165.443 89.1875ZM256.756 88.25C255.006 88 253.506 87.0625 252.256 85.4375C250.631 83.0625 249.881 80.25 250.006 77C250.381 75.125 251.131 73.3438 252.256 71.6562C253.381 69.9688 254.756 68.4375 256.381 67.0625C257.881 65.75 259.537 64.75 261.35 64.0625C263.162 63.375 265.131 63.0938 267.256 63.2188C269.631 63.4688 271.568 64.6562 273.068 66.7812L274.381 69.6875L274.943 69.875C276.943 66.9375 278.818 63.9062 280.568 60.7812C282.318 57.6562 283.068 54.1562 282.818 50.2812L281.506 47.6562C280.131 46.4062 278.506 45.7188 276.631 45.5938C274.756 45.4688 272.818 45.4688 270.818 45.5938C263.318 46.9688 256.381 49.8438 250.006 54.2188C243.631 58.5938 237.787 63.625 232.475 69.3125L230.225 71.375H228.725C227.85 71 227.225 70.375 226.85 69.5V68C231.725 59.6875 236.975 51.5938 242.6 43.7188C248.287 35.8438 252.443 27.3125 255.068 18.125H252.068C248.443 19.4375 245.006 21.0625 241.756 23C238.506 24.9375 235.1 26.5938 231.537 27.9688C230.662 27.5938 230.037 26.9688 229.662 26.0938V24.2188C231.912 22.2187 234.35 20.5625 236.975 19.25C239.662 17.875 242.256 16.4375 244.756 14.9375C246.506 14.0625 248.35 13.4062 250.287 12.9688C252.225 12.5313 254.318 12.4375 256.568 12.6875C258.318 13.5625 259.568 14.875 260.318 16.625L260.506 21.2188C259.131 26.8438 256.756 32.0938 253.381 36.9688C250.006 41.8438 246.881 46.7188 244.006 51.5938H244.193C248.943 47.9688 254.1 45.0938 259.662 42.9688C265.225 40.8438 271.068 39.9062 277.193 40.1562C280.443 40.4062 283.287 41.7188 285.725 44.0938C287.1 45.5938 287.912 47.2812 288.162 49.1562C288.412 51.0312 288.475 53.0312 288.35 55.1562C287.225 60.1562 285.162 64.8125 282.162 69.125C279.225 73.375 275.818 77.3125 271.943 80.9375C269.693 82.9375 267.381 84.6875 265.006 86.1875C262.631 87.6875 259.881 88.375 256.756 88.25ZM262.943 81.125C264.318 80.25 265.662 79.25 266.975 78.125C268.287 77 269.443 75.75 270.443 74.375C269.943 72.5 269.006 70.75 267.631 69.125C266.756 68.75 265.818 68.625 264.818 68.75C262.068 69.5 259.693 71.0625 257.693 73.4375C256.568 74.9375 255.818 76.625 255.443 78.5C255.443 80 255.943 81.3125 256.943 82.4375C257.568 82.8125 258.318 82.9375 259.193 82.8125L262.943 81.125Z"/>
</mask>
<path d="M77.6934 88.8125C76.8184 88.4375 76.1934 87.8125 75.8184 86.9375V85.25L76.0059 78.6875C75.7559 76.5625 75.4746 74.5 75.1621 72.5C74.8496 70.5 74.4434 68.4688 73.9434 66.4062H73.5684C72.6934 68.3438 71.4434 70.1562 69.8184 71.8438C68.1934 73.5312 66.4434 74.8125 64.5684 75.6875L60.4434 76.25C57.3184 76.125 54.6934 74.8125 52.5684 72.3125C51.0684 70.0625 50.4434 67.4688 50.6934 64.5312C50.8184 61.6562 51.5059 59.0312 52.7559 56.6562C54.0059 54.2812 55.7559 52.0938 58.0059 50.0938C59.2559 48.8438 60.5996 47.9062 62.0371 47.2812C63.4746 46.6562 65.1309 46.4062 67.0059 46.5312C68.8809 46.7812 70.5684 47.6562 72.0684 49.1562L72.6309 34.7188H70.7559C63.1309 35.4688 56.0996 36.125 49.6621 36.6875C43.2246 37.25 36.2871 38.4062 28.8496 40.1562L26.7871 39.0312C26.2871 38.4062 26.0996 37.5938 26.2246 36.5938C26.5996 35.7188 27.2871 35.0312 28.2871 34.5312C36.2246 33.0312 43.6309 31.9375 50.5059 31.25C57.3809 30.5625 64.8184 29.9062 72.8184 29.2812L73.3809 13.4375L73.1934 11.75C73.5684 10.875 74.1934 10.25 75.0684 9.875H76.9434C77.8184 10.25 78.4434 10.875 78.8184 11.75V18.875L78.2559 28.7188H78.8184L94.8496 27.5938C95.7246 27.9688 96.3496 28.5937 96.7246 29.4688V30.9688C96.3496 31.8438 95.7246 32.4688 94.8496 32.8438L78.0684 34.1562C77.9434 37.9062 77.7871 41.6562 77.5996 45.4062C77.4121 49.1562 77.0684 52.8438 76.5684 56.4688C78.1934 61.0938 79.4434 65.7812 80.3184 70.5312C81.1934 75.2188 81.5684 80.0625 81.4434 85.0625C81.3184 86.3125 80.8809 87.375 80.1309 88.25C79.5059 88.75 78.6934 88.9375 77.6934 88.8125ZM63.6309 69.875C66.2559 67.9375 68.1309 65.5938 69.2559 62.8438L70.7559 56.4688C69.6309 54.7188 68.1934 53.2188 66.4434 51.9688H64.9434C63.4434 52.5938 62.0684 53.5625 60.8184 54.875C59.5684 56.1875 58.5684 57.5312 57.8184 58.9062C56.5684 61.1562 56.0059 63.7188 56.1309 66.5938L57.4434 69.5C58.6934 70.375 60.0684 70.8125 61.5684 70.8125L63.6309 69.875ZM165.443 89.1875C163.943 89.0625 162.631 88.4375 161.506 87.3125C160.881 85.0625 159.631 83.0938 157.756 81.4062C155.881 79.7188 154.131 78 152.506 76.25C150.506 74.125 148.35 72.4688 146.037 71.2812C143.725 70.0938 141.318 69.0312 138.818 68.0938C138.193 67.3438 137.943 66.4062 138.068 65.2812C138.443 64.4062 139.068 63.7812 139.943 63.4062H142.193C144.443 64.5312 146.912 65.25 149.6 65.5625C152.287 65.875 155.006 65.9688 157.756 65.8438C159.506 65.7188 161.225 65.4375 162.912 65C164.6 64.5625 166.193 63.8438 167.693 62.8438C168.693 60.8438 169.006 58.5312 168.631 55.9062L166.193 45.9688H165.068C159.693 46.9688 154.256 47.875 148.756 48.6875C143.256 49.5 137.725 50.2188 132.162 50.8438L130.1 49.7188C129.6 49.0938 129.412 48.2812 129.537 47.2812C129.912 46.4062 130.537 45.7812 131.412 45.4062C136.975 44.9062 142.506 44.25 148.006 43.4375C153.506 42.625 158.943 41.7188 164.318 40.7188V40.3438L160.568 29.4688H159.818C155.568 30.0937 151.381 30.75 147.256 31.4375C143.131 32.125 138.912 32.7188 134.6 33.2188L132.537 32.0938C132.037 31.4688 131.85 30.6562 131.975 29.6562C132.35 28.7812 132.975 28.1562 133.85 27.7812C138.037 27.4062 142.131 26.875 146.131 26.1875C150.131 25.5 154.193 24.9063 158.318 24.4062V24.0312C157.568 22.0312 156.787 20.0625 155.975 18.125C155.162 16.125 154.568 14.0625 154.193 11.9375L155.131 9.875C155.881 9.25 156.818 9 157.943 9.125C158.818 9.5 159.443 10.125 159.818 11C160.193 13.25 160.818 15.375 161.693 17.375C162.568 19.375 163.381 21.4062 164.131 23.4688L165.068 23.6562C167.943 23.2812 170.881 22.9375 173.881 22.625C176.881 22.3125 179.943 22.1562 183.068 22.1562C184.006 22.5312 184.662 23.1562 185.037 24.0312V25.5312C184.662 26.4063 184.006 27.0312 183.068 27.4062C180.193 27.5313 177.381 27.7188 174.631 27.9688C171.881 28.2187 169.131 28.5312 166.381 28.9062V29.8438L169.756 39.5938H170.693C172.568 39.0938 174.506 38.625 176.506 38.1875C178.506 37.75 180.506 37.4062 182.506 37.1562C183.443 37.5312 184.1 38.1562 184.475 39.0312V40.5312C184.1 41.5312 183.381 42.2188 182.318 42.5938L171.631 44.8438V45.7812C172.381 48.2812 173.037 50.8125 173.6 53.375C174.162 55.9375 174.318 58.6562 174.068 61.5312C173.693 64.1562 172.381 66.3438 170.131 68.0938C168.006 69.2812 165.693 70.125 163.193 70.625C160.693 71.125 158.131 71.375 155.506 71.375V71.75C157.881 73.875 160.131 76.0938 162.256 78.4062C164.381 80.7188 166.381 83.0625 168.256 85.4375V87.125C167.881 88 167.256 88.625 166.381 89L165.443 89.1875ZM256.756 88.25C255.006 88 253.506 87.0625 252.256 85.4375C250.631 83.0625 249.881 80.25 250.006 77C250.381 75.125 251.131 73.3438 252.256 71.6562C253.381 69.9688 254.756 68.4375 256.381 67.0625C257.881 65.75 259.537 64.75 261.35 64.0625C263.162 63.375 265.131 63.0938 267.256 63.2188C269.631 63.4688 271.568 64.6562 273.068 66.7812L274.381 69.6875L274.943 69.875C276.943 66.9375 278.818 63.9062 280.568 60.7812C282.318 57.6562 283.068 54.1562 282.818 50.2812L281.506 47.6562C280.131 46.4062 278.506 45.7188 276.631 45.5938C274.756 45.4688 272.818 45.4688 270.818 45.5938C263.318 46.9688 256.381 49.8438 250.006 54.2188C243.631 58.5938 237.787 63.625 232.475 69.3125L230.225 71.375H228.725C227.85 71 227.225 70.375 226.85 69.5V68C231.725 59.6875 236.975 51.5938 242.6 43.7188C248.287 35.8438 252.443 27.3125 255.068 18.125H252.068C248.443 19.4375 245.006 21.0625 241.756 23C238.506 24.9375 235.1 26.5938 231.537 27.9688C230.662 27.5938 230.037 26.9688 229.662 26.0938V24.2188C231.912 22.2187 234.35 20.5625 236.975 19.25C239.662 17.875 242.256 16.4375 244.756 14.9375C246.506 14.0625 248.35 13.4062 250.287 12.9688C252.225 12.5313 254.318 12.4375 256.568 12.6875C258.318 13.5625 259.568 14.875 260.318 16.625L260.506 21.2188C259.131 26.8438 256.756 32.0938 253.381 36.9688C250.006 41.8438 246.881 46.7188 244.006 51.5938H244.193C248.943 47.9688 254.1 45.0938 259.662 42.9688C265.225 40.8438 271.068 39.9062 277.193 40.1562C280.443 40.4062 283.287 41.7188 285.725 44.0938C287.1 45.5938 287.912 47.2812 288.162 49.1562C288.412 51.0312 288.475 53.0312 288.35 55.1562C287.225 60.1562 285.162 64.8125 282.162 69.125C279.225 73.375 275.818 77.3125 271.943 80.9375C269.693 82.9375 267.381 84.6875 265.006 86.1875C262.631 87.6875 259.881 88.375 256.756 88.25ZM262.943 81.125C264.318 80.25 265.662 79.25 266.975 78.125C268.287 77 269.443 75.75 270.443 74.375C269.943 72.5 269.006 70.75 267.631 69.125C266.756 68.75 265.818 68.625 264.818 68.75C262.068 69.5 259.693 71.0625 257.693 73.4375C256.568 74.9375 255.818 76.625 255.443 78.5C255.443 80 255.943 81.3125 256.943 82.4375C257.568 82.8125 258.318 82.9375 259.193 82.8125L262.943 81.125Z" fill="#88BDF2"/>
<path d="M77.6934 88.8125L77.2994 89.7316L77.4292 89.7873L77.5693 89.8048L77.6934 88.8125ZM75.8184 86.9375H74.8184V87.1428L74.8992 87.3314L75.8184 86.9375ZM75.8184 85.25L74.8188 85.2214L74.8184 85.2357V85.25H75.8184ZM76.0059 78.6875L77.0055 78.7161L77.0075 78.6431L76.999 78.5707L76.0059 78.6875ZM73.9434 66.4062L74.9152 66.1707L74.7299 65.4062H73.9434V66.4062ZM73.5684 66.4062V65.4062H72.9227L72.657 65.9947L73.5684 66.4062ZM64.5684 75.6875L64.7035 76.6783L64.8538 76.6578L64.9912 76.5937L64.5684 75.6875ZM60.4434 76.25L60.4034 77.2492L60.4913 77.2527L60.5785 77.2408L60.4434 76.25ZM52.5684 72.3125L51.7363 72.8672L51.7687 72.9157L51.8064 72.9602L52.5684 72.3125ZM50.6934 64.5312L51.6898 64.6161L51.6915 64.5954L51.6924 64.5747L50.6934 64.5312ZM58.0059 50.0938L58.6702 50.8412L58.6922 50.8216L58.713 50.8009L58.0059 50.0938ZM67.0059 46.5312L67.138 45.54L67.1053 45.5357L67.0724 45.5335L67.0059 46.5312ZM72.0684 49.1562L71.3613 49.8634L72.9786 51.4807L73.0676 49.1952L72.0684 49.1562ZM72.6309 34.7188L73.6301 34.7577L73.6706 33.7188H72.6309V34.7188ZM70.7559 34.7188V33.7188H70.7068L70.658 33.7236L70.7559 34.7188ZM28.8496 40.1562L28.3708 41.0341L28.7064 41.2172L29.0786 41.1297L28.8496 40.1562ZM26.7871 39.0312L26.0062 39.6559L26.1318 39.8129L26.3083 39.9091L26.7871 39.0312ZM26.2246 36.5938L25.3055 36.1998L25.2498 36.3296L25.2323 36.4697L26.2246 36.5938ZM28.2871 34.5312L28.1014 33.5486L27.9645 33.5745L27.8399 33.6368L28.2871 34.5312ZM72.8184 29.2812L72.8962 30.2782L73.7861 30.2087L73.8177 29.3167L72.8184 29.2812ZM73.3809 13.4375L74.3802 13.473L74.3828 13.3998L74.3747 13.3271L73.3809 13.4375ZM73.1934 11.75L72.2742 11.3561L72.1704 11.5984L72.1995 11.8604L73.1934 11.75ZM75.0684 9.875V8.875H74.8631L74.6744 8.95586L75.0684 9.875ZM76.9434 9.875L77.3373 8.95586L77.1486 8.875H76.9434V9.875ZM78.8184 11.75H79.8184V11.5447L79.7375 11.3561L78.8184 11.75ZM78.8184 18.875L79.8167 18.9321L79.8184 18.9035V18.875H78.8184ZM78.2559 28.7188L77.2575 28.6617L77.1971 29.7188H78.2559V28.7188ZM78.8184 28.7188V29.7188H78.8534L78.8884 29.7163L78.8184 28.7188ZM94.8496 27.5938L95.2435 26.6746L95.0211 26.5793L94.7796 26.5962L94.8496 27.5938ZM96.7246 29.4688H97.7246V29.2635L97.6438 29.0748L96.7246 29.4688ZM96.7246 30.9688L97.6438 31.3627L97.7246 31.174V30.9688H96.7246ZM94.8496 32.8438L94.9276 33.8407L95.092 33.8278L95.2435 33.7629L94.8496 32.8438ZM78.0684 34.1562L77.9904 33.1593L77.0987 33.229L77.0689 34.1229L78.0684 34.1562ZM76.5684 56.4688L75.5777 56.3321L75.5447 56.5719L75.6249 56.8002L76.5684 56.4688ZM80.3184 70.5312L79.3349 70.7124L79.3353 70.7147L80.3184 70.5312ZM81.4434 85.0625L82.4384 85.162L82.4421 85.1248L82.443 85.0875L81.4434 85.0625ZM80.1309 88.25L80.7556 89.0309L80.8289 88.9722L80.8901 88.9008L80.1309 88.25ZM63.6309 69.875L64.0447 70.7854L64.1402 70.7419L64.2247 70.6796L63.6309 69.875ZM69.2559 62.8438L70.1814 63.2224L70.2112 63.1495L70.2293 63.0728L69.2559 62.8438ZM70.7559 56.4688L71.7293 56.6978L71.8264 56.2848L71.597 55.928L70.7559 56.4688ZM66.4434 51.9688L67.0246 51.155L66.7638 50.9688H66.4434V51.9688ZM64.9434 51.9688V50.9688H64.7434L64.5587 51.0457L64.9434 51.9688ZM57.8184 58.9062L58.6925 59.3919L58.6963 59.3851L57.8184 58.9062ZM56.1309 66.5938L55.1318 66.6372L55.1402 66.8297L55.2195 67.0053L56.1309 66.5938ZM57.4434 69.5L56.532 69.9116L56.645 70.1618L56.8699 70.3192L57.4434 69.5ZM61.5684 70.8125V71.8125H61.785L61.9822 71.7229L61.5684 70.8125ZM77.6934 88.8125L78.0873 87.8934C77.4483 87.6195 77.0114 87.1826 76.7375 86.5436L75.8184 86.9375L74.8992 87.3314C75.3754 88.4424 76.1884 89.2555 77.2994 89.7316L77.6934 88.8125ZM75.8184 86.9375H76.8184V85.25H75.8184H74.8184V86.9375H75.8184ZM75.8184 85.25L76.818 85.2786L77.0055 78.7161L76.0059 78.6875L75.0063 78.6589L74.8188 85.2214L75.8184 85.25ZM76.0059 78.6875L76.999 78.5707C76.7476 76.4338 76.4647 74.3588 76.1501 72.3456L75.1621 72.5L74.1741 72.6544C74.4845 74.6412 74.7641 76.6912 75.0127 78.8043L76.0059 78.6875ZM75.1621 72.5L76.1501 72.3456C75.8332 70.3171 75.4214 68.2587 74.9152 66.1707L73.9434 66.4062L72.9715 66.6418C73.4653 68.6788 73.8661 70.6829 74.1741 72.6544L75.1621 72.5ZM73.9434 66.4062V65.4062H73.5684V66.4062V67.4062H73.9434V66.4062ZM73.5684 66.4062L72.657 65.9947C71.8336 67.8178 70.6518 69.5366 69.098 71.1501L69.8184 71.8438L70.5387 72.5374C72.235 70.7759 73.5531 68.8697 74.4797 66.8178L73.5684 66.4062ZM69.8184 71.8438L69.098 71.1501C67.5471 72.7607 65.8954 73.9647 64.1455 74.7813L64.5684 75.6875L64.9912 76.5937C66.9913 75.6603 68.8396 74.3018 70.5387 72.5374L69.8184 71.8438ZM64.5684 75.6875L64.4332 74.6967L60.3082 75.2592L60.4434 76.25L60.5785 77.2408L64.7035 76.6783L64.5684 75.6875ZM60.4434 76.25L60.4833 75.2508C57.6526 75.1376 55.2844 73.9637 53.3303 71.6648L52.5684 72.3125L51.8064 72.9602C54.1024 75.6613 56.9841 77.1124 60.4034 77.2492L60.4434 76.25ZM52.5684 72.3125L53.4004 71.7578C52.0376 69.7136 51.4571 67.3496 51.6898 64.6161L50.6934 64.5312L49.697 64.4464C49.4296 67.5879 50.0991 70.4114 51.7363 72.8672L52.5684 72.3125ZM50.6934 64.5312L51.6924 64.5747C51.8115 61.8363 52.4644 59.3571 53.6408 57.122L52.7559 56.6562L51.8709 56.1905C50.5473 58.7054 49.8252 61.4762 49.6943 64.4878L50.6934 64.5312ZM52.7559 56.6562L53.6408 57.122C54.8284 54.8655 56.4992 52.7709 58.6702 50.8412L58.0059 50.0938L57.3415 49.3463C55.0125 51.4166 53.1833 53.697 51.8709 56.1905L52.7559 56.6562ZM58.0059 50.0938L58.713 50.8009C59.8855 49.6283 61.1272 48.7673 62.4358 48.1983L62.0371 47.2812L61.6384 46.3642C60.0721 47.0452 58.6262 48.0592 57.2988 49.3866L58.0059 50.0938ZM62.0371 47.2812L62.4358 48.1983C63.7005 47.6485 65.1922 47.4126 66.9393 47.529L67.0059 46.5312L67.0724 45.5335C65.0695 45.3999 63.2487 45.664 61.6384 46.3642L62.0371 47.2812ZM67.0059 46.5312L66.8737 47.5225C68.5048 47.74 69.9967 48.4988 71.3613 49.8634L72.0684 49.1562L72.7755 48.4491C71.14 46.8137 69.2569 45.8225 67.138 45.54L67.0059 46.5312ZM72.0684 49.1562L73.0676 49.1952L73.6301 34.7577L72.6309 34.7188L71.6316 34.6798L71.0691 49.1173L72.0684 49.1562ZM72.6309 34.7188V33.7188H70.7559V34.7188V35.7188H72.6309V34.7188ZM70.7559 34.7188L70.658 33.7236C63.0359 34.4733 56.0084 35.1292 49.5751 35.6913L49.6621 36.6875L49.7492 37.6837C56.1909 37.1208 63.2258 36.4642 70.8537 35.7139L70.7559 34.7188ZM49.6621 36.6875L49.5751 35.6913C43.0821 36.2586 36.0966 37.4238 28.6206 39.1828L28.8496 40.1562L29.0786 41.1297C36.4776 39.3887 43.3672 38.2414 49.7492 37.6837L49.6621 36.6875ZM28.8496 40.1562L29.3285 39.2784L27.266 38.1534L26.7871 39.0312L26.3083 39.9091L28.3708 41.0341L28.8496 40.1562ZM26.7871 39.0312L27.568 38.4066C27.2779 38.0439 27.1162 37.5234 27.2169 36.7178L26.2246 36.5938L25.2323 36.4697C25.083 37.6641 25.2964 38.7686 26.0062 39.6559L26.7871 39.0312ZM26.2246 36.5938L27.1438 36.9877C27.4098 36.3669 27.9071 35.8393 28.7343 35.4257L28.2871 34.5312L27.8399 33.6368C26.6671 34.2232 25.7894 35.0706 25.3055 36.1998L26.2246 36.5938ZM28.2871 34.5312L28.4728 35.5139C36.3864 34.0184 43.7636 32.9292 50.6054 32.245L50.5059 31.25L50.4064 30.255C43.4981 30.9458 36.0628 32.0441 28.1014 33.5486L28.2871 34.5312ZM50.5059 31.25L50.6054 32.245C57.4721 31.5584 64.9023 30.9027 72.8962 30.2782L72.8184 29.2812L72.7405 28.2843C64.7344 28.9098 57.2896 29.5666 50.4064 30.255L50.5059 31.25ZM72.8184 29.2812L73.8177 29.3167L74.3802 13.473L73.3809 13.4375L72.3815 13.402L71.819 29.2458L72.8184 29.2812ZM73.3809 13.4375L74.3747 13.3271L74.1872 11.6396L73.1934 11.75L72.1995 11.8604L72.387 13.5479L73.3809 13.4375ZM73.1934 11.75L74.1125 12.1439C74.3864 11.5049 74.8233 11.068 75.4623 10.7941L75.0684 9.875L74.6744 8.95586C73.5634 9.43201 72.7504 10.2451 72.2742 11.3561L73.1934 11.75ZM75.0684 9.875V10.875H76.9434V9.875V8.875H75.0684V9.875ZM76.9434 9.875L76.5494 10.7941C77.1884 11.068 77.6254 11.5049 77.8992 12.1439L78.8184 11.75L79.7375 11.3561C79.2614 10.2451 78.4483 9.43201 77.3373 8.95586L76.9434 9.875ZM78.8184 11.75H77.8184V18.875H78.8184H79.8184V11.75H78.8184ZM78.8184 18.875L77.82 18.8179L77.2575 28.6617L78.2559 28.7188L79.2542 28.7758L79.8167 18.9321L78.8184 18.875ZM78.2559 28.7188V29.7188H78.8184V28.7188V27.7188H78.2559V28.7188ZM78.8184 28.7188L78.8884 29.7163L94.9196 28.5913L94.8496 27.5938L94.7796 26.5962L78.7484 27.7212L78.8184 28.7188ZM94.8496 27.5938L94.4557 28.5129C95.0947 28.7867 95.5316 29.2237 95.8055 29.8627L96.7246 29.4688L97.6438 29.0748C97.1676 27.9638 96.3545 27.1508 95.2435 26.6746L94.8496 27.5938ZM96.7246 29.4688H95.7246V30.9688H96.7246H97.7246V29.4688H96.7246ZM96.7246 30.9688L95.8055 30.5748C95.5316 31.2138 95.0947 31.6508 94.4557 31.9246L94.8496 32.8438L95.2435 33.7629C96.3545 33.2867 97.1676 32.4737 97.6438 31.3627L96.7246 30.9688ZM94.8496 32.8438L94.7716 31.8468L77.9904 33.1593L78.0684 34.1562L78.1463 35.1532L94.9276 33.8407L94.8496 32.8438ZM78.0684 34.1562L77.0689 34.1229C76.9441 37.8674 76.7881 41.6118 76.6009 45.3563L77.5996 45.4062L78.5984 45.4562C78.7861 41.7007 78.9426 37.9451 79.0678 34.1896L78.0684 34.1562ZM77.5996 45.4062L76.6009 45.3563C76.4148 49.0781 76.0737 52.7366 75.5777 56.3321L76.5684 56.4688L77.559 56.6054C78.063 52.9509 78.4095 49.2344 78.5984 45.4562L77.5996 45.4062ZM76.5684 56.4688L75.6249 56.8002C77.2329 61.377 78.4695 66.0142 79.3349 70.7124L80.3184 70.5312L81.3018 70.3501C80.4173 65.5483 79.1538 60.8105 77.5118 56.1373L76.5684 56.4688ZM80.3184 70.5312L79.3353 70.7147C80.1969 75.3303 80.567 80.104 80.4437 85.0375L81.4434 85.0625L82.443 85.0875C82.5697 80.021 82.1898 75.1072 81.3014 70.3478L80.3184 70.5312ZM81.4434 85.0625L80.4483 84.963C80.3418 86.0287 79.9764 86.8936 79.3716 87.5992L80.1309 88.25L80.8901 88.9008C81.7853 87.8564 82.295 86.5963 82.4384 85.162L81.4434 85.0625ZM80.1309 88.25L79.5062 87.4691C79.1435 87.7593 78.623 87.9209 77.8174 87.8202L77.6934 88.8125L77.5693 89.8048C78.7638 89.9541 79.8682 89.7407 80.7556 89.0309L80.1309 88.25ZM63.6309 69.875L64.2247 70.6796C66.9823 68.6442 68.9803 66.1585 70.1814 63.2224L69.2559 62.8438L68.3303 62.4651C67.2814 65.029 65.5294 67.2308 63.037 69.0704L63.6309 69.875ZM69.2559 62.8438L70.2293 63.0728L71.7293 56.6978L70.7559 56.4688L69.7824 56.2397L68.2824 62.6147L69.2559 62.8438ZM70.7559 56.4688L71.597 55.928C70.4012 54.0677 68.8742 52.4762 67.0246 51.155L66.4434 51.9688L65.8621 52.7825C67.5125 53.9613 68.8606 55.3698 69.9147 57.0095L70.7559 56.4688ZM66.4434 51.9688V50.9688H64.9434V51.9688V52.9688H66.4434V51.9688ZM64.9434 51.9688L64.5587 51.0457C62.9165 51.7299 61.4289 52.784 60.0942 54.1853L60.8184 54.875L61.5425 55.5647C62.7078 54.341 63.9702 53.4576 65.328 52.8918L64.9434 51.9688ZM60.8184 54.875L60.0942 54.1853C58.7932 55.5514 57.7382 56.9648 56.9405 58.4274L57.8184 58.9062L58.6963 59.3851C59.3985 58.0977 60.3435 56.8236 61.5425 55.5647L60.8184 54.875ZM57.8184 58.9062L56.9442 58.4206C55.5942 60.8506 54.9998 63.6001 55.1318 66.6372L56.1309 66.5938L57.1299 66.5503C57.012 63.8374 57.5425 61.4619 58.6925 59.3919L57.8184 58.9062ZM56.1309 66.5938L55.2195 67.0053L56.532 69.9116L57.4434 69.5L58.3547 69.0884L57.0422 66.1822L56.1309 66.5938ZM57.4434 69.5L56.8699 70.3192C58.2849 71.3097 59.8594 71.8125 61.5684 71.8125V70.8125V69.8125C60.2773 69.8125 59.1018 69.4403 58.0168 68.6808L57.4434 69.5ZM61.5684 70.8125L61.9822 71.7229L64.0447 70.7854L63.6309 69.875L63.2171 68.9646L61.1546 69.9021L61.5684 70.8125ZM165.443 89.1875L165.36 90.184L165.501 90.1958L165.639 90.1681L165.443 89.1875ZM161.506 87.3125L160.542 87.5801L160.613 87.8336L160.799 88.0196L161.506 87.3125ZM152.506 76.25L153.239 75.5695L153.234 75.5646L152.506 76.25ZM138.818 68.0938L138.05 68.7339L138.22 68.9372L138.467 69.0301L138.818 68.0938ZM138.068 65.2812L137.149 64.8873L137.091 65.0235L137.074 65.1708L138.068 65.2812ZM139.943 63.4062V62.4062H139.738L139.549 62.4871L139.943 63.4062ZM142.193 63.4062L142.641 62.5118L142.429 62.4062H142.193V63.4062ZM157.756 65.8438L157.801 66.8427L157.814 66.8421L157.827 66.8412L157.756 65.8438ZM167.693 62.8438L168.248 63.6758L168.469 63.5285L168.588 63.291L167.693 62.8438ZM168.631 55.9062L169.621 55.7648L169.614 55.716L169.602 55.668L168.631 55.9062ZM166.193 45.9688L167.165 45.7305L166.978 44.9688H166.193V45.9688ZM165.068 45.9688V44.9688H164.976L164.885 44.9856L165.068 45.9688ZM132.162 50.8438L131.683 51.7216L131.96 51.8727L132.274 51.8375L132.162 50.8438ZM130.1 49.7188L129.319 50.3434L129.444 50.5004L129.621 50.5966L130.1 49.7188ZM129.537 47.2812L128.618 46.8873L128.562 47.0171L128.545 47.1572L129.537 47.2812ZM131.412 45.4062L131.323 44.4103L131.164 44.4245L131.018 44.4871L131.412 45.4062ZM164.318 40.7188L164.501 41.7019L165.318 41.5499V40.7188H164.318ZM164.318 40.3438H165.318V40.1762L165.264 40.0178L164.318 40.3438ZM160.568 29.4688L161.514 29.1428L161.281 28.4688H160.568V29.4688ZM159.818 29.4688V28.4688H159.745L159.673 28.4794L159.818 29.4688ZM134.6 33.2188L134.121 34.0966L134.399 34.2487L134.715 34.2121L134.6 33.2188ZM132.537 32.0938L131.756 32.7184L131.882 32.8754L132.058 32.9716L132.537 32.0938ZM131.975 29.6562L131.055 29.2623L131 29.3921L130.982 29.5322L131.975 29.6562ZM133.85 27.7812L133.76 26.7852L133.602 26.7994L133.456 26.8621L133.85 27.7812ZM158.318 24.4062L158.439 25.399L159.318 25.2924V24.4062H158.318ZM158.318 24.0312H159.318V23.8499L159.255 23.6801L158.318 24.0312ZM155.975 18.125L155.048 18.5014L155.052 18.5117L155.975 18.125ZM154.193 11.9375L153.283 11.5237L153.155 11.806L153.209 12.1113L154.193 11.9375ZM155.131 9.875L154.491 9.10678L154.315 9.25311L154.22 9.4612L155.131 9.875ZM157.943 9.125L158.337 8.20586L158.201 8.14748L158.054 8.13112L157.943 9.125ZM159.818 11L160.805 10.8356L160.785 10.7168L160.738 10.6061L159.818 11ZM164.131 23.4688L163.191 23.8105L163.383 24.339L163.935 24.4493L164.131 23.4688ZM165.068 23.6562L164.872 24.6368L165.034 24.6692L165.198 24.6479L165.068 23.6562ZM183.068 22.1562L183.44 21.2278L183.261 21.1562H183.068V22.1562ZM185.037 24.0312H186.037V23.826L185.956 23.6373L185.037 24.0312ZM185.037 25.5312L185.956 25.9252L186.037 25.7365V25.5312H185.037ZM183.068 27.4062L183.112 28.4053L183.282 28.3979L183.44 28.3347L183.068 27.4062ZM166.381 28.9062L166.246 27.9154L165.381 28.0334V28.9062H166.381ZM166.381 29.8438H165.381V30.0119L165.436 30.1709L166.381 29.8438ZM169.756 39.5938L168.811 39.9209L169.044 40.5938H169.756V39.5938ZM170.693 39.5938V40.5938H170.824L170.951 40.56L170.693 39.5938ZM182.506 37.1562L182.877 36.2278L182.638 36.132L182.382 36.164L182.506 37.1562ZM184.475 39.0312H185.475V38.826L185.394 38.6373L184.475 39.0312ZM184.475 40.5312L185.411 40.8824L185.475 40.7126V40.5312H184.475ZM182.318 42.5938L182.524 43.5723L182.589 43.5587L182.651 43.5367L182.318 42.5938ZM171.631 44.8438L171.425 43.8652L170.631 44.0324V44.8438H171.631ZM171.631 45.7812H170.631V45.928L170.673 46.0686L171.631 45.7812ZM174.068 61.5312L175.058 61.6727L175.062 61.6454L175.065 61.6179L174.068 61.5312ZM170.131 68.0938L170.619 68.9667L170.685 68.9297L170.745 68.8831L170.131 68.0938ZM155.506 71.375V70.375H154.506V71.375H155.506ZM155.506 71.75H154.506V72.1971L154.839 72.4952L155.506 71.75ZM168.256 85.4375H169.256V85.0903L169.041 84.8179L168.256 85.4375ZM168.256 87.125L169.175 87.5189L169.256 87.3303V87.125H168.256ZM166.381 89L166.577 89.9806L166.679 89.9602L166.775 89.9191L166.381 89ZM165.443 89.1875L165.526 88.191C164.276 88.0868 163.181 87.5735 162.213 86.6054L161.506 87.3125L160.799 88.0196C162.081 89.3015 163.61 90.0382 165.36 90.184L165.443 89.1875ZM161.506 87.3125L162.469 87.0449C161.789 84.5968 160.429 82.4671 158.425 80.663L157.756 81.4062L157.087 82.1495C158.832 83.7204 159.972 85.5282 160.542 87.5801L161.506 87.3125ZM157.756 81.4062L158.425 80.663C156.571 78.9943 154.842 77.2965 153.239 75.5695L152.506 76.25L151.773 76.9305C153.419 78.7035 155.191 80.4432 157.087 82.1495L157.756 81.4062ZM152.506 76.25L153.234 75.5646C151.165 73.3667 148.919 71.6373 146.494 70.3917L146.037 71.2812L145.58 72.1708C147.78 73.3002 149.846 74.8833 151.778 76.9354L152.506 76.25ZM146.037 71.2812L146.494 70.3917C144.146 69.1861 141.705 68.1081 139.169 67.1574L138.818 68.0938L138.467 69.0301C140.932 69.9544 143.303 71.0014 145.58 72.1708L146.037 71.2812ZM138.818 68.0938L139.587 67.4536C139.164 66.9463 138.962 66.2931 139.062 65.3917L138.068 65.2812L137.074 65.1708C136.925 66.5194 137.223 67.7412 138.05 68.7339L138.818 68.0938ZM138.068 65.2812L138.988 65.6752C139.261 65.0362 139.698 64.5992 140.337 64.3254L139.943 63.4062L139.549 62.4871C138.438 62.9633 137.625 63.7763 137.149 64.8873L138.068 65.2812ZM139.943 63.4062V64.4062H142.193V63.4062V62.4062H139.943V63.4062ZM142.193 63.4062L141.746 64.3007C144.108 65.4815 146.69 66.2309 149.484 66.5558L149.6 65.5625L149.715 64.5692C147.134 64.2691 144.779 63.581 142.641 62.5118L142.193 63.4062ZM149.6 65.5625L149.484 66.5558C152.226 66.8746 154.999 66.9701 157.801 66.8427L157.756 65.8438L157.71 64.8448C155.013 64.9674 152.348 64.8754 149.715 64.5692L149.6 65.5625ZM157.756 65.8438L157.827 66.8412C159.637 66.7119 161.416 66.4209 163.163 65.968L162.912 65L162.661 64.032C161.033 64.4541 159.374 64.7256 157.685 64.8463L157.756 65.8438ZM162.912 65L163.163 65.968C164.962 65.5015 166.658 64.7356 168.248 63.6758L167.693 62.8438L167.139 62.0117C165.728 62.9519 164.237 63.6235 162.661 64.032L162.912 65ZM167.693 62.8438L168.588 63.291C169.695 61.0773 170.019 58.5529 169.621 55.7648L168.631 55.9062L167.641 56.0477C167.993 58.5096 167.692 60.6102 166.799 62.3965L167.693 62.8438ZM168.631 55.9062L169.602 55.668L167.165 45.7305L166.193 45.9688L165.222 46.207L167.66 56.1445L168.631 55.9062ZM166.193 45.9688V44.9688H165.068V45.9688V46.9688H166.193V45.9688ZM165.068 45.9688L164.885 44.9856C159.523 45.9833 154.098 46.8875 148.61 47.6982L148.756 48.6875L148.902 49.6768C154.414 48.8625 159.864 47.9542 165.251 46.9519L165.068 45.9688ZM148.756 48.6875L148.61 47.6982C143.121 48.509 137.602 49.2263 132.05 49.85L132.162 50.8438L132.274 51.8375C137.848 51.2112 143.39 50.491 148.902 49.6768L148.756 48.6875ZM132.162 50.8438L132.641 49.9659L130.578 48.8409L130.1 49.7188L129.621 50.5966L131.683 51.7216L132.162 50.8438ZM130.1 49.7188L130.88 49.0941C130.59 48.7314 130.429 48.2109 130.529 47.4053L129.537 47.2812L128.545 47.1572C128.396 48.3516 128.609 49.4561 129.319 50.3434L130.1 49.7188ZM129.537 47.2812L130.456 47.6752C130.73 47.0362 131.167 46.5992 131.806 46.3254L131.412 45.4062L131.018 44.4871C129.907 44.9633 129.094 45.7763 128.618 46.8873L129.537 47.2812ZM131.412 45.4062L131.502 46.4022C137.083 45.9005 142.633 45.2421 148.152 44.4268L148.006 43.4375L147.86 42.4482C142.379 43.2579 136.866 43.912 131.323 44.4103L131.412 45.4062ZM148.006 43.4375L148.152 44.4268C153.664 43.6125 159.114 42.7042 164.501 41.7019L164.318 40.7188L164.135 39.7356C158.773 40.7333 153.348 41.6375 147.86 42.4482L148.006 43.4375ZM164.318 40.7188H165.318V40.3438H164.318H163.318V40.7188H164.318ZM164.318 40.3438L165.264 40.0178L161.514 29.1428L160.568 29.4688L159.623 29.7947L163.373 40.6697L164.318 40.3438ZM160.568 29.4688V28.4688H159.818V29.4688V30.4688H160.568V29.4688ZM159.818 29.4688L159.673 28.4794C155.417 29.1053 151.223 29.7625 147.091 30.4511L147.256 31.4375L147.42 32.4239C151.539 31.7375 155.72 31.0822 159.964 30.4581L159.818 29.4688ZM147.256 31.4375L147.091 30.4511C142.983 31.1358 138.781 31.7272 134.484 32.2254L134.6 33.2188L134.715 34.2121C139.043 33.7103 143.278 33.1142 147.42 32.4239L147.256 31.4375ZM134.6 33.2188L135.078 32.3409L133.016 31.2159L132.537 32.0938L132.058 32.9716L134.121 34.0966L134.6 33.2188ZM132.537 32.0938L133.318 31.4691C133.028 31.1064 132.866 30.5859 132.967 29.7803L131.975 29.6562L130.982 29.5322C130.833 30.7266 131.046 31.8311 131.756 32.7184L132.537 32.0938ZM131.975 29.6562L132.894 30.0502C133.168 29.4112 133.605 28.9742 134.244 28.7004L133.85 27.7812L133.456 26.8621C132.345 27.3383 131.532 28.1513 131.055 29.2623L131.975 29.6562ZM133.85 27.7812L133.939 28.7773C138.152 28.3999 142.273 27.8653 146.3 27.173L146.131 26.1875L145.961 25.202C141.989 25.8847 137.922 26.4126 133.76 26.7852L133.85 27.7812ZM146.131 26.1875L146.3 27.173C150.284 26.4884 154.33 25.897 158.439 25.399L158.318 24.4062L158.198 23.4135C154.057 23.9155 149.978 24.5116 145.961 25.202L146.131 26.1875ZM158.318 24.4062H159.318V24.0312H158.318H157.318V24.4062H158.318ZM158.318 24.0312L159.255 23.6801C158.5 21.6684 157.714 19.6877 156.897 17.7383L155.975 18.125L155.052 18.5117C155.86 20.4373 156.636 22.3941 157.382 24.3824L158.318 24.0312ZM155.975 18.125L156.901 17.7486C156.115 15.8139 155.541 13.8193 155.178 11.7637L154.193 11.9375L153.209 12.1113C153.596 14.3057 154.209 16.4361 155.048 18.5014L155.975 18.125ZM154.193 11.9375L155.104 12.3513L156.041 10.2888L155.131 9.875L154.22 9.4612L153.283 11.5237L154.193 11.9375ZM155.131 9.875L155.771 10.6432C156.278 10.2205 156.931 10.0187 157.833 10.1189L157.943 9.125L158.054 8.13112C156.705 7.98128 155.483 8.27946 154.491 9.10678L155.131 9.875ZM157.943 9.125L157.549 10.0441C158.188 10.318 158.625 10.7549 158.899 11.3939L159.818 11L160.738 10.6061C160.261 9.49506 159.448 8.68201 158.337 8.20586L157.943 9.125ZM159.818 11L158.832 11.1644C159.22 13.4921 159.868 15.6969 160.777 17.7758L161.693 17.375L162.61 16.9742C161.769 15.0531 161.167 13.0079 160.805 10.8356L159.818 11ZM161.693 17.375L160.777 17.7758C161.644 19.7563 162.448 21.7678 163.191 23.8105L164.131 23.4688L165.071 23.127C164.313 21.0447 163.493 18.9937 162.61 16.9742L161.693 17.375ZM164.131 23.4688L163.935 24.4493L164.872 24.6368L165.068 23.6562L165.264 22.6757L164.327 22.4882L164.131 23.4688ZM165.068 23.6562L165.198 24.6479C168.064 24.274 170.993 23.9313 173.984 23.6196L173.881 22.625L173.777 21.6304C170.769 21.9437 167.823 22.2885 164.939 22.6646L165.068 23.6562ZM173.881 22.625L173.984 23.6196C176.949 23.3108 179.977 23.1562 183.068 23.1562V22.1562V21.1562C179.91 21.1562 176.813 21.3142 173.777 21.6304L173.881 22.625ZM183.068 22.1562L182.697 23.0847C183.405 23.3679 183.854 23.8099 184.118 24.4252L185.037 24.0312L185.956 23.6373C185.47 22.5026 184.607 21.6946 183.44 21.2278L183.068 22.1562ZM185.037 24.0312H184.037V25.5312H185.037H186.037V24.0312H185.037ZM185.037 25.5312L184.118 25.1373C183.854 25.7526 183.405 26.1946 182.697 26.4778L183.068 27.4062L183.44 28.3347C184.607 27.8679 185.47 27.0599 185.956 25.9252L185.037 25.5312ZM183.068 27.4062L183.025 26.4072C180.135 26.5328 177.307 26.7214 174.54 26.9729L174.631 27.9688L174.721 28.9646C177.455 28.7161 180.252 28.5297 183.112 28.4053L183.068 27.4062ZM174.631 27.9688L174.54 26.9729C171.775 27.2242 169.01 27.5384 166.246 27.9154L166.381 28.9062L166.516 29.8971C169.251 29.5241 171.986 29.2133 174.721 28.9646L174.631 27.9688ZM166.381 28.9062H165.381V29.8438H166.381H167.381V28.9062H166.381ZM166.381 29.8438L165.436 30.1709L168.811 39.9209L169.756 39.5938L170.701 39.2666L167.326 29.5166L166.381 29.8438ZM169.756 39.5938V40.5938H170.693V39.5938V38.5938H169.756V39.5938ZM170.693 39.5938L170.951 40.56C172.811 40.0641 174.733 39.5989 176.72 39.1644L176.506 38.1875L176.292 37.2106C174.278 37.6511 172.326 38.1234 170.436 38.6275L170.693 39.5938ZM176.506 38.1875L176.72 39.1644C178.69 38.7333 180.66 38.3947 182.63 38.1485L182.506 37.1562L182.382 36.164C180.351 36.4178 178.321 36.7667 176.292 37.2106L176.506 38.1875ZM182.506 37.1562L182.134 38.0847C182.842 38.3679 183.292 38.8099 183.555 39.4252L184.475 39.0312L185.394 38.6373C184.907 37.5026 184.044 36.6946 182.877 36.2278L182.506 37.1562ZM184.475 39.0312H183.475V40.5312H184.475H185.475V39.0312H184.475ZM184.475 40.5312L183.538 40.1801C183.273 40.8864 182.787 41.368 181.986 41.6508L182.318 42.5938L182.651 43.5367C183.975 43.0695 184.926 42.1761 185.411 40.8824L184.475 40.5312ZM182.318 42.5938L182.112 41.6152L171.425 43.8652L171.631 44.8438L171.837 45.8223L182.524 43.5723L182.318 42.5938ZM171.631 44.8438H170.631V45.7812H171.631H172.631V44.8438H171.631ZM171.631 45.7812L170.673 46.0686C171.416 48.5444 172.066 51.0513 172.623 53.5894L173.6 53.375L174.576 53.1606C174.008 50.5737 173.346 48.0181 172.589 45.4939L171.631 45.7812ZM173.6 53.375L172.623 53.5894C173.162 56.0438 173.314 58.6604 173.072 61.4446L174.068 61.5312L175.065 61.6179C175.322 58.6521 175.163 55.8312 174.576 53.1606L173.6 53.375ZM174.068 61.5312L173.078 61.3898C172.743 63.7379 171.579 65.7004 169.517 67.3044L170.131 68.0938L170.745 68.8831C173.182 66.9871 174.644 64.5746 175.058 61.6727L174.068 61.5312ZM170.131 68.0938L169.643 67.2208C167.613 68.3551 165.4 69.1639 162.997 69.6444L163.193 70.625L163.389 71.6056C165.987 71.0861 168.398 70.2074 170.619 68.9667L170.131 68.0938ZM163.193 70.625L162.997 69.6444C160.564 70.1311 158.067 70.375 155.506 70.375V71.375V72.375C158.195 72.375 160.823 72.1189 163.389 71.6056L163.193 70.625ZM155.506 71.375H154.506V71.75H155.506H156.506V71.375H155.506ZM155.506 71.75L154.839 72.4952C157.19 74.5988 159.417 76.7947 161.52 79.0829L162.256 78.4062L162.992 77.7296C160.845 75.3928 158.572 73.1512 156.173 71.0048L155.506 71.75ZM162.256 78.4062L161.52 79.0829C163.628 81.3777 165.612 83.7025 167.471 86.0571L168.256 85.4375L169.041 84.8179C167.15 82.4225 165.133 80.0598 162.992 77.7296L162.256 78.4062ZM168.256 85.4375H167.256V87.125H168.256H169.256V85.4375H168.256ZM168.256 87.125L167.337 86.7311C167.063 87.3701 166.626 87.807 165.987 88.0809L166.381 89L166.775 89.9191C167.886 89.443 168.699 88.6299 169.175 87.5189L168.256 87.125ZM166.381 89L166.185 88.0194L165.247 88.2069L165.443 89.1875L165.639 90.1681L166.577 89.9806L166.381 89ZM256.756 88.25L256.614 89.24L256.665 89.2472L256.716 89.2492L256.756 88.25ZM252.256 85.4375L251.431 86.0022L251.446 86.0252L251.463 86.0472L252.256 85.4375ZM250.006 77L249.025 76.8039L249.01 76.882L249.007 76.9616L250.006 77ZM256.381 67.0625L257.027 67.8259L257.033 67.8205L257.039 67.8151L256.381 67.0625ZM267.256 63.2188L267.361 62.2242L267.338 62.2218L267.315 62.2205L267.256 63.2188ZM273.068 66.7812L273.98 66.3697L273.94 66.2826L273.885 66.2046L273.068 66.7812ZM274.381 69.6875L273.469 70.0991L273.65 70.4978L274.065 70.6362L274.381 69.6875ZM274.943 69.875L274.627 70.8237L275.344 71.0628L275.77 70.4378L274.943 69.875ZM282.818 50.2812L283.816 50.2169L283.803 50.015L283.713 49.834L282.818 50.2812ZM281.506 47.6562L282.4 47.209L282.317 47.042L282.179 46.9163L281.506 47.6562ZM270.818 45.5938L270.756 44.5957L270.697 44.5994L270.638 44.6101L270.818 45.5938ZM232.475 69.3125L233.15 70.0497L233.179 70.0234L233.205 69.9951L232.475 69.3125ZM230.225 71.375V72.375H230.614L230.9 72.1122L230.225 71.375ZM228.725 71.375L228.331 72.2941L228.519 72.375H228.725V71.375ZM226.85 69.5H225.85V69.7053L225.93 69.8939L226.85 69.5ZM226.85 68L225.987 67.4941L225.85 67.7284V68H226.85ZM242.6 43.7188L241.789 43.1333L241.786 43.1375L242.6 43.7188ZM255.068 18.125L256.03 18.3997L256.394 17.125H255.068V18.125ZM252.068 18.125V17.125H251.893L251.728 17.1847L252.068 18.125ZM231.537 27.9688L231.143 28.8879L231.517 29.0483L231.897 28.9017L231.537 27.9688ZM229.662 26.0938H228.662V26.299L228.743 26.4877L229.662 26.0938ZM229.662 24.2188L228.998 23.4713L228.662 23.7697V24.2188H229.662ZM236.975 19.25L237.422 20.1445L237.43 20.1402L236.975 19.25ZM244.756 14.9375L244.309 14.0431L244.274 14.0602L244.241 14.08L244.756 14.9375ZM256.568 12.6875L257.016 11.7931L256.856 11.7133L256.679 11.6936L256.568 12.6875ZM260.318 16.625L261.318 16.5842L261.31 16.4003L261.238 16.2311L260.318 16.625ZM260.506 21.2188L261.477 21.4562L261.511 21.319L261.505 21.178L260.506 21.2188ZM244.006 51.5938L243.145 51.0858L242.255 52.5938H244.006V51.5938ZM244.193 51.5938V52.5938H244.531L244.8 52.3887L244.193 51.5938ZM277.193 40.1562L277.27 39.1592L277.252 39.1578L277.234 39.1571L277.193 40.1562ZM285.725 44.0938L286.462 43.418L286.443 43.3972L286.422 43.3775L285.725 44.0938ZM288.35 55.1562L289.325 55.3758L289.343 55.2963L289.348 55.215L288.35 55.1562ZM282.162 69.125L281.341 68.5539L281.339 68.5564L282.162 69.125ZM271.943 80.9375L272.608 81.6849L272.617 81.6765L272.627 81.6678L271.943 80.9375ZM262.943 81.125L263.354 82.0369L263.419 82.0073L263.48 81.9687L262.943 81.125ZM270.443 74.375L271.252 74.9632L271.532 74.5778L271.41 74.1173L270.443 74.375ZM267.631 69.125L268.394 68.4791L268.242 68.2988L268.025 68.2059L267.631 69.125ZM264.818 68.75L264.694 67.7577L264.624 67.7665L264.555 67.7852L264.818 68.75ZM257.693 73.4375L256.928 72.7934L256.91 72.8149L256.893 72.8375L257.693 73.4375ZM255.443 78.5L254.463 78.3039L254.443 78.401V78.5H255.443ZM256.943 82.4375L256.196 83.1019L256.298 83.2163L256.429 83.295L256.943 82.4375ZM259.193 82.8125L259.335 83.8025L259.475 83.7824L259.604 83.7244L259.193 82.8125ZM256.756 88.25L256.897 87.26C255.447 87.0529 254.167 86.2815 253.048 84.8278L252.256 85.4375L251.463 86.0472C252.845 87.8435 254.565 88.9471 256.614 89.24L256.756 88.25ZM252.256 85.4375L253.081 84.8728C251.593 82.6977 250.887 80.1031 251.005 77.0384L250.006 77L249.007 76.9616C248.874 80.3969 249.669 83.4273 251.431 86.0022L252.256 85.4375ZM250.006 77L250.986 77.1961C251.334 75.4568 252.031 73.7965 253.088 72.211L252.256 71.6562L251.424 71.1015C250.231 72.891 249.427 74.7932 249.025 76.8039L250.006 77ZM252.256 71.6562L253.088 72.211C254.158 70.6052 255.47 69.1434 257.027 67.8259L256.381 67.0625L255.735 66.2991C254.042 67.7316 252.603 69.3323 251.424 71.1015L252.256 71.6562ZM256.381 67.0625L257.039 67.8151C258.452 66.5787 260.006 65.6416 261.704 64.9975L261.35 64.0625L260.995 63.1275C259.068 63.8584 257.309 64.9213 255.722 66.3099L256.381 67.0625ZM261.35 64.0625L261.704 64.9975C263.373 64.3647 265.199 64.0995 267.197 64.217L267.256 63.2188L267.315 62.2205C265.063 62.088 262.952 62.3853 260.995 63.1275L261.35 64.0625ZM267.256 63.2188L267.151 64.2133C269.212 64.4302 270.901 65.4447 272.251 67.3579L273.068 66.7812L273.885 66.2046C272.236 63.8678 270.05 62.5073 267.361 62.2242L267.256 63.2188ZM273.068 66.7812L272.157 67.1928L273.469 70.0991L274.381 69.6875L275.292 69.2759L273.98 66.3697L273.068 66.7812ZM274.381 69.6875L274.065 70.6362L274.627 70.8237L274.943 69.875L275.26 68.9263L274.697 68.7388L274.381 69.6875ZM274.943 69.875L275.77 70.4378C277.786 67.4761 279.677 64.42 281.441 61.2699L280.568 60.7812L279.696 60.2926C277.96 63.3925 276.1 66.3989 274.117 69.3122L274.943 69.875ZM280.568 60.7812L281.441 61.2699C283.293 57.9623 284.078 54.2675 283.816 50.2169L282.818 50.2812L281.82 50.3456C282.059 54.045 281.344 57.3502 279.696 60.2926L280.568 60.7812ZM282.818 50.2812L283.713 49.834L282.4 47.209L281.506 47.6562L280.611 48.1035L281.924 50.7285L282.818 50.2812ZM281.506 47.6562L282.179 46.9163C280.634 45.5125 278.795 44.7358 276.697 44.596L276.631 45.5938L276.564 46.5915C278.217 46.7017 279.627 47.3 280.833 48.3962L281.506 47.6562ZM276.631 45.5938L276.697 44.596C274.777 44.4679 272.796 44.4682 270.756 44.5957L270.818 45.5938L270.881 46.5918C272.841 46.4693 274.735 46.4696 276.564 46.5915L276.631 45.5938ZM270.818 45.5938L270.638 44.6101C262.998 46.0109 255.929 48.9408 249.44 53.3942L250.006 54.2188L250.572 55.0433C256.832 50.7467 263.639 47.9266 270.999 46.5774L270.818 45.5938ZM250.006 54.2188L249.44 53.3942C243.005 57.8107 237.106 62.8896 231.744 68.6299L232.475 69.3125L233.205 69.9951C238.469 64.3604 244.257 59.3768 250.572 55.0433L250.006 54.2188ZM232.475 69.3125L231.799 68.5753L229.549 70.6378L230.225 71.375L230.9 72.1122L233.15 70.0497L232.475 69.3125ZM230.225 71.375V70.375H228.725V71.375V72.375H230.225V71.375ZM228.725 71.375L229.119 70.4559C228.48 70.182 228.043 69.7451 227.769 69.1061L226.85 69.5L225.93 69.8939C226.407 71.0049 227.22 71.818 228.331 72.2941L228.725 71.375ZM226.85 69.5H227.85V68H226.85H225.85V69.5H226.85ZM226.85 68L227.712 68.5059C232.572 60.2193 237.806 52.1507 243.413 44.3L242.6 43.7188L241.786 43.1375C236.144 51.0368 230.877 59.1557 225.987 67.4941L226.85 68ZM242.6 43.7188L243.41 44.3042C249.165 36.3368 253.372 27.7007 256.03 18.3997L255.068 18.125L254.107 17.8503C251.514 26.9243 247.41 35.3507 241.789 43.1333L242.6 43.7188ZM255.068 18.125V17.125H252.068V18.125V19.125H255.068V18.125ZM252.068 18.125L251.728 17.1847C248.044 18.5184 244.549 20.1705 241.244 22.1411L241.756 23L242.268 23.8589C245.462 21.9545 248.842 20.3566 252.409 19.0653L252.068 18.125ZM241.756 23L241.244 22.1411C238.043 24.0494 234.687 25.681 231.177 27.0358L231.537 27.9688L231.897 28.9017C235.512 27.5065 238.969 25.8256 242.268 23.8589L241.756 23ZM231.537 27.9688L231.931 27.0496C231.292 26.7758 230.855 26.3388 230.581 25.6998L229.662 26.0938L228.743 26.4877C229.219 27.5987 230.032 28.4117 231.143 28.8879L231.537 27.9688ZM229.662 26.0938H230.662V24.2188H229.662H228.662V26.0938H229.662ZM229.662 24.2188L230.326 24.9662C232.513 23.023 234.877 21.4167 237.422 20.1444L236.975 19.25L236.527 18.3556C233.822 19.7083 231.312 21.4145 228.998 23.4713L229.662 24.2188ZM236.975 19.25L237.43 20.1402C240.137 18.7554 242.75 17.307 245.27 15.795L244.756 14.9375L244.241 14.08C241.761 15.568 239.187 16.9946 236.519 18.3597L236.975 19.25ZM244.756 14.9375L245.203 15.8319C246.88 14.9935 248.647 14.3642 250.507 13.9442L250.287 12.9688L250.067 11.9933C248.052 12.4483 246.132 13.1315 244.309 14.0431L244.756 14.9375ZM250.287 12.9688L250.507 13.9442C252.322 13.5343 254.303 13.442 256.458 13.6814L256.568 12.6875L256.679 11.6936C254.334 11.433 252.127 11.5282 250.067 11.9933L250.287 12.9688ZM256.568 12.6875L256.121 13.5819C257.666 14.3543 258.745 15.4928 259.399 17.0189L260.318 16.625L261.238 16.2311C260.392 14.2572 258.971 12.7707 257.016 11.7931L256.568 12.6875ZM260.318 16.625L259.319 16.6658L259.507 21.2595L260.506 21.2188L261.505 21.178L261.318 16.5842L260.318 16.625ZM260.506 21.2188L259.534 20.9813C258.189 26.4847 255.866 31.6226 252.559 36.3995L253.381 36.9688L254.203 37.538C257.646 32.5649 260.073 27.2028 261.477 21.4562L260.506 21.2188ZM253.381 36.9688L252.559 36.3995C249.171 41.2935 246.032 46.1889 243.145 51.0858L244.006 51.5938L244.867 52.1017C247.729 47.2486 250.841 42.394 254.203 37.538L253.381 36.9688ZM244.006 51.5938V52.5938H244.193V51.5938V50.5938H244.006V51.5938ZM244.193 51.5938L244.8 52.3887C249.474 48.8216 254.546 45.9936 260.019 43.9029L259.662 42.9688L259.305 42.0346C253.653 44.1939 248.413 47.1159 243.587 50.7988L244.193 51.5938ZM259.662 42.9688L260.019 43.9029C265.451 41.8278 271.159 40.9108 277.153 41.1554L277.193 40.1562L277.234 39.1571C270.978 38.9017 264.998 39.8597 259.305 42.0346L259.662 42.9688ZM277.193 40.1562L277.117 41.1533C280.122 41.3845 282.749 42.5906 285.027 44.81L285.725 44.0938L286.422 43.3775C283.825 40.8469 280.765 39.428 277.27 39.1592L277.193 40.1562ZM285.725 44.0938L284.987 44.7695C286.235 46.1306 286.95 47.6319 287.171 49.2884L288.162 49.1562L289.153 49.0241C288.874 46.9306 287.964 45.0569 286.462 43.418L285.725 44.0938ZM288.162 49.1562L287.171 49.2884C287.411 51.0929 287.473 53.0284 287.351 55.0975L288.35 55.1562L289.348 55.215C289.476 53.0341 289.413 50.9696 289.153 49.0241L288.162 49.1562ZM288.35 55.1562L287.374 54.9367C286.278 59.8075 284.269 64.3448 281.341 68.5539L282.162 69.125L282.983 69.6961C286.055 65.2802 288.171 60.505 289.325 55.3758L288.35 55.1562ZM282.162 69.125L281.339 68.5564C278.444 72.7461 275.084 76.6297 271.26 80.2072L271.943 80.9375L272.627 81.6678C276.552 77.9953 280.006 74.0039 282.985 69.6936L282.162 69.125ZM271.943 80.9375L271.279 80.1901C269.067 82.1565 266.798 83.8731 264.472 85.342L265.006 86.1875L265.54 87.033C267.964 85.5019 270.32 83.7185 272.608 81.6849L271.943 80.9375ZM265.006 86.1875L264.472 85.342C262.287 86.7217 259.742 87.3687 256.796 87.2508L256.756 88.25L256.716 89.2492C260.019 89.3813 262.974 88.6533 265.54 87.033L265.006 86.1875ZM262.943 81.125L263.48 81.9687C264.897 81.0668 266.279 80.0382 267.625 78.8843L266.975 78.125L266.324 77.3657C265.045 78.4618 263.739 79.4332 262.406 80.2813L262.943 81.125ZM266.975 78.125L267.625 78.8843C268.996 77.7094 270.206 76.4022 271.252 74.9632L270.443 74.375L269.635 73.7868C268.681 75.0978 267.578 76.2906 266.324 77.3657L266.975 78.125ZM270.443 74.375L271.41 74.1173C270.868 72.0861 269.855 70.2058 268.394 68.4791L267.631 69.125L266.867 69.7709C268.156 71.2942 269.019 72.9139 269.477 74.6327L270.443 74.375ZM267.631 69.125L268.025 68.2059C266.977 67.7568 265.86 67.6121 264.694 67.7577L264.818 68.75L264.942 69.7423C265.777 69.6379 266.535 69.7432 267.237 70.0441L267.631 69.125ZM264.818 68.75L264.555 67.7852C261.592 68.5935 259.047 70.2775 256.928 72.7934L257.693 73.4375L258.458 74.0816C260.34 71.8475 262.545 70.4065 265.081 69.7148L264.818 68.75ZM257.693 73.4375L256.893 72.8375C255.677 74.4594 254.866 76.2855 254.463 78.3039L255.443 78.5L256.424 78.6961C256.77 76.9645 257.46 75.4156 258.493 74.0375L257.693 73.4375ZM255.443 78.5H254.443C254.443 80.2458 255.034 81.7945 256.196 83.1019L256.943 82.4375L257.691 81.7731C256.853 80.8305 256.443 79.7542 256.443 78.5H255.443ZM256.943 82.4375L256.429 83.295C257.29 83.8118 258.282 83.9528 259.335 83.8025L259.193 82.8125L259.052 81.8225C258.354 81.9222 257.847 81.8132 257.458 81.58L256.943 82.4375ZM259.193 82.8125L259.604 83.7244L263.354 82.0369L262.943 81.125L262.533 80.2131L258.783 81.9006L259.193 82.8125Z" fill="#88BDF2" mask="url(#path-2-outside-1_163_34294)"/>
</svg>
