<svg width="150" height="150" viewBox="0 0 150 150" fill="none" xmlns="http://www.w3.org/2000/svg">
<g clip-path="url(#clip0_40_69)">
<rect width="150" height="150" fill="#F5F5F5"/>
<rect x="0.5" y="0.5" width="29" height="29" fill="white" fill-opacity="0.8" stroke="#EFF7FF"/>
<rect x="0.5" y="30.5" width="29" height="29" fill="white" fill-opacity="0.8" stroke="#EFF7FF"/>
<rect x="0.5" y="60.5" width="29" height="29" fill="white" fill-opacity="0.8" stroke="#EFF7FF"/>
<rect x="0.5" y="90.5" width="29" height="29" fill="white" fill-opacity="0.8" stroke="#EFF7FF"/>
<rect x="0.5" y="120.5" width="29" height="29" fill="white" fill-opacity="0.8" stroke="#EFF7FF"/>
<rect x="30.5" y="0.5" width="29" height="29" fill="white" fill-opacity="0.8" stroke="#EFF7FF"/>
<rect x="30.5" y="30.5" width="29" height="29" fill="white" fill-opacity="0.8" stroke="#EFF7FF"/>
<rect x="30.5" y="60.5" width="29" height="29" fill="white" fill-opacity="0.8" stroke="#EFF7FF"/>
<rect x="30.5" y="90.5" width="29" height="29" fill="white" fill-opacity="0.8" stroke="#EFF7FF"/>
<rect x="30.5" y="120.5" width="29" height="29" fill="white" fill-opacity="0.8" stroke="#EFF7FF"/>
<rect x="60.5" y="0.5" width="29" height="29" fill="white" fill-opacity="0.8" stroke="#EFF7FF"/>
<rect x="60.5" y="30.5" width="29" height="29" fill="white" fill-opacity="0.8" stroke="#EFF7FF"/>
<rect x="60.5" y="60.5" width="29" height="29" fill="white" fill-opacity="0.8" stroke="#EFF7FF"/>
<rect x="60.5" y="90.5" width="29" height="29" fill="white" fill-opacity="0.8" stroke="#EFF7FF"/>
<rect x="60.5" y="120.5" width="29" height="29" fill="white" fill-opacity="0.8" stroke="#EFF7FF"/>
<rect x="90.5" y="0.5" width="29" height="29" fill="white" fill-opacity="0.8" stroke="#EFF7FF"/>
<rect x="90.5" y="30.5" width="29" height="29" fill="white" fill-opacity="0.8" stroke="#EFF7FF"/>
<rect x="90.5" y="60.5" width="29" height="29" fill="white" fill-opacity="0.8" stroke="#EFF7FF"/>
<rect x="90.5" y="90.5" width="29" height="29" fill="white" fill-opacity="0.8" stroke="#EFF7FF"/>
<rect x="90.5" y="120.5" width="29" height="29" fill="white" fill-opacity="0.8" stroke="#EFF7FF"/>
<rect x="120.5" y="0.5" width="29" height="29" fill="white" fill-opacity="0.8" stroke="#EFF7FF"/>
<rect x="120.5" y="30.5" width="29" height="29" fill="white" fill-opacity="0.8" stroke="#EFF7FF"/>
<rect x="120.5" y="60.5" width="29" height="29" fill="white" fill-opacity="0.8" stroke="#EFF7FF"/>
<rect x="120.5" y="90.5" width="29" height="29" fill="white" fill-opacity="0.8" stroke="#EFF7FF"/>
<rect x="120.5" y="120.5" width="29" height="29" fill="white" fill-opacity="0.8" stroke="#EFF7FF"/>
</g>
<rect x="0.5" y="0.5" width="149" height="149" stroke="#E9F4FF"/>
<defs>
<clipPath id="clip0_40_69">
<rect width="150" height="150" fill="white"/>
</clipPath>
</defs>
</svg>
