<svg width="620" height="110" viewBox="0 0 620 110" fill="none" xmlns="http://www.w3.org/2000/svg">
<g filter="url(#filter0_d_179_21339)">
<rect width="608" height="98" transform="translate(6 3)" fill="#F3EE7B"/>
<path d="M81.8359 61.5625C80.9922 61.5312 80.1953 61.4219 79.4453 61.2344C78.6953 61.0469 78.0234 60.6406 77.4297 60.0156C77.1172 59.6406 76.9062 59.2344 76.7969 58.7969C76.6875 58.3594 76.6484 57.8828 76.6797 57.3672C76.8359 56.4609 77.1562 55.6328 77.6406 54.8828C78.125 54.1328 78.6797 53.4141 79.3047 52.7266C78.3672 51.5703 77.7031 50.3125 77.3125 48.9531C76.9219 47.5938 76.625 46.1875 76.4219 44.7344C76.4219 44.4844 76.5234 44.2812 76.7266 44.125C76.9141 43.9688 77.1484 43.9062 77.4297 43.9375C77.6484 44.0312 77.8047 44.1875 77.8984 44.4062V44.7812L77.8047 45.0156C78.0234 46.2188 78.2969 47.3984 78.625 48.5547C78.9531 49.7109 79.4922 50.7734 80.2422 51.7422L80.4297 51.7891C81.4609 50.9453 82.5703 50.1797 83.7578 49.4922C84.9453 48.8047 86.1797 48.3203 87.4609 48.0391C87.6797 48.1328 87.8359 48.2891 87.9297 48.5078V48.8828C87.8359 49.1016 87.6797 49.2578 87.4609 49.3516C86.3672 49.7578 85.3125 50.2344 84.2969 50.7812C83.2812 51.3281 82.3203 51.9766 81.4141 52.7266L81.3672 52.8672L81.6484 53.0547C81.7734 53.2109 81.8203 53.4141 81.7891 53.6641C81.6953 53.8828 81.5391 54.0391 81.3203 54.1328H80.9453L80.2891 53.7578C79.6641 54.3828 79.1406 55.0391 78.7188 55.7266C78.2969 56.4141 78.0703 57.2031 78.0391 58.0938C78.1016 58.5625 78.3203 58.9844 78.6953 59.3594C79.2891 59.7656 79.9375 60.0156 80.6406 60.1094C81.3438 60.2031 82.0703 60.2344 82.8203 60.2031C83.6641 60.1406 84.4844 60.0156 85.2812 59.8281C86.0781 59.6406 86.8828 59.4688 87.6953 59.3125C87.9141 59.4062 88.0703 59.5625 88.1641 59.7812V60.1562L87.7422 60.625C86.8047 60.875 85.8438 61.0938 84.8594 61.2812C83.875 61.4688 82.8672 61.5625 81.8359 61.5625ZM107.711 61.7969C107.492 61.7031 107.336 61.5469 107.242 61.3281V60.8594C107.805 60.0469 108.344 59.2188 108.859 58.375C109.375 57.5156 109.664 56.5859 109.727 55.5859C109.633 55.3672 109.477 55.2109 109.258 55.1172C108.789 54.9609 108.273 54.9141 107.711 54.9766C106.398 55.1953 105.141 55.5547 103.938 56.0547C102.734 56.5547 101.539 57.0859 100.352 57.6484C100.133 57.5547 99.9688 57.3984 99.8594 57.1797V56.8047L100.07 56.4766C101.414 55.6328 102.82 54.9531 104.289 54.4375C105.758 53.9219 107.289 53.6484 108.883 53.6172C109.539 53.6797 110.117 53.9609 110.617 54.4609C111.023 54.9922 111.18 55.6172 111.086 56.3359C110.867 57.3359 110.5 58.2734 109.984 59.1484C109.469 60.0078 108.914 60.8438 108.32 61.6562C108.164 61.7812 107.961 61.8281 107.711 61.7969ZM128.477 62.3125C127.945 62.2812 127.461 62.1484 127.023 61.9141C126.586 61.6797 126.164 61.3906 125.758 61.0469C125.57 60.8594 125.492 60.6094 125.523 60.2969C125.617 60.0781 125.773 59.9219 125.992 59.8281H126.367C126.711 60.1094 127.078 60.3594 127.469 60.5781C127.859 60.7969 128.289 60.9219 128.758 60.9531C129.289 60.8594 129.758 60.6094 130.164 60.2031C130.383 59.8281 130.516 59.4141 130.562 58.9609C130.609 58.4922 130.617 58.0234 130.586 57.5547C130.398 56.2422 129.953 55.0156 129.25 53.875C128.547 52.7344 128.055 51.5234 127.773 50.2422C127.836 49.9922 127.977 49.7734 128.195 49.5859C128.602 49.3047 129.008 49.0391 129.414 48.7891C129.82 48.5391 130.18 48.2109 130.492 47.8047V47.4297C130.336 47.0859 130.117 46.7656 129.836 46.4688C129.555 46.1562 129.227 45.9062 128.852 45.7188C128.477 45.625 128.102 45.4844 127.727 45.2969C127.57 45.1094 127.508 44.875 127.539 44.5938C127.633 44.375 127.789 44.2188 128.008 44.125H128.383C128.883 44.2188 129.352 44.3984 129.789 44.6641C130.227 44.9297 130.633 45.2656 131.008 45.6719C131.289 46.0156 131.516 46.3906 131.688 46.7969C131.859 47.1875 131.914 47.6328 131.852 48.1328C131.57 48.6953 131.172 49.1719 130.656 49.5625C130.141 49.9531 129.648 50.3203 129.18 50.6641C129.898 52.0078 130.578 53.3672 131.219 54.7422C131.859 56.1172 132.102 57.5938 131.945 59.1719C131.852 59.6094 131.734 60.0234 131.594 60.4141C131.453 60.8047 131.195 61.1562 130.82 61.4688C130.477 61.75 130.109 61.9531 129.719 62.0781C129.328 62.2031 128.914 62.2812 128.477 62.3125ZM122.5 62.0312C122.281 61.9375 122.125 61.7812 122.031 61.5625V60.6719C122.125 59.6094 122.312 58.5625 122.594 57.5312C122.875 56.4844 123.25 55.4922 123.719 54.5547C123.875 54.4297 124.086 54.3828 124.352 54.4141C124.57 54.5078 124.727 54.6641 124.82 54.8828V55.3516C124.383 56.3828 124.031 57.4531 123.766 58.5625C123.516 59.6562 123.297 60.7656 123.109 61.8906C122.953 62.0156 122.75 62.0625 122.5 62.0312ZM137.641 61.6094L137.172 61.2344C136.766 60.0156 136.391 58.7812 136.047 57.5312C135.719 56.2656 135.336 55.0234 134.898 53.8047C134.992 53.5859 135.148 53.4297 135.367 53.3359H135.836C136.133 53.4922 136.344 53.7266 136.469 54.0391C136.844 55.1953 137.195 56.375 137.523 57.5781C137.852 58.7656 138.172 59.9531 138.484 61.1406C138.391 61.3594 138.234 61.5156 138.016 61.6094H137.641ZM136.656 48.7891C136.141 48.7266 135.695 48.5078 135.32 48.1328C134.945 47.6953 134.773 47.1797 134.805 46.5859C134.836 46.0078 135 45.5 135.297 45.0625C135.594 44.625 135.805 44.1562 135.93 43.6562C136.289 43.5 136.688 43.4531 137.125 43.5156C137.719 43.6094 138.234 43.9375 138.672 44.5C139.141 45.125 139.328 45.8828 139.234 46.7734C139.141 47.4297 138.797 47.9766 138.203 48.4141C137.734 48.6641 137.219 48.7891 136.656 48.7891ZM137.453 47.2422C137.828 46.9297 137.969 46.5 137.875 45.9531L137.5 45.25L137.266 45.2031L136.703 45.4375C136.391 45.8438 136.219 46.3203 136.188 46.8672L136.328 47.1953L136.938 47.4297L137.453 47.2422Z" fill="black"/>
<path d="M221.727 61.7734C221.508 61.6797 221.352 61.5234 221.258 61.3047V60.8359C221.414 60.1484 221.547 59.4531 221.656 58.75C221.766 58.0469 221.883 57.3516 222.008 56.6641C220.633 56.3828 219.445 56.0781 218.445 55.75C217.445 55.4219 216.258 55.0547 214.883 54.6484C214.57 55.3359 214.227 56.0234 213.852 56.7109C213.477 57.3828 213.031 58.0156 212.516 58.6094C212.172 58.9219 211.766 59.0938 211.297 59.125C210.797 59.0625 210.375 58.8125 210.031 58.375C209.625 57.7812 209.289 57.1641 209.023 56.5234C208.758 55.8672 208.625 55.1641 208.625 54.4141C208.625 53.9453 208.812 53.5547 209.188 53.2422C209.594 52.8984 210.062 52.7188 210.594 52.7031C211.125 52.6875 211.656 52.6797 212.188 52.6797L214.039 52.9609C214.414 51.8672 214.844 50.7969 215.328 49.75C215.812 48.7031 216.18 47.6172 216.43 46.4922C215.742 46.2422 215.078 45.8984 214.438 45.4609C213.797 45.0234 213.141 44.6328 212.469 44.2891C212.344 44.1172 212.297 43.9062 212.328 43.6562C212.422 43.4062 212.594 43.2188 212.844 43.0938H213.43C214.055 43.6875 214.742 44.1484 215.492 44.4766C216.242 44.7891 216.945 45.2109 217.602 45.7422C217.789 46.1484 217.852 46.6016 217.789 47.1016C217.477 48.1953 217.094 49.25 216.641 50.2656C216.188 51.2812 215.773 52.3203 215.398 53.3828C216.742 53.7578 217.891 54.1094 218.844 54.4375C219.797 54.75 220.945 55.0312 222.289 55.2812C222.445 54.5312 222.633 53.7812 222.852 53.0312C223.07 52.2812 223.258 51.5312 223.414 50.7812L223.32 50.2656L223.508 49.9375C223.742 49.75 224.016 49.6875 224.328 49.75C224.547 49.8438 224.703 50 224.797 50.2188V50.9219C224.672 51.7344 224.484 52.5312 224.234 53.3125C223.984 54.0938 223.773 54.8906 223.602 55.7031C224.336 55.8594 225.039 56.0547 225.711 56.2891C226.383 56.5078 227.031 56.7891 227.656 57.1328C227.781 57.2891 227.828 57.4922 227.797 57.7422C227.703 57.9922 227.531 58.1641 227.281 58.2578H226.906C226.344 57.9766 225.766 57.7344 225.172 57.5312C224.578 57.3281 223.961 57.1797 223.32 57.0859C223.195 57.8672 223.07 58.6406 222.945 59.4062C222.82 60.1719 222.617 60.9141 222.336 61.6328C222.18 61.7578 221.977 61.8047 221.727 61.7734ZM211.625 57.5781C212 57.0781 212.344 56.5547 212.656 56.0078C212.984 55.4453 213.242 54.8672 213.43 54.2734C212.977 54.1484 212.516 54.0781 212.047 54.0625C211.578 54.0469 211.094 54.0391 210.594 54.0391L210.078 54.2734C209.984 54.4922 209.953 54.7422 209.984 55.0234C210.078 55.4922 210.227 55.9531 210.43 56.4062C210.633 56.8438 210.891 57.25 211.203 57.625L211.484 57.6719L211.625 57.5781ZM234.547 52.9609L234.031 52.6797C233.906 52.5234 233.859 52.3203 233.891 52.0703L234.266 51.6016C235.656 51.2578 237.055 51.0312 238.461 50.9219C239.867 50.8125 241.289 50.7109 242.727 50.6172H247.367C247.945 50.6172 248.469 50.7578 248.938 51.0391C249.062 51.1953 249.109 51.3984 249.078 51.6484C248.984 51.8672 248.828 52.0234 248.609 52.1172H248.141L247.367 51.9766H242.727C241.352 52.0703 239.977 52.1641 238.602 52.2578C237.227 52.3516 235.875 52.5859 234.547 52.9609Z" fill="black"/>
<path d="M333.492 62.4531C333.273 62.3594 333.117 62.2031 333.023 61.9844V61.5625L333.07 59.9219C333.008 59.3906 332.938 58.875 332.859 58.375C332.781 57.875 332.68 57.3672 332.555 56.8516H332.461C332.242 57.3359 331.93 57.7891 331.523 58.2109C331.117 58.6328 330.68 58.9531 330.211 59.1719L329.18 59.3125C328.398 59.2812 327.742 58.9531 327.211 58.3281C326.836 57.7656 326.68 57.1172 326.742 56.3828C326.773 55.6641 326.945 55.0078 327.258 54.4141C327.57 53.8203 328.008 53.2734 328.57 52.7734C328.883 52.4609 329.219 52.2266 329.578 52.0703C329.938 51.9141 330.352 51.8516 330.82 51.8828C331.289 51.9453 331.711 52.1641 332.086 52.5391L332.227 48.9297H331.758C329.852 49.1172 328.094 49.2812 326.484 49.4219C324.875 49.5625 323.141 49.8516 321.281 50.2891L320.766 50.0078C320.641 49.8516 320.594 49.6484 320.625 49.3984C320.719 49.1797 320.891 49.0078 321.141 48.8828C323.125 48.5078 324.977 48.2344 326.695 48.0625C328.414 47.8906 330.273 47.7266 332.273 47.5703L332.414 43.6094L332.367 43.1875C332.461 42.9688 332.617 42.8125 332.836 42.7188H333.305C333.523 42.8125 333.68 42.9688 333.773 43.1875V44.9688L333.633 47.4297H333.773L337.781 47.1484C338 47.2422 338.156 47.3984 338.25 47.6172V47.9922C338.156 48.2109 338 48.3672 337.781 48.4609L333.586 48.7891C333.555 49.7266 333.516 50.6641 333.469 51.6016C333.422 52.5391 333.336 53.4609 333.211 54.3672C333.617 55.5234 333.93 56.6953 334.148 57.8828C334.367 59.0547 334.461 60.2656 334.43 61.5156C334.398 61.8281 334.289 62.0938 334.102 62.3125C333.945 62.4375 333.742 62.4844 333.492 62.4531ZM329.977 57.7188C330.633 57.2344 331.102 56.6484 331.383 55.9609L331.758 54.3672C331.477 53.9297 331.117 53.5547 330.68 53.2422H330.305C329.93 53.3984 329.586 53.6406 329.273 53.9688C328.961 54.2969 328.711 54.6328 328.523 54.9766C328.211 55.5391 328.07 56.1797 328.102 56.8984L328.43 57.625C328.742 57.8438 329.086 57.9531 329.461 57.9531L329.977 57.7188ZM355.43 62.5469C355.055 62.5156 354.727 62.3594 354.445 62.0781C354.289 61.5156 353.977 61.0234 353.508 60.6016C353.039 60.1797 352.602 59.75 352.195 59.3125C351.695 58.7812 351.156 58.3672 350.578 58.0703C350 57.7734 349.398 57.5078 348.773 57.2734C348.617 57.0859 348.555 56.8516 348.586 56.5703C348.68 56.3516 348.836 56.1953 349.055 56.1016H349.617C350.18 56.3828 350.797 56.5625 351.469 56.6406C352.141 56.7188 352.82 56.7422 353.508 56.7109C353.945 56.6797 354.375 56.6094 354.797 56.5C355.219 56.3906 355.617 56.2109 355.992 55.9609C356.242 55.4609 356.32 54.8828 356.227 54.2266L355.617 51.7422H355.336C353.992 51.9922 352.633 52.2188 351.258 52.4219C349.883 52.625 348.5 52.8047 347.109 52.9609L346.594 52.6797C346.469 52.5234 346.422 52.3203 346.453 52.0703C346.547 51.8516 346.703 51.6953 346.922 51.6016C348.312 51.4766 349.695 51.3125 351.07 51.1094C352.445 50.9062 353.805 50.6797 355.148 50.4297V50.3359L354.211 47.6172H354.023C352.961 47.7734 351.914 47.9375 350.883 48.1094C349.852 48.2812 348.797 48.4297 347.719 48.5547L347.203 48.2734C347.078 48.1172 347.031 47.9141 347.062 47.6641C347.156 47.4453 347.312 47.2891 347.531 47.1953C348.578 47.1016 349.602 46.9688 350.602 46.7969C351.602 46.625 352.617 46.4766 353.648 46.3516V46.2578C353.461 45.7578 353.266 45.2656 353.062 44.7812C352.859 44.2812 352.711 43.7656 352.617 43.2344L352.852 42.7188C353.039 42.5625 353.273 42.5 353.555 42.5312C353.773 42.625 353.93 42.7812 354.023 43C354.117 43.5625 354.273 44.0938 354.492 44.5938C354.711 45.0938 354.914 45.6016 355.102 46.1172L355.336 46.1641C356.055 46.0703 356.789 45.9844 357.539 45.9062C358.289 45.8281 359.055 45.7891 359.836 45.7891C360.07 45.8828 360.234 46.0391 360.328 46.2578V46.6328C360.234 46.8516 360.07 47.0078 359.836 47.1016C359.117 47.1328 358.414 47.1797 357.727 47.2422C357.039 47.3047 356.352 47.3828 355.664 47.4766V47.7109L356.508 50.1484H356.742C357.211 50.0234 357.695 49.9062 358.195 49.7969C358.695 49.6875 359.195 49.6016 359.695 49.5391C359.93 49.6328 360.094 49.7891 360.188 50.0078V50.3828C360.094 50.6328 359.914 50.8047 359.648 50.8984L356.977 51.4609V51.6953C357.164 52.3203 357.328 52.9531 357.469 53.5938C357.609 54.2344 357.648 54.9141 357.586 55.6328C357.492 56.2891 357.164 56.8359 356.602 57.2734C356.07 57.5703 355.492 57.7812 354.867 57.9062C354.242 58.0312 353.602 58.0938 352.945 58.0938V58.1875C353.539 58.7188 354.102 59.2734 354.633 59.8516C355.164 60.4297 355.664 61.0156 356.133 61.6094V62.0312C356.039 62.25 355.883 62.4062 355.664 62.5L355.43 62.5469ZM378.258 62.3125C377.82 62.25 377.445 62.0156 377.133 61.6094C376.727 61.0156 376.539 60.3125 376.57 59.5C376.664 59.0312 376.852 58.5859 377.133 58.1641C377.414 57.7422 377.758 57.3594 378.164 57.0156C378.539 56.6875 378.953 56.4375 379.406 56.2656C379.859 56.0938 380.352 56.0234 380.883 56.0547C381.477 56.1172 381.961 56.4141 382.336 56.9453L382.664 57.6719L382.805 57.7188C383.305 56.9844 383.773 56.2266 384.211 55.4453C384.648 54.6641 384.836 53.7891 384.773 52.8203L384.445 52.1641C384.102 51.8516 383.695 51.6797 383.227 51.6484C382.758 51.6172 382.273 51.6172 381.773 51.6484C379.898 51.9922 378.164 52.7109 376.57 53.8047C374.977 54.8984 373.516 56.1562 372.188 57.5781L371.625 58.0938H371.25C371.031 58 370.875 57.8438 370.781 57.625V57.25C372 55.1719 373.312 53.1484 374.719 51.1797C376.141 49.2109 377.18 47.0781 377.836 44.7812H377.086C376.18 45.1094 375.32 45.5156 374.508 46C373.695 46.4844 372.844 46.8984 371.953 47.2422C371.734 47.1484 371.578 46.9922 371.484 46.7734V46.3047C372.047 45.8047 372.656 45.3906 373.312 45.0625C373.984 44.7188 374.633 44.3594 375.258 43.9844C375.695 43.7656 376.156 43.6016 376.641 43.4922C377.125 43.3828 377.648 43.3594 378.211 43.4219C378.648 43.6406 378.961 43.9688 379.148 44.4062L379.195 45.5547C378.852 46.9609 378.258 48.2734 377.414 49.4922C376.57 50.7109 375.789 51.9297 375.07 53.1484H375.117C376.305 52.2422 377.594 51.5234 378.984 50.9922C380.375 50.4609 381.836 50.2266 383.367 50.2891C384.18 50.3516 384.891 50.6797 385.5 51.2734C385.844 51.6484 386.047 52.0703 386.109 52.5391C386.172 53.0078 386.188 53.5078 386.156 54.0391C385.875 55.2891 385.359 56.4531 384.609 57.5312C383.875 58.5938 383.023 59.5781 382.055 60.4844C381.492 60.9844 380.914 61.4219 380.32 61.7969C379.727 62.1719 379.039 62.3438 378.258 62.3125ZM379.805 60.5312C380.148 60.3125 380.484 60.0625 380.812 59.7812C381.141 59.5 381.43 59.1875 381.68 58.8438C381.555 58.375 381.32 57.9375 380.977 57.5312C380.758 57.4375 380.523 57.4062 380.273 57.4375C379.586 57.625 378.992 58.0156 378.492 58.6094C378.211 58.9844 378.023 59.4062 377.93 59.875C377.93 60.25 378.055 60.5781 378.305 60.8594C378.461 60.9531 378.648 60.9844 378.867 60.9531L379.805 60.5312Z" fill="#0A0909"/>
<path d="M467.758 62.4531C467.477 62.4531 467.242 62.3281 467.055 62.0781L466.82 61.6094C465.758 60.6719 464.727 59.6875 463.727 58.6562C462.727 57.625 461.68 56.6641 460.586 55.7734L460 55.4922C459.875 55.3047 459.828 55.0859 459.859 54.8359C459.953 54.6172 460.109 54.4609 460.328 54.3672H460.82C461.289 54.5234 461.789 54.6094 462.32 54.625C462.852 54.6406 463.383 54.6641 463.914 54.6953C464.508 54.6953 465.055 54.6016 465.555 54.4141C466.055 54.2266 466.523 53.9297 466.961 53.5234C467.273 52.8672 467.383 52.1328 467.289 51.3203C467.227 50.6953 467.133 50.0938 467.008 49.5156C466.883 48.9375 466.758 48.3516 466.633 47.7578H466.445C465.008 47.8516 463.586 47.9844 462.18 48.1562C460.789 48.3281 459.391 48.4922 457.984 48.6484L457.469 48.3672C457.344 48.1797 457.297 47.9609 457.328 47.7109C457.422 47.4922 457.578 47.3359 457.797 47.2422H458.172L458.547 47.2891C459.812 47.1016 461.078 46.9297 462.344 46.7734C463.609 46.6172 464.898 46.5078 466.211 46.4453V46.2578C466.055 45.6953 465.875 45.1406 465.672 44.5938C465.469 44.0312 465.227 43.4844 464.945 42.9531L465.227 42.4375C465.383 42.3125 465.586 42.2656 465.836 42.2969C466.148 42.4531 466.383 42.6875 466.539 43C466.758 43.5312 466.961 44.0781 467.148 44.6406C467.336 45.1875 467.508 45.7422 467.664 46.3047L467.711 46.3516H471.836C472.445 46.3203 473.031 46.2266 473.594 46.0703L474.062 46.3984C474.188 46.5547 474.234 46.7578 474.203 47.0078C474.109 47.2266 473.953 47.3828 473.734 47.4766L471.836 47.7109H468.039V47.8984C468.195 48.6797 468.352 49.4609 468.508 50.2422C468.664 51.0234 468.711 51.8516 468.648 52.7266C468.617 53.1641 468.5 53.5703 468.297 53.9453C468.094 54.3203 467.805 54.6641 467.43 54.9766C466.836 55.4141 466.172 55.7109 465.438 55.8672C464.703 56.0234 463.945 56.0859 463.164 56.0547V56.1484C464.039 57.1016 464.945 58 465.883 58.8438C466.82 59.6875 467.695 60.5938 468.508 61.5625V61.9375C468.414 62.1562 468.258 62.3125 468.039 62.4062L467.758 62.4531ZM491.664 61.9375C491.414 61.8125 491.227 61.625 491.102 61.375C490.227 60.0938 489.383 58.7969 488.57 57.4844C487.758 56.1562 486.852 54.8828 485.852 53.6641C485.539 53.5078 485.227 53.3359 484.914 53.1484C484.789 52.9609 484.742 52.7422 484.773 52.4922C485.961 51.2422 487.102 49.9531 488.195 48.625C489.289 47.2969 490.086 45.8125 490.586 44.1719C490.492 44.0156 490.461 43.8281 490.492 43.6094C490.586 43.3906 490.742 43.2344 490.961 43.1406H491.336C491.617 43.2656 491.82 43.4688 491.945 43.75V44.7812C491.414 46.2656 490.656 47.6328 489.672 48.8828C488.688 50.1328 487.68 51.3516 486.648 52.5391C487.836 53.9141 488.906 55.375 489.859 56.9219C490.812 58.4531 491.695 59.9688 492.508 61.4688C492.414 61.6875 492.258 61.8438 492.039 61.9375H491.664ZM510.602 61.5156C510.07 61.4844 509.578 61.3672 509.125 61.1641C508.688 60.9609 508.281 60.6562 507.906 60.25C507.5 59.7188 507.242 59.1328 507.133 58.4922C507.023 57.8359 506.969 57.1641 506.969 56.4766C507.031 54.8516 507.414 53.2891 508.117 51.7891C508.82 50.2891 509.68 48.8828 510.695 47.5703C510.133 47.6016 509.578 47.5859 509.031 47.5234C508.5 47.4609 508.031 47.2422 507.625 46.8672C507.375 46.6172 507.266 46.3125 507.297 45.9531L507.578 45.4375C507.766 45.3125 507.984 45.2656 508.234 45.2969C508.453 45.3906 508.609 45.5469 508.703 45.7656V46C509.406 46.2031 510.148 46.2656 510.93 46.1875C511.43 46.1562 511.914 46.1016 512.383 46.0234C512.852 45.9453 513.32 45.875 513.789 45.8125C514.008 45.9062 514.164 46.0703 514.258 46.3047V46.7266C514.164 46.9453 514.008 47.1016 513.789 47.1953C513.102 47.3828 512.492 47.7422 511.961 48.2734C510.93 49.5859 510.062 50.9844 509.359 52.4688C508.672 53.9531 508.328 55.5391 508.328 57.2266C508.359 57.6641 508.43 58.1016 508.539 58.5391C508.648 58.9609 508.883 59.3281 509.242 59.6406C509.742 60.0156 510.336 60.1875 511.023 60.1562C511.773 60.0312 512.438 59.7109 513.016 59.1953C513.594 58.6797 514.164 58.1172 514.727 57.5078C515.633 56.1641 516.422 54.75 517.094 53.2656C517.766 51.7812 518.336 50.3047 518.805 48.8359C518.992 48.7109 519.211 48.6641 519.461 48.6953C519.68 48.7891 519.836 48.9453 519.93 49.1641V50.0547C519.773 50.3984 519.68 50.7734 519.648 51.1797C519.617 51.5859 519.602 52.0078 519.602 52.4453C519.633 52.9453 519.711 53.4297 519.836 53.8984C519.961 54.3672 520.18 54.7891 520.492 55.1641C520.93 55.5391 521.422 55.8203 521.969 56.0078C522.094 56.1641 522.141 56.3672 522.109 56.6172C522.016 56.8359 521.859 56.9922 521.641 57.0859H521.195C520.508 56.9297 519.898 56.5547 519.367 55.9609C519.086 55.6484 518.875 55.2969 518.734 54.9062C518.594 54.5156 518.492 54.1172 518.43 53.7109H518.336C517.867 54.8984 517.305 56.0469 516.648 57.1562C515.992 58.25 515.133 59.2344 514.07 60.1094C513.602 60.5781 513.07 60.9219 512.477 61.1406C511.883 61.3594 511.258 61.4844 510.602 61.5156ZM539.805 61.9844C539.367 61.9219 538.961 61.7969 538.586 61.6094C538.211 61.4219 537.867 61.1406 537.555 60.7656C536.992 59.9531 536.711 59.0469 536.711 58.0469C536.711 57.0312 536.602 56.0703 536.383 55.1641H536.008C535.445 55.3203 534.922 55.5703 534.438 55.9141C533.953 56.2578 533.492 56.6484 533.055 57.0859C532.43 57.7734 531.891 58.5156 531.438 59.3125C531 60.0938 530.641 60.9062 530.359 61.75C530.203 61.875 530 61.9219 529.75 61.8906C529.5 61.7656 529.328 61.5781 529.234 61.3281L529.188 60.8125C529.844 57.9219 530.758 55.1016 531.93 52.3516C533.117 49.6016 534.445 46.9375 535.914 44.3594C536.07 44.2344 536.273 44.1875 536.523 44.2188C536.742 44.3125 536.898 44.4688 536.992 44.6875V45.1094C535.898 46.875 534.977 48.7109 534.227 50.6172C533.477 52.5234 532.711 54.4141 531.93 56.2891H531.977C532.383 55.8203 532.828 55.4062 533.312 55.0469C533.797 54.6875 534.305 54.3672 534.836 54.0859C535.367 53.8984 535.945 53.8047 536.57 53.8047C536.914 53.8672 537.211 54.0547 537.461 54.3672C537.898 55.2734 538.086 56.2812 538.023 57.3906C537.961 58.4844 538.273 59.4375 538.961 60.25C539.367 60.5312 539.836 60.6562 540.367 60.625C541.836 60.4062 543.227 59.9062 544.539 59.125C545.867 58.3281 547.141 57.5391 548.359 56.7578C548.578 56.8516 548.734 57.0078 548.828 57.2266V57.6016C548.078 58.4297 547.234 59.1172 546.297 59.6641C545.359 60.2109 544.414 60.7344 543.461 61.2344C542.898 61.4531 542.312 61.6328 541.703 61.7734C541.094 61.9141 540.461 61.9844 539.805 61.9844Z" fill="#0A0909"/>
</g>
<defs>
<filter id="filter0_d_179_21339" x="0" y="0" width="620" height="110" filterUnits="userSpaceOnUse" color-interpolation-filters="sRGB">
<feFlood flood-opacity="0" result="BackgroundImageFix"/>
<feColorMatrix in="SourceAlpha" type="matrix" values="0 0 0 0 0 0 0 0 0 0 0 0 0 0 0 0 0 0 127 0" result="hardAlpha"/>
<feOffset dy="3"/>
<feGaussianBlur stdDeviation="3"/>
<feComposite in2="hardAlpha" operator="out"/>
<feColorMatrix type="matrix" values="0 0 0 0 0 0 0 0 0 0 0 0 0 0 0 0 0 0 0.1 0"/>
<feBlend mode="normal" in2="BackgroundImageFix" result="effect1_dropShadow_179_21339"/>
<feBlend mode="normal" in="SourceGraphic" in2="effect1_dropShadow_179_21339" result="shape"/>
</filter>
</defs>
</svg>
