<svg width="830" height="148" viewBox="0 0 830 148" fill="none" xmlns="http://www.w3.org/2000/svg">
<g filter="url(#filter0_d_179_21339)">
<rect width="817.061" height="136" transform="translate(6 3)" fill="#F3EE7B"/>
<rect x="70" y="73.2025" width="136.353" height="17" transform="rotate(-3.02792 70 73.2025)" fill="#88BDF2" fill-opacity="0.8"/>
<path d="M95.1958 85.9375C93.7896 85.8854 92.4614 85.7031 91.2114 85.3906C89.9614 85.0781 88.8416 84.401 87.8521 83.3594C87.3312 82.7344 86.9797 82.0573 86.7974 81.3281C86.6151 80.599 86.55 79.8047 86.6021 78.9453C86.8625 77.4349 87.3963 76.0547 88.2036 74.8047C89.0109 73.5547 89.9354 72.3568 90.9771 71.2109C89.4146 69.2839 88.3078 67.1875 87.6567 64.9219C87.0057 62.6562 86.5109 60.3125 86.1724 57.8906C86.1724 57.474 86.3416 57.1354 86.6802 56.875C86.9927 56.6146 87.3833 56.5104 87.8521 56.5625C88.2166 56.7188 88.4771 56.9792 88.6333 57.3438V57.9688L88.4771 58.3594C88.8416 60.3646 89.2974 62.3307 89.8442 64.2578C90.3911 66.1849 91.2896 67.9557 92.5396 69.5703L92.8521 69.6484C94.5708 68.2422 96.4198 66.9661 98.3989 65.8203C100.378 64.6745 102.435 63.8672 104.571 63.3984C104.935 63.5547 105.196 63.8151 105.352 64.1797V64.8047C105.196 65.1693 104.935 65.4297 104.571 65.5859C102.748 66.263 100.99 67.0573 99.2974 67.9688C97.6047 68.8802 96.0031 69.9609 94.4927 71.2109L94.4146 71.4453L94.8833 71.7578C95.0916 72.0182 95.1698 72.3568 95.1177 72.7734C94.9614 73.138 94.701 73.3984 94.3364 73.5547H93.7114L92.6177 72.9297C91.576 73.9714 90.7036 75.0651 90.0005 76.2109C89.2974 77.3568 88.9198 78.6719 88.8677 80.1562C88.9718 80.9375 89.3364 81.6406 89.9614 82.2656C90.951 82.9427 92.0317 83.3594 93.2036 83.5156C94.3755 83.6719 95.5864 83.724 96.8364 83.6719C98.2427 83.5677 99.6099 83.3594 100.938 83.0469C102.266 82.7344 103.607 82.4479 104.961 82.1875C105.326 82.3438 105.586 82.6042 105.743 82.9688V83.5938L105.04 84.375C103.477 84.7917 101.875 85.1562 100.235 85.4688C98.5942 85.7812 96.9146 85.9375 95.1958 85.9375ZM138.321 86.3281C137.956 86.1719 137.696 85.9115 137.54 85.5469V84.7656C138.477 83.4115 139.375 82.0312 140.235 80.625C141.094 79.1927 141.576 77.6432 141.68 75.9766C141.524 75.612 141.264 75.3516 140.899 75.1953C140.118 74.9349 139.258 74.8568 138.321 74.9609C136.133 75.3255 134.037 75.9245 132.032 76.7578C130.027 77.5911 128.034 78.4766 126.055 79.4141C125.691 79.2578 125.417 78.9974 125.235 78.6328V78.0078L125.586 77.4609C127.826 76.0547 130.17 74.9219 132.618 74.0625C135.066 73.2031 137.618 72.7474 140.274 72.6953C141.368 72.7995 142.331 73.2682 143.165 74.1016C143.842 74.987 144.102 76.0286 143.946 77.2266C143.581 78.8932 142.969 80.4557 142.11 81.9141C141.25 83.3464 140.326 84.7396 139.336 86.0938C139.076 86.3021 138.737 86.3802 138.321 86.3281ZM172.93 87.1875C172.045 87.1354 171.237 86.9141 170.508 86.5234C169.779 86.1328 169.076 85.651 168.399 85.0781C168.086 84.7656 167.956 84.349 168.008 83.8281C168.165 83.4635 168.425 83.2031 168.79 83.0469H169.415C169.987 83.5156 170.599 83.9323 171.25 84.2969C171.902 84.6615 172.618 84.8698 173.399 84.9219C174.284 84.7656 175.066 84.349 175.743 83.6719C176.107 83.0469 176.329 82.3568 176.407 81.6016C176.485 80.8203 176.498 80.0391 176.446 79.2578C176.133 77.0703 175.391 75.026 174.219 73.125C173.047 71.224 172.227 69.2057 171.758 67.0703C171.862 66.6536 172.097 66.2891 172.461 65.9766C173.139 65.5078 173.816 65.0651 174.493 64.6484C175.17 64.2318 175.769 63.6849 176.29 63.0078V62.3828C176.029 61.8099 175.665 61.276 175.196 60.7812C174.727 60.2604 174.18 59.8438 173.555 59.5312C172.93 59.375 172.305 59.1406 171.68 58.8281C171.42 58.5156 171.316 58.125 171.368 57.6562C171.524 57.2917 171.784 57.0312 172.149 56.875H172.774C173.607 57.0312 174.389 57.3307 175.118 57.7734C175.847 58.2161 176.524 58.776 177.149 59.4531C177.618 60.026 177.995 60.651 178.282 61.3281C178.568 61.9792 178.659 62.7214 178.555 63.5547C178.086 64.4922 177.422 65.2865 176.563 65.9375C175.704 66.5885 174.883 67.2005 174.102 67.7734C175.3 70.013 176.433 72.2786 177.5 74.5703C178.568 76.862 178.972 79.3229 178.711 81.9531C178.555 82.6823 178.36 83.3724 178.125 84.0234C177.891 84.6745 177.461 85.2604 176.836 85.7812C176.264 86.25 175.652 86.5885 175 86.7969C174.349 87.0052 173.659 87.1354 172.93 87.1875ZM162.969 86.7188C162.605 86.5625 162.344 86.3021 162.188 85.9375V84.4531C162.344 82.6823 162.657 80.9375 163.125 79.2188C163.594 77.474 164.219 75.8203 165 74.2578C165.261 74.0495 165.612 73.9714 166.055 74.0234C166.42 74.1797 166.68 74.4401 166.836 74.8047V75.5859C166.107 77.3047 165.521 79.0885 165.079 80.9375C164.662 82.7604 164.297 84.6094 163.985 86.4844C163.724 86.6927 163.386 86.7708 162.969 86.7188ZM188.204 86.0156L187.422 85.3906C186.745 83.3594 186.12 81.3021 185.547 79.2188C185 77.1094 184.362 75.0391 183.633 73.0078C183.79 72.6432 184.05 72.3828 184.415 72.2266H185.196C185.691 72.487 186.042 72.8776 186.25 73.3984C186.875 75.3255 187.461 77.2917 188.008 79.2969C188.555 81.276 189.089 83.2552 189.61 85.2344C189.454 85.599 189.193 85.8594 188.829 86.0156H188.204ZM186.563 64.6484C185.704 64.5443 184.961 64.1797 184.336 63.5547C183.711 62.8255 183.425 61.9661 183.477 60.9766C183.529 60.013 183.803 59.1667 184.297 58.4375C184.792 57.7083 185.144 56.9271 185.352 56.0938C185.951 55.8333 186.615 55.7552 187.344 55.8594C188.334 56.0156 189.193 56.5625 189.922 57.5C190.704 58.5417 191.016 59.8047 190.86 61.2891C190.704 62.3828 190.131 63.2943 189.141 64.0234C188.36 64.4401 187.5 64.6484 186.563 64.6484ZM187.891 62.0703C188.516 61.5495 188.75 60.8333 188.594 59.9219L187.969 58.75L187.579 58.6719L186.641 59.0625C186.12 59.7396 185.834 60.5339 185.782 61.4453L186.016 61.9922L187.032 62.3828L187.891 62.0703Z" fill="black"/>
<path d="M297.272 86.2891C296.907 86.1328 296.647 85.8724 296.491 85.5078V84.7266C296.751 83.5807 296.972 82.4219 297.155 81.25C297.337 80.0781 297.532 78.9193 297.741 77.7734C295.449 77.3047 293.47 76.7969 291.803 76.25C290.137 75.7031 288.157 75.0911 285.866 74.4141C285.345 75.5599 284.772 76.7057 284.147 77.8516C283.522 78.9714 282.78 80.026 281.92 81.0156C281.347 81.5365 280.67 81.8229 279.889 81.875C279.056 81.7708 278.353 81.3542 277.78 80.625C277.103 79.6354 276.543 78.6068 276.1 77.5391C275.657 76.4453 275.436 75.2734 275.436 74.0234C275.436 73.2422 275.749 72.5911 276.374 72.0703C277.051 71.4974 277.832 71.1979 278.717 71.1719C279.603 71.1458 280.488 71.1328 281.374 71.1328L284.459 71.6016C285.084 69.7786 285.801 67.9948 286.608 66.25C287.415 64.5052 288.027 62.6953 288.444 60.8203C287.298 60.4036 286.191 59.8307 285.124 59.1016C284.056 58.3724 282.962 57.7214 281.842 57.1484C281.634 56.862 281.556 56.5104 281.608 56.0938C281.764 55.6771 282.051 55.3646 282.467 55.1562H283.444C284.486 56.1458 285.631 56.9141 286.881 57.4609C288.131 57.9818 289.303 58.6849 290.397 59.5703C290.709 60.2474 290.814 61.0026 290.709 61.8359C290.189 63.6589 289.551 65.4167 288.795 67.1094C288.04 68.8021 287.35 70.5339 286.725 72.3047C288.965 72.9297 290.879 73.5156 292.467 74.0625C294.056 74.5833 295.97 75.0521 298.209 75.4688C298.47 74.2188 298.782 72.9688 299.147 71.7188C299.512 70.4688 299.824 69.2188 300.084 67.9688L299.928 67.1094L300.241 66.5625C300.631 66.25 301.087 66.1458 301.608 66.25C301.972 66.4062 302.233 66.6667 302.389 67.0312V68.2031C302.181 69.5573 301.868 70.8854 301.452 72.1875C301.035 73.4896 300.683 74.8177 300.397 76.1719C301.621 76.4323 302.793 76.7578 303.913 77.1484C305.032 77.513 306.113 77.9818 307.155 78.5547C307.363 78.8151 307.441 79.1536 307.389 79.5703C307.233 79.987 306.946 80.2734 306.53 80.4297H305.905C304.967 79.9609 304.004 79.5573 303.014 79.2188C302.025 78.8802 300.996 78.6328 299.928 78.4766C299.72 79.7786 299.512 81.0677 299.303 82.3438C299.095 83.6198 298.756 84.8568 298.288 86.0547C298.027 86.263 297.689 86.3411 297.272 86.2891ZM280.436 79.2969C281.061 78.4635 281.634 77.5911 282.155 76.6797C282.702 75.7422 283.131 74.7786 283.444 73.7891C282.689 73.5807 281.92 73.4635 281.139 73.4375C280.358 73.4115 279.551 73.3984 278.717 73.3984L277.858 73.7891C277.702 74.1536 277.65 74.5703 277.702 75.0391C277.858 75.8203 278.105 76.5885 278.444 77.3438C278.782 78.0729 279.212 78.75 279.733 79.375L280.202 79.4531L280.436 79.2969ZM318.639 71.6016L317.78 71.1328C317.571 70.8724 317.493 70.5339 317.545 70.1172L318.17 69.3359C320.488 68.763 322.819 68.3854 325.163 68.2031C327.506 68.0208 329.876 67.8516 332.272 67.6953H340.006C340.97 67.6953 341.842 67.9297 342.624 68.3984C342.832 68.6589 342.91 68.9974 342.858 69.4141C342.702 69.7786 342.441 70.0391 342.077 70.1953H341.295L340.006 69.9609H332.272C329.98 70.1172 327.689 70.2734 325.397 70.4297C323.105 70.5859 320.853 70.9766 318.639 71.6016Z" fill="black"/>
<path d="M440.881 87.4219C440.517 87.2656 440.256 87.0052 440.1 86.6406V85.9375L440.178 83.2031C440.074 82.3177 439.957 81.4583 439.827 80.625C439.696 79.7917 439.527 78.9453 439.319 78.0859H439.163C438.798 78.8932 438.277 79.6484 437.6 80.3516C436.923 81.0547 436.194 81.5885 435.413 81.9531L433.694 82.1875C432.392 82.1354 431.298 81.5885 430.413 80.5469C429.788 79.6094 429.527 78.5286 429.631 77.3047C429.683 76.1068 429.97 75.013 430.491 74.0234C431.012 73.0339 431.741 72.1224 432.678 71.2891C433.199 70.7682 433.759 70.3776 434.358 70.1172C434.957 69.8568 435.647 69.7526 436.428 69.8047C437.209 69.9089 437.913 70.2734 438.538 70.8984L438.772 64.8828H437.991C434.814 65.1953 431.884 65.4688 429.202 65.7031C426.519 65.9375 423.629 66.4193 420.53 67.1484L419.67 66.6797C419.462 66.4193 419.384 66.0807 419.436 65.6641C419.592 65.2995 419.879 65.013 420.295 64.8047C423.603 64.1797 426.689 63.724 429.553 63.4375C432.418 63.151 435.517 62.8776 438.85 62.6172L439.084 56.0156L439.006 55.3125C439.163 54.9479 439.423 54.6875 439.788 54.5312H440.569C440.933 54.6875 441.194 54.9479 441.35 55.3125V58.2812L441.116 62.3828H441.35L448.03 61.9141C448.394 62.0703 448.655 62.3307 448.811 62.6953V63.3203C448.655 63.6849 448.394 63.9453 448.03 64.1016L441.038 64.6484C440.986 66.2109 440.92 67.7734 440.842 69.3359C440.764 70.8984 440.621 72.4349 440.413 73.9453C441.09 75.8724 441.611 77.8255 441.975 79.8047C442.34 81.7578 442.496 83.776 442.444 85.8594C442.392 86.3802 442.209 86.8229 441.897 87.1875C441.637 87.3958 441.298 87.474 440.881 87.4219ZM435.022 79.5312C436.116 78.724 436.897 77.7474 437.366 76.6016L437.991 73.9453C437.522 73.2161 436.923 72.5911 436.194 72.0703H435.569C434.944 72.3307 434.371 72.7344 433.85 73.2812C433.329 73.8281 432.913 74.388 432.6 74.9609C432.079 75.8984 431.845 76.9661 431.897 78.1641L432.444 79.375C432.965 79.7396 433.538 79.9219 434.163 79.9219L435.022 79.5312ZM477.444 87.5781C476.819 87.526 476.272 87.2656 475.803 86.7969C475.543 85.8594 475.022 85.0391 474.241 84.3359C473.459 83.6328 472.73 82.9167 472.053 82.1875C471.22 81.3021 470.321 80.612 469.358 80.1172C468.394 79.6224 467.392 79.1797 466.35 78.7891C466.09 78.4766 465.986 78.0859 466.038 77.6172C466.194 77.2526 466.454 76.9922 466.819 76.8359H467.756C468.694 77.3047 469.722 77.6042 470.842 77.7344C471.962 77.8646 473.095 77.9036 474.241 77.8516C474.97 77.7995 475.686 77.6823 476.389 77.5C477.092 77.3177 477.756 77.0182 478.381 76.6016C478.798 75.7682 478.928 74.8047 478.772 73.7109L477.756 69.5703H477.288C475.048 69.987 472.782 70.3646 470.491 70.7031C468.199 71.0417 465.894 71.3411 463.577 71.6016L462.717 71.1328C462.509 70.8724 462.431 70.5339 462.483 70.1172C462.639 69.7526 462.9 69.4922 463.264 69.3359C465.582 69.1276 467.887 68.8542 470.178 68.5156C472.47 68.1771 474.736 67.7995 476.975 67.3828V67.2266L475.413 62.6953H475.1C473.329 62.9557 471.584 63.2292 469.866 63.5156C468.147 63.8021 466.389 64.0495 464.592 64.2578L463.733 63.7891C463.525 63.5286 463.446 63.1901 463.499 62.7734C463.655 62.4089 463.915 62.1484 464.28 61.9922C466.025 61.8359 467.73 61.6146 469.397 61.3281C471.064 61.0417 472.756 60.7943 474.475 60.5859V60.4297C474.163 59.5964 473.837 58.776 473.499 57.9688C473.16 57.1354 472.913 56.276 472.756 55.3906L473.147 54.5312C473.459 54.2708 473.85 54.1667 474.319 54.2188C474.683 54.375 474.944 54.6354 475.1 55C475.256 55.9375 475.517 56.8229 475.881 57.6562C476.246 58.4896 476.584 59.3359 476.897 60.1953L477.288 60.2734C478.486 60.1172 479.709 59.974 480.959 59.8438C482.209 59.7135 483.486 59.6484 484.788 59.6484C485.178 59.8047 485.452 60.0651 485.608 60.4297V61.0547C485.452 61.4193 485.178 61.6797 484.788 61.8359C483.59 61.888 482.418 61.9661 481.272 62.0703C480.126 62.1745 478.98 62.3047 477.834 62.4609V62.8516L479.241 66.9141H479.631C480.413 66.7057 481.22 66.5104 482.053 66.3281C482.887 66.1458 483.72 66.0026 484.553 65.8984C484.944 66.0547 485.217 66.3151 485.374 66.6797V67.3047C485.217 67.7214 484.918 68.0078 484.475 68.1641L480.022 69.1016V69.4922C480.334 70.5339 480.608 71.5885 480.842 72.6562C481.077 73.724 481.142 74.8568 481.038 76.0547C480.881 77.1484 480.334 78.0599 479.397 78.7891C478.512 79.2839 477.548 79.6354 476.506 79.8438C475.465 80.0521 474.397 80.1562 473.303 80.1562V80.3125C474.293 81.1979 475.23 82.1224 476.116 83.0859C477.001 84.0495 477.834 85.026 478.616 86.0156V86.7188C478.459 87.0833 478.199 87.3438 477.834 87.5L477.444 87.5781ZM515.491 87.1875C514.762 87.0833 514.137 86.6927 513.616 86.0156C512.939 85.026 512.626 83.8542 512.678 82.5C512.834 81.7188 513.147 80.9766 513.616 80.2734C514.084 79.5703 514.657 78.9323 515.334 78.3594C515.959 77.8125 516.65 77.3958 517.405 77.1094C518.16 76.8229 518.98 76.7057 519.866 76.7578C520.855 76.862 521.663 77.3568 522.288 78.2422L522.834 79.4531L523.069 79.5312C523.902 78.3073 524.683 77.0443 525.413 75.7422C526.142 74.4401 526.454 72.9818 526.35 71.3672L525.803 70.2734C525.23 69.7526 524.553 69.4661 523.772 69.4141C522.991 69.362 522.183 69.362 521.35 69.4141C518.225 69.987 515.334 71.1849 512.678 73.0078C510.022 74.8307 507.587 76.9271 505.374 79.2969L504.436 80.1562H503.811C503.446 80 503.186 79.7396 503.03 79.375V78.75C505.061 75.2865 507.249 71.9141 509.592 68.6328C511.962 65.3516 513.694 61.7969 514.788 57.9688H513.538C512.027 58.5156 510.595 59.1927 509.241 60C507.887 60.8073 506.467 61.4974 504.983 62.0703C504.618 61.9141 504.358 61.6536 504.202 61.2891V60.5078C505.139 59.6745 506.155 58.9844 507.249 58.4375C508.368 57.8646 509.449 57.2656 510.491 56.6406C511.22 56.276 511.988 56.0026 512.795 55.8203C513.603 55.638 514.475 55.599 515.413 55.7031C516.142 56.0677 516.663 56.6146 516.975 57.3438L517.053 59.2578C516.48 61.6016 515.491 63.7891 514.084 65.8203C512.678 67.8516 511.376 69.8828 510.178 71.9141H510.256C512.236 70.4036 514.384 69.2057 516.702 68.3203C519.019 67.4349 521.454 67.0443 524.006 67.1484C525.361 67.2526 526.545 67.7995 527.561 68.7891C528.134 69.4141 528.472 70.1172 528.577 70.8984C528.681 71.6797 528.707 72.513 528.655 73.3984C528.186 75.4818 527.327 77.4219 526.077 79.2188C524.853 80.9896 523.433 82.6302 521.819 84.1406C520.881 84.974 519.918 85.7031 518.928 86.3281C517.939 86.9531 516.793 87.2396 515.491 87.1875ZM518.069 84.2188C518.642 83.8542 519.202 83.4375 519.749 82.9688C520.295 82.5 520.777 81.9792 521.194 81.4062C520.986 80.625 520.595 79.8958 520.022 79.2188C519.657 79.0625 519.267 79.0104 518.85 79.0625C517.704 79.375 516.715 80.026 515.881 81.0156C515.413 81.6406 515.1 82.3438 514.944 83.125C514.944 83.75 515.152 84.2969 515.569 84.7656C515.829 84.9219 516.142 84.974 516.506 84.9219L518.069 84.2188Z" fill="#0A0909"/>
<path d="M621.991 87.4219C621.522 87.4219 621.131 87.2135 620.819 86.7969L620.428 86.0156C618.657 84.4531 616.939 82.8125 615.272 81.0938C613.605 79.375 611.861 77.7734 610.038 76.2891L609.061 75.8203C608.853 75.5078 608.775 75.1432 608.827 74.7266C608.983 74.362 609.243 74.1016 609.608 73.9453H610.428C611.209 74.2057 612.043 74.349 612.928 74.375C613.814 74.401 614.699 74.4401 615.584 74.4922C616.574 74.4922 617.486 74.3359 618.319 74.0234C619.152 73.7109 619.933 73.2161 620.663 72.5391C621.183 71.4453 621.366 70.2214 621.209 68.8672C621.105 67.8255 620.949 66.8229 620.741 65.8594C620.532 64.8958 620.324 63.9193 620.116 62.9297H619.803C617.407 63.0859 615.038 63.3073 612.694 63.5938C610.376 63.8802 608.045 64.1536 605.702 64.4141L604.842 63.9453C604.634 63.6328 604.556 63.2682 604.608 62.8516C604.764 62.487 605.025 62.2266 605.389 62.0703H606.014L606.639 62.1484C608.749 61.8359 610.858 61.5495 612.967 61.2891C615.077 61.0286 617.225 60.8464 619.413 60.7422V60.4297C619.152 59.4922 618.853 58.5677 618.514 57.6562C618.176 56.7188 617.772 55.8073 617.303 54.9219L617.772 54.0625C618.032 53.8542 618.371 53.776 618.788 53.8281C619.308 54.0885 619.699 54.4792 619.959 55C620.324 55.8854 620.663 56.7969 620.975 57.7344C621.288 58.6458 621.574 59.5703 621.834 60.5078L621.913 60.5859H628.788C629.803 60.5339 630.78 60.3776 631.717 60.1172L632.499 60.6641C632.707 60.9245 632.785 61.263 632.733 61.6797C632.577 62.0443 632.316 62.3047 631.952 62.4609L628.788 62.8516H622.459V63.1641C622.72 64.4661 622.98 65.7682 623.241 67.0703C623.501 68.3724 623.579 69.7526 623.475 71.2109C623.423 71.9401 623.228 72.6172 622.889 73.2422C622.551 73.8672 622.069 74.4401 621.444 74.9609C620.454 75.6901 619.347 76.1849 618.124 76.4453C616.9 76.7057 615.637 76.8099 614.334 76.7578V76.9141C615.793 78.5026 617.303 80 618.866 81.4062C620.428 82.8125 621.887 84.3229 623.241 85.9375V86.5625C623.084 86.9271 622.824 87.1875 622.459 87.3438L621.991 87.4219ZM661.834 86.5625C661.418 86.3542 661.105 86.0417 660.897 85.625C659.439 83.4896 658.032 81.3281 656.678 79.1406C655.324 76.9271 653.814 74.8047 652.147 72.7734C651.626 72.513 651.105 72.2266 650.584 71.9141C650.376 71.6016 650.298 71.237 650.35 70.8203C652.329 68.737 654.23 66.5885 656.053 64.375C657.876 62.1615 659.204 59.6875 660.038 56.9531C659.881 56.6927 659.829 56.3802 659.881 56.0156C660.038 55.651 660.298 55.3906 660.663 55.2344H661.288C661.756 55.4427 662.095 55.7812 662.303 56.25V57.9688C661.418 60.4427 660.155 62.7214 658.514 64.8047C656.874 66.888 655.194 68.9193 653.475 70.8984C655.454 73.1901 657.238 75.625 658.827 78.2031C660.415 80.7552 661.887 83.2812 663.241 85.7812C663.084 86.1458 662.824 86.4062 662.459 86.5625H661.834ZM693.397 85.8594C692.512 85.8073 691.691 85.612 690.936 85.2734C690.207 84.9349 689.53 84.4271 688.905 83.75C688.228 82.8646 687.798 81.888 687.616 80.8203C687.433 79.7266 687.342 78.6068 687.342 77.4609C687.446 74.7526 688.084 72.1484 689.256 69.6484C690.428 67.1484 691.861 64.8047 693.553 62.6172C692.616 62.6693 691.691 62.6432 690.78 62.5391C689.894 62.4349 689.113 62.0703 688.436 61.4453C688.019 61.0286 687.837 60.5208 687.889 59.9219L688.358 59.0625C688.67 58.8542 689.035 58.776 689.452 58.8281C689.816 58.9844 690.077 59.2448 690.233 59.6094V60C691.405 60.3385 692.642 60.4427 693.944 60.3125C694.777 60.2604 695.584 60.1693 696.366 60.0391C697.147 59.9089 697.928 59.7917 698.709 59.6875C699.074 59.8438 699.334 60.1172 699.491 60.5078V61.2109C699.334 61.5755 699.074 61.8359 698.709 61.9922C697.564 62.3047 696.548 62.9036 695.663 63.7891C693.944 65.9766 692.499 68.3073 691.327 70.7812C690.181 73.2552 689.608 75.8984 689.608 78.7109C689.66 79.4401 689.777 80.1693 689.959 80.8984C690.142 81.6016 690.532 82.2135 691.131 82.7344C691.965 83.3594 692.954 83.6458 694.1 83.5938C695.35 83.3854 696.457 82.8516 697.42 81.9922C698.384 81.1328 699.334 80.1953 700.272 79.1797C701.782 76.9401 703.097 74.5833 704.217 72.1094C705.337 69.6354 706.288 67.1745 707.069 64.7266C707.381 64.5182 707.746 64.4401 708.163 64.4922C708.527 64.6484 708.788 64.9089 708.944 65.2734V66.7578C708.683 67.3307 708.527 67.9557 708.475 68.6328C708.423 69.3099 708.397 70.013 708.397 70.7422C708.449 71.5755 708.579 72.3828 708.788 73.1641C708.996 73.9453 709.361 74.6484 709.881 75.2734C710.611 75.8984 711.431 76.3672 712.342 76.6797C712.551 76.9401 712.629 77.2786 712.577 77.6953C712.42 78.0599 712.16 78.3203 711.795 78.4766H711.053C709.907 78.2161 708.892 77.5911 708.006 76.6016C707.538 76.0807 707.186 75.4948 706.952 74.8438C706.717 74.1927 706.548 73.5286 706.444 72.8516H706.288C705.506 74.8307 704.569 76.7448 703.475 78.5938C702.381 80.4167 700.949 82.0573 699.178 83.5156C698.397 84.2969 697.512 84.8698 696.522 85.2344C695.532 85.599 694.491 85.8073 693.397 85.8594ZM742.069 86.6406C741.34 86.5365 740.663 86.3281 740.038 86.0156C739.413 85.7031 738.84 85.2344 738.319 84.6094C737.381 83.2552 736.913 81.7448 736.913 80.0781C736.913 78.3854 736.73 76.7839 736.366 75.2734H735.741C734.803 75.5339 733.931 75.9505 733.124 76.5234C732.316 77.0964 731.548 77.7474 730.819 78.4766C729.777 79.6224 728.879 80.8594 728.124 82.1875C727.394 83.4896 726.795 84.8438 726.327 86.25C726.066 86.4583 725.728 86.5365 725.311 86.4844C724.894 86.276 724.608 85.9635 724.452 85.5469L724.374 84.6875C725.467 79.8698 726.991 75.1693 728.944 70.5859C730.923 66.0026 733.137 61.5625 735.584 57.2656C735.845 57.0573 736.183 56.9792 736.6 57.0312C736.965 57.1875 737.225 57.4479 737.381 57.8125V58.5156C735.558 61.4583 734.022 64.5182 732.772 67.6953C731.522 70.8724 730.246 74.0234 728.944 77.1484H729.022C729.699 76.3672 730.441 75.6771 731.249 75.0781C732.056 74.4792 732.902 73.9453 733.788 73.4766C734.673 73.1641 735.637 73.0078 736.678 73.0078C737.251 73.112 737.746 73.4245 738.163 73.9453C738.892 75.4557 739.204 77.1354 739.1 78.9844C738.996 80.8073 739.517 82.3958 740.663 83.75C741.34 84.2188 742.121 84.4271 743.006 84.375C745.454 84.0104 747.772 83.1771 749.959 81.875C752.173 80.5469 754.295 79.2318 756.327 77.9297C756.691 78.0859 756.952 78.3464 757.108 78.7109V79.3359C755.858 80.7161 754.452 81.862 752.889 82.7734C751.327 83.6849 749.751 84.5573 748.163 85.3906C747.225 85.7552 746.249 86.0547 745.233 86.2891C744.217 86.5234 743.163 86.6406 742.069 86.6406Z" fill="#0A0909"/>
</g>
<defs>
<filter id="filter0_d_179_21339" x="0" y="0" width="829.061" height="148" filterUnits="userSpaceOnUse" color-interpolation-filters="sRGB">
<feFlood flood-opacity="0" result="BackgroundImageFix"/>
<feColorMatrix in="SourceAlpha" type="matrix" values="0 0 0 0 0 0 0 0 0 0 0 0 0 0 0 0 0 0 127 0" result="hardAlpha"/>
<feOffset dy="3"/>
<feGaussianBlur stdDeviation="3"/>
<feComposite in2="hardAlpha" operator="out"/>
<feColorMatrix type="matrix" values="0 0 0 0 0 0 0 0 0 0 0 0 0 0 0 0 0 0 0.1 0"/>
<feBlend mode="normal" in2="BackgroundImageFix" result="effect1_dropShadow_179_21339"/>
<feBlend mode="normal" in="SourceGraphic" in2="effect1_dropShadow_179_21339" result="shape"/>
</filter>
</defs>
</svg>
