<svg width="335" height="92" viewBox="0 0 335 92" fill="none" xmlns="http://www.w3.org/2000/svg">
<g filter="url(#filter0_f_179_27476)">
<path d="M18.1445 87.5325L13.7036 25.8791L18.1445 87.5325L7.13496 88.3256L15.2685 78.333L5.70752 68.5084L13.8014 57.9654L3.64567 39.8835L11.5017 26.0377L13.7036 25.8791L18.1445 87.5325ZM311.361 4.43872L315.802 66.0922L311.361 4.43872L322.37 3.6457L314.237 13.6382L323.798 23.4629L315.704 34.0059L325.86 52.0877L318.004 65.9336L315.802 66.0922L311.361 4.43872ZM15.924 56.7058L18.1445 87.5325L315.802 66.0922L313.581 35.2655L311.361 4.43872L13.7036 25.8791L15.924 56.7058Z" fill="#969292" fill-opacity="0.25"/>
</g>
<g filter="url(#filter1_n_179_27476)">
<path d="M17.19 70.1143V2.29383V70.1143H5.07921L14.7678 59.8201L5.07921 48.3148L14.7678 37.4151L5.07921 16.8268L14.7678 2.29383H17.19V70.1143ZM322.19 2.29383V70.1143V2.29383H334.301L324.612 12.588L334.301 24.0933L324.612 34.993L334.301 55.5813L324.612 70.1143H322.19V2.29383ZM17.19 36.204V70.1143H322.19V36.204V2.29383H17.19V36.204Z" fill="#FAF16B" fill-opacity="0.9"/>
</g>
<path d="M89.7221 52.2305C88.7325 52.0742 87.795 51.8529 86.9096 51.5664C86.0242 51.2799 85.2169 50.7461 84.4877 49.9648C83.6023 48.8711 83.0164 47.6602 82.7299 46.332C82.4435 44.9779 82.3263 43.5716 82.3784 42.1133L82.8471 38.5977H82.6127C81.6492 38.806 80.6987 38.9753 79.7612 39.1055C78.8237 39.2357 77.8862 39.4049 76.9487 39.6133C76.5841 39.457 76.3237 39.1966 76.1674 38.832V38.1289L76.7924 37.3477L83.3159 36.2539C83.5242 35.1081 83.7716 33.9883 84.058 32.8945C84.3445 31.8008 84.67 30.7331 85.0346 29.6914H84.8784C83.8888 29.8477 82.8862 29.9648 81.8705 30.043C80.881 30.1211 79.8914 30.1862 78.9018 30.2383C78.5372 30.082 78.2768 29.8216 78.1205 29.457V28.832L78.8237 28.0508L85.9721 27.4258C86.4929 26.2799 87.0398 25.1471 87.6127 24.0273C88.1856 22.8815 88.8106 21.7617 89.4877 20.668C89.8002 20.4076 90.1909 20.3034 90.6596 20.3555C91.0242 20.5117 91.2846 20.7721 91.4409 21.1367V21.7617C90.92 22.6471 90.4252 23.5326 89.9565 24.418C89.4877 25.2773 89.0711 26.1758 88.7065 27.1133H92.3784C92.8471 27.1133 93.2377 27.2956 93.5502 27.6602C93.7586 27.9206 93.8367 28.2591 93.7846 28.6758C93.6284 29.0404 93.3679 29.3008 93.0034 29.457H92.2221L92.144 29.3789H88.5502L87.5346 29.457C87.17 30.4987 86.8315 31.5534 86.519 32.6211C86.2065 33.6888 85.92 34.7695 85.6596 35.8633H86.1284C87.0138 35.7591 87.8992 35.6419 88.7846 35.5117C89.67 35.3815 90.6075 35.3424 91.5971 35.3945C91.9617 35.5508 92.2221 35.8112 92.3784 36.1758V36.8008C92.2221 37.1654 91.9617 37.4258 91.5971 37.582C90.5034 37.6341 89.4226 37.7122 88.3549 37.8164C87.2872 37.9206 86.2325 38.1029 85.1909 38.3633C85.0346 39.2487 84.9044 40.1471 84.8002 41.0586C84.6961 41.9701 84.644 42.9206 84.644 43.9102C84.6961 44.8477 84.8653 45.7331 85.1518 46.5664C85.4383 47.3737 85.894 48.1159 86.519 48.793C87.1961 49.2096 87.9122 49.5221 88.6674 49.7305C89.4226 49.9388 90.2169 50.0169 91.0502 49.9648C92.8731 49.8086 94.5659 49.3268 96.1284 48.5195C97.6909 47.7122 99.2273 46.8398 100.738 45.9023C101.102 46.0586 101.363 46.319 101.519 46.6836V47.3086C100.842 48.0898 100.087 48.7669 99.2534 49.3398C98.42 49.9128 97.5606 50.4076 96.6752 50.8242C95.6336 51.293 94.5398 51.6576 93.394 51.918C92.2481 52.1784 91.0242 52.2826 89.7221 52.2305ZM132.613 52.1523C132.248 51.9961 131.988 51.7357 131.831 51.3711V50.5898C132.769 49.2357 133.667 47.8555 134.527 46.4492C135.386 45.0169 135.868 43.4674 135.972 41.8008C135.816 41.4362 135.555 41.1758 135.191 41.0195C134.41 40.7591 133.55 40.681 132.613 40.7852C130.425 41.1497 128.329 41.7487 126.324 42.582C124.318 43.4154 122.326 44.3008 120.347 45.2383C119.983 45.082 119.709 44.8216 119.527 44.457V43.832L119.878 43.2852C122.118 41.8789 124.462 40.7461 126.91 39.8867C129.358 39.0273 131.91 38.5716 134.566 38.5195C135.66 38.6237 136.623 39.0924 137.456 39.9258C138.134 40.8112 138.394 41.8529 138.238 43.0508C137.873 44.7174 137.261 46.2799 136.402 47.7383C135.542 49.1706 134.618 50.5638 133.628 51.918C133.368 52.1263 133.029 52.2044 132.613 52.1523ZM169.488 51.7617C168.081 51.7096 166.753 51.5273 165.503 51.2148C164.253 50.9023 163.134 50.2253 162.144 49.1836C161.623 48.5586 161.272 47.8815 161.089 47.1523C160.907 46.4232 160.842 45.6289 160.894 44.7695C161.154 43.2591 161.688 41.8789 162.496 40.6289C163.303 39.3789 164.227 38.181 165.269 37.0352C163.706 35.1081 162.6 33.0117 161.949 30.7461C161.298 28.4805 160.803 26.1367 160.464 23.7148C160.464 23.2982 160.634 22.9596 160.972 22.6992C161.285 22.4388 161.675 22.3346 162.144 22.3867C162.509 22.543 162.769 22.8034 162.925 23.168V23.793L162.769 24.1836C163.134 26.1888 163.589 28.1549 164.136 30.082C164.683 32.0091 165.581 33.7799 166.831 35.3945L167.144 35.4727C168.863 34.0664 170.712 32.7904 172.691 31.6445C174.67 30.4987 176.727 29.6914 178.863 29.2227C179.227 29.3789 179.488 29.6393 179.644 30.0039V30.6289C179.488 30.9935 179.227 31.2539 178.863 31.4102C177.04 32.0872 175.282 32.8815 173.589 33.793C171.897 34.7044 170.295 35.7852 168.785 37.0352L168.706 37.2695L169.175 37.582C169.384 37.8424 169.462 38.181 169.41 38.5977C169.253 38.9622 168.993 39.2227 168.628 39.3789H168.003L166.91 38.7539C165.868 39.7956 164.996 40.8893 164.292 42.0352C163.589 43.181 163.212 44.4961 163.16 45.9805C163.264 46.7617 163.628 47.4648 164.253 48.0898C165.243 48.7669 166.324 49.1836 167.496 49.3398C168.667 49.4961 169.878 49.5482 171.128 49.4961C172.535 49.3919 173.902 49.1836 175.23 48.8711C176.558 48.5586 177.899 48.2721 179.253 48.0117C179.618 48.168 179.878 48.4284 180.035 48.793V49.418L179.331 50.1992C177.769 50.6159 176.167 50.9805 174.527 51.293C172.886 51.6055 171.206 51.7617 169.488 51.7617ZM214.019 53.3242C212.769 53.2201 211.701 52.6992 210.816 51.7617C210.035 50.8242 209.514 49.8086 209.253 48.7148C208.993 47.6211 208.68 46.5143 208.316 45.3945H208.16C207.014 46.5664 205.894 47.7253 204.8 48.8711C203.706 50.0169 202.587 51.1367 201.441 52.2305H200.816C200.451 52.0742 200.191 51.8138 200.035 51.4492V50.8242C201.597 48.8971 203.29 47.0612 205.113 45.3164C206.936 43.5456 208.628 41.6706 210.191 39.6914V39.457C209.41 39.3008 208.602 39.2487 207.769 39.3008C206.05 39.5091 204.371 39.8346 202.73 40.2773C201.089 40.7201 199.423 41.2018 197.73 41.7227L196.871 41.2539C196.662 40.9935 196.584 40.6549 196.636 40.2383L197.261 39.457L199.253 38.9102C199.358 35.8372 199.605 32.7904 199.996 29.7695C200.386 26.7227 201.024 23.7409 201.91 20.8242C202.222 20.5638 202.613 20.4596 203.081 20.5117L203.706 20.9805V21.1367H203.863C204.748 20.7201 205.66 20.3945 206.597 20.1602C207.535 19.9258 208.472 19.7044 209.41 19.4961H212.769C213.498 19.5482 214.162 19.7305 214.761 20.043C215.36 20.3555 215.92 20.7721 216.441 21.293C217.014 21.9701 217.443 22.6862 217.73 23.4414C218.016 24.1966 218.225 25.0169 218.355 25.9023V31.0977L218.081 34.0664V39.9258C217.925 40.2904 217.665 40.5508 217.3 40.707H216.675C216.311 40.5508 216.05 40.2904 215.894 39.9258L215.816 39.6133V34.0664L216.05 31.0977V25.9023C215.894 24.6523 215.373 23.5326 214.488 22.543C213.967 22.1784 213.394 21.918 212.769 21.7617H209.566C208.472 21.9701 207.417 22.2565 206.402 22.6211C205.386 22.9857 204.358 23.3503 203.316 23.7148L202.691 27.0352H202.847C204.305 26.7747 205.777 26.5273 207.261 26.293C208.746 26.0326 210.243 25.8503 211.753 25.7461H215.035C215.399 25.9023 215.66 26.1628 215.816 26.5273V27.1914C215.66 27.556 215.399 27.8164 215.035 27.9727C212.847 27.9727 210.712 28.1159 208.628 28.4023C206.545 28.6888 204.436 28.9883 202.3 29.3008L201.988 32.0352H202.3C204.384 31.7747 206.454 31.5013 208.511 31.2148C210.568 30.9284 212.665 30.7591 214.8 30.707C215.165 30.8633 215.425 31.1237 215.581 31.4883V32.1133C215.425 32.4779 215.165 32.7383 214.8 32.8945C212.561 32.9987 210.373 33.194 208.238 33.4805C206.102 33.7669 203.941 34.0404 201.753 34.3008L201.597 38.207H201.831C203.081 37.8424 204.358 37.556 205.66 37.3477C206.962 37.1393 208.316 37.0352 209.722 37.0352C210.66 37.0872 211.467 37.4779 212.144 38.207C212.456 38.7799 212.561 39.457 212.456 40.2383C212.196 40.8633 211.831 41.4622 211.363 42.0352C210.894 42.6081 210.451 43.181 210.035 43.7539C210.555 44.8477 210.946 45.9935 211.206 47.1914C211.467 48.3633 211.962 49.444 212.691 50.4336C213.368 50.9544 214.175 51.1628 215.113 51.0586C216.311 50.6419 217.483 50.1211 218.628 49.4961C219.8 48.8711 220.985 48.3503 222.183 47.9336C222.548 48.0898 222.808 48.3503 222.964 48.7148V49.3398C222.496 49.9648 221.936 50.4596 221.285 50.8242C220.634 51.1888 219.97 51.5273 219.292 51.8398C218.433 52.2565 217.587 52.6211 216.753 52.9336C215.92 53.2461 215.009 53.3763 214.019 53.3242ZM250.191 53.0117C249.462 52.9076 248.837 52.5169 248.316 51.8398C247.639 50.8503 247.326 49.6784 247.378 48.3242C247.535 47.543 247.847 46.8008 248.316 46.0977C248.785 45.3945 249.358 44.7565 250.035 44.1836C250.66 43.6367 251.35 43.2201 252.105 42.9336C252.86 42.6471 253.68 42.5299 254.566 42.582C255.555 42.6862 256.363 43.181 256.988 44.0664L257.535 45.2773L257.769 45.3555C258.602 44.1315 259.384 42.8685 260.113 41.5664C260.842 40.2643 261.154 38.806 261.05 37.1914L260.503 36.0977C259.93 35.5768 259.253 35.2904 258.472 35.2383C257.691 35.1862 256.884 35.1862 256.05 35.2383C252.925 35.8112 250.035 37.0091 247.378 38.832C244.722 40.6549 242.287 42.7513 240.074 45.1211L239.136 45.9805H238.511C238.147 45.8242 237.886 45.5638 237.73 45.1992V44.5742C239.761 41.1107 241.949 37.7383 244.292 34.457C246.662 31.1758 248.394 27.6211 249.488 23.793H248.238C246.727 24.3398 245.295 25.0169 243.941 25.8242C242.587 26.6315 241.167 27.3216 239.683 27.8945C239.318 27.7383 239.058 27.4779 238.902 27.1133V26.332C239.839 25.4987 240.855 24.8086 241.949 24.2617C243.068 23.6888 244.149 23.0898 245.191 22.4648C245.92 22.1003 246.688 21.8268 247.496 21.6445C248.303 21.4622 249.175 21.4232 250.113 21.5273C250.842 21.8919 251.363 22.4388 251.675 23.168L251.753 25.082C251.18 27.4258 250.191 29.6133 248.785 31.6445C247.378 33.6758 246.076 35.707 244.878 37.7383H244.956C246.936 36.2279 249.084 35.0299 251.402 34.1445C253.72 33.2591 256.154 32.8685 258.706 32.9727C260.061 33.0768 261.246 33.6237 262.261 34.6133C262.834 35.2383 263.173 35.9414 263.277 36.7227C263.381 37.5039 263.407 38.3372 263.355 39.2227C262.886 41.306 262.027 43.2461 260.777 45.043C259.553 46.8138 258.134 48.4544 256.519 49.9648C255.581 50.7982 254.618 51.5273 253.628 52.1523C252.639 52.7773 251.493 53.0638 250.191 53.0117ZM252.769 50.043C253.342 49.6784 253.902 49.2617 254.449 48.793C254.996 48.3242 255.477 47.8034 255.894 47.2305C255.686 46.4492 255.295 45.7201 254.722 45.043C254.358 44.8867 253.967 44.8346 253.55 44.8867C252.404 45.1992 251.415 45.8503 250.581 46.8398C250.113 47.4648 249.8 48.168 249.644 48.9492C249.644 49.5742 249.852 50.1211 250.269 50.5898C250.529 50.7461 250.842 50.7982 251.206 50.7461L252.769 50.043Z" fill="#0A0909"/>
<defs>
<filter id="filter0_f_179_27476" x="-7.15256e-06" y="-0.000190258" width="329.506" height="91.9716" filterUnits="userSpaceOnUse" color-interpolation-filters="sRGB">
<feFlood flood-opacity="0" result="BackgroundImageFix"/>
<feBlend mode="normal" in="SourceGraphic" in2="BackgroundImageFix" result="shape"/>
<feGaussianBlur stdDeviation="1.82285" result="effect1_foregroundBlur_179_27476"/>
</filter>
<filter id="filter1_n_179_27476" x="5.07922" y="2.29395" width="329.222" height="67.8203" filterUnits="userSpaceOnUse" color-interpolation-filters="sRGB">
<feFlood flood-opacity="0" result="BackgroundImageFix"/>
<feBlend mode="normal" in="SourceGraphic" in2="BackgroundImageFix" result="shape"/>
<feTurbulence type="fractalNoise" baseFrequency="0.093830667436122894 0.093830667436122894" stitchTiles="stitch" numOctaves="3" result="noise" seed="6740" />
<feComponentTransfer in="noise" result="coloredNoise1">
<feFuncR type="linear" slope="2" intercept="-0.5" />
<feFuncG type="linear" slope="2" intercept="-0.5" />
<feFuncB type="linear" slope="2" intercept="-0.5" />
<feFuncA type="discrete" tableValues="0 0 0 0 0 0 0 0 1 1 1 1 1 1 1 1 1 1 1 1 1 1 1 1 1 1 1 1 1 1 1 1 1 1 1 1 1 1 1 1 1 0 0 0 0 0 0 0 0 0 0 0 0 0 0 0 0 0 0 0 0 0 0 0 0 0 0 0 0 0 0 0 0 0 0 0 0 0 0 0 0 0 0 0 0 0 0 0 0 0 0 0 0 0 0 0 0 0 0 0 "/>
</feComponentTransfer>
<feComposite operator="in" in2="shape" in="coloredNoise1" result="noise1Clipped" />
<feComponentTransfer in="noise1Clipped" result="color1">
<feFuncA type="table" tableValues="0 0.05" />
</feComponentTransfer>
<feMerge result="effect1_noise_179_27476">
<feMergeNode in="shape" />
<feMergeNode in="color1" />
</feMerge>
</filter>
</defs>
</svg>
