<svg width="260" height="148" viewBox="0 0 260 148" fill="none" xmlns="http://www.w3.org/2000/svg">
<g filter="url(#filter0_d_163_33975)">
<rect width="248" height="136" transform="translate(6 3)" fill="#F3EE7B"/>
<path d="M89.9609 86.4062C88.9714 86.25 88.0339 86.0286 87.1484 85.7422C86.263 85.4557 85.4557 84.9219 84.7266 84.1406C83.8411 83.0469 83.2552 81.8359 82.9688 80.5078C82.6823 79.1536 82.5651 77.7474 82.6172 76.2891L83.0859 72.7734H82.8516C81.888 72.9818 80.9375 73.151 80 73.2812C79.0625 73.4115 78.125 73.5807 77.1875 73.7891C76.8229 73.6328 76.5625 73.3724 76.4062 73.0078V72.3047L77.0312 71.5234L83.5547 70.4297C83.763 69.2839 84.0104 68.1641 84.2969 67.0703C84.5833 65.9766 84.9089 64.9089 85.2734 63.8672H85.1172C84.1276 64.0234 83.125 64.1406 82.1094 64.2188C81.1198 64.2969 80.1302 64.362 79.1406 64.4141C78.776 64.2578 78.5156 63.9974 78.3594 63.6328V63.0078L79.0625 62.2266L86.2109 61.6016C86.7318 60.4557 87.2786 59.3229 87.8516 58.2031C88.4245 57.0573 89.0495 55.9375 89.7266 54.8438C90.0391 54.5833 90.4297 54.4792 90.8984 54.5312C91.263 54.6875 91.5234 54.9479 91.6797 55.3125V55.9375C91.1589 56.8229 90.6641 57.7083 90.1953 58.5938C89.7266 59.4531 89.3099 60.3516 88.9453 61.2891H92.6172C93.0859 61.2891 93.4766 61.4714 93.7891 61.8359C93.9974 62.0964 94.0755 62.4349 94.0234 62.8516C93.8672 63.2161 93.6068 63.4766 93.2422 63.6328H92.4609L92.3828 63.5547H88.7891L87.7734 63.6328C87.4089 64.6745 87.0703 65.7292 86.7578 66.7969C86.4453 67.8646 86.1589 68.9453 85.8984 70.0391H86.3672C87.2526 69.9349 88.138 69.8177 89.0234 69.6875C89.9089 69.5573 90.8464 69.5182 91.8359 69.5703C92.2005 69.7266 92.4609 69.987 92.6172 70.3516V70.9766C92.4609 71.3411 92.2005 71.6016 91.8359 71.7578C90.7422 71.8099 89.6615 71.888 88.5938 71.9922C87.526 72.0964 86.4714 72.2786 85.4297 72.5391C85.2734 73.4245 85.1432 74.3229 85.0391 75.2344C84.9349 76.1458 84.8828 77.0964 84.8828 78.0859C84.9349 79.0234 85.1042 79.9089 85.3906 80.7422C85.6771 81.5495 86.1328 82.2917 86.7578 82.9688C87.4349 83.3854 88.151 83.6979 88.9062 83.9062C89.6615 84.1146 90.4557 84.1927 91.2891 84.1406C93.112 83.9844 94.8047 83.5026 96.3672 82.6953C97.9297 81.888 99.4661 81.0156 100.977 80.0781C101.341 80.2344 101.602 80.4948 101.758 80.8594V81.4844C101.081 82.2656 100.326 82.9427 99.4922 83.5156C98.6589 84.0885 97.7995 84.5833 96.9141 85C95.8724 85.4688 94.7786 85.8333 93.6328 86.0938C92.487 86.3542 91.263 86.4583 89.9609 86.4062ZM126.602 86.4844C125.404 86.3802 124.245 86.1589 123.125 85.8203C122.005 85.4818 120.99 84.8698 120.078 83.9844C119.557 83.4635 119.18 82.8646 118.945 82.1875C118.711 81.5104 118.646 80.7682 118.75 79.9609C119.062 78.1901 119.766 76.5885 120.859 75.1562C121.979 73.724 123.19 72.3568 124.492 71.0547C123.19 68.9714 122.318 66.7188 121.875 64.2969C121.432 61.875 121.081 59.4531 120.82 57.0312C120.977 56.6667 121.237 56.4062 121.602 56.25H122.227L123.008 56.9531C123.268 59.0885 123.607 61.25 124.023 63.4375C124.44 65.599 125.169 67.6432 126.211 69.5703L126.445 69.6484C127.956 68.6068 129.492 67.5911 131.055 66.6016C132.617 65.612 134.362 65.1172 136.289 65.1172C136.654 65.2734 136.914 65.5339 137.07 65.8984V66.5234C136.914 66.888 136.654 67.1484 136.289 67.3047C134.674 67.4609 133.19 67.9557 131.836 68.7891C130.482 69.6224 129.154 70.4818 127.852 71.3672L127.773 71.6797C128.503 72.2526 128.893 72.9557 128.945 73.7891C128.789 74.1536 128.529 74.4141 128.164 74.5703H127.539C126.914 74.2057 126.419 73.7109 126.055 73.0859H125.82C124.57 74.2318 123.477 75.4557 122.539 76.7578C121.602 78.0599 121.107 79.5573 121.055 81.25C121.367 82.0833 121.914 82.7344 122.695 83.2031C123.529 83.6198 124.414 83.9062 125.352 84.0625C126.289 84.2188 127.279 84.2708 128.32 84.2188C130.352 84.1667 132.318 83.8542 134.219 83.2812C136.12 82.7083 138.034 82.2396 139.961 81.875C140.352 82.0312 140.625 82.2917 140.781 82.6562V83.2812L140.039 84.0625C137.852 84.6875 135.651 85.2604 133.438 85.7812C131.224 86.3021 128.945 86.5365 126.602 86.4844ZM144.922 68.3203L143.984 67.4609C143.724 66.5755 143.516 65.651 143.359 64.6875C143.203 63.724 143.125 62.7474 143.125 61.7578L143.672 60.5859C143.932 60.3516 144.271 60.2734 144.688 60.3516C145.052 60.5078 145.312 60.7682 145.469 61.1328V61.9922L145.391 62.6953C145.443 63.5286 145.573 64.349 145.781 65.1562C145.99 65.9635 146.172 66.7578 146.328 67.5391C146.172 67.9036 145.911 68.1641 145.547 68.3203H144.922ZM140.781 67.8516L139.648 66.9922C139.284 66.2109 139.036 65.3776 138.906 64.4922C138.776 63.6068 138.685 62.6953 138.633 61.7578L139.18 60.7422C139.44 60.5339 139.779 60.4557 140.195 60.5078C140.586 60.6641 140.859 60.9245 141.016 61.2891V61.9922L140.938 62.3047C140.99 63.1901 141.133 64.0104 141.367 64.7656C141.602 65.5208 141.875 66.2891 142.188 67.0703C142.031 67.4349 141.771 67.6953 141.406 67.8516H140.781ZM170.43 87.1875C169.701 87.0833 169.076 86.6927 168.555 86.0156C167.878 85.026 167.565 83.8542 167.617 82.5C167.773 81.7188 168.086 80.9766 168.555 80.2734C169.023 79.5703 169.596 78.9323 170.273 78.3594C170.898 77.8125 171.589 77.3958 172.344 77.1094C173.099 76.8229 173.919 76.7057 174.805 76.7578C175.794 76.862 176.602 77.3568 177.227 78.2422L177.773 79.4531L178.008 79.5312C178.841 78.3073 179.622 77.0443 180.352 75.7422C181.081 74.4401 181.393 72.9818 181.289 71.3672L180.742 70.2734C180.169 69.7526 179.492 69.4661 178.711 69.4141C177.93 69.362 177.122 69.362 176.289 69.4141C173.164 69.987 170.273 71.1849 167.617 73.0078C164.961 74.8307 162.526 76.9271 160.312 79.2969L159.375 80.1562H158.75C158.385 80 158.125 79.7396 157.969 79.375V78.75C160 75.2865 162.188 71.9141 164.531 68.6328C166.901 65.3516 168.633 61.7969 169.727 57.9688H168.477C166.966 58.5156 165.534 59.1927 164.18 60C162.826 60.8073 161.406 61.4974 159.922 62.0703C159.557 61.9141 159.297 61.6536 159.141 61.2891V60.5078C160.078 59.6745 161.094 58.9844 162.188 58.4375C163.307 57.8646 164.388 57.2656 165.43 56.6406C166.159 56.276 166.927 56.0026 167.734 55.8203C168.542 55.638 169.414 55.599 170.352 55.7031C171.081 56.0677 171.602 56.6146 171.914 57.3438L171.992 59.2578C171.419 61.6016 170.43 63.7891 169.023 65.8203C167.617 67.8516 166.315 69.8828 165.117 71.9141H165.195C167.174 70.4036 169.323 69.2057 171.641 68.3203C173.958 67.4349 176.393 67.0443 178.945 67.1484C180.299 67.2526 181.484 67.7995 182.5 68.7891C183.073 69.4141 183.411 70.1172 183.516 70.8984C183.62 71.6797 183.646 72.513 183.594 73.3984C183.125 75.4818 182.266 77.4219 181.016 79.2188C179.792 80.9896 178.372 82.6302 176.758 84.1406C175.82 84.974 174.857 85.7031 173.867 86.3281C172.878 86.9531 171.732 87.2396 170.43 87.1875ZM173.008 84.2188C173.581 83.8542 174.141 83.4375 174.688 82.9688C175.234 82.5 175.716 81.9792 176.133 81.4062C175.924 80.625 175.534 79.8958 174.961 79.2188C174.596 79.0625 174.206 79.0104 173.789 79.0625C172.643 79.375 171.654 80.026 170.82 81.0156C170.352 81.6406 170.039 82.3438 169.883 83.125C169.883 83.75 170.091 84.2969 170.508 84.7656C170.768 84.9219 171.081 84.974 171.445 84.9219L173.008 84.2188Z" fill="black"/>
</g>
<defs>
<filter id="filter0_d_163_33975" x="0" y="0" width="260" height="148" filterUnits="userSpaceOnUse" color-interpolation-filters="sRGB">
<feFlood flood-opacity="0" result="BackgroundImageFix"/>
<feColorMatrix in="SourceAlpha" type="matrix" values="0 0 0 0 0 0 0 0 0 0 0 0 0 0 0 0 0 0 127 0" result="hardAlpha"/>
<feOffset dy="3"/>
<feGaussianBlur stdDeviation="3"/>
<feComposite in2="hardAlpha" operator="out"/>
<feColorMatrix type="matrix" values="0 0 0 0 0 0 0 0 0 0 0 0 0 0 0 0 0 0 0.1 0"/>
<feBlend mode="normal" in2="BackgroundImageFix" result="effect1_dropShadow_163_33975"/>
<feBlend mode="normal" in="SourceGraphic" in2="effect1_dropShadow_163_33975" result="shape"/>
</filter>
</defs>
</svg>
